<?xml version="1.0" encoding="utf-8" ?>
<svg xmlns="http://www.w3.org/2000/svg" xmlns:cc="http://creativecommons.org/ns" xmlns:dc="http://purl.org/dc/elements/1.1/" xmlns:ev="http://www.w3.org/2001/xml-events" xmlns:inkscape="http://www.inkscape.org/namespaces/inkscape" xmlns:rdf="http://www.w3.org/1999/02/22-rdf-syntax-ns" xmlns:sodipodi="http://sodipodi.sourceforge.net/DTD/sodipodi-0.dtd" xmlns:xlink="http://www.w3.org/1999/xlink" baseProfile="tiny" height="10.0cm" version="1.2" viewBox="0 0 377.95275590551176 377.95275590551176" width="10.0cm">
  <metadata>
    <rdf:RDF>
      <cc:Work>
        <dc:format>image/svg+xml</dc:format>
        <dc:source>Vsketch with params {'__seed__': 0, 'r': 4.0, 'multiplier': 5, 'n': 600}</dc:source>
        <dc:date>2025-04-26T20:23:48.377971</dc:date>
      </cc:Work>
    </rdf:RDF>
  </metadata>
  <defs/>
  <g fill="none" id="layer1" inkscape:groupmode="layer" inkscape:label="1" stroke="#0000ff" stroke-width="1.1339" style="display:inline">
    <polyline points="334.522,223.9161 234.8081,330.1007 339.2717,186.3189 338.9766,176.879 338.0928,167.4758 335.9523,154.8127 332.6344,142.0155 328.2113,129.557 322.8881,117.8693 316.5922,106.6756 309.143,95.7538 301.0196,85.8065 291.8068,76.3249 281.8008,67.6845 271.3938,60.1591 260.0535,53.3638 248.163,47.5853 236.1715,42.9873 223.4657,39.3348 210.4895,36.8063 197.719,35.4447 189.413,35.1436 181.1029,35.2994 172.814,35.9116 164.5712,36.9785 156.3996,38.4967 148.3237,40.4617 140.368,42.8676 132.5565,45.707 124.9129,48.9715 117.4603,52.6511 110.2211,56.7346 103.2173,61.2099 96.47,66.0633 89.9997,71.2802 83.8258,76.8447 77.9671,82.7402 72.4412,88.9487 67.2648,95.4516 62.4537,102.229 58.0223,109.2607 53.984,116.5252 50.3511,124.0007 47.1344,131.6645 44.3438,139.4936 41.9877,147.4641 40.0732,155.5522 38.6061,163.7332 37.5907,171.9824 37.0303,180.275 36.9264,188.5859 37.2795,196.8899 38.0883,205.1619 39.3506,213.3771 41.0624,221.5104 43.2186,229.5373 45.8126,237.4337 48.8367,245.1755 52.2817,252.7395 56.1372,260.1026 60.3915,267.2428 65.0318,274.1384 70.044,280.7686 75.413,287.1132 81.1226,293.1533 87.1555,298.8704 93.4934,304.2473 100.1173,309.2678 107.0071,313.9167 114.142,318.1799 121.5003,322.0446 129.06,325.4991 136.798,328.5328 144.6911,331.1368 152.7154,333.303 160.8465,335.0249 169.0601,336.2975 177.3311,337.1166 185.6347,337.4801 193.9457,337.3866 202.239,336.8365 210.4895,335.8315 218.6723,334.3746 226.7627,332.4702 234.7362,330.124 245.7268,326.0822 256.7085,321.0308 267.2515,315.1182 276.9831,308.6048 286.4686,301.1121 295.0585,293.1533 303.0066,284.5534 310.4874,275.0586 317.1857,264.9965 322.8881,254.7685 327.7817,244.1298 331.9538,232.7848 335.2062,221.1428 337.4603,209.6516 338.8181,198.0203 339.2717,186.3189 65.7825,97.4569 320.5716,113.4868"/>
    <polyline points="319.8016,112.1035 61.2994,103.9798 158.2085,38.1204"/>
    <polyline points="159.762,37.8156 65.7825,97.4569 123.7208,323.1116"/>
    <polyline points="122.2918,322.4301 70.6008,91.1775 334.1203,225.4474 61.2994,268.658 37.9114,203.6952"/>
    <polyline points="38.1016,205.2669 65.7825,275.1809 339.2717,186.3189 234.8081,42.5371 269.0974,313.9653"/>
    <polyline points="267.7563,314.8066 242.269,45.1792 334.9077,150.2571"/>
    <polyline points="335.2773,151.7966 249.5814,48.2081 48.7223,127.7339"/>
    <polyline points="49.3434,126.2776 256.7253,51.6155 335.6307,153.3398"/>
    <polyline points="336.289,156.4368 270.4297,59.5278 85.7597,297.6029"/>
    <polyline points="84.6,296.5252 276.9526,64.0108 188.0906,337.5 99.2285,64.0108 324.8833,121.9491"/>
    <polyline points="324.2017,120.5202 92.9492,68.8291 39.2988,159.547"/>
    <polyline points="39.5873,157.9904 99.2285,64.0108 169.1425,36.3299"/>
    <polyline points="167.5729,36.5365 92.9492,68.8291 227.2191,332.3486 196.0028,337.2928 44.8059,234.5395"/>
    <polyline points="45.3187,236.0373 203.8933,336.6718 263.6811,317.2456 335.968,217.7512 69.6109,92.4131"/>
    <polyline points="68.634,93.6589 337.4104,209.9688 239.3013,44.0755"/>
    <polyline points="237.809,43.547 338.4435,202.1216 67.6703,94.9149"/>
    <polyline points="66.7197,96.181 339.0645,194.2311 339.2634,187.902"/>
    <polyline points="339.2385,189.485 338.4435,202.1216 231.7867,331.0475"/>
    <polyline points="233.2999,330.582 339.0645,194.2311 236.3112,43.0342"/>
    <polyline points="233.2999,42.0558 339.0645,178.4067 66.7197,276.4568"/>
    <polyline points="67.6703,277.7229 338.4435,170.5162 339.2385,183.1528"/>
    <polyline points="339.2634,184.7358 339.0645,178.4067 334.1203,147.1903 227.2191,40.2892 334.1203,147.1903 70.6008,281.4602 38.3082,206.8365"/>
    <polyline points="38.5313,208.4039 75.7411,287.4788 319.0172,110.7283 57.1639,110.7283 319.0172,110.7283 219.5229,38.4415 194.4214,35.2704"/>
    <polyline points="192.8393,35.2124 211.7405,36.9991 45.8472,135.1081"/>
    <polyline points="46.3912,133.6214 219.5229,38.4415 271.7529,312.2408"/>
    <polyline points="273.0669,311.3579 211.7405,36.9991 95.4306,305.7754"/>
    <polyline points="96.6866,306.7392 203.8933,35.966 263.6811,55.3922 49.9797,124.828 37.4397,173.6684"/>
    <polyline points="37.3154,175.2467 46.9508,132.1404 227.2191,40.2892 92.9492,303.8087 39.2988,213.0908"/>
    <polyline points="39.5873,214.6474 99.2285,308.627 188.0906,35.1378 276.9526,308.627 260.9226,53.8379"/>
    <polyline points="259.5313,53.0825 283.2319,303.8087 208.6082,336.1012"/>
    <polyline points="207.0386,336.3079 276.9526,308.627 51.2978,250.6887"/>
    <polyline points="51.9794,252.1176 283.2319,303.8087 148.962,40.2892 329.2303,132.1404 338.8657,175.2467"/>
    <polyline points="338.9733,176.8262 331.8723,139.6014 243.744,326.8835"/>
    <polyline points="245.2129,326.293 329.2303,132.1404 224.1523,39.5017"/>
    <polyline points="222.6129,39.1322 326.2014,124.828 338.7414,173.6684"/>
    <polyline points="338.6007,172.0915 322.7939,117.6841 221.0697,38.7787"/>
    <polyline points="217.9726,38.1204 314.8817,103.9798 56.3795,112.1035"/>
    <polyline points="55.6095,113.4868 310.3986,97.4569 338.0795,167.3709"/>
    <polyline points="338.2697,168.9426 314.8817,103.9798 251.0243,323.7782"/>
    <polyline points="252.4603,323.1116 310.3986,97.4569 36.9094,186.3189 310.3986,275.1809 252.4603,49.5261"/>
    <polyline points="251.0243,48.8596 314.8817,268.658 338.2697,203.6952"/>
    <polyline points="338.0795,205.2669 310.3986,275.1809 55.6095,259.1509"/>
    <polyline points="54.8541,257.7596 305.5803,281.4602 214.8624,335.1107"/>
    <polyline points="216.4191,334.8222 310.3986,275.1809 77.8843,82.8283"/>
    <polyline points="78.974,81.6799 305.5803,281.4602 42.0608,147.1903 133.9121,327.4586 41.2734,222.3806"/>
    <polyline points="41.6591,223.9161 141.373,330.1007 36.9094,186.3189 141.373,42.5371 284.457,302.8059"/>
    <polyline points="285.6716,301.7904 133.9121,45.1792 328.0647,129.1965"/>
    <polyline points="327.4588,127.7339 126.5997,48.2081 175.44,35.668"/>
    <polyline points="177.0183,35.5438 133.9121,45.1792 42.0608,225.4474 148.962,332.3486 42.0608,225.4474 37.1166,194.2311 36.9177,187.902"/>
    <polyline points="36.9426,189.485 37.7376,202.1216 57.1639,261.9094 319.0172,261.9094 57.1639,261.9094 156.6582,334.1963 181.7597,337.3674"/>
    <polyline points="183.3418,337.4254 164.4406,335.6387 280.7505,66.8624"/>
    <polyline points="281.9964,67.8393 156.6582,334.1963 329.7899,239.0164"/>
    <polyline points="330.3339,237.5297 164.4406,335.6387 103.1142,61.2799"/>
    <polyline points="104.4282,60.3969 156.6582,334.1963 42.4786,226.9745"/>
    <polyline points="42.9123,228.4971 164.4406,335.6387 81.1894,293.2201 294.9917,79.4177 81.1894,293.2201 38.7707,209.9688 36.984,191.0676"/>
    <polyline points="37.0421,192.6497 40.2131,217.7512 112.5,317.2456 112.5,55.3922 112.5,317.2456 326.2014,247.8098 73.6472,87.5341"/>
    <polyline points="74.6879,86.341 322.7939,254.9537 221.0697,333.8591"/>
    <polyline points="222.6129,333.5056 326.2014,247.8098 246.6756,46.9506"/>
    <polyline points="248.1318,47.5717 322.7939,254.9537 338.6007,200.5463"/>
    <polyline points="338.7414,198.9694 326.2014,247.8098 58.7756,264.6348"/>
    <polyline points="57.9626,263.2763 322.7939,254.9537 81.1894,293.2201 119.4558,51.6155 326.8377,126.2776"/>
    <polyline points="325.5499,123.3851 105.7514,59.5278 170.7142,36.1397"/>
    <polyline points="173.8632,35.8087 119.4558,51.6155 111.1331,316.4468"/>
    <polyline points="109.7747,315.6338 126.5997,48.2081 57.1639,261.9094 300.44,85.159 80.0758,292.0948"/>
    <polyline points="78.974,290.9579 305.5803,91.1775 42.0608,225.4474 314.8817,268.658 56.3795,260.5343"/>
    <polyline points="54.1133,256.3605 300.44,287.4788 57.1639,110.7283 156.6582,38.4415 181.7597,35.2704"/>
    <polyline points="183.3418,35.2124 164.4406,36.9991 42.9123,144.1407"/>
    <polyline points="43.3619,142.6228 172.2878,35.966 101.8094,310.4611"/>
    <polyline points="103.1142,311.3579 164.4406,36.9991 81.1894,79.4177 322.7939,117.6841 74.6879,286.2968"/>
    <polyline points="73.6472,285.1037 326.2014,124.828 112.5,55.3922 172.2878,35.966 279.4945,306.7392"/>
    <polyline points="280.7505,305.7754 164.4406,36.9991 330.3339,135.1081"/>
    <polyline points="329.7899,133.6214 156.6582,38.4415 104.4282,312.2408"/>
    <polyline points="107.0837,313.9653 141.373,42.5371 178.5978,35.4361"/>
    <polyline points="184.9245,35.171 172.2878,35.966 330.8624,136.6005"/>
    <polyline points="331.3752,138.0983 180.1783,35.345 186.5074,35.1461"/>
    <polyline points="189.6737,35.1461 196.0028,35.345 275.6669,309.5508"/>
    <polyline points="274.3717,310.4611 203.8933,35.966 332.8192,142.6228"/>
    <polyline points="332.3537,141.1096 196.0028,35.345 44.8059,138.0983"/>
    <polyline points="45.3187,136.6005 203.8933,35.966 191.2566,35.171"/>
    <polyline points="197.5833,35.4361 234.8081,42.5371 91.7241,302.8059"/>
    <polyline points="90.5095,301.7904 242.269,45.1792 199.1628,35.5438"/>
    <polyline points="200.7411,35.668 249.5814,48.2081 266.4064,315.6338"/>
    <polyline points="265.048,316.4468 256.7253,51.6155 202.3179,35.8087"/>
    <polyline points="205.4669,36.1397 270.4297,59.5278 50.6312,123.3851"/>
    <polyline points="51.2978,121.9491 276.9526,64.0108 336.5938,157.9904"/>
    <polyline points="336.8823,159.547 283.2319,68.8291 208.6082,36.5365"/>
    <polyline points="207.0386,36.3299 276.9526,64.0108 260.9226,318.7999"/>
    <polyline points="259.5313,319.5553 283.2319,68.8291 51.9794,120.5202"/>
    <polyline points="52.6759,119.0985 289.2505,73.9694 112.5,317.2456 172.2878,336.6718 43.3619,230.015"/>
    <polyline points="43.8274,231.5282 180.1783,337.2928 148.962,332.3486 329.2303,240.4974 224.1523,333.136"/>
    <polyline points="225.6878,332.7504 331.8723,233.0364 60.4441,267.3258"/>
    <polyline points="59.6028,265.9847 329.2303,240.4974 72.619,88.7379"/>
    <polyline points="71.6035,89.9524 331.8723,233.0364 243.744,45.7543"/>
    <polyline points="245.2129,46.3448 329.2303,240.4974 338.8657,197.3911"/>
    <polyline points="338.9733,195.8116 331.8723,233.0364 188.0906,337.5 44.3088,233.0364 37.2078,195.8116"/>
    <polyline points="37.3154,197.3911 46.9508,240.4974 227.2191,332.3486 334.1203,225.4474 227.2191,332.3486 270.4297,59.5278 262.3059,318.03"/>
    <polyline points="258.1322,320.2961 289.2505,73.9694 82.3147,294.3337"/>
    <polyline points="83.4516,295.4354 283.2319,68.8291 148.962,332.3486 105.7514,59.5278 113.8752,318.03"/>
    <polyline points="115.2585,318.7999 99.2285,64.0108 291.5811,296.5252"/>
    <polyline points="290.4214,297.6029 105.7514,59.5278 39.8921,156.4368"/>
    <polyline points="40.5504,153.3398 119.4558,51.6155 288.0684,299.7215"/>
    <polyline points="286.8754,300.7622 126.5997,48.2081 40.9038,151.7966"/>
    <polyline points="41.2734,150.2571 133.9121,45.1792 108.4248,314.8066"/>
    <polyline points="116.6498,319.5553 92.9492,68.8291 292.7295,295.4354"/>
    <polyline points="293.8664,294.3337 86.9306,73.9694 39.0266,161.1066"/>
    <polyline points="38.5313,164.2339 75.7411,85.159 120.8701,321.7336"/>
    <polyline points="118.0489,320.2961 86.9306,73.9694 166.0056,36.7596"/>
    <polyline points="162.8783,37.2549 75.7411,85.159 296.1053,292.0948"/>
    <polyline points="297.2071,290.9579 70.6008,91.1775 38.3082,165.8013"/>
    <polyline points="38.1016,167.3709 65.7825,97.4569 298.2968,289.8095"/>
    <polyline points="299.3745,288.6498 61.2994,103.9798 125.1568,323.7782"/>
    <polyline points="128.0493,325.0661 53.3872,117.6841 155.1114,38.7787"/>
    <polyline points="153.5682,39.1322 49.9797,124.828 317.4055,108.003"/>
    <polyline points="318.2185,109.3615 53.3872,117.6841 301.4932,286.2968"/>
    <polyline points="302.5339,285.1037 49.9797,124.828 129.5055,325.6872"/>
    <polyline points="130.9682,326.293 46.9508,132.1404 316.5783,106.6531"/>
    <polyline points="315.737,105.312 44.3088,139.6014 37.2078,176.8262"/>
    <polyline points="37.0421,179.9881 40.2131,154.8866 135.393,328.0182"/>
    <polyline points="136.8798,328.5623 38.7707,162.669 307.5471,278.9789"/>
    <polyline points="308.5108,277.7229 37.7376,170.5162 57.1639,110.7283 126.5997,324.4297 40.9038,220.8412"/>
    <polyline points="40.5504,219.298 119.4558,321.0222 81.1894,79.4177 38.7707,162.669 145.9124,41.1406"/>
    <polyline points="147.435,40.7069 40.2131,154.8866 314.0125,102.6566"/>
    <polyline points="313.1295,101.3425 38.7707,162.669 36.984,181.5702"/>
    <polyline points="36.9426,183.1528 37.7376,170.5162 138.3721,329.0908"/>
    <polyline points="139.8699,329.6036 37.1166,178.4067 36.9177,184.7358"/>
    <polyline points="37.5804,172.0915 53.3872,117.6841 294.9917,79.4177 337.4104,162.669 68.634,278.9789"/>
    <polyline points="69.6109,280.2247 335.968,154.8866 263.6811,55.3922 86.9306,298.6684 39.0266,211.5312"/>
    <polyline points="39.8921,216.201 105.7514,313.11 148.962,40.2892 42.0608,147.1903 148.962,40.2892 180.1783,35.345 43.8274,141.1096"/>
    <polyline points="42.4786,145.6633 156.6582,38.4415 281.9964,304.7985"/>
    <polyline points="278.2285,307.6897 180.1783,35.345 100.5142,309.5508"/>
    <polyline points="97.9526,307.6897 196.0028,35.345 227.2191,40.2892 270.4297,313.11 50.6312,249.2527"/>
    <polyline points="49.3434,246.3602 256.7253,321.0222 294.9917,79.4177 211.7405,36.9991 333.2688,144.1407"/>
    <polyline points="333.7025,145.6633 219.5229,38.4415 94.1847,304.7985"/>
    <polyline points="89.3057,300.7622 249.5814,48.2081 319.0172,261.9094 75.7411,85.159 322.0678,116.2773"/>
    <polyline points="321.327,114.8782 70.6008,91.1775 161.3187,37.5271"/>
    <polyline points="152.0288,39.5017 46.9508,132.1404 303.5621,283.8999"/>
    <polyline points="304.5776,282.6854 44.3088,139.6014 150.4933,39.8874"/>
    <polyline points="144.3944,41.5903 37.7376,170.5162 312.2328,100.0378"/>
    <polyline points="311.3225,98.7425 37.1166,178.4067 142.8812,42.0558"/>
    <polyline points="139.8699,43.0342 37.1166,194.2311 311.3225,273.8953"/>
    <polyline points="312.2328,272.6 37.7376,202.1216 144.3944,331.0475"/>
    <polyline points="142.8812,330.582 37.1166,194.2311 309.4614,96.181"/>
    <polyline points="308.5108,94.9149 37.7376,202.1216 138.3721,43.547"/>
    <polyline points="136.8798,44.0755 38.7707,209.9688 313.1295,271.2953"/>
    <polyline points="314.0125,269.9812 40.2131,217.7512 306.5702,92.4131"/>
    <polyline points="307.5471,93.6589 38.7707,209.9688 145.9124,331.4972"/>
    <polyline points="147.435,331.9309 40.2131,217.7512 135.393,44.6196"/>
    <polyline points="132.4371,45.7543 44.3088,233.0364 315.737,267.3258"/>
    <polyline points="316.5783,265.9847 46.9508,240.4974 303.5621,88.7379"/>
    <polyline points="302.5339,87.5341 49.9797,247.8098 129.5055,46.9506"/>
    <polyline points="128.0493,47.5717 53.3872,254.9537 155.1114,333.8591"/>
    <polyline points="153.5682,333.5056 49.9797,247.8098 317.4055,264.6348"/>
    <polyline points="318.2185,263.2763 53.3872,254.9537 301.4932,86.341"/>
    <polyline points="299.3745,83.988 61.2994,268.658 125.1568,48.8596"/>
    <polyline points="123.7208,49.5261 65.7825,275.1809 159.762,334.8222"/>
    <polyline points="158.2085,334.5174 61.2994,268.658 319.8016,260.5343"/>
    <polyline points="320.5716,259.1509 65.7825,275.1809 298.2968,82.8283"/>
    <polyline points="297.2071,81.6799 70.6008,281.4602 321.327,257.7596"/>
    <polyline points="322.0678,256.3605 75.7411,287.4788 296.1053,80.543"/>
    <polyline points="293.8664,78.3041 86.9306,298.6684 166.0056,335.8782"/>
    <polyline points="167.5729,336.1012 92.9492,303.8087 324.2017,252.1176"/>
    <polyline points="323.5052,253.5393 86.9306,298.6684 118.0489,52.3417"/>
    <polyline points="116.6498,53.0825 92.9492,303.8087 292.7295,77.2024"/>
    <polyline points="291.5811,76.1126 99.2285,308.627 324.8833,250.6887"/>
    <polyline points="325.5499,249.2527 105.7514,313.11 170.7142,336.4981"/>
    <polyline points="169.1425,336.3079 99.2285,308.627 115.2585,53.8379"/>
    <polyline points="113.8752,54.6078 105.7514,313.11 290.4214,75.0349"/>
    <polyline points="288.0684,72.9163 119.4558,321.0222 111.1331,56.191"/>
    <polyline points="109.7747,57.004 126.5997,324.4297 286.8754,71.8756"/>
    <polyline points="285.6716,70.8474 133.9121,327.4586 328.0647,243.4413"/>
    <polyline points="327.4588,244.9039 126.5997,324.4297 175.44,336.9698"/>
    <polyline points="177.0183,337.094 133.9121,327.4586 108.4248,57.8312"/>
    <polyline points="107.0837,58.6725 141.373,330.1007 328.6552,241.9724"/>
    <polyline points="326.8377,246.3602 119.4558,321.0222 173.8632,336.8291"/>
    <polyline points="178.5978,337.2017 141.373,330.1007 284.457,69.8319"/>
    <polyline points="279.4945,65.8986 172.2878,336.6718 330.8624,236.0373"/>
    <polyline points="331.3752,234.5395 180.1783,337.2928 100.5142,63.087"/>
    <polyline points="101.8094,62.1767 172.2878,336.6718 184.9245,337.4668"/>
    <polyline points="186.5074,337.4917 180.1783,337.2928 278.2285,64.9481"/>
    <polyline points="275.6669,63.087 196.0028,337.2928 97.9526,64.9481"/>
    <polyline points="96.6866,65.8986 203.8933,336.6718 332.8192,230.015"/>
    <polyline points="332.3537,231.5282 196.0028,337.2928 189.6737,337.4917"/>
    <polyline points="191.2566,337.4668 203.8933,336.6718 274.3717,62.1767"/>
    <polyline points="273.0669,61.2799 211.7405,335.6387 95.4306,66.8624"/>
    <polyline points="94.1847,67.8393 219.5229,334.1963 194.4214,337.3674"/>
    <polyline points="192.8393,337.4254 211.7405,335.6387 333.2688,228.4971"/>
    <polyline points="333.7025,226.9745 219.5229,334.1963 271.7529,60.3969"/>
    <polyline points="269.0974,58.6725 234.8081,330.1007 47.5259,241.9724"/>
    <polyline points="48.1164,243.4413 242.269,327.4586 334.1203,147.1903 61.2994,103.9798 37.9114,168.9426"/>
    <polyline points="41.6591,148.7217 141.373,42.5371 328.6552,130.6654"/>
    <polyline points="323.5052,119.0985 86.9306,73.9694 263.6811,317.2456 263.6811,55.3922 263.6811,317.2456 49.9797,247.8098 37.4397,198.9694"/>
    <polyline points="37.5804,200.5463 53.3872,254.9537 294.9917,293.2201 81.1894,79.4177 294.9917,293.2201 337.4104,209.9688 63.0516,271.2953"/>
    <polyline points="62.1686,269.9812 335.968,217.7512 339.139,192.6497"/>
    <polyline points="339.1971,191.0676 337.4104,209.9688 230.2687,331.4972"/>
    <polyline points="228.7461,331.9309 335.968,217.7512 240.7881,44.6196"/>
    <polyline points="231.7867,41.5903 338.4435,170.5162 237.809,329.0908"/>
    <polyline points="239.3013,328.5623 337.4104,162.669 230.2687,41.1406"/>
    <polyline points="228.7461,40.7069 335.968,154.8866 339.139,179.9881"/>
    <polyline points="339.1971,181.5702 337.4104,162.669 63.0516,101.3425"/>
    <polyline points="62.1686,102.6566 335.968,154.8866 240.7881,328.0182"/>
    <polyline points="236.3112,329.6036 339.0645,178.4067 64.8586,98.7425"/>
    <polyline points="63.9483,100.0378 338.4435,170.5162 319.0172,110.7283 249.5814,324.4297 48.7223,244.9039"/>
    <polyline points="46.3912,239.0164 219.5229,334.1963 319.0172,261.9094 338.4435,202.1216 63.9483,272.6"/>
    <polyline points="64.8586,273.8953 339.0645,194.2311 334.1203,225.4474 242.269,45.1792 48.1164,129.1965"/>
    <polyline points="47.5259,130.6654 234.8081,42.5371 334.522,148.7217"/>
    <polyline points="337.1545,161.1066 289.2505,73.9694 210.1755,36.7596"/>
    <polyline points="213.3028,37.2549 300.44,85.159 255.311,321.7336"/>
    <polyline points="253.8893,322.4301 305.5803,91.1775 54.8541,114.8782"/>
    <polyline points="54.1133,116.2773 300.44,85.159 337.6498,164.2339"/>
    <polyline points="337.8729,165.8013 305.5803,91.1775 214.8624,37.5271"/>
    <polyline points="216.4191,37.8156 310.3986,97.4569 77.8843,289.8095"/>
    <polyline points="76.8066,288.6498 314.8817,103.9798 42.0608,147.1903 37.1166,178.4067 309.4614,276.4568"/>
    <polyline points="306.5702,280.2247 40.2131,154.8866 112.5,55.3922 289.2505,298.6684 52.6759,253.5393"/>
    <polyline points="45.8472,237.5297 211.7405,335.6387 294.9917,293.2201 256.7253,51.6155 88.1127,299.7215"/>
    <polyline points="72.619,283.8999 329.2303,132.1404 59.6028,106.6531"/>
    <polyline points="58.7756,108.003 326.2014,124.828 246.6756,325.6872"/>
    <polyline points="248.1318,325.0661 322.7939,117.6841 57.9626,109.3615"/>
    <polyline points="60.4441,105.312 331.8723,139.6014 225.6878,39.8874"/>
    <polyline points="253.8893,50.2077 305.5803,281.4602 337.8729,206.8365"/>
    <polyline points="337.6498,208.4039 300.44,287.4788 255.311,50.9042"/>
    <polyline points="258.1322,52.3417 289.2505,298.6684 210.1755,335.8782"/>
    <polyline points="213.3028,335.3829 300.44,287.4788 80.0758,80.543"/>
    <polyline points="82.3147,78.3041 289.2505,298.6684 337.1545,211.5312"/>
    <polyline points="336.8823,213.0908 283.2319,303.8087 83.4516,77.2024"/>
    <polyline points="84.6,76.1126 276.9526,308.627 336.5938,214.6474"/>
    <polyline points="336.289,216.201 270.4297,313.11 205.4669,336.4981"/>
    <polyline points="202.3179,336.8291 256.7253,321.0222 88.1127,72.9163"/>
    <polyline points="89.3057,71.8756 249.5814,324.4297 200.7411,336.9698"/>
    <polyline points="199.1628,337.094 242.269,327.4586 267.7563,57.8312"/>
    <polyline points="266.4064,57.004 249.5814,324.4297 335.2773,220.8412"/>
    <polyline points="334.9077,222.3806 242.269,327.4586 90.5095,70.8474"/>
    <polyline points="91.7241,69.8319 234.8081,330.1007 197.5833,337.2017"/>
    <polyline points="217.9726,334.5174 314.8817,268.658 76.8066,83.988"/>
    <polyline points="85.7597,75.0349 270.4297,313.11 262.3059,54.6078"/>
    <polyline points="265.048,56.191 256.7253,321.0222 335.6307,219.298"/>
    <polyline points="339.8622,330.4134 333.9567,330.4134 333.3661,335.7283 333.9567,335.1378 335.7283,334.5472 337.5,334.5472 339.2717,335.1378 340.4528,336.3189 341.0433,338.0906 341.0433,339.2717 340.4528,341.0433 339.2717,342.2244 337.5,342.815 335.7283,342.815 333.9567,342.2244 332.7756,340.4528"/>
    <line x1="328.6417" x2="318.0118" y1="339.2717" y2="339.2717"/>
    <line x1="318.0118" x2="328.6417" y1="335.7283" y2="335.7283"/>
    <line x1="313.878" x2="307.3819" y1="334.5472" y2="342.815"/>
    <line x1="313.878" x2="307.3819" y1="342.815" y2="334.5472"/>
    <polyline points="162.8783,335.3829 75.7411,287.4788 120.8701,50.9042"/>
    <polyline points="122.2918,50.2077 70.6008,281.4602 161.3187,335.1107"/>
    <polyline points="152.0288,333.136 46.9508,240.4974 130.9682,46.3448"/>
    <polyline points="304.5776,89.9524 44.3088,233.0364 150.4933,332.7504"/>
    <polyline points="132.4371,326.8835 44.3088,139.6014 188.0906,35.1378 331.8723,139.6014 71.6035,282.6854"/>
    <polyline points="72.9331,332.185 72.3425,331.0039 70.5709,330.4134 69.3898,330.4134 67.6181,331.0039 66.437,332.7756 65.8465,335.7283 65.8465,338.6811 66.437,341.0433 67.6181,342.2244 69.3898,342.815 71.752,342.2244 72.9331,341.0433 73.5236,339.2717 72.9331,336.9094 71.752,335.7283 69.9803,335.1378 67.6181,335.7283 66.437,336.9094 65.8465,338.6811"/>
    <line x1="61.122" x2="50.4921" y1="339.2717" y2="339.2717"/>
    <line x1="50.4921" x2="61.122" y1="335.7283" y2="335.7283"/>
    <polyline points="45.7677,342.815 45.7677,336.9094 45.1772,335.1378 43.9961,334.5472 42.2244,334.5472 41.0433,335.1378 39.2717,336.9094"/>
    <line x1="39.2717" x2="39.2717" y1="334.5472" y2="342.815"/>
    <polygon points="85.3346,335.7283 84.7441,332.7756 83.563,331.0039 81.7913,330.4134 80.6102,330.4134 78.8386,331.0039 77.6575,332.7756 77.0669,335.7283 77.0669,337.5 77.6575,340.4528 78.8386,342.2244 80.6102,342.815 81.7913,342.815 83.563,342.2244 84.7441,340.4528 85.3346,337.5"/>
    <polygon points="88.878,335.7283 88.878,337.5 89.4685,340.4528 90.6496,342.2244 92.4213,342.815 93.6024,342.815 95.374,342.2244 96.5551,340.4528 97.1457,337.5 97.1457,335.7283 96.5551,332.7756 95.374,331.0039 93.6024,330.4134 92.4213,330.4134 90.6496,331.0039 89.4685,332.7756"/>
  </g>
</svg>
