<?xml version="1.0" encoding="utf-8" ?>
<svg xmlns="http://www.w3.org/2000/svg" xmlns:cc="http://creativecommons.org/ns" xmlns:dc="http://purl.org/dc/elements/1.1/" xmlns:ev="http://www.w3.org/2001/xml-events" xmlns:inkscape="http://www.inkscape.org/namespaces/inkscape" xmlns:rdf="http://www.w3.org/1999/02/22-rdf-syntax-ns" xmlns:sodipodi="http://sodipodi.sourceforge.net/DTD/sodipodi-0.dtd" xmlns:xlink="http://www.w3.org/1999/xlink" baseProfile="tiny" height="10.0cm" version="1.2" viewBox="0 0 377.95275590551176 377.95275590551176" width="10.0cm">
  <metadata>
    <rdf:RDF>
      <cc:Work>
        <dc:format>image/svg+xml</dc:format>
        <dc:source>Vsketch with params {'__seed__': 0, 'r': 3.9999999999999996, 'multiplier': 342, 'n': 600}</dc:source>
        <dc:date>2025-04-25T23:54:11.227909</dc:date>
      </cc:Work>
    </rdf:RDF>
  </metadata>
  <defs/>
  <g fill="none" id="layer1" inkscape:groupmode="layer" inkscape:label="1" stroke="#0000ff" stroke-width="1.1339" style="display:inline">
    <polyline points="57.1639,261.9094 339.2717,186.3189 338.7578,173.8642 337.2195,161.4942 334.6675,149.2929 331.2409,137.701 326.749,126.0731 321.3145,114.8548 314.9742,104.1224 308.0018,94.2482 300.0092,84.6826 291.2557,75.8079 282.097,67.9191 272.0234,60.5771 261.3791,54.0899 250.2366,48.5016 238.6716,43.8504 227.1278,40.2647 217.9319,38.1122 208.9937,36.5899 199.6036,35.5768 190.5464,35.1577 181.4804,35.2824 172.0624,35.9898 163.0795,37.221 153.8184,39.0737 144.6911,41.501 136.0878,44.3631 127.3254,47.8873 118.8001,51.9516 110.8698,56.347 102.9049,61.4224 95.571,66.7536 88.2857,72.764 81.3899,79.2175 74.9106,86.089 68.873,93.3517 63.5143,100.6656 58.6037,108.2876 53.984,116.5252 50.0413,124.69 46.4625,133.4302 43.4364,142.3768 41.0624,151.1274 39.1519,160.3767 37.8646,169.3518 37.0983,178.7652 36.917,187.8302 37.2795,196.8899 38.2338,206.2861 40.8026,220.407 44.699,234.2207 49.8877,247.6026 56.1372,260.1026 63.7288,272.2833 72.1982,283.3997 81.9266,293.9523 92.3193,303.2957 103.8437,311.8506 115.7955,319.0937 128.7123,325.3511 142.1643,330.3554 155.6611,333.9809 169.81,336.3907 183.7459,337.4376 198.0961,337.1685 212.356,335.5399 226.3973,332.5664 240.0933,328.2747 252.9795,322.8661 265.6359,316.0974 277.2885,308.3822 288.4618,299.3735 298.4726,289.622 307.7713,278.689 315.7896,267.2428 322.8881,254.7685 328.6329,242.0286 333.2825,228.4499 336.6235,214.4915 338.6257,200.2792 339.2717,186.3189 36.9094,186.3189 263.6811,317.2456"/>
    <polyline points="265.048,316.4468 324.8833,121.9491 262.3059,54.6078"/>
    <polyline points="263.6811,55.3922 36.9094,186.3189 112.5,317.2456"/>
    <polyline points="111.1331,316.4468 324.8833,250.6887 113.8752,54.6078"/>
    <line x1="115.2585" x2="88.1127" y1="53.8379" y2="72.9163"/>
    <line x1="86.9306" x2="310.3986" y1="73.9694" y2="275.1809"/>
    <polyline points="311.3225,273.8953 291.5811,296.5252 202.3179,35.8087"/>
    <line x1="200.7411" x2="47.5259" y1="35.668" y2="130.6654"/>
    <polyline points="46.9508,132.1404 44.3088,233.0364 329.2303,240.4974"/>
    <line x1="328.6552" x2="37.4397" y1="241.9724" y2="173.6684"/>
    <line x1="37.3154" x2="37.2078" y1="175.2467" y2="195.8116"/>
    <polyline points="37.3154,197.3911 37.2078,176.8262 320.5716,113.4868 284.457,302.8059 191.2566,35.171"/>
    <polyline points="192.8393,35.2124 150.4933,39.8874 321.327,114.8782"/>
    <polyline points="322.0678,116.2773 159.762,334.8222 181.7597,337.3674"/>
    <polyline points="183.3418,337.4254 150.4933,39.8874 316.5783,265.9847"/>
    <line x1="315.737" x2="337.8729" y1="267.3258" y2="165.8013"/>
    <polyline points="337.6498,164.2339 38.1016,167.3709 243.744,45.7543 39.2988,213.0908"/>
    <line x1="39.5873" x2="335.6307" y1="214.6474" y2="219.298"/>
    <line x1="335.2773" x2="334.522" y1="220.8412" y2="223.9161"/>
    <polyline points="334.1203,225.4474 188.0906,35.1378 294.9917,79.4177"/>
    <line x1="293.8664" x2="252.4603" y1="78.3041" y2="323.1116"/>
    <polyline points="251.0243,323.7782 84.6,76.1126 37.5804,172.0915"/>
    <polyline points="37.7376,170.5162 234.8081,330.1007 249.5814,324.4297"/>
    <polyline points="248.1318,325.0661 207.0386,36.3299 97.9526,307.6897"/>
    <line x1="99.2285" x2="270.4297" y1="308.627" y2="59.5278"/>
    <line x1="271.7529" x2="320.5716" y1="60.3969" y2="113.4868"/>
    <polyline points="319.8016,112.1035 51.2978,121.9491 318.2185,263.2763"/>
    <polyline points="319.0172,261.9094 339.2717,186.3189 188.0906,337.5 42.0608,225.4474"/>
    <line x1="41.6591" x2="332.8192" y1="223.9161" y2="230.015"/>
    <polyline points="333.2688,228.4971 304.5776,89.9524 152.0288,39.5017"/>
    <polyline points="153.5682,39.1322 41.6591,223.9161 222.6129,333.5056"/>
    <polyline points="224.1523,333.136 304.5776,89.9524 42.9123,144.1407"/>
    <polyline points="43.3619,142.6228 41.6591,223.9161 298.2968,82.8283 71.6035,282.6854 41.2734,222.3806"/>
    <polyline points="40.9038,220.8412 334.522,148.7217 252.4603,49.5261 147.435,331.9309"/>
    <polyline points="148.962,332.3486 188.0906,337.5 81.1894,79.4177"/>
    <polyline points="80.0758,80.543 123.7208,49.5261 296.1053,292.0948"/>
    <polyline points="294.9917,293.2201 188.0906,337.5 334.1203,147.1903"/>
    <line x1="333.7025" x2="123.7208" y1="145.6633" y2="49.5261"/>
    <polyline points="122.2918,50.2077 37.2078,195.8116 103.1142,311.3579"/>
    <polyline points="101.8094,310.4611 328.6552,241.9724 338.7414,198.9694"/>
    <polyline points="338.8657,197.3911 37.2078,195.8116 320.5716,259.1509 284.457,69.8319 317.4055,108.003"/>
    <polyline points="318.2185,109.3615 51.2978,250.6887 319.8016,260.5343"/>
    <line x1="320.5716" x2="104.4282" y1="259.1509" y2="60.3969"/>
    <polyline points="103.1142,61.2799 37.2078,176.8262 122.2918,322.4301"/>
    <polyline points="120.8701,321.7336 320.5716,259.1509 255.311,50.9042"/>
    <line x1="253.8893" x2="37.2078" y1="50.2077" y2="176.8262"/>
    <polyline points="37.1166,178.4067 99.2285,308.627 256.7253,321.0222"/>
    <polyline points="258.1322,320.2961 216.4191,37.8156 37.0421,179.9881"/>
    <polyline points="36.984,181.5702 225.6878,332.7504 259.5313,319.5553"/>
    <line x1="260.9226" x2="158.2085" y1="318.7999" y2="38.1204"/>
    <line x1="159.762" x2="54.1133" y1="37.8156" y2="116.2773"/>
    <polyline points="54.8541,114.8782 150.4933,332.7504 192.8393,337.4254"/>
    <line x1="191.2566" x2="284.457" y1="337.4668" y2="69.8319"/>
    <polyline points="283.2319,68.8291 331.8723,233.0364 38.7707,162.669"/>
    <polyline points="39.0266,161.1066 77.8843,82.8283 91.7241,302.8059 36.9426,189.485"/>
    <polyline points="36.9177,187.902 324.8833,121.9491 47.5259,130.6654 338.0795,205.2669 107.0837,313.9653 216.4191,37.8156 178.5978,337.2017 55.6095,259.1509 284.457,302.8059 77.8843,289.8095 41.6591,223.9161 252.4603,49.5261 328.6552,130.6654 338.0795,167.3709 107.0837,58.6725 216.4191,334.8222 178.5978,35.4361 55.6095,113.4868 284.457,69.8319 77.8843,82.8283 41.6591,148.7217 252.4603,323.1116 328.6552,241.9724 338.0795,205.2669 166.0056,36.7596"/>
    <polyline points="164.4406,36.9991 44.3088,233.0364 65.7825,275.1809 219.5229,38.4415"/>
    <polyline points="221.0697,38.7787 336.5938,157.9904 299.3745,288.6498"/>
    <line x1="298.2968" x2="162.8783" y1="289.8095" y2="335.3829"/>
    <polyline points="164.4406,335.6387 44.3088,139.6014 305.5803,281.4602"/>
    <polyline points="306.5702,280.2247 338.0795,167.3709 210.1755,36.7596"/>
    <polyline points="211.7405,36.9991 44.3088,139.6014 329.2303,132.1404"/>
    <polyline points="329.7899,133.6214 298.2968,289.8095 71.6035,89.9524 83.4516,295.4354"/>
    <polyline points="82.3147,294.3337 252.4603,323.1116 147.435,40.7069"/>
    <polyline points="145.9124,41.1406 71.6035,89.9524 334.9077,222.3806"/>
    <line x1="333.7025" x2="123.7208" y1="226.9745" y2="323.1116"/>
    <polyline points="125.1568,323.7782 84.6,296.5252 100.5142,63.087"/>
    <polyline points="101.8094,62.1767 328.6552,130.6654 123.7208,323.1116 150.4933,39.8874 54.8541,257.7596"/>
    <line x1="55.6095" x2="314.0125" y1="259.1509" y2="269.9812"/>
    <polyline points="313.1295,271.2953 338.9733,176.8262 324.2017,120.5202"/>
    <polyline points="323.5052,119.0985 55.6095,259.1509 197.5833,35.4361 39.5873,157.9904 40.5504,219.298"/>
    <polyline points="40.2131,217.7512 310.3986,275.1809 141.373,330.1007 310.3986,97.4569 141.373,42.5371 310.3986,275.1809 234.8081,42.5371 99.2285,64.0108 37.1166,194.2311"/>
    <polyline points="37.0421,192.6497 216.4191,334.8222 258.1322,52.3417"/>
    <polyline points="256.7253,51.6155 99.2285,64.0108 270.4297,313.11"/>
    <polyline points="271.7529,312.2408 320.5716,259.1509 338.9733,176.8262 51.9794,252.1176"/>
    <polyline points="52.6759,253.5393 55.6095,259.1509 62.1686,102.6566"/>
    <polyline points="63.0516,101.3425 338.9733,176.8262 177.0183,337.094"/>
    <line x1="178.5978" x2="73.6472" y1="337.2017" y2="87.5341"/>
    <line x1="74.6879" x2="260.9226" y1="86.341" y2="53.8379"/>
    <polyline points="259.5313,53.0825 225.6878,39.8874 116.6498,319.5553"/>
    <line x1="118.0489" x2="216.4191" y1="320.2961" y2="334.8222"/>
    <polyline points="214.8624,335.1107 132.4371,326.8835 161.3187,37.5271"/>
    <polyline points="162.8783,37.2549 298.2968,82.8283 213.3028,335.3829"/>
    <polyline points="211.7405,335.6387 44.3088,233.0364 70.6008,281.4602"/>
    <polyline points="69.6109,280.2247 338.0795,205.2669 306.5702,92.4131"/>
    <line x1="305.5803" x2="44.3088" y1="91.1775" y2="233.0364"/>
    <polyline points="44.8059,234.5395 260.9226,53.8379 91.7241,302.8059 115.2585,318.7999 236.3112,329.6036"/>
    <line x1="234.8081" x2="338.4435" y1="330.1007" y2="202.1216"/>
    <polyline points="338.2697,203.6952 207.0386,36.3299 128.0493,47.5717"/>
    <polyline points="129.5055,46.9506 107.0837,313.9653 96.6866,306.7392"/>
    <polyline points="95.4306,305.7754 315.737,105.312 159.762,37.8156 322.0678,256.3605"/>
    <polyline points="321.327,257.7596 150.4933,332.7504 183.3418,35.2124"/>
    <polyline points="181.7597,35.2704 159.762,37.8156 194.4214,337.3674"/>
    <polyline points="196.0028,337.2928 276.9526,308.627 53.3872,117.6841"/>
    <polyline points="52.6759,119.0985 55.6095,113.4868 62.1686,269.9812"/>
    <polyline points="61.2994,268.658 276.9526,308.627 234.8081,42.5371 249.5814,48.2081"/>
    <polyline points="251.0243,48.8596 84.6,296.5252 275.6669,309.5508"/>
    <line x1="276.9526" x2="314.8817" y1="308.627" y2="103.9798"/>
    <line x1="315.737" x2="130.9682" y1="105.312" y2="46.3448"/>
    <line x1="132.4371" x2="330.3339" y1="45.7543" y2="135.1081"/>
    <polyline points="330.8624,136.6005 178.5978,337.2017 45.3187,236.0373"/>
    <polyline points="45.8472,237.5297 132.4371,45.7543 38.1016,205.2669 38.5313,164.2339"/>
    <polyline points="38.3082,165.8013 315.737,105.312 337.8729,206.8365"/>
    <line x1="338.0795" x2="210.1755" y1="205.2669" y2="335.8782"/>
    <polyline points="208.6082,336.1012 60.4441,105.312 68.634,278.9789"/>
    <polyline points="67.6703,277.7229 269.0974,313.9653 327.4588,244.9039"/>
    <polyline points="326.8377,246.3602 169.1425,36.3299 309.4614,96.181"/>
    <line x1="308.5108" x2="269.0974" y1="94.9149" y2="313.9653"/>
    <polyline points="267.7563,314.8066 225.6878,39.8874 108.4248,57.8312"/>
    <line x1="109.7747" x2="91.7241" y1="57.004" y2="302.8059"/>
    <polyline points="92.9492,303.8087 331.8723,233.0364 65.7825,97.4569 219.5229,334.1963"/>
    <polyline points="217.9726,334.5174 260.9226,318.7999 301.4932,86.341"/>
    <line x1="300.44" x2="65.7825" y1="85.159" y2="97.4569"/>
    <polyline points="66.7197,96.181 169.1425,336.3079 309.4614,276.4568"/>
    <polyline points="308.5108,277.7229 269.0974,58.6725 327.4588,127.7339"/>
    <line x1="328.0647" x2="60.4441" y1="129.1965" y2="267.3258"/>
    <polyline points="59.6028,265.9847 150.4933,332.7504 123.7208,49.5261 42.4786,226.9745"/>
    <polyline points="42.9123,228.4971 304.5776,282.6854 298.2968,289.8095 41.6591,148.7217 43.3619,230.015"/>
    <polyline points="43.8274,231.5282 336.5938,157.9904 197.5833,337.2017 89.3057,71.8756"/>
    <line x1="90.5095" x2="243.744" y1="70.8474" y2="45.7543"/>
    <polyline points="245.2129,46.3448 315.737,267.3258 280.7505,305.7754"/>
    <polyline points="279.4945,306.7392 107.0837,58.6725 38.1016,205.2669 281.9964,67.8393"/>
    <polyline points="280.7505,66.8624 315.737,105.312 245.2129,326.293"/>
    <line x1="246.6756" x2="107.0837" y1="325.6872" y2="313.9653"/>
    <polyline points="108.4248,314.8066 225.6878,332.7504 123.7208,323.1116 42.4786,145.6633"/>
    <polyline points="42.0608,147.1903 188.0906,35.1378 227.2191,332.3486"/>
    <polyline points="228.7461,331.9309 252.4603,323.1116 334.522,223.9161 84.6,296.5252 37.5804,200.5463"/>
    <polyline points="37.7376,202.1216 234.8081,42.5371 126.5997,324.4297"/>
    <polyline points="128.0493,325.0661 207.0386,336.3079 338.2697,168.9426"/>
    <line x1="338.4435" x2="234.8081" y1="170.5162" y2="42.5371"/>
    <polyline points="236.3112,43.0342 115.2585,53.8379 288.0684,299.7215"/>
    <polyline points="286.8754,300.7622 197.5833,337.2017 138.3721,329.0908"/>
    <polyline points="139.8699,329.6036 115.2585,53.8379 336.289,156.4368"/>
    <polyline points="335.968,154.8866 310.3986,275.1809 289.2505,298.6684"/>
    <polyline points="290.4214,297.6029 39.5873,157.9904 335.6307,153.3398"/>
    <polyline points="335.2773,151.7966 334.522,148.7217 291.5811,296.5252 50.6312,249.2527"/>
    <polyline points="49.9797,247.8098 141.373,42.5371 65.7825,97.4569 44.3088,139.6014 46.9508,240.4974"/>
    <line x1="47.5259" x2="312.2328" y1="241.9724" y2="100.0378"/>
    <polyline points="311.3225,98.7425 291.5811,76.1126 202.3179,336.8291"/>
    <polyline points="203.8933,336.6718 141.373,330.1007 172.2878,35.966"/>
    <line x1="173.8632" x2="291.5811" y1="35.8087" y2="76.1126"/>
    <polyline points="290.4214,75.0349 39.5873,214.6474 233.2999,330.582"/>
    <polyline points="231.7867,331.0475 334.522,223.9161 40.9038,151.7966"/>
    <polyline points="40.5504,153.3398 39.5873,214.6474 85.7597,297.6029"/>
    <polyline points="86.9306,298.6684 310.3986,97.4569 40.2131,154.8866"/>
    <polyline points="39.8921,156.4368 115.2585,318.7999 288.0684,72.9163"/>
    <line x1="289.2505" x2="310.3986" y1="73.9694" y2="97.4569"/>
    <polyline points="307.5471,93.6589 60.4441,105.312 159.762,334.8222 54.1133,256.3605"/>
    <polyline points="53.3872,254.9537 276.9526,64.0108 234.8081,330.1007 310.3986,97.4569 335.968,217.7512"/>
    <polyline points="336.289,216.201 115.2585,318.7999 88.1127,299.7215"/>
    <polyline points="89.3057,300.7622 197.5833,35.4361 336.5938,214.6474 76.8066,288.6498"/>
    <line x1="77.8843" x2="240.7881" y1="289.8095" y2="44.6196"/>
    <polyline points="242.269,45.1792 331.8723,139.6014 133.9121,327.4586"/>
    <line x1="132.4371" x2="45.8472" y1="326.8835" y2="135.1081"/>
    <polyline points="46.3912,133.6214 298.2968,82.8283 304.5776,89.9524 78.974,290.9579"/>
    <polyline points="80.0758,292.0948 123.7208,323.1116 296.1053,80.543"/>
    <line x1="297.2071" x2="304.5776" y1="81.6799" y2="89.9524"/>
    <polyline points="303.5621,88.7379 132.4371,326.8835 330.3339,237.5297"/>
    <polyline points="330.8624,236.0373 178.5978,35.4361 73.6472,285.1037"/>
    <polyline points="72.619,283.8999 132.4371,326.8835 38.1016,167.3709 94.1847,67.8393"/>
    <polyline points="95.4306,66.8624 315.737,267.3258 130.9682,326.293"/>
    <polyline points="129.5055,325.6872 107.0837,58.6725 96.6866,65.8986"/>
    <line x1="97.9526" x2="207.0386" y1="64.9481" y2="336.3079"/>
    <polyline points="205.4669,336.4981 169.1425,36.3299 170.7142,36.1397"/>
    <line x1="169.1425" x2="49.3434" y1="36.3299" y2="126.2776"/>
    <polyline points="48.7223,127.7339 269.0974,313.9653 169.1425,36.3299 66.7197,276.4568"/>
    <line x1="65.7825" x2="300.44" y1="275.1809" y2="287.4788"/>
    <polyline points="301.4932,286.2968 260.9226,53.8379 158.2085,334.5174"/>
    <line x1="159.762" x2="194.4214" y1="334.8222" y2="35.2704"/>
    <polyline points="196.0028,35.345 276.9526,64.0108 314.8817,268.658"/>
    <polyline points="317.4055,264.6348 284.457,302.8059 184.9245,337.4668"/>
    <polyline points="186.5074,337.4917 51.2978,121.9491 57.9626,109.3615"/>
    <polyline points="57.1639,110.7283 339.2717,186.3189 188.0906,35.1378 81.1894,293.2201"/>
    <line x1="84.6" x2="338.6007" y1="296.5252" y2="172.0915"/>
    <line x1="338.7414" x2="328.6552" y1="173.6684" y2="130.6654"/>
    <polyline points="326.8377,126.2776 169.1425,336.3079 170.7142,336.4981"/>
    <polyline points="172.2878,336.6718 141.373,42.5371 203.8933,35.966"/>
    <line x1="205.4669" x2="169.1425" y1="36.1397" y2="336.3079"/>
    <polyline points="167.5729,336.1012 60.4441,267.3258 68.634,93.6589"/>
    <line x1="67.6703" x2="269.0974" y1="94.9149" y2="58.6725"/>
    <line x1="267.7563" x2="225.6878" y1="57.8312" y2="332.7504"/>
    <polyline points="230.2687,331.4972 71.6035,89.9524 41.2734,150.2571"/>
    <line x1="41.6591" x2="332.8192" y1="148.7217" y2="142.6228"/>
    <line x1="333.2688" x2="304.5776" y1="144.1407" y2="282.6854"/>
    <polyline points="303.5621,283.8999 132.4371,45.7543 214.8624,37.5271"/>
    <polyline points="213.3028,37.2549 298.2968,289.8095 46.3912,239.0164"/>
    <polyline points="48.1164,243.4413 60.4441,267.3258 159.762,37.8156 178.5978,35.4361 302.5339,87.5341"/>
    <polyline points="299.3745,83.988 336.5938,214.6474 221.0697,333.8591"/>
    <polyline points="237.809,329.0908 197.5833,35.4361 286.8754,71.8756"/>
    <polyline points="285.6716,70.8474 243.744,326.8835 39.2988,159.547"/>
    <line x1="39.5873" x2="85.7597" y1="157.9904" y2="75.0349"/>
    <line x1="84.6" x2="125.1568" y1="76.1126" y2="48.8596"/>
    <polyline points="126.5997,48.2081 234.8081,330.1007 99.2285,308.627 119.4558,51.6155"/>
    <polyline points="120.8701,50.9042 320.5716,113.4868 338.9733,195.8116 63.0516,271.2953"/>
    <polyline points="63.9483,272.6 47.5259,241.9724 175.44,35.668"/>
    <line x1="177.0183" x2="338.9733" y1="35.5438" y2="195.8116"/>
    <polyline points="339.0645,194.2311 99.2285,308.627 105.7514,313.11"/>
    <polyline points="104.4282,312.2408 320.5716,113.4868 255.311,321.7336"/>
    <polyline points="253.8893,322.4301 37.2078,195.8116 273.0669,61.2799"/>
    <polyline points="274.3717,62.1767 328.6552,241.9724 123.7208,49.5261 225.6878,39.8874 36.984,191.0676"/>
    <line x1="36.9094" x2="112.5" y1="186.3189" y2="55.3922"/>
    <line x1="111.1331" x2="324.8833" y1="56.191" y2="121.9491"/>
    <line x1="325.5499" x2="291.5811" y1="123.3851" y2="296.5252"/>
    <polyline points="292.7295,295.4354 71.6035,282.6854 145.9124,331.4972"/>
    <polyline points="144.3944,331.0475 334.522,148.7217 84.6,76.1126 100.5142,309.5508"/>
    <polyline points="94.1847,304.7985 38.1016,205.2669 243.744,326.8835 90.5095,301.7904"/>
    <polyline points="75.7411,287.4788 65.7825,97.4569 156.6582,38.4415"/>
    <polyline points="155.1114,38.7787 336.5938,214.6474 332.3537,231.5282"/>
    <line x1="331.8723" x2="133.9121" y1="233.0364" y2="45.1792"/>
    <line x1="135.393" x2="77.8843" y1="44.6196" y2="82.8283"/>
    <polyline points="78.974,81.6799 304.5776,282.6854 152.0288,333.136"/>
    <polyline points="153.5682,333.5056 41.6591,148.7217 222.6129,39.1322"/>
    <polyline points="224.1523,39.5017 304.5776,282.6854 297.2071,290.9579"/>
    <polyline points="293.8664,294.3337 252.4603,49.5261 82.3147,78.3041"/>
    <polyline points="83.4516,77.2024 71.6035,282.6854 334.9077,150.2571"/>
    <line x1="334.522" x2="231.7867" y1="148.7217" y2="41.5903"/>
    <polyline points="233.2999,42.0558 39.5873,157.9904 142.8812,330.582"/>
    <line x1="141.373" x2="326.2014" y1="330.1007" y2="247.8098"/>
    <polyline points="325.5499,249.2527 291.5811,76.1126 50.6312,123.3851"/>
    <polyline points="49.9797,124.828 141.373,330.1007 65.7825,275.1809 331.8723,139.6014 38.7707,209.9688"/>
    <polyline points="39.0266,211.5312 77.8843,289.8095 91.7241,69.8319 266.4064,57.004"/>
    <polyline points="265.048,56.191 324.8833,250.6887 47.5259,241.9724 338.0795,167.3709 166.0056,335.8782"/>
    <polyline points="161.3187,335.1107 132.4371,45.7543 72.619,88.7379"/>
    <line x1="71.6035" x2="292.7295" y1="89.9524" y2="77.2024"/>
    <line x1="298.2968" x2="329.7899" y1="82.8283" y2="239.0164"/>
    <polyline points="328.0647,243.4413 60.4441,105.312 167.5729,36.5365"/>
    <line x1="178.5978" x2="45.3187" y1="35.4361" y2="136.6005"/>
    <polyline points="44.8059,138.0983 260.9226,318.7999 331.3752,234.5395"/>
    <line x1="324.8833" x2="339.2634" y1="250.6887" y2="187.902"/>
    <polyline points="339.2385,189.485 91.7241,69.8319 115.2585,53.8379 39.8921,216.201"/>
    <polyline points="38.5313,208.4039 38.1016,167.3709 107.0837,313.9653 279.4945,65.8986"/>
    <polyline points="278.2285,64.9481 207.0386,36.3299 269.0974,58.6725 169.1425,336.3079 49.3434,246.3602"/>
    <polyline points="48.7223,244.9039 269.0974,58.6725 216.4191,37.8156 118.0489,52.3417"/>
    <polyline points="116.6498,53.0825 225.6878,332.7504 339.1971,191.0676"/>
    <line x1="339.139" x2="216.4191" y1="192.6497" y2="37.8156"/>
    <polyline points="217.9726,38.1204 260.9226,53.8379 331.3752,138.0983"/>
    <line x1="331.8723" x2="337.4104" y1="139.6014" y2="162.669"/>
    <polyline points="337.1545,161.1066 77.8843,289.8095 135.393,328.0182"/>
    <polyline points="136.8798,328.5623 243.744,45.7543 239.3013,44.0755"/>
    <line x1="237.809" x2="197.5833" y1="43.547" y2="337.2017"/>
    <polyline points="199.1628,337.094 338.9733,195.8116 313.1295,101.3425"/>
    <line x1="314.0125" x2="55.6095" y1="102.6566" y2="113.4868"/>
    <polyline points="56.3795,112.1035 51.2978,250.6887 57.9626,263.2763"/>
    <polyline points="58.7756,264.6348 284.457,69.8319 184.9245,35.171"/>
    <line x1="186.5074" x2="51.2978" y1="35.1461" y2="250.6887"/>
    <polyline points="56.3795,260.5343 51.2978,121.9491 47.5259,241.9724 200.7411,336.9698"/>
    <polyline points="189.6737,337.4917 51.2978,250.6887 47.5259,130.6654 175.44,336.9698"/>
    <polyline points="173.8632,336.8291 291.5811,296.5252 64.8586,98.7425"/>
    <polyline points="63.9483,100.0378 47.5259,130.6654 312.2328,272.6"/>
    <polyline points="307.5471,278.9789 60.4441,267.3258 208.6082,36.5365"/>
    <line x1="207.0386" x2="37.9114" y1="36.3299" y2="168.9426"/>
    <line x1="38.1016" x2="281.9964" y1="167.3709" y2="304.7985"/>
    <polyline points="283.2319,303.8087 331.8723,139.6014 92.9492,68.8291"/>
    <line x1="91.7241" x2="109.7747" y1="69.8319" y2="315.6338"/>
    <polyline points="113.8752,318.03 324.8833,121.9491 339.2634,184.7358"/>
    <polyline points="339.2385,183.1528 91.7241,302.8059 266.4064,315.6338"/>
    <polyline points="262.3059,318.03 324.8833,250.6887 36.9177,184.7358"/>
    <polyline points="36.9426,183.1528 91.7241,69.8319 260.9226,318.7999 74.6879,286.2968"/>
    <line x1="71.6035" x2="230.2687" y1="282.6854" y2="41.1406"/>
    <line x1="228.7461" x2="252.4603" y1="40.7069" y2="49.5261"/>
    <polyline points="248.1318,47.5717 207.0386,336.3079 278.2285,307.6897"/>
    <polyline points="274.3717,310.4611 328.6552,130.6654 37.4397,198.9694"/>
    <polyline points="37.9114,203.6952 207.0386,336.3079 269.0974,313.9653 216.4191,334.8222 339.139,179.9881"/>
    <line x1="339.1971" x2="225.6878" y1="181.5702" y2="39.8874"/>
    <line x1="227.2191" x2="188.0906" y1="40.2892" y2="337.5"/>
    <polyline points="180.1783,337.2928 276.9526,64.0108 61.2994,103.9798"/>
    <line x1="60.4441" x2="48.1164" y1="105.312" y2="129.1965"/>
    <line x1="51.2978" x2="189.6737" y1="121.9491" y2="35.1461"/>
    <line x1="188.0906" x2="148.962" y1="35.1378" y2="40.2892"/>
    <line x1="150.4933" x2="59.6028" y1="39.8874" y2="106.6531"/>
    <line x1="58.7756" x2="284.457" y1="108.003" y2="302.8059"/>
    <polyline points="285.6716,301.7904 243.744,45.7543 336.8823,159.547"/>
    <line x1="336.5938" x2="332.3537" y1="157.9904" y2="141.1096"/>
    <line x1="326.2014" x2="141.373" y1="124.828" y2="42.5371"/>
    <line x1="139.8699" x2="115.2585" y1="43.0342" y2="318.7999"/>
    <polyline points="119.4558,321.0222 99.2285,64.0108 339.0645,178.4067"/>
    <line x1="338.9733" x2="199.1628" y1="176.8262" y2="35.5438"/>
    <line x1="197.5833" x2="138.3721" y1="35.4361" y2="43.547"/>
    <line x1="136.8798" x2="243.744" y1="44.0755" y2="326.8835"/>
    <polyline points="242.269,327.4586 331.8723,233.0364 337.4104,209.9688"/>
    <line x1="337.6498" x2="38.1016" y1="208.4039" y2="205.2669"/>
    <polyline points="38.3082,206.8365 315.737,267.3258 159.762,334.8222 178.5978,337.2017 302.5339,285.1037"/>
    <polyline points="322.7939,254.9537 276.9526,308.627 180.1783,35.345"/>
    <polyline points="144.3944,41.5903 334.522,223.9161 291.5811,76.1126 64.8586,273.8953"/>
    <polyline points="72.9331,332.185 72.3425,331.0039 70.5709,330.4134 69.3898,330.4134 67.6181,331.0039 66.437,332.7756 65.8465,335.7283 65.8465,338.6811 66.437,341.0433 67.6181,342.2244 69.3898,342.815 71.752,342.2244 72.9331,341.0433 73.5236,339.2717 72.9331,336.9094 71.752,335.7283 69.9803,335.1378 67.6181,335.7283 66.437,336.9094 65.8465,338.6811"/>
    <line x1="61.122" x2="50.4921" y1="339.2717" y2="339.2717"/>
    <line x1="50.4921" x2="61.122" y1="335.7283" y2="335.7283"/>
    <polyline points="45.7677,342.815 45.7677,336.9094 45.1772,335.1378 43.9961,334.5472 42.2244,334.5472 41.0433,335.1378 39.2717,336.9094"/>
    <line x1="39.2717" x2="39.2717" y1="334.5472" y2="342.815"/>
    <polygon points="85.3346,335.7283 84.7441,332.7756 83.563,331.0039 81.7913,330.4134 80.6102,330.4134 78.8386,331.0039 77.6575,332.7756 77.0669,335.7283 77.0669,337.5 77.6575,340.4528 78.8386,342.2244 80.6102,342.815 81.7913,342.815 83.563,342.2244 84.7441,340.4528 85.3346,337.5"/>
    <polygon points="88.878,335.7283 88.878,337.5 89.4685,340.4528 90.6496,342.2244 92.4213,342.815 93.6024,342.815 95.374,342.2244 96.5551,340.4528 97.1457,337.5 97.1457,335.7283 96.5551,332.7756 95.374,331.0039 93.6024,330.4134 92.4213,330.4134 90.6496,331.0039 89.4685,332.7756"/>
    <line x1="150.4933" x2="316.5783" y1="332.7504" y2="106.6531"/>
    <line x1="319.0172" x2="339.2717" y1="110.7283" y2="186.3189"/>
    <polyline points="338.8657,175.2467 37.2078,176.8262 273.0669,311.3579"/>
    <line x1="283.7598" x2="290.2559" y1="334.5472" y2="342.815"/>
    <line x1="294.3898" x2="305.0197" y1="339.2717" y2="339.2717"/>
    <line x1="305.0197" x2="294.3898" y1="335.7283" y2="335.7283"/>
    <line x1="290.2559" x2="283.7598" y1="334.5472" y2="342.815"/>
    <polyline points="309.1535,340.4528 310.3346,342.2244 312.1063,342.815 313.878,342.815 315.6496,342.2244 316.8307,341.0433 317.4213,339.2717 317.4213,338.0906 316.8307,336.3189 315.0591,335.1378 313.2874,335.1378 316.8307,330.4134 310.3346,330.4134"/>
    <polyline points="326.8701,342.815 326.8701,330.4134 320.9646,338.6811 329.8228,338.6811"/>
    <polyline points="333.3661,333.3661 333.9567,331.5945 335.7283,330.4134 338.0906,330.4134 339.2717,331.0039 340.4528,332.7756 340.4528,333.9567 338.6811,336.9094 332.7756,342.815 341.0433,342.815"/>
    <polyline points="323.5052,253.5393 55.6095,113.4868 197.5833,337.2017 39.5873,214.6474 142.8812,42.0558"/>
    <line x1="107.0837" x2="246.6756" y1="58.6725" y2="46.9506"/>
    <polyline points="275.6669,63.087 84.6,76.1126 338.6007,200.5463"/>
    <polyline points="337.1545,211.5312 77.8843,82.8283 240.7881,328.0182"/>
    <polyline points="239.3013,328.5623 243.744,326.8835 336.8823,213.0908"/>
    <line x1="336.5938" x2="43.8274" y1="214.6474" y2="141.1096"/>
    <line x1="44.3088" x2="70.6008" y1="139.6014" y2="91.1775"/>
    <line x1="69.6109" x2="338.0795" y1="92.4131" y2="167.3709"/>
    <line x1="322.7939" x2="276.9526" y1="117.6841" y2="64.0108"/>
    <line x1="105.7514" x2="99.2285" y1="59.5278" y2="64.0108"/>
    <polyline points="76.8066,83.988 336.5938,157.9904 155.1114,333.8591"/>
    <polyline points="156.6582,334.1963 65.7825,275.1809 75.7411,85.159"/>
    <polyline points="51.9794,120.5202 338.9733,195.8116 324.2017,252.1176"/>
  </g>
</svg>
