<?xml version="1.0" encoding="utf-8" ?>
<svg xmlns="http://www.w3.org/2000/svg" xmlns:cc="http://creativecommons.org/ns" xmlns:dc="http://purl.org/dc/elements/1.1/" xmlns:ev="http://www.w3.org/2001/xml-events" xmlns:inkscape="http://www.inkscape.org/namespaces/inkscape" xmlns:rdf="http://www.w3.org/1999/02/22-rdf-syntax-ns" xmlns:sodipodi="http://sodipodi.sourceforge.net/DTD/sodipodi-0.dtd" xmlns:xlink="http://www.w3.org/1999/xlink" baseProfile="tiny" height="10.0cm" version="1.2" viewBox="0 0 377.95275590551176 377.95275590551176" width="10.0cm">
  <metadata>
    <rdf:RDF>
      <cc:Work>
        <dc:format>image/svg+xml</dc:format>
        <dc:source>Vsketch with params {'__seed__': 0, 'r': 4.0, 'multiplier': 7, 'n': 600}</dc:source>
        <dc:date>2025-04-26T20:23:56.906681</dc:date>
      </cc:Work>
    </rdf:RDF>
  </metadata>
  <defs/>
  <g fill="none" id="layer1" inkscape:groupmode="layer" inkscape:label="1" stroke="#0000ff" stroke-width="1.1339" style="display:inline">
    <polygon points="130.4543,326.0822 144.3293,331.0278 158.9904,334.6729 173.566,336.8007 188.2795,337.4999 203.3671,336.7262 217.9319,334.5256 232.2133,330.918 246.0759,325.9377 259.3881,319.632 272.0234,312.0607 284.1539,303.056 295.0585,293.1533 305.187,281.9439 313.9372,270.0945 321.4927,257.4498 327.7817,244.1298 332.8541,229.8993 336.4081,215.6044 338.5541,201.0315 339.2717,186.3189 338.5168,171.2303 336.3344,156.6628 332.7447,142.3768 327.7817,128.508 321.4927,115.188 313.7274,102.229 304.9476,90.4015 295.0585,79.4845 284.1539,69.5818 272.3374,60.7872 259.3881,53.0058 246.0759,46.7001 232.2133,41.7198 217.5614,38.0381 202.9911,35.8739 188.2795,35.1379 173.19,35.8739 158.6197,38.0381 144.3293,41.61 130.4543,46.5556 116.793,53.0058 104.1577,60.5771 92.3193,69.342 81.3899,79.2175 71.4736,90.1097 62.6643,101.9153 54.8666,114.8548 48.5443,128.1591 43.5467,142.0155 39.8467,156.6628 37.6643,171.2303 36.9094,186.3189 37.627,201.0315 39.773,215.6044 43.327,229.8993 48.3994,244.1298 54.6884,257.4498 62.2439,270.0945 71.2335,282.2363 81.1226,293.1533 92.3193,303.2957 104.1577,312.0607 116.793,319.632"/>
    <polygon points="129.5055,325.6872 240.7881,328.0182 96.6866,306.7392 39.0266,211.5312"/>
    <polygon points="126.5997,324.4297 219.5229,334.1963 37.7376,170.5162 75.7411,85.159"/>
    <polygon points="125.1568,323.7782 208.6082,336.1012 64.8586,98.7425 245.2129,326.293"/>
    <polygon points="123.7208,323.1116 197.5833,337.2017 123.7208,49.5261 197.5833,35.4361"/>
    <polygon points="116.6498,319.5553 142.8812,330.582 316.5783,265.9847 76.8066,83.988"/>
    <line x1="112.5" x2="112.5" y1="317.2456" y2="317.2456"/>
    <polygon points="109.7747,315.6338 94.1847,304.7985 36.9426,189.485 38.5313,208.4039"/>
    <polygon points="101.8094,310.4611 52.6759,253.5393 338.7414,173.6684 314.0125,102.6566"/>
    <polygon points="99.2285,308.627 44.3088,233.0364 276.9526,308.627 331.8723,233.0364"/>
    <polygon points="97.9526,307.6897 41.2734,222.3806 205.4669,336.4981 78.974,81.6799"/>
    <polygon points="95.4306,305.7754 37.5804,200.5463 68.634,278.9789 202.3179,35.8087"/>
    <polygon points="92.9492,303.8087 37.1166,178.4067 46.9508,132.1404 314.8817,103.9798"/>
    <polygon points="91.7241,302.8059 38.1016,167.3709 91.7241,69.8319 38.1016,205.2669"/>
    <polygon points="81.1894,293.2201 81.1894,79.4177"/>
    <polygon points="77.8843,289.8095 107.0837,58.6725 77.8843,82.8283 107.0837,313.9653"/>
    <polygon points="71.6035,282.6854 169.1425,36.3299 304.5776,282.6854 207.0386,36.3299"/>
    <polygon points="67.6703,277.7229 213.3028,37.2549 48.7223,244.9039 329.7899,239.0164"/>
    <polygon points="65.7825,275.1809 234.8081,42.5371 65.7825,97.4569 234.8081,330.1007"/>
    <polygon points="62.1686,269.9812 274.3717,62.1767 323.5052,119.0985 37.4397,198.9694"/>
    <polygon points="61.2994,268.658 283.2319,68.8291 339.0645,194.2311 329.2303,240.4974"/>
    <polygon points="60.4441,267.3258 291.5811,76.1126 315.737,267.3258 84.6,76.1126"/>
    <polygon points="58.7756,264.6348 306.5702,92.4131 184.9245,337.4668 210.1755,36.7596"/>
    <polygon points="55.6095,259.1509 328.6552,130.6654 55.6095,113.4868 328.6552,241.9724"/>
    <polygon points="54.8541,257.7596 332.3537,141.1096 108.4248,57.8312 85.7597,75.0349"/>
    <polygon points="51.9794,252.1176 339.2634,184.7358 338.8657,175.2467 319.8016,112.1035"/>
    <polygon points="45.3187,236.0373 293.8664,294.3337 302.5339,87.5341 228.7461,331.9309"/>
    <polygon points="37.0421,192.6497 43.3619,230.015 258.1322,320.2961 222.6129,333.5056"/>
    <polygon points="36.984,191.0676 40.5504,219.298 183.3418,337.4254 221.0697,38.7787"/>
    <line x1="36.9094" x2="36.9094" y1="186.3189" y2="186.3189"/>
    <polygon points="37.4397,173.6684 62.1686,102.6566 274.3717,310.4611 323.5052,253.5393"/>
    <polygon points="38.5313,164.2339 109.7747,57.004 94.1847,67.8393 36.9426,183.1528"/>
    <polygon points="38.7707,162.669 119.4558,51.6155 164.4406,36.9991 322.7939,254.9537"/>
    <polygon points="39.0266,161.1066 129.5055,46.9506 240.7881,44.6196 96.6866,65.8986"/>
    <polygon points="39.5873,157.9904 150.4933,39.8874 336.5938,157.9904 225.6878,39.8874"/>
    <polygon points="43.3619,142.6228 258.1322,52.3417 222.6129,39.1322 37.0421,179.9881"/>
    <polygon points="48.1164,129.1965 325.5499,123.3851 38.3082,165.8013 100.5142,63.087"/>
    <polygon points="52.6759,119.0985 338.7414,198.9694 314.0125,269.9812 101.8094,62.1767"/>
    <polygon points="54.1133,116.2773 335.2773,220.8412 181.7597,337.3674 231.7867,41.5903"/>
    <polygon points="56.3795,112.1035 324.2017,252.1176 36.9177,184.7358 37.3154,175.2467"/>
    <polygon points="57.1639,110.7283 319.0172,261.9094"/>
    <polygon points="57.9626,109.3615 313.1295,271.2953 111.1331,56.191 103.1142,61.2799"/>
    <polygon points="59.6028,106.6531 299.3745,288.6498 259.5313,53.0825 233.2999,42.0558"/>
    <polygon points="60.4441,105.312 291.5811,296.5252 315.737,105.312 84.6,296.5252"/>
    <polygon points="63.0516,101.3425 265.048,316.4468 273.0669,311.3579 318.2185,263.2763"/>
    <polygon points="69.6109,92.4131 191.2566,337.4668 166.0056,36.7596 317.4055,264.6348"/>
    <polygon points="72.619,88.7379 158.2085,334.5174 336.8823,159.547 236.3112,43.0342"/>
    <polygon points="73.6472,87.5341 147.435,331.9309 330.8624,236.0373 82.3147,294.3337"/>
    <polygon points="74.6879,86.341 136.8798,328.5623 288.0684,299.7215 330.3339,135.1081"/>
    <polygon points="88.1127,72.9163 45.8472,237.5297 301.4932,286.2968 239.3013,44.0755"/>
    <polygon points="89.3057,71.8756 42.4786,226.9745 237.809,329.0908 80.0758,292.0948"/>
    <polygon points="99.2285,64.0108 44.3088,139.6014 276.9526,64.0108 331.8723,139.6014"/>
    <polygon points="104.4282,60.3969 63.9483,100.0378 255.311,321.7336 200.7411,336.9698"/>
    <line x1="112.5" x2="112.5" y1="55.3922" y2="55.3922"/>
    <polygon points="128.0493,47.5717 230.2687,41.1406 49.3434,126.2776 333.2688,144.1407"/>
    <polygon points="130.9682,46.3448 251.0243,48.8596 167.5729,36.5365 311.3225,273.8953"/>
    <polygon points="138.3721,43.547 296.1053,80.543 286.8754,300.7622 333.7025,145.6633"/>
    <polygon points="139.8699,43.0342 303.5621,88.7379 217.9726,334.5174 39.2988,159.547"/>
    <polygon points="153.5682,39.1322 339.139,179.9881 332.8192,142.6228 118.0489,52.3417"/>
    <polygon points="155.1114,38.7787 339.1971,191.0676 335.6307,219.298 192.8393,337.4254"/>
    <polygon points="161.3187,37.5271 331.3752,234.5395 90.5095,301.7904 39.8921,156.4368"/>
    <polygon points="177.0183,35.5438 262.3059,318.03 253.8893,322.4301 189.6737,337.4917"/>
    <polygon points="183.3418,35.2124 221.0697,333.8591 36.984,181.5702 40.5504,153.3398"/>
    <polygon points="186.5074,35.1461 199.1628,337.094 113.8752,54.6078 122.2918,50.2077"/>
    <polygon points="196.0028,35.345 133.9121,327.4586 270.4297,313.11 305.5803,281.4602"/>
    <polygon points="199.1628,35.5438 113.8752,318.03 122.2918,322.4301 186.5074,337.4917"/>
    <polygon points="200.7411,35.668 104.4282,312.2408 63.9483,272.6 255.311,50.9042"/>
    <polygon points="205.4669,36.1397 78.974,290.9579 97.9526,64.9481 41.2734,150.2571"/>
    <polygon points="216.4191,37.8156 41.6591,223.9161 216.4191,334.8222 41.6591,148.7217"/>
    <polygon points="219.5229,38.4415 37.7376,202.1216 75.7411,287.4788 126.5997,48.2081"/>
    <polygon points="224.1523,39.5017 37.9114,168.9426 83.4516,77.2024 66.7197,276.4568"/>
    <polygon points="227.2191,40.2892 42.0608,147.1903"/>
    <polygon points="237.809,43.547 80.0758,80.543 89.3057,300.7622 42.4786,145.6633"/>
    <polygon points="242.269,45.1792 105.7514,59.5278 70.6008,91.1775 180.1783,337.2928"/>
    <polygon points="243.744,45.7543 115.2585,53.8379 132.4371,45.7543 260.9226,53.8379"/>
    <polygon points="245.2129,46.3448 125.1568,48.8596 208.6082,36.5365 64.8586,273.8953"/>
    <polygon points="246.6756,46.9506 135.393,44.6196 279.4945,65.8986 337.1545,161.1066"/>
    <polygon points="248.1318,47.5717 145.9124,41.1406 326.8377,126.2776 42.9123,144.1407"/>
    <polygon points="253.8893,50.2077 189.6737,35.1461 177.0183,337.094 262.3059,54.6078"/>
    <polygon points="256.7253,51.6155 211.7405,36.9991 53.3872,254.9537 337.4104,162.669"/>
    <line x1="263.6811" x2="263.6811" y1="55.3922" y2="55.3922"/>
    <polygon points="270.4297,59.5278 305.5803,91.1775 196.0028,337.2928 133.9121,45.1792"/>
    <polygon points="271.7529,60.3969 312.2328,100.0378 120.8701,321.7336 175.44,336.9698"/>
    <polygon points="275.6669,63.087 328.0647,129.1965 50.6312,123.3851 337.8729,165.8013"/>
    <polygon points="292.7295,77.2024 309.4614,276.4568 152.0288,39.5017 338.2697,168.9426"/>
    <polygon points="294.9917,79.4177 294.9917,293.2201"/>
    <polygon points="299.3745,83.988 259.5313,319.5553 233.2999,330.582 59.6028,265.9847"/>
    <polygon points="301.4932,86.341 239.3013,328.5623 88.1127,299.7215 45.8472,135.1081"/>
    <polygon points="307.5471,93.6589 173.8632,336.8291 280.7505,66.8624 338.6007,172.0915"/>
    <polygon points="310.3986,97.4569 141.373,330.1007 310.3986,275.1809 141.373,42.5371"/>
    <polygon points="313.1295,101.3425 111.1331,316.4468 103.1142,311.3579 57.9626,263.2763"/>
    <polygon points="316.5783,106.6531 76.8066,288.6498 116.6498,53.0825 142.8812,42.0558"/>
    <polygon points="317.4055,108.003 69.6109,280.2247 191.2566,35.171 166.0056,335.8782"/>
    <polygon points="318.2185,109.3615 63.0516,271.2953 265.048,56.191 273.0669,61.2799"/>
    <polygon points="319.0172,110.7283 57.1639,261.9094"/>
    <polygon points="322.7939,117.6841 38.7707,209.9688 119.4558,321.0222 164.4406,335.6387"/>
    <polygon points="324.2017,120.5202 36.9177,187.902 37.3154,197.3911 56.3795,260.5343"/>
    <polygon points="326.2014,124.828 40.2131,154.8866 172.2878,35.966 289.2505,298.6684"/>
    <polygon points="329.7899,133.6214 67.6703,94.9149 213.3028,335.3829 48.7223,127.7339"/>
    <polygon points="330.8624,136.6005 82.3147,78.3041 73.6472,285.1037 147.435,40.7069"/>
    <polygon points="334.1203,147.1903 148.962,40.2892"/>
    <polygon points="335.2773,151.7966 181.7597,35.2704 231.7867,331.0475 54.1133,256.3605"/>
    <polygon points="335.968,154.8866 203.8933,35.966 86.9306,298.6684 49.9797,124.828"/>
    <polygon points="336.289,156.4368 214.8624,37.5271 44.8059,234.5395 285.6716,301.7904"/>
    <polygon points="338.0795,167.3709 284.457,69.8319 338.0795,205.2669 284.457,302.8059"/>
    <polygon points="338.9733,176.8262 324.8833,121.9491 37.2078,176.8262 51.2978,121.9491"/>
    <polygon points="339.0645,178.4067 329.2303,132.1404 61.2994,103.9798 283.2319,303.8087"/>
    <polygon points="339.1971,181.5702 335.6307,153.3398 192.8393,35.2124 155.1114,333.8591"/>
    <polygon points="339.2385,183.1528 337.6498,164.2339 266.4064,57.004 281.9964,67.8393"/>
    <polygon points="339.2634,187.902 338.8657,197.3911 319.8016,260.5343 51.9794,120.5202"/>
    <polygon points="339.139,192.6497 332.8192,230.015 118.0489,320.2961 153.5682,333.5056"/>
    <polygon points="338.9733,195.8116 324.8833,250.6887 37.2078,195.8116 51.2978,250.6887"/>
    <polygon points="338.4435,202.1216 300.44,287.4788 249.5814,48.2081 156.6582,38.4415"/>
    <polygon points="338.2697,203.6952 292.7295,295.4354 309.4614,96.181 152.0288,333.136"/>
    <polygon points="336.8823,213.0908 236.3112,329.6036 72.619,283.8999 158.2085,38.1204"/>
    <polygon points="336.289,216.201 214.8624,335.1107 44.8059,138.0983 285.6716,70.8474"/>
    <polygon points="335.968,217.7512 203.8933,336.6718 86.9306,73.9694 49.9797,247.8098"/>
    <polygon points="333.7025,226.9745 138.3721,329.0908 296.1053,292.0948 286.8754,71.8756"/>
    <polygon points="332.3537,231.5282 108.4248,314.8066 85.7597,297.6029 54.8541,114.8782"/>
    <polygon points="330.3339,237.5297 74.6879,286.2968 136.8798,44.0755 288.0684,72.9163"/>
    <polygon points="326.8377,246.3602 42.9123,228.4971 248.1318,325.0661 145.9124,331.4972"/>
    <polygon points="326.2014,247.8098 40.2131,217.7512 172.2878,336.6718 289.2505,73.9694"/>
    <polygon points="325.5499,249.2527 38.3082,206.8365 100.5142,309.5508 48.1164,243.4413"/>
    <polygon points="322.0678,256.3605 40.9038,151.7966 194.4214,35.2704 144.3944,331.0475"/>
    <polygon points="321.327,257.7596 43.8274,141.1096 267.7563,57.8312 290.4214,75.0349"/>
    <polygon points="320.5716,259.1509 47.5259,130.6654 320.5716,113.4868 47.5259,241.9724"/>
    <polygon points="314.8817,268.658 92.9492,68.8291 37.1166,194.2311 46.9508,240.4974"/>
    <polygon points="308.5108,277.7229 162.8783,37.2549 327.4588,244.9039 46.3912,239.0164"/>
    <polygon points="306.5702,280.2247 184.9245,35.171 210.1755,335.8782 58.7756,108.003"/>
    <polygon points="303.5621,283.8999 217.9726,38.1204 39.2988,213.0908 139.8699,329.6036"/>
    <polygon points="302.5339,285.1037 228.7461,40.7069 45.3187,136.6005 293.8664,78.3041"/>
    <polygon points="298.2968,289.8095 269.0974,58.6725 298.2968,82.8283 269.0974,313.9653"/>
    <polygon points="297.2071,290.9579 278.2285,64.9481 334.9077,150.2571 170.7142,36.1397"/>
    <polygon points="281.9964,304.7985 339.2385,189.485 337.6498,208.4039 266.4064,315.6338"/>
    <polygon points="280.7505,305.7754 338.6007,200.5463 307.5471,278.9789 173.8632,35.8087"/>
    <polygon points="275.6669,309.5508 328.0647,243.4413 50.6312,249.2527 337.8729,206.8365"/>
    <polygon points="271.7529,312.2408 312.2328,272.6 120.8701,50.9042 175.44,35.668"/>
    <polygon points="267.7563,314.8066 290.4214,297.6029 321.327,114.8782 43.8274,231.5282"/>
    <line x1="263.6811" x2="263.6811" y1="317.2456" y2="317.2456"/>
    <polygon points="260.9226,318.7999 243.744,326.8835 115.2585,318.7999 132.4371,326.8835"/>
    <polygon points="252.4603,323.1116 178.5978,337.2017 252.4603,49.5261 178.5978,35.4361"/>
    <polygon points="251.0243,323.7782 167.5729,336.1012 311.3225,98.7425 130.9682,326.293"/>
    <polygon points="249.5814,324.4297 156.6582,334.1963 338.4435,170.5162 300.44,85.159"/>
    <polygon points="242.269,327.4586 105.7514,313.11 70.6008,281.4602 180.1783,35.345"/>
    <polygon points="230.2687,331.4972 49.3434,246.3602 333.2688,228.4971 128.0493,325.0661"/>
    <polygon points="227.2191,332.3486 42.0608,225.4474"/>
    <polygon points="224.1523,333.136 37.9114,203.6952 83.4516,295.4354 66.7197,96.181"/>
    <polygon points="211.7405,335.6387 53.3872,117.6841 337.4104,209.9688 256.7253,321.0222"/>
    <polygon points="207.0386,336.3079 71.6035,89.9524 169.1425,336.3079 304.5776,89.9524"/>
    <polygon points="202.3179,336.8291 95.4306,66.8624 37.5804,172.0915 68.634,93.6589"/>
    <polygon points="194.4214,337.3674 144.3944,41.5903 322.0678,116.2773 40.9038,220.8412"/>
    <polygon points="188.0906,337.5 188.0906,35.1378"/>
    <polygon points="170.7142,336.4981 297.2071,81.6799 278.2285,307.6897 334.9077,222.3806"/>
    <polygon points="162.8783,335.3829 327.4588,127.7339 46.3912,133.6214 308.5108,94.9149"/>
    <polygon points="161.3187,335.1107 331.3752,138.0983 90.5095,70.8474 39.8921,216.201"/>
    <polygon points="159.762,334.8222 334.522,148.7217 159.762,37.8156 334.522,223.9161"/>
    <polygon points="150.4933,332.7504 336.5938,214.6474 225.6878,332.7504 39.5873,214.6474"/>
    <polygon points="148.962,332.3486 334.1203,225.4474"/>
    <polygon points="135.393,328.0182 279.4945,306.7392 337.1545,211.5312 246.6756,325.6872"/>
    <polygon points="89.4685,340.4528 90.6496,342.2244 92.4213,342.815 93.6024,342.815 95.374,342.2244 96.5551,340.4528 97.1457,337.5 97.1457,335.7283 96.5551,332.7756 95.374,331.0039 93.6024,330.4134 92.4213,330.4134 90.6496,331.0039 89.4685,332.7756 88.878,335.7283 88.878,337.5"/>
    <polygon points="78.8386,342.2244 80.6102,342.815 81.7913,342.815 83.563,342.2244 84.7441,340.4528 85.3346,337.5 85.3346,335.7283 84.7441,332.7756 83.563,331.0039 81.7913,330.4134 80.6102,330.4134 78.8386,331.0039 77.6575,332.7756 77.0669,335.7283 77.0669,337.5 77.6575,340.4528"/>
    <polyline points="72.9331,332.185 72.3425,331.0039 70.5709,330.4134 69.3898,330.4134 67.6181,331.0039 66.437,332.7756 65.8465,335.7283 65.8465,338.6811 66.437,341.0433 67.6181,342.2244 69.3898,342.815 71.752,342.2244 72.9331,341.0433 73.5236,339.2717 72.9331,336.9094 71.752,335.7283 69.9803,335.1378 67.6181,335.7283 66.437,336.9094 65.8465,338.6811"/>
    <line x1="61.122" x2="50.4921" y1="339.2717" y2="339.2717"/>
    <line x1="50.4921" x2="61.122" y1="335.7283" y2="335.7283"/>
    <polyline points="45.7677,342.815 45.7677,336.9094 45.1772,335.1378 43.9961,334.5472 42.2244,334.5472 41.0433,335.1378 39.2717,336.9094"/>
    <line x1="39.2717" x2="39.2717" y1="334.5472" y2="342.815"/>
    <line x1="307.3819" x2="313.878" y1="342.815" y2="334.5472"/>
    <line x1="318.0118" x2="328.6417" y1="335.7283" y2="335.7283"/>
    <line x1="328.6417" x2="318.0118" y1="339.2717" y2="339.2717"/>
    <line x1="313.878" x2="307.3819" y1="342.815" y2="334.5472"/>
    <polyline points="332.7756,330.4134 341.0433,330.4134 335.1378,342.815"/>
  </g>
</svg>
