<?xml version="1.0" encoding="utf-8" ?>
<svg xmlns="http://www.w3.org/2000/svg" xmlns:cc="http://creativecommons.org/ns" xmlns:dc="http://purl.org/dc/elements/1.1/" xmlns:ev="http://www.w3.org/2001/xml-events" xmlns:inkscape="http://www.inkscape.org/namespaces/inkscape" xmlns:rdf="http://www.w3.org/1999/02/22-rdf-syntax-ns" xmlns:sodipodi="http://sodipodi.sourceforge.net/DTD/sodipodi-0.dtd" xmlns:xlink="http://www.w3.org/1999/xlink" baseProfile="tiny" height="10.0cm" version="1.2" viewBox="0 0 377.95275590551176 377.95275590551176" width="10.0cm">
  <metadata>
    <rdf:RDF>
      <cc:Work>
        <dc:format>image/svg+xml</dc:format>
        <dc:source>Vsketch with params {'__seed__': 0, 'r': 4.0, 'multiplier': 6, 'n': 600}</dc:source>
        <dc:date>2025-04-26T20:23:52.559816</dc:date>
      </cc:Work>
    </rdf:RDF>
  </metadata>
  <defs/>
  <g fill="none" id="layer1" inkscape:groupmode="layer" inkscape:label="1" stroke="#0000ff" stroke-width="1.1339" style="display:inline">
    <polyline points="57.1639,261.9094 339.2717,186.3189 338.5168,171.2303 336.3344,156.6628 332.7447,142.3768 327.7817,128.508 321.4927,115.188 313.7274,102.229 304.9476,90.4015 295.0585,79.4845 289.3066,74.02 283.2759,68.8648 276.9831,64.033 270.1284,59.3326 263.3536,55.2037 256.3716,51.4359 249.2015,48.0396 241.5098,44.8901 234.0168,42.2824 226.0317,39.9762 218.3022,38.1873 210.4895,36.8063 202.6151,35.8371 194.7007,35.2824 186.3903,35.1474 178.4621,35.4447 170.5603,36.1576 162.3345,37.3479 154.1865,38.9885 146.5041,40.97 138.9363,43.3518 131.5038,46.1274 124.2272,49.289 116.793,53.0058 109.8975,56.9297 102.9049,61.4224 96.47,66.0633 90.2875,71.0354 84.3743,76.3249 78.7468,81.9174 73.1745,88.0844 68.1793,94.2482 63.0877,101.2894 58.2153,108.9358 53.984,116.5252 50.0413,124.69 46.5951,133.0764 43.7699,141.2935 41.3304,150.026 39.4187,158.8891 38.0417,167.8508 37.2045,176.879 36.9099,185.9411 37.1379,194.6273 37.9075,203.6614 39.1519,212.2611 40.9749,221.1428 43.327,229.8993 46.0699,238.1442 49.4321,246.5647 53.293,254.7685 57.6387,262.726 62.2439,270.0945 67.4923,277.4879 73.1745,284.5534 79.27,291.2656 85.4791,297.3442 92.3193,303.2957 99.5039,308.8266 107.0071,313.9167 114.802,318.5479 122.5198,322.5401 130.8038,326.2258 139.2938,329.4084 147.9593,332.0763 156.7691,334.2199 165.6916,335.8315 174.3184,336.8714 183.3683,337.4262 192.4352,337.4376 201.4864,336.9053 210.1157,335.887 219.0422,334.2977 227.8574,332.1761 236.5296,329.5299 244.6773,326.5104 252.9795,322.8661 260.7172,318.9126 268.5352,314.3204 276.0638,309.2678 283.2759,303.773 289.8667,298.1104 296.3852,291.8082 302.5141,285.1266 308.2316,278.0896 313.3055,271.0357 318.1588,263.3771 322.5443,255.4414 326.4461,247.257 329.8504,238.8535 332.6344,230.6223 335.0303,221.8777 336.8977,213.0052 338.2298,204.0367 338.9998,195.3817 339.2717,186.3189 36.9094,186.3189 112.5,317.2456"/>
    <polyline points="113.8752,318.03 37.2078,195.8116 262.3059,54.6078"/>
    <polyline points="263.6811,55.3922 36.9094,186.3189 263.6811,317.2456"/>
    <polyline points="262.3059,318.03 37.2078,176.8262 265.048,56.191"/>
    <line x1="266.4064" x2="38.1016" y1="57.004" y2="167.3709"/>
    <polyline points="37.9114,168.9426 71.6035,89.9524 278.2285,64.9481"/>
    <line x1="279.4945" x2="77.8843" y1="65.8986" y2="82.8283"/>
    <polyline points="78.974,81.6799 207.0386,336.3079 152.0288,333.136"/>
    <line x1="150.4933" x2="233.2999" y1="332.7504" y2="42.0558"/>
    <line x1="231.7867" x2="159.762" y1="41.5903" y2="334.8222"/>
    <polyline points="158.2085,334.5174 243.744,326.8835 331.3752,138.0983"/>
    <line x1="330.8624" x2="252.4603" y1="136.6005" y2="323.1116"/>
    <polyline points="253.8893,322.4301 51.2978,121.9491 37.3154,175.2467"/>
    <polyline points="37.4397,173.6684 55.6095,113.4868 101.8094,310.4611"/>
    <polyline points="103.1142,311.3579 51.2978,121.9491 320.5716,113.4868 312.2328,100.0378"/>
    <line x1="313.1295" x2="324.8833" y1="101.3425" y2="121.9491"/>
    <line x1="324.2017" x2="324.8833" y1="120.5202" y2="250.6887"/>
    <polyline points="325.5499,249.2527 315.737,105.312 311.3225,98.7425"/>
    <line x1="310.3986" x2="172.2878" y1="97.4569" y2="35.966"/>
    <polyline points="173.8632,35.8087 315.737,105.312 202.3179,336.8291"/>
    <polyline points="200.7411,336.9698 320.5716,113.4868 63.9483,272.6"/>
    <polyline points="64.8586,273.8953 315.737,105.312 334.522,148.7217 54.1133,116.2773"/>
    <line x1="54.8541" x2="336.5938" y1="114.8782" y2="157.9904"/>
    <polyline points="336.289,156.4368 132.4371,326.8835 236.3112,43.0342"/>
    <line x1="234.8081" x2="156.6582" y1="42.5371" y2="38.4415"/>
    <line x1="155.1114" x2="225.6878" y1="38.7787" y2="39.8874"/>
    <polyline points="227.2191,40.2892 188.0906,337.5 148.962,332.3486"/>
    <polyline points="147.435,331.9309 178.5978,337.2017 293.8664,294.3337"/>
    <polyline points="292.7295,295.4354 169.1425,336.3079 334.9077,150.2571"/>
    <polyline points="335.2773,151.7966 159.762,334.8222 144.3944,331.0475"/>
    <polyline points="142.8812,330.582 150.4933,332.7504 85.7597,75.0349"/>
    <line x1="84.6" x2="280.7505" y1="76.1126" y2="66.8624"/>
    <polyline points="281.9964,67.8393 91.7241,69.8319 94.1847,304.7985"/>
    <polyline points="92.9492,303.8087 99.2285,64.0108 65.7825,275.1809 126.5997,324.4297"/>
    <polyline points="128.0493,325.0661 71.6035,282.6854 97.9526,64.9481"/>
    <line x1="99.2285" x2="38.7707" y1="64.0108" y2="162.669"/>
    <polyline points="39.0266,161.1066 107.0837,58.6725 91.7241,302.8059 38.5313,208.4039"/>
    <polyline points="38.7707,209.9688 99.2285,308.627 65.7825,97.4569 310.3986,275.1809 172.2878,336.6718"/>
    <polyline points="170.7142,336.4981 304.5776,282.6854 309.4614,276.4568"/>
    <line x1="310.3986" x2="203.8933" y1="275.1809" y2="35.966"/>
    <polyline points="205.4669,36.1397 304.5776,282.6854 269.0974,313.9653 41.6591,223.9161 107.0837,58.6725 284.457,69.8319 328.6552,241.9724 178.5978,337.2017 41.6591,223.9161 37.0421,192.6497"/>
    <polyline points="36.984,191.0676 39.5873,214.6474 123.7208,323.1116 55.6095,259.1509 338.0795,205.2669 77.8843,82.8283 216.4191,334.8222 252.4603,49.5261 55.6095,259.1509 101.8094,62.1767"/>
    <line x1="100.5142" x2="60.4441" y1="63.087" y2="267.3258"/>
    <polyline points="61.2994,268.658 331.8723,139.6014 234.8081,330.1007 219.5229,38.4415"/>
    <line x1="221.0697" x2="225.6878" y1="38.7787" y2="332.7504"/>
    <polyline points="227.2191,332.3486 188.0906,35.1378 42.0608,147.1903"/>
    <polyline points="42.4786,145.6633 197.5833,35.4361 150.4933,39.8874 85.7597,297.6029"/>
    <line x1="84.6" x2="95.4306" y1="296.5252" y2="66.8624"/>
    <polyline points="94.1847,67.8393 91.7241,302.8059 132.4371,326.8835 39.8921,216.201"/>
    <line x1="39.5873" x2="108.4248" y1="214.6474" y2="57.8312"/>
    <polyline points="109.7747,57.004 38.1016,205.2669 115.2585,318.7999 39.2988,213.0908"/>
    <polyline points="39.0266,211.5312 107.0837,313.9653 337.1545,161.1066"/>
    <polyline points="337.4104,162.669 99.2285,308.627 92.9492,68.8291"/>
    <line x1="91.7241" x2="337.6498" y1="69.8319" y2="208.4039"/>
    <polyline points="337.4104,209.9688 99.2285,64.0108 283.2319,68.8291"/>
    <line x1="284.457" x2="166.0056" y1="69.8319" y2="36.7596"/>
    <polyline points="164.4406,36.9991 276.9526,64.0108 211.7405,335.6387"/>
    <polyline points="210.1755,335.8782 284.457,69.8319 69.6109,280.2247"/>
    <polyline points="68.634,278.9789 291.5811,76.1126 159.762,37.8156 335.2773,220.8412"/>
    <polyline points="334.9077,222.3806 169.1425,36.3299 145.9124,41.1406"/>
    <polyline points="147.435,40.7069 178.5978,35.4361 82.3147,294.3337"/>
    <polyline points="83.4516,295.4354 169.1425,36.3299 298.2968,82.8283 327.4588,244.9039"/>
    <polyline points="328.0647,243.4413 291.5811,76.1126 48.1164,129.1965"/>
    <line x1="47.5259" x2="271.7529" y1="130.6654" y2="60.3969"/>
    <polyline points="270.4297,59.5278 44.3088,139.6014 339.0645,194.2311"/>
    <line x1="338.9733" x2="189.6737" y1="195.8116" y2="35.1461"/>
    <line x1="188.0906" x2="294.9917" y1="35.1378" y2="79.4177"/>
    <polyline points="293.8664,78.3041 178.5978,35.4361 334.522,223.9161 315.737,267.3258 50.6312,249.2527"/>
    <polyline points="49.9797,247.8098 310.3986,275.1809 326.2014,124.828"/>
    <polyline points="325.5499,123.3851 315.737,267.3258 173.8632,336.8291"/>
    <polyline points="175.44,336.9698 320.5716,259.1509 63.9483,100.0378"/>
    <polyline points="64.8586,98.7425 315.737,267.3258 311.3225,273.8953"/>
    <polyline points="312.2328,272.6 320.5716,259.1509 324.8833,121.9491 63.0516,271.2953"/>
    <polyline points="62.1686,269.9812 328.6552,130.6654 52.6759,119.0985"/>
    <polyline points="53.3872,117.6841 331.8723,139.6014 196.0028,337.2928"/>
    <line x1="197.5833" x2="80.0758" y1="337.2017" y2="80.543"/>
    <line x1="81.1894" x2="188.0906" y1="79.4177" y2="337.5"/>
    <polyline points="186.5074,337.4917 338.9733,195.8116 57.9626,109.3615"/>
    <polyline points="57.1639,110.7283 339.2717,186.3189 188.0906,337.5 42.0608,225.4474"/>
    <polyline points="42.4786,226.9745 197.5833,337.2017 225.6878,39.8874 299.3745,83.988"/>
    <line x1="298.2968" x2="48.7223" y1="82.8283" y2="127.7339"/>
    <polyline points="49.3434,126.2776 304.5776,89.9524 205.4669,336.4981"/>
    <polyline points="203.8933,336.6718 310.3986,97.4569 326.2014,247.8098"/>
    <polyline points="326.8377,246.3602 304.5776,89.9524 170.7142,36.1397"/>
    <line x1="169.1425" x2="292.7295" y1="36.3299" y2="77.2024"/>
    <line x1="291.5811" x2="167.5729" y1="76.1126" y2="36.5365"/>
    <line x1="162.8783" x2="269.0974" y1="37.2549" y2="58.6725"/>
    <polyline points="267.7563,57.8312 39.5873,157.9904 259.5313,319.5553"/>
    <line x1="260.9226" x2="330.3339" y1="318.7999" y2="135.1081"/>
    <polyline points="329.7899,133.6214 269.0974,313.9653 71.6035,89.9524 97.9526,307.6897"/>
    <polyline points="96.6866,306.7392 77.8843,82.8283 38.1016,167.3709 260.9226,318.7999 45.8472,237.5297"/>
    <polyline points="45.3187,236.0373 252.4603,323.1116 159.762,334.8222 40.9038,220.8412"/>
    <polyline points="40.5504,219.298 150.4933,332.7504 197.5833,337.2017 328.6552,130.6654 323.5052,253.5393"/>
    <polyline points="324.2017,252.1176 324.8833,121.9491 177.0183,35.5438"/>
    <line x1="175.44" x2="320.5716" y1="35.668" y2="113.4868"/>
    <polyline points="319.8016,112.1035 338.9733,195.8116 318.2185,263.2763"/>
    <polyline points="317.4055,264.6348 338.0795,205.2669 184.9245,337.4668"/>
    <polyline points="183.3418,337.4254 336.5938,214.6474 321.327,114.8782"/>
    <polyline points="322.0678,116.2773 334.522,223.9161 54.1133,256.3605"/>
    <polyline points="53.3872,254.9537 331.8723,233.0364 234.8081,42.5371 141.373,330.1007 86.9306,73.9694"/>
    <line x1="88.1127" x2="132.4371" y1="72.9163" y2="326.8835"/>
    <polyline points="133.9121,327.4586 99.2285,308.627 283.2319,303.8087"/>
    <line x1="284.457" x2="210.1755" y1="302.8059" y2="36.7596"/>
    <polyline points="211.7405,36.9991 276.9526,308.627 305.5803,281.4602"/>
    <line x1="304.5776" x2="66.7197" y1="282.6854" y2="96.181"/>
    <line x1="65.7825" x2="338.4435" y1="97.4569" y2="202.1216"/>
    <polyline points="338.2697,203.6952 71.6035,89.9524 248.1318,325.0661"/>
    <polyline points="246.6756,325.6872 77.8843,82.8283 129.5055,46.9506"/>
    <line x1="128.0493" x2="71.6035" y1="47.5717" y2="89.9524"/>
    <polyline points="72.619,88.7379 260.9226,318.7999 303.5621,283.8999"/>
    <polyline points="302.5339,285.1037 252.4603,323.1116 73.6472,87.5341"/>
    <line x1="74.6879" x2="243.744" y1="86.341" y2="326.8835"/>
    <polyline points="242.269,327.4586 99.2285,64.0108 133.9121,45.1792"/>
    <polyline points="135.393,44.6196 107.0837,58.6725 240.7881,328.0182"/>
    <polyline points="239.3013,328.5623 115.2585,53.8379 39.2988,159.547"/>
    <line x1="39.5873" x2="116.6498" y1="157.9904" y2="53.0825"/>
    <polyline points="118.0489,52.3417 41.6591,148.7217 258.1322,320.2961"/>
    <polyline points="256.7253,321.0222 44.3088,139.6014 119.4558,51.6155"/>
    <polyline points="120.8701,50.9042 47.5259,130.6654 37.2078,176.8262 111.1331,316.4468"/>
    <polyline points="109.7747,315.6338 38.1016,167.3709 36.9426,183.1528"/>
    <polyline points="36.9177,184.7358 37.2078,176.8262 339.2634,187.902"/>
    <polyline points="339.2385,189.485 38.1016,167.3709 115.2585,53.8379 90.5095,301.7904"/>
    <polyline points="89.3057,300.7622 123.7208,49.5261 286.8754,71.8756"/>
    <polyline points="285.6716,70.8474 115.2585,53.8379 336.8823,213.0908"/>
    <line x1="337.1545" x2="107.0837" y1="211.5312" y2="58.6725"/>
    <line x1="105.7514" x2="44.3088" y1="59.5278" y2="233.0364"/>
    <polyline points="43.8274,231.5282 225.6878,332.7504 197.5833,35.4361 328.6552,241.9724 314.0125,269.9812"/>
    <polyline points="313.1295,271.2953 324.8833,250.6887 199.1628,35.5438"/>
    <line x1="197.5833" x2="296.1053" y1="35.4361" y2="80.543"/>
    <polyline points="297.2071,81.6799 207.0386,36.3299 224.1523,333.136"/>
    <polyline points="222.6129,333.5056 216.4191,37.8156 153.5682,39.1322"/>
    <polyline points="152.0288,39.5017 207.0386,36.3299 333.2688,228.4971"/>
    <polyline points="333.7025,226.9745 197.5833,35.4361 80.0758,292.0948"/>
    <polyline points="81.1894,293.2201 188.0906,35.1378 339.2717,186.3189 319.0172,110.7283"/>
    <polyline points="318.2185,109.3615 338.9733,176.8262 189.6737,337.4917"/>
    <line x1="191.2566" x2="338.0795" y1="337.4668" y2="167.3709"/>
    <line x1="338.2697" x2="71.6035" y1="168.9426" y2="282.6854"/>
    <polyline points="70.6008,281.4602 276.9526,64.0108 65.7825,97.4569 37.7376,170.5162"/>
    <line x1="37.5804" x2="60.4441" y1="172.0915" y2="105.312"/>
    <line x1="61.2994" x2="331.8723" y1="103.9798" y2="233.0364"/>
    <polyline points="331.3752,234.5395 243.744,45.7543 44.8059,138.0983"/>
    <polyline points="45.3187,136.6005 252.4603,49.5261 159.762,37.8156 84.6,296.5252 38.3082,206.8365"/>
    <line x1="38.1016" x2="266.4064" y1="205.2669" y2="315.6338"/>
    <polyline points="267.7563,314.8066 39.5873,214.6474 116.6498,319.5553"/>
    <polyline points="118.0489,320.2961 41.6591,223.9161 258.1322,52.3417"/>
    <polyline points="256.7253,51.6155 44.3088,233.0364 119.4558,321.0222"/>
    <polyline points="120.8701,321.7336 47.5259,241.9724 271.7529,312.2408"/>
    <polyline points="270.4297,313.11 44.3088,233.0364 339.0645,178.4067"/>
    <line x1="338.9733" x2="56.3795" y1="176.8262" y2="112.1035"/>
    <line x1="55.6095" x2="274.3717" y1="113.4868" y2="62.1767"/>
    <polyline points="273.0669,61.2799 51.2978,121.9491 338.8657,197.3911"/>
    <polyline points="338.7414,198.9694 55.6095,113.4868 123.7208,49.5261 336.5938,214.6474 54.8541,257.7596"/>
    <line x1="55.6095" x2="338.7414" y1="259.1509" y2="173.6684"/>
    <polyline points="338.6007,172.0915 60.4441,267.3258 251.0243,48.8596"/>
    <line x1="252.4603" x2="330.8624" y1="49.5261" y2="236.0373"/>
    <polyline points="330.3339,237.5297 260.9226,53.8379 161.3187,37.5271"/>
    <line x1="159.762" x2="144.3944" y1="37.8156" y2="41.5903"/>
    <line x1="142.8812" x2="150.4933" y1="42.0558" y2="39.8874"/>
    <polyline points="148.962,40.2892 188.0906,35.1378 334.1203,225.4474"/>
    <line x1="334.522" x2="181.7597" y1="223.9161" y2="337.3674"/>
    <polyline points="180.1783,337.2928 331.8723,233.0364 196.0028,35.345"/>
    <polyline points="194.4214,35.2704 334.522,223.9161 60.4441,105.312 100.5142,309.5508"/>
    <line x1="99.2285" x2="242.269" y1="308.627" y2="45.1792"/>
    <polyline points="240.7881,44.6196 107.0837,313.9653 91.7241,69.8319 243.744,326.8835 44.8059,234.5395"/>
    <polyline points="46.3912,239.0164 269.0974,313.9653 213.3028,37.2549"/>
    <polyline points="214.8624,37.5271 260.9226,318.7999 161.3187,335.1107"/>
    <line x1="162.8783" x2="269.0974" y1="335.3829" y2="313.9653"/>
    <polyline points="265.048,316.4468 37.2078,195.8116 111.1331,56.191"/>
    <line x1="112.5" x2="36.9094" y1="55.3922" y2="186.3189"/>
    <polyline points="36.9177,187.902 37.2078,195.8116 47.5259,241.9724 284.457,302.8059 107.0837,313.9653 41.6591,148.7217 178.5978,35.4361 328.6552,130.6654 284.457,302.8059 306.5702,280.2247"/>
    <polyline points="307.5471,278.9789 291.5811,296.5252 328.0647,129.1965"/>
    <line x1="327.4588" x2="298.2968" y1="127.7339" y2="289.8095"/>
    <polyline points="297.2071,290.9579 207.0386,336.3079 224.1523,39.5017"/>
    <polyline points="222.6129,39.1322 216.4191,334.8222 43.3619,230.015"/>
    <polyline points="42.9123,228.4971 207.0386,336.3079 298.2968,82.8283 216.4191,37.8156 332.8192,230.015"/>
    <polyline points="332.3537,231.5282 225.6878,39.8874 221.0697,333.8591"/>
    <polyline points="219.5229,334.1963 234.8081,42.5371 75.7411,287.4788"/>
    <polyline points="74.6879,286.2968 243.744,45.7543 91.7241,302.8059 281.9964,304.7985"/>
    <polyline points="280.7505,305.7754 84.6,296.5252 245.2129,46.3448"/>
    <line x1="243.744" x2="301.4932" y1="45.7543" y2="86.341"/>
    <polyline points="300.44,85.159 234.8081,42.5371 44.3088,139.6014 105.7514,313.11"/>
    <polyline points="104.4282,312.2408 47.5259,130.6654 255.311,321.7336"/>
    <polyline points="251.0243,323.7782 60.4441,105.312 338.6007,200.5463"/>
    <line x1="338.0795" x2="191.2566" y1="205.2669" y2="35.171"/>
    <polyline points="192.8393,35.2124 336.5938,214.6474 316.5783,265.9847"/>
    <line x1="315.737" x2="202.3179" y1="267.3258" y2="35.8087"/>
    <line x1="200.7411" x2="320.5716" y1="35.668" y2="259.1509"/>
    <polyline points="321.327,257.7596 336.5938,157.9904 183.3418,35.2124"/>
    <polyline points="181.7597,35.2704 334.522,148.7217 194.4214,337.3674"/>
    <polyline points="192.8393,337.4254 336.5938,157.9904 316.5783,106.6531"/>
    <polyline points="317.4055,108.003 338.0795,167.3709 320.5716,259.1509 51.2978,250.6887 37.3154,197.3911"/>
    <line x1="37.2078" x2="339.2634" y1="195.8116" y2="184.7358"/>
    <polyline points="339.2385,183.1528 38.1016,205.2669 260.9226,53.8379 72.619,283.8999"/>
    <polyline points="73.6472,285.1037 252.4603,49.5261 302.5339,87.5341"/>
    <line x1="303.5621" x2="260.9226" y1="88.7379" y2="53.8379"/>
    <polyline points="259.5313,53.0825 39.5873,214.6474 339.1971,181.5702"/>
    <line x1="339.139" x2="41.6591" y1="179.9881" y2="223.9161"/>
    <polyline points="41.2734,222.3806 169.1425,336.3079 298.2968,289.8095 216.4191,334.8222 332.8192,142.6228"/>
    <polyline points="332.3537,141.1096 225.6878,332.7504 299.3745,288.6498"/>
    <line x1="300.44" x2="234.8081" y1="287.4788" y2="330.1007"/>
    <polyline points="233.2999,330.582 150.4933,39.8874 40.5504,153.3398"/>
    <polyline points="40.9038,151.7966 159.762,37.8156 231.7867,331.0475"/>
    <polyline points="230.2687,331.4972 169.1425,36.3299 41.2734,150.2571"/>
    <line x1="41.6591" x2="339.139" y1="148.7217" y2="192.6497"/>
    <polyline points="339.1971,191.0676 39.5873,157.9904 36.984,181.5702"/>
    <polyline points="37.0421,179.9881 41.6591,148.7217 269.0974,58.6725 71.6035,282.6854 37.9114,203.6952"/>
    <polyline points="37.7376,202.1216 65.7825,275.1809 310.3986,97.4569 49.9797,124.828"/>
    <line x1="50.6312" x2="315.737" y1="123.3851" y2="105.312"/>
    <line x1="314.8817" x2="331.8723" y1="103.9798" y2="139.6014"/>
    <line x1="333.2688" x2="207.0386" y1="144.1407" y2="336.3079"/>
    <polyline points="208.6082,336.1012 291.5811,76.1126 307.5471,93.6589"/>
    <polyline points="306.5702,92.4131 284.457,69.8319 47.5259,130.6654 338.9733,195.8116 56.3795,260.5343"/>
    <polyline points="57.9626,263.2763 338.9733,176.8262 47.5259,241.9724 255.311,50.9042"/>
    <polyline points="253.8893,50.2077 51.2978,250.6887 122.2918,322.4301"/>
    <line x1="123.7208" x2="237.809" y1="323.1116" y2="43.547"/>
    <polyline points="239.3013,44.0755 115.2585,318.7999 336.8823,159.547"/>
    <line x1="335.968" x2="141.373" y1="154.8866" y2="330.1007"/>
    <polyline points="139.8699,329.6036 132.4371,326.8835 288.0684,299.7215"/>
    <polyline points="286.8754,300.7622 123.7208,323.1116 89.3057,71.8756"/>
    <line x1="90.5095" x2="115.2585" y1="70.8474" y2="318.7999"/>
    <polyline points="108.4248,314.8066 39.5873,157.9904 123.7208,49.5261 237.809,329.0908"/>
    <polyline points="236.3112,329.6036 132.4371,45.7543 336.289,216.201"/>
    <line x1="335.968" x2="141.373" y1="217.7512" y2="42.5371"/>
    <line x1="139.8699" x2="132.4371" y1="43.0342" y2="45.7543"/>
    <polyline points="130.9682,46.3448 84.6,76.1126 159.762,334.8222 291.5811,296.5252 48.1164,243.4413"/>
    <polyline points="48.7223,244.9039 298.2968,289.8095 67.6703,94.9149"/>
    <line x1="68.634" x2="291.5811" y1="93.6589" y2="296.5252"/>
    <polyline points="290.4214,297.6029 150.4933,332.7504 335.6307,153.3398"/>
    <line x1="334.522" x2="322.0678" y1="148.7217" y2="256.3605"/>
    <polyline points="322.7939,254.9537 331.8723,139.6014 180.1783,35.345"/>
    <line x1="178.5978" x2="228.7461" y1="35.4361" y2="331.9309"/>
    <polyline points="217.9726,334.5174 243.744,45.7543 158.2085,38.1204"/>
    <line x1="138.3721" x2="123.7208" y1="43.547" y2="49.5261"/>
    <line x1="122.2918" x2="51.2978" y1="50.2077" y2="121.9491"/>
    <polyline points="51.9794,120.5202 324.8833,121.9491 199.1628,337.094"/>
    <polyline points="213.3028,335.3829 269.0974,58.6725 304.5776,89.9524 66.7197,276.4568"/>
    <line x1="65.7825" x2="249.5814" y1="275.1809" y2="48.2081"/>
    <polyline points="248.1318,47.5717 71.6035,282.6854 278.2285,307.6897"/>
    <polyline points="279.4945,306.7392 77.8843,289.8095 338.0795,167.3709 55.6095,113.4868 252.4603,323.1116 216.4191,37.8156 77.8843,289.8095 38.1016,205.2669 36.9426,189.485"/>
    <polyline points="37.1166,194.2311 44.3088,233.0364 234.8081,330.1007 141.373,42.5371 289.2505,73.9694"/>
    <polyline points="290.4214,75.0349 150.4933,39.8874 335.6307,219.298"/>
    <line x1="336.5938" x2="59.6028" y1="214.6474" y2="106.6531"/>
    <polyline points="58.7756,108.003 338.0795,205.2669 320.5716,113.4868 324.8833,250.6887 51.9794,252.1176"/>
    <line x1="51.2978" x2="103.1142" y1="250.6887" y2="61.2799"/>
    <line x1="104.4282" x2="47.5259" y1="60.3969" y2="241.9724"/>
    <polyline points="46.9508,240.4974 276.9526,308.627 65.7825,275.1809 338.4435,170.5162"/>
    <polyline points="337.8729,165.8013 84.6,296.5252 130.9682,326.293"/>
    <polyline points="129.5055,325.6872 77.8843,289.8095 96.6866,65.8986"/>
    <line x1="83.4516" x2="169.1425" y1="77.2024" y2="336.3079"/>
    <polyline points="167.5729,336.1012 291.5811,296.5252 208.6082,36.5365"/>
    <line x1="207.0386" x2="42.9123" y1="36.3299" y2="144.1407"/>
    <line x1="43.3619" x2="216.4191" y1="142.6228" y2="37.8156"/>
    <polyline points="217.9726,38.1204 243.744,326.8835 301.4932,286.2968"/>
    <polyline points="296.1053,292.0948 197.5833,337.2017 333.7025,145.6633"/>
    <polyline points="334.1203,147.1903 188.0906,337.5 294.9917,293.2201"/>
    <polyline points="289.2505,298.6684 141.373,330.1007 40.2131,217.7512"/>
    <polyline points="37.5804,200.5463 60.4441,267.3258 334.522,148.7217 178.5978,337.2017 82.3147,78.3041"/>
    <polyline points="76.8066,83.988 225.6878,332.7504 155.1114,333.8591"/>
    <polyline points="156.6582,334.1963 234.8081,330.1007 75.7411,85.159"/>
    <line x1="70.6008" x2="276.9526" y1="91.1775" y2="308.627"/>
    <polyline points="275.6669,309.5508 60.4441,267.3258 125.1568,323.7782"/>
    <line x1="135.393" x2="107.0837" y1="328.0182" y2="313.9653"/>
    <polyline points="95.4306,305.7754 84.6,76.1126 38.3082,165.8013"/>
    <polyline points="38.5313,164.2339 91.7241,69.8319 132.4371,45.7543 88.1127,299.7215"/>
    <polyline points="86.9306,298.6684 141.373,42.5371 40.2131,154.8866"/>
    <polyline points="39.8921,156.4368 132.4371,45.7543 288.0684,72.9163"/>
    <line x1="276.9526" x2="46.9508" y1="64.0108" y2="132.1404"/>
    <polyline points="46.3912,133.6214 269.0974,58.6725 329.7899,239.0164"/>
    <polyline points="329.2303,240.4974 276.9526,64.0108 305.5803,91.1775"/>
    <line x1="304.5776" x2="309.4614" y1="89.9524" y2="96.181"/>
    <polyline points="308.5108,94.9149 298.2968,82.8283 67.6703,277.7229"/>
    <polyline points="59.6028,265.9847 336.5938,157.9904 123.7208,323.1116 138.3721,329.0908"/>
    <polyline points="136.8798,328.5623 115.2585,318.7999 285.6716,301.7904"/>
    <polyline points="274.3717,310.4611 55.6095,259.1509 37.4397,198.9694"/>
    <line x1="37.1166" x2="44.3088" y1="178.4067" y2="139.6014"/>
    <polyline points="43.8274,141.1096 225.6878,39.8874 76.8066,288.6498"/>
    <line x1="77.8843" x2="246.6756" y1="289.8095" y2="46.9506"/>
    <polyline points="230.2687,41.1406 169.1425,336.3079 145.9124,331.4972"/>
    <line x1="153.5682" x2="216.4191" y1="333.5056" y2="334.8222"/>
    <polyline points="214.8624,335.1107 260.9226,53.8379 45.8472,135.1081"/>
    <line x1="62.1686" x2="328.6552" y1="102.6566" y2="241.9724"/>
    <polyline points="319.8016,260.5343 338.9733,176.8262 186.5074,35.1461"/>
    <polyline points="184.9245,35.171 338.0795,167.3709 58.7756,264.6348"/>
    <polyline points="52.6759,253.5393 328.6552,241.9724 323.5052,119.0985"/>
    <polyline points="322.7939,117.6841 331.8723,233.0364 314.8817,268.658"/>
    <line x1="319.0172" x2="339.2717" y1="261.9094" y2="186.3189"/>
    <polyline points="338.8657,175.2467 51.2978,250.6887 273.0669,311.3579"/>
    <polyline points="249.5814,324.4297 65.7825,97.4569 126.5997,48.2081"/>
    <polyline points="125.1568,48.8596 60.4441,105.312 275.6669,63.087"/>
    <line x1="228.7461" x2="178.5978" y1="40.7069" y2="337.2017"/>
    <polyline points="177.0183,337.094 324.8833,250.6887 63.0516,101.3425"/>
    <polyline points="69.6109,92.4131 284.457,302.8059 166.0056,335.8782"/>
    <polyline points="164.4406,335.6387 276.9526,308.627 329.2303,132.1404"/>
    <line x1="328.6552" x2="314.0125" y1="130.6654" y2="102.6566"/>
    <polyline points="326.8377,126.2776 304.5776,282.6854 49.3434,246.3602"/>
    <polyline points="78.974,290.9579 207.0386,36.3299 298.2968,289.8095 308.5108,277.7229"/>
    <line x1="307.3819" x2="313.878" y1="334.5472" y2="342.815"/>
    <line x1="318.0118" x2="328.6417" y1="339.2717" y2="339.2717"/>
    <line x1="328.6417" x2="318.0118" y1="335.7283" y2="335.7283"/>
    <line x1="313.878" x2="307.3819" y1="334.5472" y2="342.815"/>
    <polyline points="333.3661,338.6811 333.9567,336.9094 335.1378,335.7283 337.5,335.1378 339.2717,335.7283 340.4528,336.9094 341.0433,339.2717 340.4528,341.0433 339.2717,342.2244 336.9094,342.815 335.1378,342.2244 333.9567,341.0433 333.3661,338.6811 333.3661,335.7283 333.9567,332.7756 335.1378,331.0039 336.9094,330.4134 338.0906,330.4134 339.8622,331.0039 340.4528,332.185"/>
    <polyline points="245.2129,326.293 84.6,76.1126 337.8729,206.8365"/>
    <line x1="337.6498" x2="91.7241" y1="164.2339" y2="302.8059"/>
    <polygon points="88.878,335.7283 88.878,337.5 89.4685,340.4528 90.6496,342.2244 92.4213,342.815 93.6024,342.815 95.374,342.2244 96.5551,340.4528 97.1457,337.5 97.1457,335.7283 96.5551,332.7756 95.374,331.0039 93.6024,330.4134 92.4213,330.4134 90.6496,331.0039 89.4685,332.7756"/>
    <polygon points="85.3346,335.7283 84.7441,332.7756 83.563,331.0039 81.7913,330.4134 80.6102,330.4134 78.8386,331.0039 77.6575,332.7756 77.0669,335.7283 77.0669,337.5 77.6575,340.4528 78.8386,342.2244 80.6102,342.815 81.7913,342.815 83.563,342.2244 84.7441,340.4528 85.3346,337.5"/>
    <polyline points="72.9331,332.185 72.3425,331.0039 70.5709,330.4134 69.3898,330.4134 67.6181,331.0039 66.437,332.7756 65.8465,335.7283 65.8465,338.6811 66.437,341.0433 67.6181,342.2244 69.3898,342.815 71.752,342.2244 72.9331,341.0433 73.5236,339.2717 72.9331,336.9094 71.752,335.7283 69.9803,335.1378 67.6181,335.7283 66.437,336.9094 65.8465,338.6811"/>
    <line x1="61.122" x2="50.4921" y1="339.2717" y2="339.2717"/>
    <line x1="50.4921" x2="61.122" y1="335.7283" y2="335.7283"/>
    <polyline points="45.7677,342.815 45.7677,336.9094 45.1772,335.1378 43.9961,334.5472 42.2244,334.5472 41.0433,335.1378 39.2717,336.9094"/>
    <line x1="39.2717" x2="39.2717" y1="334.5472" y2="342.815"/>
    <line x1="37.2078" x2="113.8752" y1="176.8262" y2="54.6078"/>
    <line x1="115.2585" x2="136.8798" y1="53.8379" y2="44.0755"/>
  </g>
</svg>
