<?xml version="1.0" encoding="utf-8" ?>
<svg xmlns="http://www.w3.org/2000/svg" xmlns:cc="http://creativecommons.org/ns" xmlns:dc="http://purl.org/dc/elements/1.1/" xmlns:ev="http://www.w3.org/2001/xml-events" xmlns:inkscape="http://www.inkscape.org/namespaces/inkscape" xmlns:rdf="http://www.w3.org/1999/02/22-rdf-syntax-ns" xmlns:sodipodi="http://sodipodi.sourceforge.net/DTD/sodipodi-0.dtd" xmlns:xlink="http://www.w3.org/1999/xlink" baseProfile="tiny" height="10.0cm" version="1.2" viewBox="0 0 377.95275590551176 377.95275590551176" width="10.0cm">
  <metadata>
    <rdf:RDF>
      <cc:Work>
        <dc:format>image/svg+xml</dc:format>
        <dc:source>Vsketch with params {'__seed__': 0, 'r': 4.0, 'multiplier': 4, 'n': 600}</dc:source>
        <dc:date>2025-04-26T20:23:44.273089</dc:date>
      </cc:Work>
    </rdf:RDF>
  </metadata>
  <defs/>
  <g fill="none" id="layer1" inkscape:groupmode="layer" inkscape:label="1" stroke="#0000ff" stroke-width="1.1339" style="display:inline">
    <polyline points="294.9917,293.2201 339.2717,186.3189 338.8469,174.9942 337.631,164.1068 335.547,152.9674 332.7447,142.3768 329.0467,131.6645 324.7188,121.6006 319.6734,111.8765 313.7274,102.229 306.1371,91.8692 297.6949,82.191 288.1789,73.0138 278.2012,64.9278 267.2515,57.5196 256.0343,51.2657 244.3267,45.9864 231.8518,41.61 219.412,38.4179 206.7461,36.2933 193.5681,35.2371 180.7255,35.3173 167.5617,36.5381 154.9234,38.8209 142.1643,42.2824 130.1052,46.7001 120.8227,50.9277 111.8465,55.7717 103.2173,61.2099 94.9745,67.2176 87.1555,73.7674 79.7959,80.8295 72.9293,88.3719 66.5869,96.36 60.7976,104.7577 55.5877,113.5266 50.9809,122.6268 46.9983,132.017 43.6579,141.6543 40.9749,151.495 38.9616,161.4942 37.627,171.6063 36.9774,181.7855 37.0157,191.9852 37.7416,202.1592 39.1519,212.2611 41.2401,222.2449 43.9968,232.0651 47.4094,241.6772 51.4623,251.0372 56.1372,260.1026 61.4127,268.8322 67.2648,277.1862 73.667,285.1266 80.5899,292.6172 88.0022,299.624 95.8701,306.115 104.1577,312.0607 112.8275,317.4341 121.8398,322.2106 131.1536,326.3686 140.7267,329.889 150.5153,332.756 160.475,334.9564 170.5603,336.4802 180.7255,337.3205 190.9242,337.4734 201.11,336.9383 211.2365,335.7177 221.2577,333.8169 231.1279,331.2448 240.8022,328.013 250.2366,324.1362 259.3881,319.632 268.215,314.5211 276.6772,308.8266 284.7362,302.5744 292.3553,295.793 299.4998,288.5134 306.1371,280.7686 312.2371,272.5938 317.772,264.0263 322.7166,255.1051 327.0484,245.8708 330.7477,236.3655 333.7976,226.6323 336.1843,216.7156 337.8969,206.6606 338.9276,196.5129 339.2717,186.3189 36.9094,186.3189 188.0906,337.5"/>
    <polyline points="186.5074,337.4917 37.0421,179.9881 189.6737,35.1461"/>
    <line x1="188.0906" x2="36.9094" y1="35.1378" y2="186.3189"/>
    <polyline points="36.9177,184.7358 37.0421,179.9881 39.0266,161.1066 181.7597,337.3674"/>
    <polyline points="183.3418,337.4254 38.1016,167.3709 339.1971,191.0676"/>
    <line x1="339.139" x2="296.1053" y1="192.6497" y2="80.543"/>
    <polyline points="297.2071,81.6799 338.7414,198.9694 292.7295,295.4354"/>
    <line x1="293.8664" x2="104.4282" y1="294.3337" y2="60.3969"/>
    <line x1="103.1142" x2="298.2968" y1="61.2799" y2="289.8095"/>
    <polyline points="297.2071,290.9579 338.7414,173.6684 78.974,81.6799"/>
    <line x1="77.8843" x2="39.5873" y1="82.8283" y2="157.9904"/>
    <line x1="39.2988" x2="73.6472" y1="159.547" y2="87.5341"/>
    <polyline points="74.6879,86.341 334.522,148.7217 301.4932,286.2968"/>
    <polyline points="302.5339,285.1037 101.8094,62.1767 152.0288,333.136"/>
    <line x1="150.4933" x2="107.0837" y1="332.7504" y2="58.6725"/>
    <polyline points="105.7514,59.5278 289.2505,298.6684 270.4297,313.11"/>
    <polyline points="271.7529,312.2408 293.8664,294.3337 314.0125,102.6566 97.9526,307.6897"/>
    <polyline points="96.6866,306.7392 222.6129,333.5056 51.9794,252.1176"/>
    <polyline points="51.2978,250.6887 216.4191,334.8222 324.8833,121.9491"/>
    <polyline points="324.2017,120.5202 222.6129,333.5056 253.8893,322.4301"/>
    <line x1="252.4603" x2="115.2585" y1="323.1116" y2="53.8379"/>
    <line x1="113.8752" x2="258.1322" y1="54.6078" y2="320.2961"/>
    <polyline points="256.7253,321.0222 234.8081,330.1007 322.7939,117.6841"/>
    <line x1="323.5052" x2="94.1847" y1="119.0985" y2="304.7985"/>
    <polyline points="92.9492,303.8087 326.2014,124.828 203.8933,336.6718 126.5997,48.2081"/>
    <line x1="125.1568" x2="210.1755" y1="48.8596" y2="335.8782"/>
    <polyline points="211.7405,335.6387 65.7825,275.1809 337.4104,162.669"/>
    <line x1="337.1545" x2="290.4214" y1="161.1066" y2="75.0349"/>
    <line x1="289.2505" x2="61.2994" y1="73.9694" y2="103.9798"/>
    <line x1="60.4441" x2="284.457" y1="105.312" y2="69.8319"/>
    <polyline points="283.2319,68.8291 326.2014,124.828 305.5803,281.4602"/>
    <line x1="304.5776" x2="328.6552" y1="282.6854" y2="130.6654"/>
    <polyline points="329.2303,132.1404 172.2878,336.6718 242.269,327.4586"/>
    <line x1="243.744" x2="178.5978" y1="326.8835" y2="337.2017"/>
    <polyline points="180.1783,337.2928 40.2131,154.8866 196.0028,35.345"/>
    <line x1="194.4214" x2="39.0266" y1="35.2704" y2="161.1066"/>
    <line x1="38.7707" x2="65.7825" y1="162.669" y2="97.4569"/>
    <polyline points="66.7197,96.181 314.0125,102.6566 309.4614,276.4568"/>
    <line x1="310.3986" x2="99.2285" y1="275.1809" y2="64.0108"/>
    <line x1="97.9526" x2="314.0125" y1="64.9481" y2="269.9812"/>
    <polyline points="313.1295,271.2953 298.2968,82.8283 273.0669,61.2799"/>
    <polyline points="274.3717,62.1767 58.7756,108.003 167.5729,336.1012"/>
    <line x1="166.0056" x2="329.7899" y1="335.8782" y2="133.6214"/>
    <polyline points="330.3339,135.1081 159.762,334.8222 239.3013,328.5623"/>
    <polyline points="237.809,329.0908 153.5682,333.5056 330.8624,136.6005 90.5095,301.7904"/>
    <polyline points="89.3057,300.7622 332.8192,142.6228 286.8754,71.8756"/>
    <polyline points="285.6716,70.8474 330.8624,136.6005 303.5621,283.8999"/>
    <line x1="306.5702" x2="311.3225" y1="280.2247" y2="98.7425"/>
    <polyline points="310.3986,97.4569 65.7825,97.4569 164.4406,335.6387"/>
    <line x1="162.8783" x2="69.6109" y1="335.3829" y2="92.4131"/>
    <line x1="70.6008" x2="326.2014" y1="91.1775" y2="124.828"/>
    <polyline points="325.5499,123.3851 210.1755,335.8782 251.0243,323.7782"/>
    <line x1="249.5814" x2="203.8933" y1="324.4297" y2="336.6718"/>
    <polyline points="205.4669,336.4981 52.6759,253.5393 338.2697,168.9426"/>
    <line x1="338.0795" x2="84.6" y1="167.3709" y2="296.5252"/>
    <polyline points="85.7597,297.6029 337.1545,161.1066 69.6109,280.2247 162.8783,37.2549"/>
    <polyline points="161.3187,37.5271 73.6472,285.1037 214.8624,335.1107"/>
    <polyline points="216.4191,334.8222 123.7208,49.5261 145.9124,331.4972"/>
    <line x1="147.435" x2="331.3752" y1="331.9309" y2="138.0983"/>
    <line x1="330.8624" x2="72.619" y1="136.6005" y2="88.7379"/>
    <polyline points="71.6035,89.9524 328.6552,130.6654 91.7241,302.8059 40.5504,219.298"/>
    <polyline points="40.9038,220.8412 96.6866,306.7392 335.2773,151.7966"/>
    <polyline points="334.9077,150.2571 101.8094,310.4611 224.1523,333.136"/>
    <line x1="222.6129" x2="122.2918" y1="333.5056" y2="50.2077"/>
    <line x1="123.7208" x2="230.2687" y1="49.5261" y2="41.1406"/>
    <line x1="228.7461" x2="255.311" y1="40.7069" y2="50.9042"/>
    <polyline points="253.8893,50.2077 222.6129,39.1322 324.2017,252.1176"/>
    <line x1="323.5052" x2="94.1847" y1="253.5393" y2="67.8393"/>
    <line x1="95.4306" x2="320.5716" y1="66.8624" y2="259.1509"/>
    <polyline points="321.327,257.7596 246.6756,46.9506 259.5313,53.0825"/>
    <line x1="260.9226" x2="252.4603" y1="53.8379" y2="49.5261"/>
    <line x1="251.0243" x2="210.1755" y1="48.8596" y2="36.7596"/>
    <polyline points="211.7405,36.9991 65.7825,97.4569 337.4104,209.9688"/>
    <polyline points="337.6498,208.4039 62.1686,102.6566 210.1755,36.7596 125.1568,323.7782"/>
    <polyline points="126.5997,324.4297 203.8933,35.966 326.2014,247.8098 70.6008,281.4602"/>
    <polyline points="71.6035,282.6854 328.6552,241.9724 91.7241,69.8319 335.6307,219.298"/>
    <polyline points="335.2773,220.8412 96.6866,65.8986 222.6129,39.1322 122.2918,322.4301"/>
    <line x1="123.7208" x2="145.9124" y1="323.1116" y2="41.1406"/>
    <line x1="147.435" x2="44.8059" y1="40.7069" y2="138.0983"/>
    <line x1="45.3187" x2="175.44" y1="136.6005" y2="336.9698"/>
    <polyline points="177.0183,337.094 43.3619,142.6228 129.5055,46.9506 144.3944,331.0475"/>
    <polyline points="142.8812,330.582 135.393,44.6196 43.8274,141.1096"/>
    <line x1="44.3088" x2="141.373" y1="139.6014" y2="42.5371"/>
    <polyline points="139.8699,43.0342 147.435,331.9309 236.3112,329.6036"/>
    <line x1="234.8081" x2="119.4558" y1="330.1007" y2="51.6155"/>
    <polyline points="120.8701,50.9042 228.7461,331.9309 323.5052,119.0985 69.6109,92.4131 39.0266,161.1066 339.139,192.6497 293.8664,294.3337 62.1686,269.9812 166.0056,36.7596 240.7881,44.6196 118.0489,320.2961 228.7461,331.9309 52.6759,253.5393 37.9114,203.6952"/>
    <line x1="38.1016" x2="183.3418" y1="205.2669" y2="35.2124"/>
    <line x1="181.7597" x2="39.0266" y1="35.2704" y2="211.5312"/>
    <polyline points="38.7707,209.9688 65.7825,275.1809 310.3986,275.1809 310.3986,97.4569 310.3986,275.1809 276.9526,308.627"/>
    <polyline points="278.2285,307.6897 314.0125,269.9812 309.4614,96.181"/>
    <polyline points="308.5108,94.9149 317.4055,264.6348 279.4945,306.7392 59.6028,265.9847"/>
    <line x1="60.4441" x2="284.457" y1="267.3258" y2="302.8059"/>
    <polyline points="283.2319,303.8087 326.2014,247.8098 92.9492,68.8291"/>
    <line x1="91.7241" x2="221.0697" y1="69.8319" y2="38.7787"/>
    <line x1="219.5229" x2="86.9306" y1="38.4415" y2="73.9694"/>
    <polyline points="88.1127,72.9163 334.522,223.9161 288.0684,299.7215"/>
    <line x1="286.8754" x2="332.8192" y1="300.7622" y2="230.015"/>
    <polyline points="332.3537,231.5282 135.393,44.6196 166.0056,335.8782 46.3912,239.0164"/>
    <polyline points="46.9508,240.4974 172.2878,336.6718 49.9797,124.828 203.8933,35.966 49.9797,124.828 338.4435,202.1216"/>
    <polyline points="338.2697,203.6952 52.6759,119.0985 205.4669,36.1397"/>
    <line x1="203.8933" x2="249.5814" y1="35.966" y2="48.2081"/>
    <polyline points="248.1318,47.5717 197.5833,35.4361 326.8377,246.3602"/>
    <line x1="326.2014" x2="305.5803" y1="247.8098" y2="91.1775"/>
    <line x1="304.5776" x2="328.6552" y1="89.9524" y2="241.9724"/>
    <line x1="328.0647" x2="184.9245" y1="243.4413" y2="35.171"/>
    <line x1="186.5074" x2="37.0421" y1="35.1461" y2="192.6497"/>
    <polyline points="36.984,191.0676 38.1016,205.2669 55.6095,259.1509 252.4603,323.1116 216.4191,334.8222 77.8843,289.8095 338.0795,205.2669 55.6095,113.4868 252.4603,49.5261 216.4191,37.8156 77.8843,82.8283 338.0795,167.3709 55.6095,259.1509 207.0386,336.3079"/>
    <polyline points="208.6082,336.1012 58.7756,264.6348 337.8729,165.8013"/>
    <polyline points="337.6498,164.2339 62.1686,269.9812 38.5313,208.4039"/>
    <polyline points="38.3082,206.8365 58.7756,264.6348 274.3717,310.4611 109.7747,57.004"/>
    <line x1="108.4248" x2="279.4945" y1="57.8312" y2="306.7392"/>
    <polyline points="280.7505,305.7754 320.5716,259.1509 307.5471,93.6589"/>
    <line x1="306.5702" x2="64.8586" y1="92.4131" y2="98.7425"/>
    <line x1="63.9483" x2="302.5339" y1="100.0378" y2="87.5341"/>
    <line x1="301.4932" x2="334.522" y1="86.341" y2="223.9161"/>
    <polyline points="334.1203,225.4474 112.5,55.3922 263.6811,317.2456 57.1639,261.9094"/>
    <polyline points="57.9626,263.2763 269.0974,313.9653 284.457,302.8059 315.737,105.312"/>
    <polyline points="316.5783,106.6531 279.4945,306.7392 267.7563,314.8066"/>
    <line x1="269.0974" x2="318.2185" y1="313.9653" y2="109.3615"/>
    <line x1="317.4055" x2="308.5108" y1="108.003" y2="277.7229"/>
    <polyline points="307.5471,278.9789 320.5716,113.4868 68.634,93.6589"/>
    <polyline points="67.6703,94.9149 317.4055,108.003 279.4945,65.8986 108.4248,314.8066"/>
    <line x1="107.0837" x2="225.6878" y1="313.9653" y2="332.7504"/>
    <polyline points="227.2191,332.3486 112.5,317.2456 148.962,40.2892"/>
    <polyline points="150.4933,39.8874 107.0837,313.9653 334.522,148.7217 88.1127,299.7215"/>
    <line x1="86.9306" x2="219.5229" y1="298.6684" y2="334.1963"/>
    <polyline points="221.0697,333.8591 91.7241,302.8059 335.6307,153.3398"/>
    <line x1="335.968" x2="300.44" y1="154.8866" y2="287.4788"/>
    <polyline points="299.3745,288.6498 337.1545,161.1066 76.8066,83.988"/>
    <polyline points="75.7411,85.159 335.968,154.8866 289.2505,73.9694 105.7514,313.11"/>
    <line x1="104.4282" x2="293.8664" y1="312.2408" y2="78.3041"/>
    <line x1="294.9917" x2="339.2717" y1="79.4177" y2="186.3189"/>
    <line x1="339.2634" x2="37.0421" y1="187.902" y2="179.9881"/>
    <polyline points="36.984,181.5702 38.1016,167.3709 55.6095,113.4868 169.1425,336.3079"/>
    <polyline points="170.7142,336.4981 52.6759,119.0985 228.7461,40.7069 120.8701,321.7336"/>
    <polyline points="119.4558,321.0222 234.8081,42.5371 141.373,42.5371 331.8723,233.0364"/>
    <polyline points="331.3752,234.5395 147.435,40.7069 236.3112,43.0342"/>
    <line x1="234.8081" x2="256.7253" y1="42.5371" y2="51.6155"/>
    <line x1="258.1322" x2="262.3059" y1="52.3417" y2="54.6078"/>
    <line x1="263.6811" x2="57.1639" y1="55.3922" y2="110.7283"/>
    <line x1="57.9626" x2="269.0974" y1="109.3615" y2="58.6725"/>
    <polyline points="267.7563,57.8312 279.4945,65.8986 316.5783,265.9847"/>
    <line x1="317.4055" x2="67.6703" y1="264.6348" y2="277.7229"/>
    <polyline points="68.634,278.9789 320.5716,259.1509 252.4603,49.5261 115.2585,318.7999"/>
    <polyline points="116.6498,319.5553 246.6756,46.9506 191.2566,35.171 327.4588,244.9039"/>
    <polyline points="329.2303,240.4974 172.2878,35.966 49.9797,247.8098 203.8933,336.6718 49.9797,247.8098 37.7376,202.1216"/>
    <polyline points="37.5804,200.5463 47.5259,241.9724 178.5978,337.2017 132.4371,45.7543"/>
    <polyline points="130.9682,46.3448 184.9245,337.4668 245.2129,326.293"/>
    <line x1="246.6756" x2="321.327" y1="325.6872" y2="114.8782"/>
    <line x1="320.5716" x2="280.7505" y1="113.4868" y2="66.8624"/>
    <polyline points="281.9964,67.8393 323.5052,119.0985 306.5702,280.2247 64.8586,273.8953"/>
    <polyline points="63.9483,272.6 302.5339,285.1037 312.2328,100.0378"/>
    <polyline points="313.1295,101.3425 298.2968,289.8095 273.0669,311.3579"/>
    <line x1="274.3717" x2="266.4064" y1="310.4611" y2="315.6338"/>
    <polyline points="265.048,316.4468 269.0974,313.9653 111.1331,56.191"/>
    <line x1="112.5" x2="227.2191" y1="55.3922" y2="40.2892"/>
    <polyline points="225.6878,39.8874 107.0837,58.6725 334.522,223.9161 74.6879,286.2968"/>
    <line x1="75.7411" x2="335.968" y1="287.4788" y2="217.7512"/>
    <line x1="336.289" x2="82.3147" y1="216.201" y2="78.3041"/>
    <line x1="83.4516" x2="338.7414" y1="77.2024" y2="198.9694"/>
    <polyline points="338.8657,197.3911 43.3619,142.6228 37.3154,175.2467"/>
    <line x1="37.4397" x2="339.2385" y1="173.6684" y2="189.485"/>
    <polyline points="339.2634,184.7358 37.0421,192.6497 189.6737,337.4917"/>
    <line x1="191.2566" x2="327.4588" y1="337.4668" y2="127.7339"/>
    <line x1="326.8377" x2="197.5833" y1="126.2776" y2="337.2017"/>
    <polyline points="196.0028,337.2928 40.2131,217.7512 180.1783,35.345"/>
    <polyline points="178.5978,35.4361 47.5259,130.6654 173.8632,336.8291"/>
    <line x1="172.2878" x2="133.9121" y1="336.6718" y2="45.1792"/>
    <line x1="135.393" x2="233.2999" y1="44.6196" y2="42.0558"/>
    <line x1="231.7867" x2="129.5055" y1="41.5903" y2="46.9506"/>
    <polyline points="128.0493,47.5717 197.5833,337.2017 248.1318,325.0661"/>
    <line x1="240.7881" x2="322.0678" y1="328.0182" y2="116.2773"/>
    <polyline points="319.8016,112.1035 258.1322,320.2961 240.7881,328.0182 54.1133,256.3605"/>
    <polyline points="53.3872,254.9537 234.8081,330.1007 141.373,330.1007"/>
    <polyline points="139.8699,329.6036 147.435,40.7069 118.0489,320.2961"/>
    <polyline points="113.8752,318.03 258.1322,52.3417 240.7881,44.6196 54.1133,116.2773"/>
    <line x1="54.8541" x2="246.6756" y1="114.8782" y2="46.9506"/>
    <polyline points="245.2129,46.3448 184.9245,35.171 37.4397,198.9694 191.2566,337.4668 129.5055,46.9506 332.8192,230.015 302.5339,87.5341 274.3717,62.1767 317.4055,264.6348 96.6866,65.8986 153.5682,333.5056 45.3187,236.0373 37.4397,198.9694 36.9426,189.485"/>
    <polyline points="36.9177,187.902 37.0421,192.6497 39.0266,211.5312 69.6109,280.2247 323.5052,253.5393 228.7461,40.7069 118.0489,52.3417 240.7881,328.0182 166.0056,335.8782 62.1686,102.6566 293.8664,78.3041 339.139,179.9881 39.0266,211.5312 194.4214,337.3674"/>
    <polyline points="192.8393,337.4254 38.1016,205.2669 339.1971,181.5702"/>
    <line x1="339.2385" x2="37.4397" y1="183.1528" y2="198.9694"/>
    <polyline points="37.3154,197.3911 43.3619,230.015 129.5055,325.6872 191.2566,35.171 37.4397,173.6684 45.3187,136.6005 153.5682,39.1322 96.6866,306.7392 317.4055,108.003 274.3717,310.4611 302.5339,285.1037 332.8192,142.6228 129.5055,325.6872 231.7867,331.0475"/>
    <polyline points="233.2999,330.582 135.393,328.0182 332.3537,141.1096"/>
    <polyline points="332.8192,142.6228 73.6472,87.5341 161.3187,335.1107"/>
    <line x1="159.762" x2="136.8798" y1="334.8222" y2="44.0755"/>
    <line x1="138.3721" x2="153.5682" y1="43.547" y2="333.5056"/>
    <polyline points="155.1114,333.8591 91.7241,69.8319 40.5504,153.3398"/>
    <line x1="40.9038" x2="96.6866" y1="151.7966" y2="65.8986"/>
    <polyline points="100.5142,63.087 306.5702,280.2247 275.6669,309.5508"/>
    <polyline points="281.9964,304.7985 323.5052,253.5393 306.5702,92.4131 100.5142,309.5508"/>
    <polyline points="99.2285,308.627 310.3986,97.4569 276.9526,64.0108"/>
    <polyline points="275.6669,63.087 306.5702,92.4131 311.3225,273.8953"/>
    <polyline points="312.2328,272.6 302.5339,87.5341 101.8094,310.4611 41.2734,222.3806"/>
    <polyline points="41.6591,223.9161 197.5833,337.2017 49.3434,246.3602"/>
    <polyline points="48.7223,244.9039 191.2566,337.4668 246.6756,325.6872 259.5313,319.5553"/>
    <polyline points="260.9226,318.7999 252.4603,323.1116 320.5716,113.4868 95.4306,305.7754"/>
    <line x1="91.7241" x2="155.1114" y1="302.8059" y2="38.7787"/>
    <polyline points="156.6582,38.4415 86.9306,298.6684 335.968,154.8866 86.9306,298.6684 40.2131,217.7512 37.1166,194.2311"/>
    <polyline points="37.2078,195.8116 41.6591,223.9161 107.0837,313.9653 284.457,69.8319 328.6552,130.6654 178.5978,337.2017 41.6591,148.7217 107.0837,58.6725 284.457,302.8059 328.6552,241.9724 178.5978,35.4361 41.6591,223.9161 338.9733,176.8262"/>
    <polyline points="338.8657,175.2467 43.3619,230.015 199.1628,337.094"/>
    <line x1="200.7411" x2="45.3187" y1="336.9698" y2="236.0373"/>
    <polyline points="45.8472,237.5297 159.762,334.8222 77.8843,82.8283 336.5938,214.6474"/>
    <polyline points="336.8823,213.0908 73.6472,87.5341 214.8624,37.5271"/>
    <polyline points="213.3028,37.2549 69.6109,92.4131 337.1545,211.5312 76.8066,288.6498"/>
    <polyline points="77.8843,289.8095 159.762,37.8156 136.8798,328.5623"/>
    <line x1="138.3721" x2="153.5682" y1="329.0908" y2="39.1322"/>
    <line x1="152.0288" x2="101.8094" y1="39.5017" y2="310.4611"/>
    <polyline points="103.1142,311.3579 298.2968,82.8283 338.0795,205.2669 291.5811,296.5252"/>
    <polyline points="290.4214,297.6029 337.1545,211.5312 85.7597,75.0349"/>
    <line x1="84.6" x2="338.0795" y1="76.1126" y2="205.2669"/>
    <polyline points="337.8729,206.8365 58.7756,108.003 208.6082,36.5365"/>
    <line x1="207.0386" x2="55.6095" y1="36.3299" y2="113.4868"/>
    <polyline points="56.3795,112.1035 258.1322,52.3417 319.8016,260.5343"/>
    <polyline points="319.0172,261.9094 263.6811,55.3922 112.5,317.2456 42.0608,225.4474"/>
    <polyline points="42.4786,226.9745 118.0489,320.2961 333.7025,145.6633"/>
    <line x1="334.1203" x2="112.5" y1="147.1903" y2="317.2456"/>
    <polyline points="111.1331,316.4468 269.0974,58.6725 284.457,69.8319 315.737,267.3258"/>
    <polyline points="314.8817,268.658 289.2505,73.9694 270.4297,59.5278"/>
    <polyline points="271.7529,60.3969 293.8664,78.3041 314.0125,269.9812 66.7197,276.4568"/>
    <line x1="65.7825" x2="164.4406" y1="275.1809" y2="36.9991"/>
    <line x1="166.0056" x2="46.3912" y1="36.7596" y2="133.6214"/>
    <line x1="45.8472" x2="159.762" y1="135.1081" y2="37.8156"/>
    <polyline points="158.2085,38.1204 82.3147,294.3337 217.9726,334.5174"/>
    <line x1="213.3028" x2="69.6109" y1="335.3829" y2="280.2247"/>
    <polyline points="72.619,283.8999 330.8624,236.0373 153.5682,39.1322 237.809,43.547"/>
    <polyline points="239.3013,44.0755 159.762,37.8156 330.3339,237.5297"/>
    <line x1="330.8624" x2="90.5095" y1="236.0373" y2="70.8474"/>
    <polyline points="89.3057,71.8756 332.8192,230.015 73.6472,285.1037 39.2988,213.0908"/>
    <polyline points="39.5873,214.6474 77.8843,289.8095 336.5938,157.9904"/>
    <line x1="336.289" x2="82.3147" y1="156.4368" y2="294.3337"/>
    <polyline points="83.4516,295.4354 338.7414,173.6684 45.3187,236.0373 175.44,35.668"/>
    <line x1="177.0183" x2="43.3619" y1="35.5438" y2="230.015"/>
    <polyline points="43.8274,231.5282 135.393,328.0182 166.0056,36.7596 329.7899,239.0164"/>
    <polyline points="333.2688,228.4971 123.7208,49.5261 42.9123,144.1407"/>
    <line x1="43.3619" x2="199.1628" y1="142.6228" y2="35.5438"/>
    <line x1="197.5833" x2="49.3434" y1="35.4361" y2="126.2776"/>
    <line x1="48.7223" x2="191.2566" y1="127.7339" y2="35.171"/>
    <line x1="192.8393" x2="38.1016" y1="35.2124" y2="167.3709"/>
    <line x1="37.9114" x2="52.6759" y1="168.9426" y2="119.0985"/>
    <polyline points="53.3872,117.6841 234.8081,42.5371 322.7939,254.9537"/>
    <line x1="322.0678" x2="240.7881" y1="256.3605" y2="44.6196"/>
    <polyline points="242.269,45.1792 172.2878,35.966 133.9121,327.4586"/>
    <polyline points="132.4371,326.8835 178.5978,35.4361 243.744,45.7543"/>
    <line x1="224.1523" x2="101.8094" y1="39.5017" y2="62.1767"/>
    <polyline points="116.6498,53.0825 246.6756,325.6872 54.8541,257.7596"/>
    <line x1="55.6095" x2="169.1425" y1="259.1509" y2="36.3299"/>
    <line x1="167.5729" x2="58.7756" y1="36.5365" y2="264.6348"/>
    <polyline points="56.3795,260.5343 258.1322,320.2961 262.3059,318.03"/>
    <line x1="263.6811" x2="319.0172" y1="317.2456" y2="110.7283"/>
    <line x1="314.8817" x2="289.2505" y1="103.9798" y2="298.6684"/>
    <polyline points="285.6716,301.7904 330.8624,236.0373 303.5621,88.7379"/>
    <polyline points="300.44,85.159 335.968,217.7512 86.9306,73.9694 335.968,217.7512 289.2505,298.6684 61.2994,268.658"/>
    <polyline points="62.1686,269.9812 210.1755,335.8782 50.6312,249.2527"/>
    <line x1="49.9797" x2="338.4435" y1="247.8098" y2="170.5162"/>
    <polyline points="338.6007,172.0915 47.5259,241.9724 202.3179,336.8291"/>
    <line x1="184.9245" x2="328.0647" y1="337.4668" y2="129.1965"/>
    <polyline points="331.8723,139.6014 141.373,330.1007 141.373,42.5371 141.373,330.1007 44.3088,233.0364"/>
    <polyline points="44.8059,234.5395 147.435,331.9309 118.0489,52.3417 333.7025,226.9745"/>
    <polyline points="334.9077,222.3806 101.8094,62.1767 41.2734,150.2571"/>
    <line x1="41.6591" x2="338.9733" y1="148.7217" y2="195.8116"/>
    <line x1="339.0645" x2="40.2131" y1="194.2311" y2="154.8866"/>
    <polyline points="39.8921,156.4368 82.3147,78.3041 339.139,192.6497 80.0758,292.0948"/>
    <polyline points="81.1894,293.2201 339.2717,186.3189 81.1894,79.4177"/>
    <polyline points="80.0758,80.543 339.139,179.9881 82.3147,294.3337 39.8921,216.201"/>
    <line x1="40.2131" x2="339.0645" y1="217.7512" y2="178.4067"/>
    <line x1="339.139" x2="296.1053" y1="179.9881" y2="292.0948"/>
    <polyline points="318.2185,263.2763 269.0974,58.6725 265.048,56.191"/>
    <polyline points="266.4064,57.004 274.3717,62.1767 109.7747,315.6338"/>
    <polyline points="128.0493,325.0661 197.5833,35.4361 41.6591,148.7217 37.2078,176.8262"/>
    <polyline points="37.1166,178.4067 40.2131,154.8866 86.9306,73.9694 156.6582,334.1963"/>
    <polyline points="158.2085,334.5174 82.3147,78.3041 217.9726,38.1204"/>
    <line x1="216.4191" x2="51.2978" y1="37.8156" y2="121.9491"/>
    <line x1="51.9794" x2="222.6129" y1="120.5202" y2="39.1322"/>
    <line x1="202.3179" x2="47.5259" y1="35.8087" y2="130.6654"/>
    <line x1="46.9508" x2="172.2878" y1="132.1404" y2="35.966"/>
    <line x1="173.8632" x2="47.5259" y1="35.8087" y2="241.9724"/>
    <polyline points="48.1164,243.4413 184.9245,337.4668 37.4397,173.6684 36.9426,183.1528"/>
    <polyline points="37.5804,172.0915 47.5259,130.6654 338.6007,200.5463"/>
    <line x1="337.1545" x2="299.3745" y1="211.5312" y2="83.988"/>
    <line x1="298.2968" x2="63.0516" y1="82.8283" y2="101.3425"/>
    <line x1="62.1686" x2="38.5313" y1="102.6566" y2="164.2339"/>
    <line x1="38.3082" x2="58.7756" y1="165.8013" y2="108.003"/>
    <line x1="59.6028" x2="279.4945" y1="106.6531" y2="65.8986"/>
    <line x1="278.2285" x2="314.0125" y1="64.9481" y2="102.6566"/>
    <line x1="292.7295" x2="338.7414" y1="77.2024" y2="173.6684"/>
    <line x1="336.8823" x2="73.6472" y1="159.547" y2="285.1037"/>
    <polyline points="78.974,290.9579 338.7414,198.9694 45.3187,136.6005 200.7411,35.668"/>
    <line x1="170.7142" x2="52.6759" y1="36.1397" y2="253.5393"/>
    <polyline points="63.0516,271.2953 298.2968,289.8095 338.0795,167.3709 291.5811,76.1126"/>
    <line x1="288.0684" x2="334.522" y1="72.9163" y2="148.7217"/>
    <polyline points="333.2688,144.1407 123.7208,323.1116 230.2687,331.4972"/>
    <line x1="228.7461" x2="255.311" y1="331.9309" y2="321.7336"/>
    <line x1="306.7913" x2="313.2874" y1="334.5472" y2="342.815"/>
    <line x1="317.4213" x2="328.0512" y1="339.2717" y2="339.2717"/>
    <line x1="328.0512" x2="317.4213" y1="335.7283" y2="335.7283"/>
    <line x1="313.2874" x2="306.7913" y1="334.5472" y2="342.815"/>
    <polyline points="338.0906,342.815 338.0906,330.4134 332.185,338.6811 341.0433,338.6811"/>
    <polyline points="324.8833,250.6887 216.4191,37.8156 123.7208,323.1116 42.9123,228.4971"/>
    <line x1="37.7376" x2="49.9797" y1="170.5162" y2="124.828"/>
    <polyline points="50.6312,123.3851 210.1755,36.7596 325.5499,249.2527"/>
    <polyline points="148.962,332.3486 112.5,55.3922 42.0608,147.1903"/>
    <line x1="42.4786" x2="118.0489" y1="145.6633" y2="52.3417"/>
    <line x1="142.8812" x2="135.393" y1="42.0558" y2="328.0182"/>
    <polyline points="130.9682,326.293 184.9245,35.171 48.1164,129.1965"/>
    <line x1="144.3944" x2="129.5055" y1="41.5903" y2="325.6872"/>
    <polygon points="88.878,335.7283 88.878,337.5 89.4685,340.4528 90.6496,342.2244 92.4213,342.815 93.6024,342.815 95.374,342.2244 96.5551,340.4528 97.1457,337.5 97.1457,335.7283 96.5551,332.7756 95.374,331.0039 93.6024,330.4134 92.4213,330.4134 90.6496,331.0039 89.4685,332.7756"/>
    <polygon points="85.3346,335.7283 84.7441,332.7756 83.563,331.0039 81.7913,330.4134 80.6102,330.4134 78.8386,331.0039 77.6575,332.7756 77.0669,335.7283 77.0669,337.5 77.6575,340.4528 78.8386,342.2244 80.6102,342.815 81.7913,342.815 83.563,342.2244 84.7441,340.4528 85.3346,337.5"/>
    <polyline points="72.9331,332.185 72.3425,331.0039 70.5709,330.4134 69.3898,330.4134 67.6181,331.0039 66.437,332.7756 65.8465,335.7283 65.8465,338.6811 66.437,341.0433 67.6181,342.2244 69.3898,342.815 71.752,342.2244 72.9331,341.0433 73.5236,339.2717 72.9331,336.9094 71.752,335.7283 69.9803,335.1378 67.6181,335.7283 66.437,336.9094 65.8465,338.6811"/>
    <line x1="61.122" x2="50.4921" y1="339.2717" y2="339.2717"/>
    <line x1="50.4921" x2="61.122" y1="335.7283" y2="335.7283"/>
    <polyline points="45.7677,342.815 45.7677,336.9094 45.1772,335.1378 43.9961,334.5472 42.2244,334.5472 41.0433,335.1378 39.2717,336.9094"/>
    <line x1="39.2717" x2="39.2717" y1="334.5472" y2="342.815"/>
  </g>
</svg>
