<?xml version="1.0" encoding="utf-8" ?>
<svg xmlns="http://www.w3.org/2000/svg" xmlns:cc="http://creativecommons.org/ns" xmlns:dc="http://purl.org/dc/elements/1.1/" xmlns:ev="http://www.w3.org/2001/xml-events" xmlns:inkscape="http://www.inkscape.org/namespaces/inkscape" xmlns:rdf="http://www.w3.org/1999/02/22-rdf-syntax-ns" xmlns:sodipodi="http://sodipodi.sourceforge.net/DTD/sodipodi-0.dtd" xmlns:xlink="http://www.w3.org/1999/xlink" baseProfile="tiny" height="10.0cm" version="1.2" viewBox="0 0 377.95275590551176 377.95275590551176" width="10.0cm">
  <metadata>
    <rdf:RDF>
      <cc:Work>
        <dc:format>image/svg+xml</dc:format>
        <dc:source>Vsketch with params {'__seed__': 0, 'r': 4.0, 'multiplier': 55, 'n': 600}</dc:source>
        <dc:date>2025-04-26T10:28:24.759233</dc:date>
      </cc:Work>
    </rdf:RDF>
  </metadata>
  <defs/>
  <g fill="none" id="layer1" inkscape:groupmode="layer" inkscape:label="1" stroke="#0000ff" stroke-width="1.1339" style="display:inline">
    <polyline points="269.0974,58.6725 234.8081,330.1007 339.2717,186.3189 338.9766,176.879 338.0928,167.4758 336.6235,158.1463 334.5745,148.9267 331.9538,139.853 328.7717,130.9606 325.0406,122.2844 320.5934,113.5266 315.7896,105.395 310.4874,97.5792 304.4667,89.8186 298.214,82.7402 291.5315,76.0661 284.4454,69.8222 276.9831,64.033 269.174,58.7211 260.0535,53.3638 250.5808,48.6574 240.8022,44.6248 230.403,41.1797 220.1509,38.5763 209.7419,36.6962 198.85,35.5212 188.2795,35.1379 177.708,35.4947 167.1874,36.5899 156.3996,38.4967 146.141,41.0744 135.7332,44.4935 125.9445,48.5016 116.1276,53.3638 107.0071,58.7211 98.2836,64.703 89.7125,71.5257 81.9266,78.6855 74.6605,86.3722 67.9495,94.5482 61.8267,103.1734 56.1372,112.5352 51.301,121.9423 47.1344,131.6645 43.6579,141.6543 40.8883,151.8628 38.7796,162.613 37.4875,173.1112 36.9326,183.6741 37.1176,194.25 38.0883,205.1619 40.5512,219.3017 44.2273,232.7848 49.2819,246.2179 55.5877,259.1112 63.0877,271.3484 71.7144,282.8192 81.3899,293.4203 91.7357,302.8156 103.2173,311.4279 115.4639,318.9126 128.0181,325.0525 141.4449,330.124 155.2921,333.8993 169.435,336.3445 183.7459,337.4376 197.719,337.1931 211.983,335.6001 226.0317,332.6616 239.3831,328.5328 252.6381,323.0279 264.9862,316.4834 276.9831,308.6048 288.1789,299.624 298.4726,289.622 307.7713,278.689 315.9914,266.9234 323.0588,254.4313 328.7717,241.6772 333.3873,228.0869 336.6235,214.4915 338.5904,200.6554 339.2717,186.3189 65.7825,97.4569 298.2968,289.8095"/>
    <polyline points="297.2071,290.9579 133.9121,45.1792 321.327,114.8782"/>
    <polyline points="320.5716,113.4868 65.7825,97.4569 38.1016,167.3709"/>
    <polyline points="37.9114,168.9426 37.1166,178.4067 299.3745,288.6498"/>
    <polyline points="301.4932,286.2968 119.4558,321.0222 37.5804,172.0915"/>
    <polyline points="37.4397,173.6684 203.8933,336.6718 317.4055,108.003"/>
    <polyline points="318.2185,109.3615 119.4558,321.0222 128.0493,325.0661"/>
    <polyline points="129.5055,325.6872 203.8933,336.6718 263.6811,55.3922 49.9797,247.8098 332.8192,142.6228"/>
    <polyline points="332.3537,141.1096 105.7514,313.11 44.8059,138.0983"/>
    <polyline points="45.3187,136.6005 49.9797,247.8098 191.2566,35.171"/>
    <polyline points="192.8393,35.2124 38.7707,162.669 273.0669,311.3579"/>
    <polyline points="274.3717,310.4611 49.9797,247.8098 96.6866,306.7392"/>
    <polyline points="97.9526,307.6897 105.7514,313.11 189.6737,35.1461"/>
    <polyline points="186.5074,35.1461 270.4297,313.11 148.962,40.2892 196.0028,35.345 39.8921,216.201"/>
    <polyline points="39.5873,214.6474 276.9526,64.0108 188.0906,35.1378 331.8723,233.0364 37.2078,176.8262"/>
    <polyline points="37.3154,175.2467 283.2319,303.8087 227.2191,40.2892 180.1783,35.345 50.6312,249.2527"/>
    <polyline points="51.2978,250.6887 99.2285,64.0108 207.0386,336.3079"/>
    <polyline points="208.6082,336.1012 46.9508,132.1404 259.5313,53.0825"/>
    <polyline points="260.9226,53.8379 99.2285,64.0108 188.0906,35.1378 44.3088,233.0364 243.744,326.8835"/>
    <polyline points="245.2129,326.293 92.9492,303.8087 59.6028,106.6531"/>
    <polyline points="58.7756,108.003 172.2878,336.6718 246.6756,325.6872"/>
    <polyline points="248.1318,325.0661 256.7253,321.0222 338.6007,172.0915"/>
    <polyline points="338.7414,173.6684 172.2878,336.6718 222.6129,39.1322"/>
    <polyline points="224.1523,39.5017 92.9492,303.8087 148.962,40.2892 46.9508,132.1404 51.9794,252.1176"/>
    <polyline points="52.6759,253.5393 40.2131,217.7512 112.5,55.3922 326.2014,247.8098 279.4945,306.7392"/>
    <polyline points="280.7505,305.7754 337.4104,162.669 330.3339,135.1081"/>
    <polyline points="329.7899,133.6214 300.44,85.159 281.9964,304.7985"/>
    <polyline points="284.457,302.8059 141.373,42.5371 178.5978,35.4361"/>
    <polyline points="177.0183,35.5438 70.6008,91.1775 41.2734,150.2571"/>
    <polyline points="41.6591,148.7217 141.373,42.5371 107.0837,313.9653"/>
    <polyline points="108.4248,314.8066 70.6008,91.1775 42.0608,225.4474 242.269,45.1792 78.974,290.9579"/>
    <polyline points="77.8843,289.8095 310.3986,97.4569 216.4191,37.8156"/>
    <polyline points="217.9726,38.1204 339.0645,178.4067 42.0608,147.1903 70.6008,281.4602 41.2734,222.3806"/>
    <polyline points="41.6591,223.9161 141.373,330.1007 107.0837,58.6725"/>
    <polyline points="108.4248,57.8312 70.6008,281.4602 177.0183,337.094"/>
    <polyline points="175.44,336.9698 37.7376,202.1216 57.1639,110.7283 319.0172,261.9094 57.1639,110.7283 300.44,85.159 42.4786,145.6633"/>
    <polyline points="42.9123,144.1407 337.4104,162.669 103.1142,311.3579"/>
    <polyline points="101.8094,310.4611 326.2014,247.8098 330.8624,136.6005"/>
    <polyline points="331.3752,138.0983 270.4297,313.11 43.8274,141.1096"/>
    <polyline points="43.3619,142.6228 326.2014,247.8098 184.9245,35.171"/>
    <polyline points="183.3418,35.2124 337.4104,162.669 81.1894,79.4177 53.3872,117.6841 40.5504,219.298"/>
    <polyline points="40.9038,220.8412 37.7376,202.1216 109.7747,57.004"/>
    <polyline points="111.1331,56.191 53.3872,117.6841 173.8632,336.8291"/>
    <polyline points="170.7142,336.4981 196.0028,35.345 290.4214,75.0349"/>
    <polyline points="291.5811,76.1126 276.9526,64.0108 115.2585,53.8379"/>
    <polyline points="113.8752,54.6078 196.0028,35.345 325.5499,249.2527"/>
    <polyline points="324.8833,250.6887 276.9526,64.0108 169.1425,336.3079"/>
    <polyline points="167.5729,336.1012 329.2303,132.1404 116.6498,53.0825"/>
    <polyline points="118.0489,52.3417 335.968,217.7512 293.8664,78.3041"/>
    <polyline points="292.7295,77.2024 329.2303,132.1404 324.2017,252.1176"/>
    <polyline points="323.5052,253.5393 335.968,217.7512 166.0056,335.8782"/>
    <polyline points="162.8783,335.3829 219.5229,334.1963 322.0678,256.3605"/>
    <polyline points="321.327,257.7596 133.9121,327.4586 297.2071,81.6799"/>
    <polyline points="298.2968,82.8283 65.7825,275.1809 123.7208,49.5261"/>
    <polyline points="122.2918,50.2077 133.9121,327.4586 161.3187,335.1107"/>
    <polyline points="159.762,334.8222 65.7825,275.1809 320.5716,259.1509"/>
    <polyline points="319.8016,260.5343 37.1166,194.2311 334.1203,225.4474 148.962,332.3486 334.1203,225.4474 305.5803,91.1775 90.5095,301.7904"/>
    <polyline points="89.3057,300.7622 338.4435,170.5162 335.2773,151.7966"/>
    <polyline points="334.9077,150.2571 305.5803,91.1775 199.1628,35.5438"/>
    <polyline points="197.5833,35.4361 234.8081,42.5371 269.0974,313.9653"/>
    <polyline points="267.7563,314.8066 305.5803,91.1775 48.1164,129.1965"/>
    <polyline points="47.5259,130.6654 234.8081,42.5371 339.2717,186.3189 65.7825,275.1809 38.1016,205.2669"/>
    <polyline points="37.9114,203.6952 37.1166,194.2311 299.3745,83.988"/>
    <polyline points="301.4932,86.341 119.4558,51.6155 128.0493,47.5717"/>
    <polyline points="129.5055,46.9506 203.8933,35.966 317.4055,264.6348"/>
    <polyline points="316.5783,265.9847 283.2319,68.8291 152.0288,333.136"/>
    <polyline points="150.4933,332.7504 331.8723,139.6014 315.737,267.3258"/>
    <polyline points="314.0125,269.9812 289.2505,298.6684 306.5702,92.4131"/>
    <polyline points="307.5471,93.6589 211.7405,335.6387 145.9124,331.4972"/>
    <polyline points="147.435,331.9309 289.2505,298.6684 135.393,44.6196"/>
    <polyline points="136.8798,44.0755 211.7405,335.6387 313.1295,271.2953"/>
    <polyline points="312.2328,272.6 126.5997,324.4297 138.3721,43.547"/>
    <polyline points="139.8699,43.0342 61.2994,268.658 142.8812,330.582"/>
    <polyline points="144.3944,331.0475 126.5997,324.4297 308.5108,94.9149"/>
    <polyline points="309.4614,96.181 61.2994,268.658 311.3225,273.8953"/>
    <polyline points="309.4614,276.4568 61.2994,103.9798 42.0608,147.1903 242.269,327.4586 54.8541,257.7596"/>
    <polyline points="54.1133,256.3605 156.6582,334.1963 57.1639,110.7283 126.5997,48.2081 144.3944,41.5903"/>
    <polyline points="142.8812,42.0558 61.2994,103.9798 311.3225,98.7425"/>
    <polyline points="312.2328,100.0378 126.5997,48.2081 36.9426,183.1528"/>
    <polyline points="36.9177,184.7358 61.2994,103.9798 139.8699,329.6036"/>
    <polyline points="138.3721,329.0908 126.5997,48.2081 308.5108,277.7229"/>
    <polyline points="307.5471,278.9789 211.7405,36.9991 81.1894,79.4177 256.7253,321.0222 74.6879,286.2968"/>
    <polyline points="73.6472,285.1037 172.2878,336.6718 112.5,55.3922 289.2505,73.9694 306.5702,280.2247"/>
    <polyline points="304.5776,282.6854 331.8723,233.0364 315.737,105.312"/>
    <polyline points="316.5783,106.6531 283.2319,303.8087 130.9682,326.293"/>
    <polyline points="132.4371,326.8835 331.8723,233.0364 150.4933,39.8874"/>
    <polyline points="152.0288,39.5017 283.2319,303.8087 303.5621,283.8999"/>
    <polyline points="302.5339,285.1037 203.8933,336.6718 153.5682,39.1322"/>
    <polyline points="155.1114,38.7787 119.4558,321.0222 294.9917,79.4177 38.7707,162.669 95.4306,305.7754"/>
    <polyline points="94.1847,304.7985 75.7411,85.159 46.3912,133.6214"/>
    <polyline points="45.8472,135.1081 38.7707,162.669 333.2688,144.1407"/>
    <polyline points="333.7025,145.6633 75.7411,85.159 194.4214,35.2704"/>
    <polyline points="200.7411,35.668 338.4435,170.5162 48.7223,127.7339"/>
    <polyline points="49.3434,126.2776 322.7939,254.9537 202.3179,35.8087"/>
    <polyline points="205.4669,36.1397 180.1783,337.2928 336.289,156.4368"/>
    <polyline points="336.5938,157.9904 99.2285,308.627 188.0906,337.5 188.0906,35.1378 188.0906,337.5 331.8723,139.6014 37.2078,195.8116"/>
    <polyline points="37.3154,197.3911 283.2319,68.8291 227.2191,332.3486 105.7514,59.5278 332.3537,231.5282"/>
    <polyline points="332.8192,230.015 49.9797,124.828 274.3717,62.1767"/>
    <polyline points="273.0669,61.2799 38.7707,209.9688 192.8393,337.4254"/>
    <polyline points="191.2566,337.4668 49.9797,124.828 96.6866,65.8986"/>
    <polyline points="97.9526,64.9481 105.7514,59.5278 189.6737,337.4917"/>
    <polyline points="186.5074,337.4917 270.4297,59.5278 100.5142,63.087"/>
    <polyline points="101.8094,62.1767 326.2014,124.828 279.4945,65.8986"/>
    <polyline points="278.2285,64.9481 270.4297,59.5278 331.3752,234.5395"/>
    <polyline points="330.8624,236.0373 326.2014,124.828 184.9245,337.4668"/>
    <polyline points="183.3418,337.4254 337.4104,209.9688 330.3339,237.5297"/>
    <polyline points="329.7899,239.0164 300.44,287.4788 281.9964,67.8393"/>
    <polyline points="280.7505,66.8624 337.4104,209.9688 103.1142,61.2799"/>
    <polyline points="104.4282,60.3969 300.44,287.4788 181.7597,337.3674"/>
    <polyline points="178.5978,337.2017 141.373,330.1007 36.9094,186.3189 141.373,42.5371 328.6552,130.6654"/>
    <polyline points="328.0647,129.1965 70.6008,91.1775 285.6716,301.7904"/>
    <polyline points="286.8754,300.7622 37.7376,170.5162 40.9038,151.7966"/>
    <polyline points="40.5504,153.3398 53.3872,254.9537 81.1894,293.2201 256.7253,51.6155 248.1318,47.5717"/>
    <polyline points="246.6756,46.9506 172.2878,35.966 73.6472,87.5341"/>
    <polyline points="74.6879,86.341 256.7253,51.6155 338.6007,200.5463"/>
    <polyline points="338.7414,198.9694 172.2878,35.966 112.5,317.2456 289.2505,298.6684 37.0421,192.6497"/>
    <polyline points="36.984,191.0676 211.7405,335.6387 81.1894,293.2201 81.1894,79.4177 81.1894,293.2201 337.4104,209.9688 42.9123,228.4971"/>
    <polyline points="42.4786,226.9745 300.44,287.4788 57.1639,261.9094 37.7376,170.5162 327.4588,127.7339"/>
    <polyline points="326.8377,126.2776 53.3872,254.9537 111.1331,316.4468"/>
    <polyline points="109.7747,315.6338 37.7376,170.5162 175.44,35.668"/>
    <polyline points="173.8632,35.8087 53.3872,254.9537 288.0684,299.7215"/>
    <polyline points="290.4214,297.6029 196.0028,337.2928 325.5499,123.3851"/>
    <polyline points="324.8833,121.9491 276.9526,308.627 169.1425,36.3299"/>
    <polyline points="167.5729,36.5365 329.2303,240.4974 292.7295,295.4354"/>
    <polyline points="293.8664,294.3337 335.968,154.8866 118.0489,320.2961"/>
    <polyline points="116.6498,319.5553 329.2303,240.4974 39.2988,159.547"/>
    <polyline points="39.5873,157.9904 276.9526,308.627 291.5811,296.5252"/>
    <polyline points="296.1053,292.0948 219.5229,38.4415 322.0678,116.2773"/>
    <polyline points="323.5052,119.0985 335.968,154.8866 166.0056,36.7596"/>
    <polyline points="162.8783,37.2549 219.5229,38.4415 319.0172,261.9094 75.7411,287.4788 46.3912,239.0164"/>
    <polyline points="45.8472,237.5297 38.7707,209.9688 294.9917,293.2201 164.4406,335.6387 339.1971,191.0676"/>
    <polyline points="339.139,192.6497 86.9306,298.6684 228.7461,331.9309"/>
    <polyline points="230.2687,331.4972 164.4406,335.6387 239.3013,44.0755"/>
    <polyline points="237.809,43.547 249.5814,324.4297 339.2385,189.485"/>
    <polyline points="339.2634,187.902 314.8817,268.658 236.3112,43.0342"/>
    <polyline points="233.2999,42.0558 314.8817,103.9798 236.3112,329.6036"/>
    <polyline points="237.809,329.0908 249.5814,48.2081 319.0172,110.7283 219.5229,334.1963 38.5313,208.4039"/>
    <polyline points="38.3082,206.8365 133.9121,327.4586 334.1203,147.1903 148.962,40.2892 334.1203,147.1903 305.5803,281.4602 199.1628,337.094"/>
    <polyline points="197.5833,337.2017 234.8081,330.1007 47.5259,241.9724"/>
    <polyline points="48.1164,243.4413 305.5803,281.4602 90.5095,70.8474"/>
    <polyline points="89.3057,71.8756 338.4435,202.1216 335.2773,220.8412"/>
    <polyline points="334.9077,222.3806 305.5803,281.4602 267.7563,57.8312"/>
    <polyline points="266.4064,57.004 338.4435,202.1216 200.7411,336.9698"/>
    <polyline points="202.3179,336.8291 322.7939,117.6841 335.6307,219.298"/>
    <polyline points="336.289,216.201 180.1783,35.345 262.3059,54.6078"/>
    <polyline points="265.048,56.191 322.7939,117.6841 88.1127,72.9163"/>
    <polyline points="85.7597,75.0349 180.1783,35.345 205.4669,336.4981"/>
    <polyline points="210.1755,335.8782 40.2131,217.7512 337.1545,211.5312"/>
    <polyline points="336.8823,213.0908 46.9508,132.1404 83.4516,77.2024"/>
    <polyline points="82.3147,78.3041 40.2131,217.7512 258.1322,52.3417"/>
    <polyline points="255.311,50.9042 156.6582,334.1963 80.0758,80.543"/>
    <polyline points="78.974,81.6799 242.269,327.4586 337.8729,206.8365"/>
    <polyline points="338.0795,205.2669 310.3986,275.1809 216.4191,334.8222"/>
    <polyline points="214.8624,335.1107 242.269,327.4586 253.8893,50.2077"/>
    <polyline points="252.4603,49.5261 310.3986,275.1809 77.8843,82.8283"/>
    <polyline points="76.8066,83.988 339.0645,194.2311 217.9726,334.5174"/>
    <polyline points="221.0697,333.8591 256.7253,51.6155 57.9626,263.2763"/>
    <polyline points="58.7756,264.6348 172.2878,35.966 222.6129,333.5056"/>
    <polyline points="224.1523,333.136 92.9492,68.8291 148.962,332.3486 46.9508,240.4974 83.4516,295.4354"/>
    <polyline points="82.3147,294.3337 40.2131,154.8866 337.1545,161.1066"/>
    <polyline points="336.8823,159.547 46.9508,240.4974 208.6082,36.5365"/>
    <polyline points="207.0386,36.3299 99.2285,308.627 84.6,296.5252"/>
    <polyline points="85.7597,297.6029 180.1783,337.2928 227.2191,332.3486 329.2303,240.4974 324.2017,120.5202"/>
    <polyline points="319.8016,112.1035 37.1166,178.4067 125.1568,323.7782"/>
    <polyline points="123.7208,323.1116 65.7825,97.4569 159.762,37.8156"/>
    <polyline points="158.2085,38.1204 37.1166,178.4067 334.1203,147.1903 314.8817,103.9798 66.7197,276.4568"/>
    <polyline points="67.6703,277.7229 249.5814,48.2081 339.2385,183.1528"/>
    <polyline points="339.2634,184.7358 314.8817,103.9798 64.8586,98.7425"/>
    <polyline points="63.9483,100.0378 249.5814,48.2081 231.7867,41.5903"/>
    <polyline points="230.2687,41.1406 164.4406,36.9991 339.1971,181.5702"/>
    <polyline points="339.139,179.9881 86.9306,73.9694 240.7881,328.0182"/>
    <polyline points="239.3013,328.5623 164.4406,36.9991 68.634,278.9789"/>
    <polyline points="69.6109,280.2247 86.9306,73.9694 263.6811,55.3922 335.968,217.7512 39.0266,211.5312"/>
    <polyline points="39.2988,213.0908 329.2303,132.1404 227.2191,40.2892 42.0608,147.1903 227.2191,40.2892 105.7514,313.11 275.6669,309.5508"/>
    <polyline points="278.2285,307.6897 270.4297,313.11 100.5142,309.5508"/>
    <polyline points="104.4282,312.2408 300.44,85.159 181.7597,35.2704"/>
    <polyline points="170.7142,36.1397 196.0028,337.2928 148.962,332.3486 270.4297,59.5278 43.8274,231.5282"/>
    <polyline points="43.3619,230.015 326.2014,124.828 112.5,317.2456 40.2131,154.8866 210.1755,36.7596"/>
    <polyline points="213.3028,37.2549 156.6582,38.4415 337.6498,164.2339"/>
    <polyline points="337.8729,165.8013 242.269,45.1792 54.8541,114.8782"/>
    <polyline points="54.1133,116.2773 156.6582,38.4415 255.311,321.7336"/>
    <polyline points="253.8893,322.4301 242.269,45.1792 214.8624,37.5271"/>
    <polyline points="221.0697,38.7787 256.7253,321.0222 57.9626,109.3615"/>
    <polyline points="56.3795,112.1035 339.0645,178.4067 251.0243,323.7782"/>
    <polyline points="252.4603,323.1116 310.3986,97.4569 36.9094,186.3189 310.3986,275.1809 55.6095,259.1509"/>
    <polyline points="56.3795,260.5343 339.0645,194.2311 42.0608,225.4474 227.2191,332.3486 42.0608,225.4474 61.2994,268.658 36.9177,187.902"/>
    <polyline points="36.9426,189.485 126.5997,324.4297 57.1639,261.9094 319.0172,110.7283 57.1639,261.9094 156.6582,38.4415 80.0758,292.0948"/>
    <polyline points="76.8066,288.6498 339.0645,178.4067 338.2697,168.9426"/>
    <polyline points="338.0795,167.3709 310.3986,97.4569 55.6095,113.4868"/>
    <polyline points="52.6759,119.0985 40.2131,154.8866 258.1322,320.2961"/>
    <polyline points="259.5313,319.5553 46.9508,240.4974 51.9794,120.5202"/>
    <polyline points="51.2978,121.9491 99.2285,308.627 260.9226,318.7999"/>
    <polyline points="262.3059,318.03 180.1783,337.2928 50.6312,123.3851"/>
    <polyline points="60.4441,105.312 44.3088,233.0364 71.6035,282.6854"/>
    <polyline points="72.619,283.8999 92.9492,303.8087 338.8657,175.2467"/>
    <polyline points="338.9733,176.8262 44.3088,233.0364 225.6878,39.8874"/>
    <polyline points="228.7461,40.7069 86.9306,73.9694 62.1686,102.6566"/>
    <polyline points="63.0516,101.3425 164.4406,36.9991 294.9917,79.4177 322.7939,117.6841 49.3434,246.3602"/>
    <polyline points="48.7223,244.9039 338.4435,202.1216 319.0172,110.7283 75.7411,85.159 271.7529,312.2408"/>
    <polyline points="266.4064,315.6338 338.4435,170.5162 319.0172,261.9094 249.5814,324.4297 63.9483,272.6"/>
    <polyline points="64.8586,273.8953 314.8817,268.658 334.1203,225.4474 133.9121,45.1792 38.3082,165.8013"/>
    <polyline points="38.5313,164.2339 219.5229,38.4415 120.8701,321.7336"/>
    <polyline points="122.2918,322.4301 133.9121,45.1792 161.3187,37.5271"/>
    <polyline points="147.435,40.7069 289.2505,73.9694 135.393,328.0182"/>
    <polyline points="136.8798,328.5623 211.7405,36.9991 145.9124,41.1406"/>
    <polyline points="132.4371,45.7543 331.8723,139.6014 304.5776,89.9524"/>
    <polyline points="303.5621,88.7379 283.2319,68.8291 130.9682,46.3448"/>
    <polyline points="125.1568,48.8596 37.1166,194.2311 158.2085,334.5174"/>
    <polyline points="155.1114,333.8591 119.4558,51.6155 318.2185,263.2763"/>
    <polyline points="326.8377,246.3602 53.3872,117.6841 288.0684,72.9163"/>
    <polyline points="286.8754,71.8756 37.7376,202.1216 327.4588,244.9039"/>
    <polyline points="328.0647,243.4413 70.6008,281.4602 285.6716,70.8474"/>
    <polyline points="284.457,69.8319 141.373,330.1007 328.6552,241.9724"/>
    <polyline points="333.2688,228.4971 38.7707,209.9688 95.4306,66.8624"/>
    <polyline points="94.1847,67.8393 75.7411,287.4788 271.7529,60.3969"/>
    <polyline points="275.6669,63.087 105.7514,59.5278 44.8059,234.5395"/>
    <polyline points="45.3187,236.0373 49.9797,124.828 263.6811,317.2456 86.9306,298.6684 69.6109,92.4131"/>
    <polyline points="68.634,93.6589 164.4406,335.6387 63.0516,271.2953"/>
    <polyline points="62.1686,269.9812 86.9306,298.6684 240.7881,44.6196"/>
    <polyline points="243.744,45.7543 44.3088,139.6014 71.6035,89.9524"/>
    <polyline points="72.619,88.7379 92.9492,68.8291 338.8657,197.3911"/>
    <polyline points="338.9733,195.8116 44.3088,139.6014 225.6878,332.7504"/>
    <polyline points="231.7867,331.0475 249.5814,324.4297 67.6703,94.9149"/>
    <polyline points="66.7197,96.181 314.8817,268.658 233.2999,330.582"/>
    <polyline points="213.3028,335.3829 156.6582,334.1963 337.6498,208.4039"/>
    <polyline points="338.2697,203.6952 339.0645,194.2311 251.0243,48.8596"/>
    <polyline points="245.2129,46.3448 92.9492,68.8291 59.6028,265.9847"/>
    <polyline points="60.4441,267.3258 44.3088,139.6014 188.0906,337.5 276.9526,308.627 115.2585,318.7999"/>
    <polyline points="113.8752,318.03 196.0028,337.2928 39.8921,156.4368"/>
    <polyline points="39.0266,161.1066 335.968,154.8866 263.6811,317.2456 203.8933,35.966 37.4397,198.9694"/>
    <polyline points="37.5804,200.5463 119.4558,51.6155 294.9917,293.2201 294.9917,79.4177 294.9917,293.2201 322.7939,254.9537 265.048,316.4468"/>
    <line x1="295.5709" x2="302.0669" y1="334.5472" y2="342.815"/>
    <line x1="306.2008" x2="316.8307" y1="339.2717" y2="339.2717"/>
    <line x1="316.8307" x2="306.2008" y1="335.7283" y2="335.7283"/>
    <line x1="302.0669" x2="295.5709" y1="334.5472" y2="342.815"/>
    <polyline points="320.9646,340.4528 322.1457,342.2244 323.9173,342.815 325.689,342.815 327.4606,342.2244 328.6417,341.0433 329.2323,339.2717 329.2323,338.0906 328.6417,336.3189 327.4606,335.1378 325.689,334.5472 323.9173,334.5472 322.1457,335.1378 321.5551,335.7283 322.1457,330.4134 328.0512,330.4134"/>
    <polyline points="332.7756,340.4528 333.9567,342.2244 335.7283,342.815 337.5,342.815 339.2717,342.2244 340.4528,341.0433 341.0433,339.2717 341.0433,338.0906 340.4528,336.3189 339.2717,335.1378 337.5,334.5472 335.7283,334.5472 333.9567,335.1378 333.3661,335.7283 333.9567,330.4134 339.8622,330.4134"/>
    <polyline points="333.7025,226.9745 75.7411,287.4788 194.4214,337.3674"/>
    <polyline points="153.5682,333.5056 203.8933,35.966 302.5339,87.5341"/>
    <polyline points="296.1053,80.543 219.5229,334.1963 120.8701,50.9042"/>
    <polyline points="91.7241,69.8319 234.8081,330.1007 334.522,223.9161"/>
    <polyline points="336.5938,214.6474 99.2285,64.0108 84.6,76.1126"/>
    <polyline points="37.0421,179.9881 289.2505,73.9694 314.0125,102.6566"/>
    <polyline points="313.1295,101.3425 211.7405,36.9991 36.984,181.5702"/>
    <polyline points="88.1127,299.7215 322.7939,254.9537 335.6307,153.3398"/>
    <polyline points="334.522,148.7217 234.8081,42.5371 91.7241,302.8059"/>
    <polygon points="88.878,335.7283 88.878,337.5 89.4685,340.4528 90.6496,342.2244 92.4213,342.815 93.6024,342.815 95.374,342.2244 96.5551,340.4528 97.1457,337.5 97.1457,335.7283 96.5551,332.7756 95.374,331.0039 93.6024,330.4134 92.4213,330.4134 90.6496,331.0039 89.4685,332.7756"/>
    <polygon points="85.3346,335.7283 84.7441,332.7756 83.563,331.0039 81.7913,330.4134 80.6102,330.4134 78.8386,331.0039 77.6575,332.7756 77.0669,335.7283 77.0669,337.5 77.6575,340.4528 78.8386,342.2244 80.6102,342.815 81.7913,342.815 83.563,342.2244 84.7441,340.4528 85.3346,337.5"/>
    <polyline points="72.9331,332.185 72.3425,331.0039 70.5709,330.4134 69.3898,330.4134 67.6181,331.0039 66.437,332.7756 65.8465,335.7283 65.8465,338.6811 66.437,341.0433 67.6181,342.2244 69.3898,342.815 71.752,342.2244 72.9331,341.0433 73.5236,339.2717 72.9331,336.9094 71.752,335.7283 69.9803,335.1378 67.6181,335.7283 66.437,336.9094 65.8465,338.6811"/>
    <line x1="61.122" x2="50.4921" y1="339.2717" y2="339.2717"/>
    <line x1="50.4921" x2="61.122" y1="335.7283" y2="335.7283"/>
    <polyline points="45.7677,342.815 45.7677,336.9094 45.1772,335.1378 43.9961,334.5472 42.2244,334.5472 41.0433,335.1378 39.2717,336.9094"/>
    <line x1="39.2717" x2="39.2717" y1="334.5472" y2="342.815"/>
  </g>
</svg>
