<?xml version="1.0" encoding="utf-8" ?>
<svg xmlns="http://www.w3.org/2000/svg" xmlns:cc="http://creativecommons.org/ns" xmlns:dc="http://purl.org/dc/elements/1.1/" xmlns:ev="http://www.w3.org/2001/xml-events" xmlns:inkscape="http://www.inkscape.org/namespaces/inkscape" xmlns:rdf="http://www.w3.org/1999/02/22-rdf-syntax-ns" xmlns:sodipodi="http://sodipodi.sourceforge.net/DTD/sodipodi-0.dtd" xmlns:xlink="http://www.w3.org/1999/xlink" baseProfile="tiny" height="10.0cm" version="1.2" viewBox="0 0 377.95275590551176 377.95275590551176" width="10.0cm">
  <metadata>
    <rdf:RDF>
      <cc:Work>
        <dc:format>image/svg+xml</dc:format>
        <dc:source>Vsketch with params {'__seed__': 0, 'r': 4.0, 'multiplier': 76, 'n': 600}</dc:source>
        <dc:date>2025-04-26T12:49:18.137337</dc:date>
      </cc:Work>
    </rdf:RDF>
  </metadata>
  <defs/>
  <g fill="none" id="layer1" inkscape:groupmode="layer" inkscape:label="1" stroke="#0000ff" stroke-width="1.1339" style="display:inline">
    <polyline points="81.1894,79.4177 339.2717,186.3189 338.8469,174.9942 337.631,164.1068 335.547,152.9674 332.7447,142.3768 329.0467,131.6645 324.7188,121.6006 319.6734,111.8765 313.7274,102.229 307.5401,93.65 300.7681,85.5246 293.1732,77.6296 285.3161,70.5479 276.9831,64.033 268.215,58.1167 259.0547,52.828 249.2015,48.0396 239.3831,44.105 229.3136,40.8665 219.0422,38.3401 208.6194,36.5381 198.0961,35.4693 187.1459,35.1407 176.5775,35.5768 166.0654,36.7508 155.2921,38.7384 145.0532,41.393 135.0249,44.757 125.2564,48.814 115.7955,53.5441 106.6885,58.9241 97.9799,64.9278 89.4259,71.7719 81.6579,78.9512 74.411,86.656 67.4923,95.1499 61.4127,103.8056 55.9532,112.8652 50.9809,122.6268 46.863,132.3698 43.4364,142.3768 40.7179,152.599 38.7208,162.9862 37.4233,173.8642 36.9213,184.4297 37.1813,195.3817 38.1844,205.9115 39.9213,216.3454 42.3835,226.6323 45.5589,236.7219 49.4321,246.5647 54.1589,256.4475 59.3903,265.6408 65.2517,274.4457 71.7144,282.8192 78.7468,290.7204 86.5942,298.3645 94.6771,305.1871 103.2173,311.4279 112.5,317.2456 121.8398,322.2106 131.5038,326.5104 141.8045,330.2401 151.9811,333.1243 162.3345,335.2899 172.814,336.7262 183.7459,337.4376 194.3232,337.3715 204.87,336.566 215.3346,335.0249 226.0317,332.6616 236.1715,329.6505 246.0759,325.9377 256.3716,321.2019 265.96,315.9032 275.1395,309.924 284.1539,303.056 292.6286,295.5321 300.2629,287.6752 307.5401,278.9878 313.9372,270.0945 319.6734,260.7613 324.8801,250.6955 329.3181,240.268 332.8541,229.8993 335.7119,218.9329 337.6861,208.1572 338.8747,197.2668 339.2717,186.3189 36.9094,186.3189 188.0906,35.1378"/>
    <line x1="189.6737" x2="82.3147" y1="35.1461" y2="78.3041"/>
    <polyline points="83.4516,77.2024 184.9245,337.4668 292.7295,295.4354"/>
    <line x1="293.8664" x2="296.1053" y1="294.3337" y2="80.543"/>
    <line x1="297.2071" x2="184.9245" y1="81.6799" y2="337.4668"/>
    <polyline points="186.5074,337.4917 82.3147,78.3041 339.2634,187.902"/>
    <line x1="339.2385" x2="191.2566" y1="189.485" y2="35.171"/>
    <line x1="192.8393" x2="298.2968" y1="35.2124" y2="82.8283"/>
    <line x1="299.3745" x2="37.0421" y1="83.988" y2="179.9881"/>
    <polyline points="36.984,181.5702 298.2968,82.8283 339.1971,191.0676"/>
    <line x1="339.139" x2="194.4214" y1="192.6497" y2="35.2704"/>
    <polyline points="196.0028,35.345 289.2505,298.6684 339.0645,194.2311"/>
    <polyline points="338.9733,195.8116 178.5978,337.2017 197.5833,35.4361 74.6879,286.2968"/>
    <polyline points="75.7411,287.4788 86.9306,73.9694 300.44,85.159"/>
    <line x1="301.4932" x2="197.5833" y1="86.341" y2="35.4361"/>
    <line x1="199.1628" x2="73.6472" y1="35.5438" y2="285.1037"/>
    <polyline points="72.619,283.8999 338.7414,198.9694 37.4397,173.6684 200.7411,35.668"/>
    <line x1="202.3179" x2="91.7241" y1="35.8087" y2="69.8319"/>
    <polyline points="92.9492,68.8291 172.2878,336.6718 283.2319,303.8087"/>
    <line x1="284.457" x2="304.5776" y1="302.8059" y2="89.9524"/>
    <line x1="305.5803" x2="172.2878" y1="91.1775" y2="336.6718"/>
    <polyline points="170.7142,336.4981 306.5702,92.4131 69.6109,280.2247"/>
    <polyline points="68.634,278.9789 38.1016,167.3709 338.0795,205.2669 207.0386,36.3299"/>
    <line x1="208.6082" x2="279.4945" y1="36.5365" y2="306.7392"/>
    <polyline points="280.7505,305.7754 38.1016,167.3709 307.5471,93.6589"/>
    <line x1="306.5702" x2="37.9114" y1="92.4131" y2="168.9426"/>
    <line x1="38.1016" x2="95.4306" y1="167.3709" y2="66.8624"/>
    <polyline points="94.1847,67.8393 69.6109,280.2247 281.9964,304.7985"/>
    <polyline points="285.6716,301.7904 338.7414,198.9694 303.5621,88.7379"/>
    <line x1="302.5339" x2="89.3057" y1="87.5341" y2="71.8756"/>
    <line x1="90.5095" x2="338.7414" y1="70.8474" y2="198.9694"/>
    <polyline points="338.8657,197.3911 73.6472,285.1037 177.0183,337.094"/>
    <line x1="175.44" x2="37.4397" y1="336.9698" y2="173.6684"/>
    <polyline points="37.3154,175.2467 73.6472,285.1037 302.5339,87.5341 286.8754,300.7622"/>
    <polyline points="288.0684,299.7215 197.5833,35.4361 88.1127,72.9163"/>
    <polyline points="86.9306,73.9694 289.2505,298.6684 180.1783,337.2928"/>
    <line x1="178.5978" x2="37.2078" y1="337.2017" y2="176.8262"/>
    <line x1="37.1166" x2="289.2505" y1="178.4067" y2="298.6684"/>
    <polyline points="290.4214,297.6029 37.0421,179.9881 85.7597,75.0349"/>
    <polyline points="84.6,76.1126 77.8843,289.8095 298.2968,82.8283 183.3418,337.4254"/>
    <polyline points="181.7597,337.3674 339.139,192.6497 37.0421,179.9881 76.8066,288.6498"/>
    <line x1="77.8843" x2="291.5811" y1="289.8095" y2="296.5252"/>
    <polyline points="294.9917,293.2201 339.2717,186.3189 81.1894,293.2201"/>
    <polyline points="80.0758,292.0948 293.8664,294.3337 82.3147,78.3041 36.9177,184.7358"/>
    <line x1="36.9094" x2="188.0906" y1="186.3189" y2="337.5"/>
    <polyline points="189.6737,337.4917 82.3147,294.3337 339.2634,184.7358"/>
    <polyline points="339.2385,183.1528 191.2566,337.4668 36.9426,189.485"/>
    <polyline points="36.9177,187.902 82.3147,294.3337 293.8664,78.3041 296.1053,292.0948"/>
    <polyline points="297.2071,290.9579 184.9245,35.171 292.7295,77.2024"/>
    <line x1="291.5811" x2="77.8843" y1="76.1126" y2="82.8283"/>
    <line x1="78.974" x2="184.9245" y1="81.6799" y2="35.171"/>
    <line x1="186.5074" x2="82.3147" y1="35.1461" y2="294.3337"/>
    <polyline points="83.4516,295.4354 184.9245,35.171 191.2566,337.4668"/>
    <polyline points="192.8393,337.4254 298.2968,289.8095 339.1971,181.5702"/>
    <line x1="339.139" x2="181.7597" y1="179.9881" y2="35.2704"/>
    <line x1="183.3418" x2="298.2968" y1="35.2124" y2="289.8095"/>
    <line x1="299.3745" x2="37.0421" y1="288.6498" y2="192.6497"/>
    <polyline points="36.984,191.0676 298.2968,289.8095 77.8843,82.8283 84.6,296.5252"/>
    <polyline points="85.7597,297.6029 37.0421,192.6497 76.8066,83.988"/>
    <polyline points="75.7411,85.159 86.9306,298.6684 289.2505,73.9694 37.1166,194.2311"/>
    <polyline points="37.2078,195.8116 178.5978,35.4361 338.9733,176.8262"/>
    <polyline points="338.8657,175.2467 73.6472,87.5341 199.1628,337.094"/>
    <line x1="197.5833" x2="288.0684" y1="337.2017" y2="72.9163"/>
    <line x1="289.2505" x2="180.1783" y1="73.9694" y2="35.345"/>
    <polyline points="178.5978,35.4361 197.5833,337.2017 88.1127,299.7215"/>
    <line x1="86.9306" x2="300.44" y1="298.6684" y2="287.4788"/>
    <polyline points="301.4932,286.2968 197.5833,337.2017 74.6879,86.341"/>
    <line x1="73.6472" x2="177.0183" y1="87.5341" y2="35.5438"/>
    <polyline points="175.44,35.668 37.4397,198.9694 200.7411,336.9698"/>
    <polyline points="202.3179,336.8291 91.7241,302.8059 338.6007,172.0915"/>
    <line x1="338.7414" x2="285.6716" y1="173.6684" y2="70.8474"/>
    <line x1="286.8754" x2="302.5339" y1="71.8756" y2="285.1037"/>
    <polyline points="303.5621,283.8999 338.7414,173.6684 72.619,88.7379"/>
    <polyline points="71.6035,89.9524 284.457,69.8319 91.7241,302.8059 37.5804,200.5463"/>
    <polyline points="37.7376,202.1216 203.8933,336.6718 172.2878,35.966 92.9492,303.8087"/>
    <line x1="94.1847" x2="69.6109" y1="304.7985" y2="92.4131"/>
    <polyline points="70.6008,91.1775 172.2878,35.966 305.5803,281.4602"/>
    <line x1="304.5776" x2="284.457" y1="282.6854" y2="69.8319"/>
    <line x1="283.2319" x2="172.2878" y1="68.8291" y2="35.966"/>
    <line x1="173.8632" x2="91.7241" y1="35.8087" y2="302.8059"/>
    <polyline points="90.5095,301.7904 338.7414,173.6684 37.4397,198.9694"/>
    <polyline points="37.3154,197.3911 73.6472,87.5341 302.5339,285.1037 89.3057,300.7622"/>
    <polyline points="95.4306,305.7754 38.1016,205.2669 307.5471,278.9789"/>
    <polyline points="308.5108,277.7229 96.6866,306.7392 279.4945,65.8986 38.3082,206.8365"/>
    <polyline points="38.5313,208.4039 166.0056,36.7596 337.6498,164.2339"/>
    <line x1="337.8729" x2="279.4945" y1="165.8013" y2="65.8986"/>
    <polyline points="278.2285,64.9481 210.1755,335.8782 309.4614,276.4568"/>
    <line x1="310.3986" x2="276.9526" y1="275.1809" y2="64.0108"/>
    <polyline points="275.6669,63.087 337.1545,161.1066 311.3225,273.8953"/>
    <line x1="312.2328" x2="274.3717" y1="272.6" y2="62.1767"/>
    <polyline points="273.0669,61.2799 159.762,37.8156 313.1295,271.2953"/>
    <line x1="314.0125" x2="158.2085" y1="269.9812" y2="38.1204"/>
    <line x1="159.762" x2="63.0516" y1="37.8156" y2="101.3425"/>
    <line x1="62.1686" x2="104.4282" y1="102.6566" y2="312.2408"/>
    <polyline points="105.7514,313.11 40.2131,217.7512 335.968,154.8866 156.6582,38.4415"/>
    <line x1="155.1114" x2="269.0974" y1="38.7787" y2="58.6725"/>
    <polyline points="267.7563,57.8312 222.6129,333.5056 108.4248,314.8066"/>
    <line x1="107.0837" x2="60.4441" y1="313.9653" y2="105.312"/>
    <polyline points="61.2994,103.9798 40.2131,217.7512 314.8817,268.658"/>
    <polyline points="315.737,267.3258 107.0837,313.9653 269.0974,58.6725 40.5504,219.298"/>
    <polyline points="40.9038,220.8412 153.5682,39.1322 222.6129,333.5056 316.5783,265.9847"/>
    <line x1="317.4055" x2="109.7747" y1="264.6348" y2="315.6338"/>
    <polyline points="111.1331,316.4468 334.522,148.7217 318.2185,263.2763"/>
    <line x1="319.0172" x2="263.6811" y1="261.9094" y2="55.3922"/>
    <polyline points="262.3059,54.6078 147.435,40.7069 319.8016,260.5343"/>
    <line x1="320.5716" x2="333.2688" y1="259.1509" y2="144.1407"/>
    <line x1="332.8192" x2="144.3944" y1="142.6228" y2="41.5903"/>
    <line x1="142.8812" x2="258.1322" y1="42.0558" y2="52.3417"/>
    <polyline points="256.7253,51.6155 234.8081,330.1007 141.373,42.5371 44.3088,233.0364"/>
    <polyline points="43.8274,231.5282 258.1322,52.3417 118.0489,320.2961 54.1133,116.2773"/>
    <line x1="54.8541" x2="43.3619" y1="114.8782" y2="230.015"/>
    <polyline points="42.9123,228.4971 320.5716,259.1509 55.6095,113.4868 115.2585,318.7999"/>
    <polyline points="116.6498,319.5553 43.3619,230.015 332.8192,142.6228 231.7867,331.0475"/>
    <polyline points="233.2999,330.582 258.1322,52.3417 332.3537,141.1096"/>
    <line x1="331.8723" x2="141.373" y1="139.6014" y2="42.5371"/>
    <polyline points="139.8699,43.0342 52.6759,119.0985 236.3112,329.6036"/>
    <polyline points="237.809,329.0908 45.3187,236.0373 138.3721,43.547"/>
    <line x1="136.8798" x2="123.7208" y1="44.0755" y2="323.1116"/>
    <polyline points="122.2918,322.4301 330.8624,136.6005 45.3187,236.0373"/>
    <polyline points="45.8472,237.5297 123.7208,323.1116 252.4603,49.5261 51.2978,121.9491"/>
    <line x1="51.9794" x2="330.8624" y1="120.5202" y2="136.6005"/>
    <line x1="331.3752" x2="52.6759" y1="138.0983" y2="119.0985"/>
    <polyline points="53.3872,117.6841 234.8081,330.1007 119.4558,321.0222"/>
    <line x1="118.0489" x2="322.0678" y1="320.2961" y2="256.3605"/>
    <line x1="322.7939" x2="234.8081" y1="254.9537" y2="330.1007"/>
    <polyline points="239.3013,328.5623 123.7208,323.1116 330.3339,135.1081"/>
    <line x1="329.7899" x2="240.7881" y1="133.6214" y2="328.0182"/>
    <polyline points="242.269,327.4586 326.2014,247.8098 133.9121,45.1792"/>
    <line x1="135.393" x2="251.0243" y1="44.6196" y2="48.8596"/>
    <line x1="252.4603" x2="324.8833" y1="49.5261" y2="250.6887"/>
    <polyline points="325.5499,249.2527 135.393,44.6196 240.7881,328.0182 46.3912,239.0164"/>
    <polyline points="46.9508,240.4974 326.2014,247.8098 49.9797,124.828 249.5814,48.2081"/>
    <line x1="248.1318" x2="47.5259" y1="47.5717" y2="241.9724"/>
    <polyline points="48.1164,243.4413 246.6756,46.9506 129.5055,325.6872 327.4588,244.9039"/>
    <polyline points="328.0647,243.4413 246.6756,325.6872 130.9682,326.293"/>
    <line x1="129.5055" x2="48.7223" y1="325.6872" y2="127.7339"/>
    <polyline points="49.3434,126.2776 47.5259,241.9724 128.0493,325.0661"/>
    <line x1="126.5997" x2="49.9797" y1="324.4297" y2="124.828"/>
    <polyline points="50.6312,123.3851 135.393,44.6196 125.1568,323.7782"/>
    <line x1="120.8701" x2="323.5052" y1="321.7336" y2="253.5393"/>
    <polyline points="324.2017,252.1176 330.8624,136.6005 253.8893,50.2077"/>
    <polyline points="255.311,50.9042 323.5052,253.5393 52.6759,119.0985 44.8059,234.5395"/>
    <polyline points="42.4786,226.9745 228.7461,331.9309 333.7025,145.6633"/>
    <line x1="334.1203" x2="112.5" y1="147.1903" y2="317.2456"/>
    <polyline points="113.8752,318.03 147.435,40.7069 228.7461,331.9309"/>
    <polyline points="230.2687,331.4972 320.5716,259.1509 145.9124,41.1406"/>
    <line x1="147.435" x2="56.3795" y1="40.7069" y2="112.1035"/>
    <line x1="55.6095" x2="260.9226" y1="113.4868" y2="53.8379"/>
    <polyline points="259.5313,53.0825 43.3619,230.015 321.327,257.7596"/>
    <line x1="326.2014" x2="329.2303" y1="247.8098" y2="132.1404"/>
    <line x1="328.6552" x2="243.744" y1="130.6654" y2="326.8835"/>
    <polyline points="245.2129,326.293 246.6756,46.9506 328.0647,129.1965"/>
    <line x1="327.4588" x2="129.5055" y1="127.7339" y2="46.9506"/>
    <polyline points="128.0493,47.5717 47.5259,130.6654 248.1318,325.0661"/>
    <line x1="246.6756" x2="245.2129" y1="325.6872" y2="46.3448"/>
    <line x1="243.744" x2="328.6552" y1="45.7543" y2="241.9724"/>
    <polyline points="329.2303,240.4974 326.2014,124.828 46.9508,132.1404"/>
    <line x1="47.5259" x2="326.8377" y1="130.6654" y2="126.2776"/>
    <line x1="326.2014" x2="242.269" y1="124.828" y2="45.1792"/>
    <line x1="240.7881" x2="329.7899" y1="44.6196" y2="239.0164"/>
    <polyline points="330.3339,237.5297 123.7208,49.5261 45.8472,135.1081"/>
    <polyline points="46.3912,133.6214 240.7881,44.6196 135.393,328.0182 50.6312,249.2527"/>
    <polyline points="49.9797,247.8098 326.2014,124.828 133.9121,327.4586"/>
    <polyline points="132.4371,326.8835 328.6552,241.9724 47.5259,130.6654 49.3434,246.3602"/>
    <polyline points="48.7223,244.9039 129.5055,46.9506 246.6756,325.6872 48.1164,129.1965"/>
    <line x1="45.3187" x2="138.3721" y1="136.6005" y2="329.0908"/>
    <polyline points="139.8699,329.6036 52.6759,253.5393 236.3112,43.0342"/>
    <line x1="234.8081" x2="119.4558" y1="42.5371" y2="51.6155"/>
    <polyline points="120.8701,50.9042 323.5052,119.0985 52.6759,253.5393 44.8059,138.0983"/>
    <polyline points="44.3088,139.6014 141.373,330.1007 234.8081,42.5371 53.3872,254.9537"/>
    <polyline points="54.1133,256.3605 118.0489,52.3417 258.1322,320.2961 332.3537,231.5282"/>
    <line x1="332.8192" x2="144.3944" y1="230.015" y2="331.0475"/>
    <polyline points="142.8812,330.582 258.1322,320.2961 233.2999,42.0558"/>
    <polyline points="231.7867,41.5903 332.8192,230.015 43.3619,142.6228 54.8541,257.7596"/>
    <line x1="55.6095" x2="115.2585" y1="259.1509" y2="53.8379"/>
    <polyline points="113.8752,54.6078 147.435,331.9309 262.3059,318.03"/>
    <polyline points="263.6811,317.2456 112.5,55.3922 148.962,332.3486"/>
    <polyline points="150.4933,332.7504 41.6591,148.7217 334.522,223.9161 57.9626,263.2763"/>
    <polyline points="57.1639,261.9094 263.6811,317.2456 319.0172,110.7283"/>
    <line x1="319.8016" x2="147.435" y1="112.1035" y2="331.9309"/>
    <polyline points="145.9124,331.4972 320.5716,113.4868 42.9123,144.1407"/>
    <line x1="43.3619" x2="116.6498" y1="142.6228" y2="53.0825"/>
    <line x1="118.0489" x2="322.0678" y1="52.3417" y2="116.2773"/>
    <polyline points="322.7939,117.6841 234.8081,42.5371 256.7253,321.0222"/>
    <line x1="258.1322" x2="43.8274" y1="320.2961" y2="141.1096"/>
    <polyline points="42.4786,145.6633 228.7461,40.7069 147.435,331.9309 56.3795,260.5343"/>
    <line x1="58.7756" x2="41.2734" y1="264.6348" y2="150.2571"/>
    <line x1="41.6591" x2="225.6878" y1="148.7217" y2="39.8874"/>
    <line x1="227.2191" x2="112.5" y1="40.2892" y2="55.3922"/>
    <polyline points="111.1331,56.191 334.522,223.9161 265.048,316.4468"/>
    <polyline points="266.4064,315.6338 317.4055,108.003 58.7756,264.6348 224.1523,39.5017"/>
    <line x1="222.6129" x2="108.4248" y1="39.1322" y2="57.8312"/>
    <line x1="109.7747" x2="317.4055" y1="57.004" y2="108.003"/>
    <line x1="318.2185" x2="334.522" y1="109.3615" y2="223.9161"/>
    <polyline points="334.1203,225.4474 112.5,55.3922 42.0608,147.1903"/>
    <line x1="40.9038" x2="153.5682" y1="151.7966" y2="333.5056"/>
    <polyline points="155.1114,333.8591 269.0974,313.9653 107.0837,58.6725"/>
    <line x1="105.7514" x2="40.2131" y1="59.5278" y2="154.8866"/>
    <line x1="39.8921" x2="314.0125" y1="156.4368" y2="102.6566"/>
    <line x1="313.1295" x2="159.762" y1="101.3425" y2="334.8222"/>
    <polyline points="158.2085,334.5174 314.0125,102.6566 217.9726,38.1204"/>
    <line x1="216.4191" x2="39.5873" y1="37.8156" y2="157.9904"/>
    <polyline points="39.2988,159.547 101.8094,62.1767 336.8823,213.0908"/>
    <line x1="337.1545" x2="100.5142" y1="211.5312" y2="63.087"/>
    <line x1="101.8094" x2="214.8624" y1="62.1767" y2="37.5271"/>
    <line x1="213.3028" x2="39.0266" y1="37.2549" y2="161.1066"/>
    <polyline points="38.7707,162.669 65.7825,275.1809 164.4406,335.6387"/>
    <polyline points="162.8783,335.3829 39.0266,161.1066 337.1545,211.5312 64.8586,273.8953"/>
    <polyline points="63.9483,272.6 274.3717,310.4611 312.2328,100.0378"/>
    <polyline points="311.3225,98.7425 337.1545,211.5312 275.6669,309.5508"/>
    <polyline points="274.3717,310.4611 101.8094,62.1767 161.3187,335.1107"/>
    <line x1="166.0056" x2="337.6498" y1="335.8782" y2="208.4039"/>
    <polyline points="337.4104,209.9688 65.7825,275.1809 310.3986,97.4569 276.9526,308.627"/>
    <polyline points="278.2285,307.6897 210.1755,36.7596 97.9526,64.9481"/>
    <line x1="99.2285" x2="310.3986" y1="64.0108" y2="97.4569"/>
    <line x1="309.4614" x2="210.1755" y1="96.181" y2="36.7596"/>
    <line x1="211.7405" x2="65.7825" y1="36.9991" y2="275.1809"/>
    <polyline points="66.7197,276.4568 210.1755,36.7596 166.0056,335.8782 38.5313,164.2339"/>
    <polyline points="38.3082,165.8013 279.4945,306.7392 337.8729,206.8365"/>
    <line x1="338.0795" x2="169.1425" y1="205.2669" y2="336.3079"/>
    <polyline points="167.5729,336.1012 279.4945,306.7392 96.6866,65.8986"/>
    <polyline points="103.1142,61.2799 159.762,334.8222 273.0669,311.3579"/>
    <polyline points="271.7529,312.2408 62.1686,269.9812 314.0125,102.6566 336.289,216.201"/>
    <line x1="335.968" x2="219.5229" y1="217.7512" y2="38.4415"/>
    <line x1="221.0697" x2="269.0974" y1="38.7787" y2="313.9653"/>
    <polyline points="267.7563,314.8066 222.6129,39.1322 316.5783,106.6531"/>
    <polyline points="315.737,105.312 107.0837,58.6725 60.4441,267.3258"/>
    <polyline points="61.2994,268.658 40.2131,154.8866 335.968,217.7512 156.6582,334.1963"/>
    <polyline points="152.0288,333.136 58.7756,264.6348 334.9077,222.3806"/>
    <polyline points="335.2773,220.8412 153.5682,333.5056 222.6129,39.1322 59.6028,265.9847"/>
    <line x1="62.1686" x2="104.4282" y1="269.9812" y2="60.3969"/>
    <polyline points="122.2918,50.2077 330.8624,236.0373 253.8893,322.4301"/>
    <line x1="252.4603" x2="324.8833" y1="323.1116" y2="121.9491"/>
    <line x1="324.2017" x2="330.8624" y1="120.5202" y2="236.0373"/>
    <line x1="331.3752" x2="52.6759" y1="234.5395" y2="253.5393"/>
    <polyline points="51.9794,252.1176 330.8624,236.0373 45.3187,136.6005 237.809,43.547"/>
    <line x1="239.3013" x2="123.7208" y1="44.0755" y2="49.5261"/>
    <line x1="125.1568" x2="135.393" y1="48.8596" y2="328.0182"/>
    <polyline points="136.8798,328.5623 123.7208,49.5261 252.4603,323.1116 51.2978,250.6887"/>
    <polyline points="63.0516,271.2953 159.762,334.8222 216.4191,37.8156 336.5938,214.6474"/>
    <polyline points="335.6307,219.298 269.0974,313.9653 40.5504,153.3398"/>
    <polyline points="37.7376,170.5162 203.8933,35.966 172.2878,336.6718 70.6008,281.4602"/>
    <polyline points="71.6035,282.6854 284.457,302.8059 91.7241,69.8319 173.8632,336.8291"/>
    <polyline points="194.4214,337.3674 339.139,179.9881 37.0421,192.6497 290.4214,75.0349"/>
    <line x1="293.8664" x2="80.0758" y1="78.3041" y2="80.543"/>
    <polyline points="68.634,93.6589 38.1016,205.2669 338.0795,167.3709 207.0386,336.3079"/>
    <polyline points="208.6082,336.1012 279.4945,65.8986 167.5729,36.5365"/>
    <line x1="169.1425" x2="338.0795" y1="36.3299" y2="167.3709"/>
    <line x1="338.2697" x2="306.5702" y1="168.9426" y2="280.2247"/>
    <polyline points="326.8377,246.3602 47.5259,241.9724 328.6552,130.6654 132.4371,45.7543"/>
    <line x1="130.9682" x2="246.6756" y1="46.3448" y2="46.9506"/>
    <line x1="230.2687" x2="320.5716" y1="41.1406" y2="113.4868"/>
    <polyline points="321.327,114.8782 43.3619,142.6228 259.5313,319.5553"/>
    <polyline points="260.9226,318.7999 55.6095,259.1509 320.5716,113.4868 333.2688,228.4971"/>
    <line x1="333.7025" x2="228.7461" y1="226.9745" y2="40.7069"/>
    <polyline points="205.4669,36.1397 306.5702,92.4131 338.2697,203.6952"/>
    <line x1="338.4435" x2="203.8933" y1="202.1216" y2="35.966"/>
    <polyline points="170.7142,36.1397 306.5702,280.2247 205.4669,336.4981"/>
    <line x1="203.8933" x2="338.4435" y1="336.6718" y2="170.5162"/>
    <polyline points="339.0645,178.4067 289.2505,73.9694 196.0028,337.2928"/>
    <line x1="210.1755" x2="66.7197" y1="335.8782" y2="96.181"/>
    <line x1="65.7825" x2="337.4104" y1="97.4569" y2="162.669"/>
    <line x1="337.1545" x2="64.8586" y1="161.1066" y2="98.7425"/>
    <polyline points="63.9483,100.0378 274.3717,62.1767 101.8094,310.4611 39.2988,213.0908"/>
    <polyline points="39.5873,214.6474 216.4191,334.8222 159.762,37.8156 103.1142,311.3579"/>
    <line x1="101.8094" x2="161.3187" y1="310.4611" y2="37.5271"/>
    <polyline points="162.8783,37.2549 39.0266,211.5312 213.3028,335.3829"/>
    <polyline points="211.7405,335.6387 65.7825,97.4569 164.4406,36.9991"/>
    <polyline points="166.0056,36.7596 210.1755,335.8782 97.9526,307.6897"/>
    <line x1="96.6866" x2="67.6703" y1="306.7392" y2="94.9149"/>
    <line x1="59.6028" x2="222.6129" y1="106.6531" y2="333.5056"/>
    <polyline points="221.0697,333.8591 269.0974,58.6725 335.6307,153.3398"/>
    <line x1="335.968" x2="219.5229" y1="154.8866" y2="334.1963"/>
    <polyline points="217.9726,334.5174 314.0125,269.9812 336.289,156.4368"/>
    <line x1="336.5938" x2="216.4191" y1="157.9904" y2="334.8222"/>
    <polyline points="214.8624,335.1107 101.8094,310.4611 336.8823,159.547"/>
    <line x1="335.2773" x2="153.5682" y1="151.7966" y2="39.1322"/>
    <polyline points="152.0288,39.5017 58.7756,108.003 224.1523,333.136"/>
    <polyline points="225.6878,332.7504 41.6591,223.9161 334.522,148.7217 265.048,56.191"/>
    <polyline points="266.4064,57.004 317.4055,264.6348 58.7756,108.003 41.2734,222.3806"/>
    <line x1="41.6591" x2="150.4933" y1="223.9161" y2="39.8874"/>
    <polyline points="148.962,40.2892 112.5,317.2456 227.2191,332.3486"/>
    <polyline points="249.5814,324.4297 49.9797,247.8098 126.5997,48.2081"/>
    <line x1="58.7756" x2="334.9077" y1="108.003" y2="150.2571"/>
    <line x1="334.522" x2="57.9626" y1="148.7217" y2="109.3615"/>
    <polyline points="57.1639,110.7283 263.6811,55.3922 112.5,317.2456 42.0608,225.4474"/>
    <line x1="40.2131" x2="270.4297" y1="217.7512" y2="59.5278"/>
    <polyline points="271.7529,60.3969 62.1686,102.6566 314.0125,269.9812 39.8921,216.201"/>
    <polyline points="39.0266,211.5312 337.1545,161.1066 100.5142,309.5508"/>
    <polyline points="99.2285,308.627 310.3986,275.1809 65.7825,97.4569 38.7707,209.9688"/>
    <line x1="38.1016" x2="280.7505" y1="205.2669" y2="66.8624"/>
    <polyline points="281.9964,67.8393 69.6109,92.4131 306.5702,280.2247 37.9114,203.6952"/>
    <polyline points="36.9426,183.1528 191.2566,35.171 184.9245,337.4668 78.974,290.9579"/>
    <polyline points="67.6703,277.7229 96.6866,65.8986 308.5108,94.9149"/>
    <polyline points="314.8817,103.9798 40.2131,154.8866 270.4297,313.11"/>
    <line x1="255.311" x2="323.5052" y1="321.7336" y2="119.0985"/>
    <polyline points="325.5499,123.3851 135.393,328.0182 251.0243,323.7782"/>
    <line x1="295.5709" x2="302.0669" y1="334.5472" y2="342.815"/>
    <line x1="306.2008" x2="316.8307" y1="339.2717" y2="339.2717"/>
    <line x1="316.8307" x2="306.2008" y1="335.7283" y2="335.7283"/>
    <line x1="302.0669" x2="295.5709" y1="334.5472" y2="342.815"/>
    <polyline points="323.3268,342.815 329.2323,330.4134 320.9646,330.4134"/>
    <polyline points="333.3661,338.6811 333.9567,336.9094 335.1378,335.7283 337.5,335.1378 339.2717,335.7283 340.4528,336.9094 341.0433,339.2717 340.4528,341.0433 339.2717,342.2244 336.9094,342.815 335.1378,342.2244 333.9567,341.0433 333.3661,338.6811 333.3661,335.7283 333.9567,332.7756 335.1378,331.0039 336.9094,330.4134 338.0906,330.4134 339.8622,331.0039 340.4528,332.185"/>
    <line x1="331.8723" x2="141.373" y1="233.0364" y2="330.1007"/>
    <polygon points="88.878,335.7283 88.878,337.5 89.4685,340.4528 90.6496,342.2244 92.4213,342.815 93.6024,342.815 95.374,342.2244 96.5551,340.4528 97.1457,337.5 97.1457,335.7283 96.5551,332.7756 95.374,331.0039 93.6024,330.4134 92.4213,330.4134 90.6496,331.0039 89.4685,332.7756"/>
    <polygon points="85.3346,335.7283 84.7441,332.7756 83.563,331.0039 81.7913,330.4134 80.6102,330.4134 78.8386,331.0039 77.6575,332.7756 77.0669,335.7283 77.0669,337.5 77.6575,340.4528 78.8386,342.2244 80.6102,342.815 81.7913,342.815 83.563,342.2244 84.7441,340.4528 85.3346,337.5"/>
    <polyline points="72.9331,332.185 72.3425,331.0039 70.5709,330.4134 69.3898,330.4134 67.6181,331.0039 66.437,332.7756 65.8465,335.7283 65.8465,338.6811 66.437,341.0433 67.6181,342.2244 69.3898,342.815 71.752,342.2244 72.9331,341.0433 73.5236,339.2717 72.9331,336.9094 71.752,335.7283 69.9803,335.1378 67.6181,335.7283 66.437,336.9094 65.8465,338.6811"/>
    <line x1="61.122" x2="50.4921" y1="339.2717" y2="339.2717"/>
    <line x1="50.4921" x2="61.122" y1="335.7283" y2="335.7283"/>
    <polyline points="45.7677,342.815 45.7677,336.9094 45.1772,335.1378 43.9961,334.5472 42.2244,334.5472 41.0433,335.1378 39.2717,336.9094"/>
    <line x1="39.2717" x2="39.2717" y1="334.5472" y2="342.815"/>
    <polyline points="37.5804,172.0915 91.7241,69.8319 338.6007,200.5463"/>
    <line x1="339.2717" x2="294.9917" y1="186.3189" y2="79.4177"/>
  </g>
</svg>
