<?xml version="1.0" encoding="utf-8" ?>
<svg xmlns="http://www.w3.org/2000/svg" xmlns:cc="http://creativecommons.org/ns" xmlns:dc="http://purl.org/dc/elements/1.1/" xmlns:ev="http://www.w3.org/2001/xml-events" xmlns:inkscape="http://www.inkscape.org/namespaces/inkscape" xmlns:rdf="http://www.w3.org/1999/02/22-rdf-syntax-ns" xmlns:sodipodi="http://sodipodi.sourceforge.net/DTD/sodipodi-0.dtd" xmlns:xlink="http://www.w3.org/1999/xlink" baseProfile="tiny" height="10.0cm" version="1.2" viewBox="0 0 377.95275590551176 377.95275590551176" width="10.0cm">
  <metadata>
    <rdf:RDF>
      <cc:Work>
        <dc:format>image/svg+xml</dc:format>
        <dc:source>Vsketch with params {'__seed__': 0, 'r': 4.0, 'multiplier': 258, 'n': 600}</dc:source>
        <dc:date>2025-04-26T12:53:00.456496</dc:date>
      </cc:Work>
    </rdf:RDF>
  </metadata>
  <defs/>
  <g fill="none" id="layer1" inkscape:groupmode="layer" inkscape:label="1" stroke="#0000ff" stroke-width="1.1339" style="display:inline">
    <polyline points="57.1639,261.9094 339.2717,186.3189 338.7884,174.2408 337.2811,161.8669 334.7596,149.6593 331.2409,137.701 326.8992,126.4198 321.4927,115.188 315.1793,104.4398 308.0018,94.2482 300.0092,84.6826 291.2557,75.8079 281.8008,67.6845 272.0234,60.5771 261.7093,54.2735 250.5808,48.6574 239.0275,43.9772 227.1278,40.2647 217.9319,38.1122 208.9937,36.5899 199.6036,35.5768 190.5464,35.1577 181.4804,35.2824 172.0624,35.9898 163.0795,37.221 153.8184,39.0737 145.0532,41.393 136.0878,44.3631 127.6715,47.7358 119.1361,51.7789 110.8698,56.347 102.9049,61.4224 95.571,66.7536 88.2857,72.764 81.3899,79.2175 75.1615,85.8065 69.3392,92.757 63.7288,100.3545 58.7991,107.9642 54.1589,116.1902 50.0413,124.69 46.5951,133.0764 43.6579,141.6543 41.1508,150.7601 39.2172,160.0046 37.9075,168.9764 37.1379,178.0105 36.9137,187.4524 37.2795,196.8899 38.2338,206.2861 40.8026,220.407 44.5797,233.8622 49.735,247.257 55.9532,259.7726 63.5143,271.9722 72.1982,283.3997 81.9266,293.9523 92.3193,303.2957 103.5303,311.6396 115.7955,319.0937 128.365,325.2022 141.8045,330.2401 155.6611,333.9809 169.435,336.3445 183.7459,337.4376 198.0961,337.1685 212.356,335.5399 226.0317,332.6616 239.7384,328.4042 252.9795,322.8661 265.3113,316.2908 277.2885,308.3822 288.4618,299.3735 298.4726,289.622 307.7713,278.689 315.9914,266.9234 323.0588,254.4313 328.7717,241.6772 333.3873,228.0869 336.6235,214.4915 338.5904,200.6554 339.2717,186.3189 36.9094,186.3189 263.6811,317.2456"/>
    <polyline points="262.3059,318.03 324.8833,121.9491 113.8752,54.6078"/>
    <line x1="115.2585" x2="139.8699" y1="53.8379" y2="43.0342"/>
    <line x1="141.373" x2="326.2014" y1="42.5371" y2="247.8098"/>
    <polyline points="326.8377,246.3602 169.1425,336.3079 309.4614,96.181"/>
    <polyline points="308.5108,94.9149 269.0974,58.6725 327.4588,244.9039"/>
    <polyline points="328.0647,243.4413 60.4441,267.3258 159.762,334.8222 181.7597,35.2704"/>
    <polyline points="183.3418,35.2124 150.4933,39.8874 321.327,257.7596"/>
    <line x1="320.5716" x2="271.7529" y1="259.1509" y2="60.3969"/>
    <polyline points="270.4297,59.5278 99.2285,64.0108 256.7253,321.0222"/>
    <polyline points="258.1322,320.2961 216.4191,334.8222 339.139,192.6497"/>
    <polyline points="339.0645,194.2311 99.2285,64.0108 37.1166,178.4067"/>
    <line x1="37.2078" x2="122.2918" y1="176.8262" y2="50.2077"/>
    <line x1="123.7208" x2="296.1053" y1="49.5261" y2="80.543"/>
    <polyline points="297.2071,81.6799 304.5776,282.6854 298.2968,82.8283 46.3912,239.0164"/>
    <polyline points="46.9508,240.4974 44.3088,233.0364 164.4406,335.6387"/>
    <polyline points="162.8783,335.3829 298.2968,82.8283 213.3028,37.2549"/>
    <polyline points="214.8624,37.5271 132.4371,326.8835 38.1016,205.2669 107.0837,313.9653 246.6756,46.9506"/>
    <line x1="248.1318" x2="207.0386" y1="47.5717" y2="36.3299"/>
    <line x1="208.6082" x2="60.4441" y1="36.5365" y2="105.312"/>
    <line x1="61.2994" x2="276.9526" y1="103.9798" y2="308.627"/>
    <polyline points="278.2285,307.6897 207.0386,36.3299 338.2697,168.9426"/>
    <line x1="338.0795" x2="166.0056" y1="167.3709" y2="36.7596"/>
    <polyline points="164.4406,36.9991 44.3088,139.6014 305.5803,91.1775"/>
    <line x1="304.5776" x2="78.974" y1="89.9524" y2="81.6799"/>
    <line x1="77.8843" x2="240.7881" y1="82.8283" y2="44.6196"/>
    <polyline points="242.269,45.1792 331.8723,233.0364 283.2319,303.8087"/>
    <line x1="284.457" x2="184.9245" y1="302.8059" y2="35.171"/>
    <polyline points="186.5074,35.1461 51.2978,121.9491 319.8016,260.5343"/>
    <polyline points="319.0172,261.9094 339.2717,186.3189 57.1639,110.7283"/>
    <polyline points="57.9626,109.3615 51.2978,250.6887 56.3795,260.5343"/>
    <line x1="55.6095" x2="323.5052" y1="259.1509" y2="253.5393"/>
    <polyline points="324.2017,252.1176 338.9733,176.8262 177.0183,35.5438"/>
    <line x1="175.44" x2="47.5259" y1="35.668" y2="130.6654"/>
    <line x1="46.9508" x2="44.3088" y1="132.1404" y2="139.6014"/>
    <polyline points="43.8274,141.1096 336.5938,157.9904 299.3745,83.988"/>
    <line x1="298.2968" x2="329.7899" y1="82.8283" y2="133.6214"/>
    <polyline points="330.3339,135.1081 132.4371,326.8835 161.3187,335.1107"/>
    <line x1="159.762" x2="54.1133" y1="334.8222" y2="116.2773"/>
    <polyline points="54.8541,114.8782 150.4933,39.8874 192.8393,337.4254"/>
    <polyline points="191.2566,337.4668 284.457,302.8059 317.4055,108.003"/>
    <polyline points="318.2185,109.3615 51.2978,121.9491 189.6737,337.4917"/>
    <line x1="188.0906" x2="42.0608" y1="337.5" y2="147.1903"/>
    <polyline points="42.4786,145.6633 123.7208,49.5261 150.4933,39.8874 59.6028,265.9847"/>
    <line x1="60.4441" x2="167.5729" y1="267.3258" y2="36.5365"/>
    <line x1="169.1425" x2="205.4669" y1="36.3299" y2="36.1397"/>
    <line x1="203.8933" x2="141.373" y1="35.966" y2="330.1007"/>
    <polyline points="139.8699,329.6036 115.2585,318.7999 288.0684,299.7215"/>
    <polyline points="286.8754,300.7622 197.5833,35.4361 336.5938,157.9904 76.8066,288.6498"/>
    <line x1="77.8843" x2="337.1545" y1="289.8095" y2="211.5312"/>
    <polyline points="336.8823,213.0908 243.744,45.7543 239.3013,328.5623"/>
    <polyline points="237.809,329.0908 197.5833,337.2017 89.3057,300.7622"/>
    <polyline points="90.5095,301.7904 243.744,45.7543 38.1016,205.2669 281.9964,304.7985"/>
    <polyline points="280.7505,305.7754 315.737,105.312 245.2129,46.3448"/>
    <line x1="243.744" x2="39.2988" y1="45.7543" y2="159.547"/>
    <line x1="39.5873" x2="290.4214" y1="157.9904" y2="75.0349"/>
    <polyline points="289.2505,73.9694 310.3986,275.1809 86.9306,298.6684"/>
    <polyline points="88.1127,299.7215 115.2585,53.8379 91.7241,302.8059 36.9426,183.1528"/>
    <line x1="36.9177" x2="324.8833" y1="184.7358" y2="121.9491"/>
    <line x1="324.2017" x2="338.9733" y1="120.5202" y2="195.8116"/>
    <polyline points="338.8657,197.3911 37.2078,176.8262 37.3154,175.2467"/>
    <polyline points="37.4397,173.6684 328.6552,130.6654 123.7208,49.5261 225.6878,332.7504 36.984,191.0676"/>
    <polyline points="37.0421,192.6497 216.4191,37.8156 339.139,179.9881"/>
    <polyline points="339.1971,181.5702 225.6878,332.7504 108.4248,57.8312"/>
    <polyline points="109.7747,57.004 91.7241,69.8319 260.9226,53.8379 74.6879,286.2968"/>
    <polyline points="75.7411,287.4788 65.7825,275.1809 300.44,85.159"/>
    <line x1="301.4932" x2="260.9226" y1="86.341" y2="53.8379"/>
    <line x1="259.5313" x2="225.6878" y1="53.0825" y2="332.7504"/>
    <polyline points="227.2191,332.3486 188.0906,337.5 81.1894,293.2201"/>
    <polyline points="80.0758,292.0948 123.7208,49.5261 333.7025,226.9745"/>
    <line x1="333.2688" x2="304.5776" y1="228.4971" y2="282.6854"/>
    <polyline points="305.5803,281.4602 44.3088,233.0364 329.2303,132.1404"/>
    <line x1="328.6552" x2="338.7414" y1="130.6654" y2="198.9694"/>
    <polyline points="338.6007,200.5463 84.6,296.5252 37.5804,172.0915"/>
    <polyline points="37.7376,170.5162 234.8081,42.5371 249.5814,324.4297"/>
    <polyline points="248.1318,325.0661 207.0386,336.3079 269.0974,58.6725 67.6703,277.7229"/>
    <polyline points="68.634,278.9789 60.4441,267.3258 307.5471,93.6589"/>
    <polyline points="306.5702,92.4131 338.0795,167.3709 210.1755,335.8782"/>
    <polyline points="211.7405,335.6387 44.3088,139.6014 329.2303,240.4974"/>
    <line x1="328.6552" x2="274.3717" y1="241.9724" y2="310.4611"/>
    <polyline points="273.0669,311.3579 37.2078,195.8116 253.8893,50.2077"/>
    <polyline points="255.311,50.9042 320.5716,113.4868 271.7529,312.2408"/>
    <polyline points="270.4297,313.11 99.2285,308.627 256.7253,51.6155"/>
    <line x1="258.1322" x2="216.4191" y1="52.3417" y2="37.8156"/>
    <polyline points="217.9726,38.1204 260.9226,318.7999 158.2085,334.5174"/>
    <polyline points="156.6582,334.1963 65.7825,97.4569 331.8723,139.6014 92.9492,303.8087"/>
    <polyline points="94.1847,304.7985 38.1016,167.3709 337.6498,208.4039"/>
    <polyline points="337.4104,209.9688 331.8723,139.6014 283.2319,68.8291"/>
    <line x1="284.457" x2="58.7756" y1="69.8319" y2="108.003"/>
    <line x1="59.6028" x2="150.4933" y1="106.6531" y2="332.7504"/>
    <polyline points="152.0288,333.136 304.5776,89.9524 333.2688,144.1407"/>
    <polyline points="332.8192,142.6228 41.6591,223.9161 153.5682,333.5056"/>
    <polyline points="155.1114,333.8591 336.5938,214.6474 332.3537,141.1096"/>
    <line x1="331.8723" x2="133.9121" y1="139.6014" y2="45.1792"/>
    <polyline points="135.393,44.6196 77.8843,289.8095 91.7241,302.8059 260.9226,318.7999 44.8059,234.5395"/>
    <polyline points="45.3187,236.0373 178.5978,35.4361 159.762,334.8222 315.737,105.312 38.3082,206.8365"/>
    <polyline points="38.5313,208.4039 38.1016,205.2669 94.1847,67.8393"/>
    <polyline points="95.4306,66.8624 315.737,105.312 130.9682,326.293"/>
    <polyline points="129.5055,325.6872 107.0837,313.9653 96.6866,65.8986"/>
    <polyline points="97.9526,64.9481 207.0386,36.3299 128.0493,325.0661"/>
    <polyline points="126.5997,324.4297 234.8081,330.1007 99.2285,64.0108 105.7514,313.11"/>
    <polyline points="104.4282,312.2408 320.5716,259.1509 37.2078,176.8262 103.1142,311.3579"/>
    <polyline points="101.8094,310.4611 328.6552,130.6654 274.3717,62.1767"/>
    <polyline points="273.0669,61.2799 37.2078,176.8262 253.8893,322.4301"/>
    <line x1="252.4603" x2="228.7461" y1="323.1116" y2="40.7069"/>
    <line x1="230.2687" x2="71.6035" y1="41.1406" y2="89.9524"/>
    <line x1="72.619" x2="132.4371" y1="88.7379" y2="326.8835"/>
    <polyline points="133.9121,327.4586 331.8723,233.0364 92.9492,68.8291"/>
    <line x1="91.7241" x2="339.2385" y1="69.8319" y2="183.1528"/>
    <polyline points="339.2634,184.7358 324.8833,250.6887 265.048,316.4468"/>
    <polyline points="266.4064,315.6338 91.7241,69.8319 115.2585,318.7999 39.8921,216.201"/>
    <line x1="39.5873" x2="335.6307" y1="214.6474" y2="153.3398"/>
    <polyline points="335.968,154.8866 310.3986,97.4569 141.373,330.1007 310.3986,275.1809 141.373,42.5371 310.3986,97.4569 234.8081,42.5371 99.2285,308.627 37.1166,194.2311"/>
    <line x1="37.2078" x2="338.8657" y1="195.8116" y2="175.2467"/>
    <line x1="338.9733" x2="313.1295" y1="176.8262" y2="101.3425"/>
    <polyline points="312.2328,100.0378 47.5259,130.6654 200.7411,336.9698"/>
    <polyline points="202.3179,336.8291 291.5811,296.5252 50.6312,123.3851"/>
    <polyline points="49.9797,124.828 141.373,42.5371 65.7825,275.1809 331.8723,233.0364 38.7707,209.9688"/>
    <polyline points="39.0266,211.5312 77.8843,82.8283 91.7241,69.8319 36.9426,189.485"/>
    <polyline points="36.9177,187.902 324.8833,250.6887 47.5259,130.6654 338.0795,167.3709 107.0837,313.9653 216.4191,334.8222 178.5978,337.2017 55.6095,113.4868 284.457,302.8059 77.8843,82.8283 41.6591,223.9161 252.4603,323.1116 328.6552,130.6654 338.0795,205.2669 107.0837,58.6725 216.4191,37.8156 178.5978,35.4361 55.6095,259.1509 284.457,69.8319 77.8843,289.8095 41.6591,148.7217 252.4603,49.5261 328.6552,241.9724 338.0795,167.3709 69.6109,280.2247"/>
    <polyline points="70.6008,281.4602 44.3088,139.6014 65.7825,275.1809 219.5229,334.1963"/>
    <polyline points="221.0697,333.8591 336.5938,157.9904 332.3537,231.5282"/>
    <polyline points="332.8192,230.015 41.6591,148.7217 222.6129,333.5056"/>
    <polyline points="224.1523,333.136 304.5776,282.6854 152.0288,39.5017"/>
    <polyline points="153.5682,39.1322 41.6591,148.7217 298.2968,82.8283 71.6035,89.9524 41.2734,222.3806"/>
    <line x1="41.6591" x2="222.6129" y1="223.9161" y2="39.1322"/>
    <polyline points="224.1523,39.5017 304.5776,89.9524 297.2071,290.9579"/>
    <line x1="298.2968" x2="162.8783" y1="289.8095" y2="37.2549"/>
    <line x1="161.3187" x2="132.4371" y1="37.5271" y2="45.7543"/>
    <polyline points="130.9682,46.3448 315.737,267.3258 337.8729,206.8365"/>
    <line x1="338.0795" x2="210.1755" y1="205.2669" y2="36.7596"/>
    <line x1="211.7405" x2="44.3088" y1="36.9991" y2="233.0364"/>
    <polyline points="43.8274,231.5282 336.5938,214.6474 197.5833,337.2017 55.6095,259.1509 52.6759,119.0985"/>
    <polyline points="53.3872,117.6841 276.9526,64.0108 322.7939,254.9537"/>
    <polyline points="322.0678,256.3605 159.762,334.8222 194.4214,337.3674"/>
    <polyline points="196.0028,337.2928 276.9526,64.0108 314.8817,103.9798"/>
    <polyline points="314.0125,102.6566 55.6095,259.1509 62.1686,269.9812"/>
    <polyline points="63.0516,271.2953 338.9733,176.8262 320.5716,113.4868 120.8701,321.7336"/>
    <polyline points="122.2918,322.4301 37.2078,195.8116 103.1142,61.2799"/>
    <line x1="104.4282" x2="320.5716" y1="60.3969" y2="113.4868"/>
    <polyline points="319.8016,112.1035 51.2978,250.6887 318.2185,263.2763"/>
    <polyline points="317.4055,264.6348 284.457,69.8319 184.9245,337.4668"/>
    <polyline points="186.5074,337.4917 51.2978,250.6887 47.5259,241.9724 175.44,336.9698"/>
    <polyline points="177.0183,337.094 338.9733,195.8116 63.0516,101.3425"/>
    <polyline points="62.1686,102.6566 55.6095,113.4868 52.6759,253.5393"/>
    <polyline points="53.3872,254.9537 276.9526,308.627 234.8081,330.1007 338.4435,170.5162"/>
    <line x1="338.6007" x2="84.6" y1="172.0915" y2="76.1126"/>
    <polyline points="85.7597,75.0349 39.5873,214.6474 197.5833,35.4361 55.6095,113.4868 314.0125,269.9812"/>
    <polyline points="313.1295,271.2953 338.9733,195.8116 199.1628,35.5438"/>
    <line x1="197.5833" x2="89.3057" y1="35.4361" y2="71.8756"/>
    <polyline points="90.5095,70.8474 243.744,326.8835 136.8798,328.5623"/>
    <polyline points="138.3721,329.0908 197.5833,35.4361 237.809,43.547"/>
    <polyline points="239.3013,44.0755 243.744,326.8835 285.6716,301.7904"/>
    <line x1="289.2505" x2="310.3986" y1="298.6684" y2="97.4569"/>
    <polyline points="311.3225,98.7425 291.5811,296.5252 325.5499,249.2527"/>
    <line x1="324.8833" x2="262.3059" y1="250.6887" y2="54.6078"/>
    <polyline points="263.6811,55.3922 36.9094,186.3189 112.5,317.2456"/>
    <polyline points="113.8752,318.03 324.8833,250.6887 111.1331,56.191"/>
    <line x1="112.5" x2="36.9094" y1="55.3922" y2="186.3189"/>
    <polyline points="36.984,181.5702 225.6878,39.8874 339.1971,191.0676"/>
    <polyline points="339.2385,189.485 91.7241,302.8059 109.7747,315.6338"/>
    <polyline points="111.1331,316.4468 324.8833,121.9491 47.5259,241.9724 63.9483,100.0378"/>
    <polyline points="64.8586,98.7425 291.5811,76.1126 173.8632,336.8291"/>
    <polyline points="172.2878,336.6718 141.373,330.1007 49.9797,247.8098"/>
    <polyline points="50.6312,249.2527 291.5811,76.1126 334.522,148.7217 252.4603,323.1116 147.435,331.9309"/>
    <polyline points="145.9124,331.4972 71.6035,89.9524 83.4516,77.2024"/>
    <polyline points="82.3147,78.3041 252.4603,323.1116 293.8664,294.3337"/>
    <polyline points="292.7295,295.4354 71.6035,89.9524 334.9077,150.2571"/>
    <polyline points="335.2773,151.7966 334.522,223.9161 291.5811,296.5252 64.8586,273.8953"/>
    <polyline points="63.9483,272.6 47.5259,130.6654 51.2978,121.9491 57.9626,263.2763"/>
    <polyline points="58.7756,264.6348 284.457,302.8059 320.5716,259.1509 338.9733,195.8116 51.9794,252.1176"/>
    <line x1="51.2978" x2="189.6737" y1="250.6887" y2="35.1461"/>
    <line x1="188.0906" x2="81.1894" y1="35.1378" y2="79.4177"/>
    <polyline points="80.0758,80.543 123.7208,323.1116 225.6878,39.8874 108.4248,314.8066"/>
    <line x1="107.0837" x2="279.4945" y1="313.9653" y2="306.7392"/>
    <polyline points="275.6669,309.5508 84.6,76.1126 251.0243,48.8596"/>
    <line x1="252.4603" x2="147.435" y1="49.5261" y2="40.7069"/>
    <line x1="145.9124" x2="71.6035" y1="41.1406" y2="282.6854"/>
    <polyline points="72.619,283.8999 132.4371,45.7543 38.1016,167.3709 38.5313,164.2339"/>
    <line x1="38.3082" x2="315.737" y1="165.8013" y2="267.3258"/>
    <polyline points="314.8817,268.658 276.9526,308.627 196.0028,35.345"/>
    <polyline points="194.4214,35.2704 159.762,37.8156 315.737,267.3258 95.4306,305.7754"/>
    <polyline points="96.6866,306.7392 107.0837,58.6725 246.6756,325.6872"/>
    <polyline points="245.2129,326.293 315.737,267.3258 280.7505,66.8624"/>
    <line x1="281.9964" x2="38.1016" y1="67.8393" y2="167.3709"/>
    <line x1="37.9114" x2="207.0386" y1="168.9426" y2="336.3079"/>
    <polyline points="208.6082,336.1012 60.4441,267.3258 48.1164,129.1965"/>
    <line x1="48.7223" x2="269.0974" y1="127.7339" y2="58.6725"/>
    <polyline points="267.7563,57.8312 225.6878,39.8874 259.5313,319.5553"/>
    <line x1="260.9226" x2="331.3752" y1="318.7999" y2="138.0983"/>
    <polyline points="330.8624,136.6005 178.5978,35.4361 302.5339,285.1037"/>
    <polyline points="301.4932,286.2968 260.9226,318.7999 74.6879,86.341"/>
    <line x1="73.6472" x2="178.5978" y1="87.5341" y2="35.4361"/>
    <line x1="180.1783" x2="276.9526" y1="35.345" y2="64.0108"/>
    <polyline points="275.6669,63.087 84.6,296.5252 334.522,148.7217 335.2773,220.8412"/>
    <polyline points="334.9077,222.3806 71.6035,282.6854 230.2687,331.4972"/>
    <polyline points="228.7461,331.9309 252.4603,49.5261 82.3147,294.3337"/>
    <polyline points="83.4516,295.4354 71.6035,282.6854 298.2968,289.8095 46.3912,133.6214"/>
    <polyline points="45.8472,135.1081 132.4371,45.7543 214.8624,335.1107"/>
    <line x1="216.4191" x2="118.0489" y1="334.8222" y2="52.3417"/>
    <line x1="116.6498" x2="225.6878" y1="53.0825" y2="39.8874"/>
    <polyline points="227.2191,40.2892 188.0906,35.1378 334.1203,147.1903"/>
    <line x1="334.522" x2="144.3944" y1="148.7217" y2="41.5903"/>
    <polyline points="142.8812,42.0558 39.5873,157.9904 233.2999,330.582"/>
    <polyline points="231.7867,331.0475 334.522,148.7217 40.9038,151.7966"/>
    <polyline points="40.5504,153.3398 39.5873,157.9904 335.6307,219.298"/>
    <line x1="335.968" x2="310.3986" y1="217.7512" y2="275.1809"/>
    <polyline points="309.4614,276.4568 169.1425,36.3299 326.8377,126.2776"/>
    <polyline points="327.4588,127.7339 269.0974,313.9653 48.7223,244.9039"/>
    <polyline points="48.1164,243.4413 60.4441,105.312 159.762,37.8156 178.5978,337.2017 73.6472,285.1037"/>
    <polyline points="78.974,290.9579 304.5776,282.6854 42.9123,144.1407"/>
    <line x1="43.3619" x2="41.6591" y1="142.6228" y2="148.7217"/>
    <polyline points="41.2734,150.2571 71.6035,282.6854 292.7295,77.2024"/>
    <line x1="291.5811" x2="325.5499" y1="76.1126" y2="123.3851"/>
    <polyline points="326.2014,124.828 141.373,330.1007 65.7825,97.4569 44.3088,233.0364 70.6008,91.1775"/>
    <polyline points="69.6109,92.4131 338.0795,205.2669 47.5259,241.9724 312.2328,272.6"/>
    <polyline points="311.3225,273.8953 291.5811,76.1126 202.3179,35.8087"/>
    <line x1="200.7411" x2="47.5259" y1="35.668" y2="241.9724"/>
    <polyline points="49.3434,246.3602 169.1425,36.3299 269.0974,58.6725 216.4191,334.8222 37.0421,179.9881"/>
    <polyline points="37.3154,197.3911 37.2078,195.8116 320.5716,113.4868 284.457,69.8319 191.2566,35.171"/>
    <polyline points="192.8393,35.2124 150.4933,332.7504 316.5783,265.9847"/>
    <line x1="308.5108" x2="269.0974" y1="277.7229" y2="313.9653"/>
    <polyline points="267.7563,314.8066 225.6878,332.7504 116.6498,319.5553"/>
    <polyline points="118.0489,320.2961 216.4191,37.8156 269.0974,313.9653 207.0386,36.3299 37.9114,203.6952"/>
    <line x1="38.1016" x2="337.6498" y1="205.2669" y2="164.2339"/>
    <line x1="337.8729" x2="315.737" y1="165.8013" y2="105.312"/>
    <line x1="316.5783" x2="150.4933" y1="106.6531" y2="39.8874"/>
    <polyline points="148.962,40.2892 188.0906,337.5 294.9917,79.4177"/>
    <polyline points="293.8664,78.3041 252.4603,49.5261 334.522,223.9161 84.6,76.1126 37.5804,200.5463"/>
    <polyline points="37.7376,202.1216 234.8081,330.1007 310.3986,275.1809 40.2131,154.8866"/>
    <polyline points="39.8921,156.4368 115.2585,53.8379 336.289,216.201"/>
    <line x1="336.5938" x2="76.8066" y1="214.6474" y2="83.988"/>
    <polyline points="75.7411,85.159 65.7825,97.4569 300.44,287.4788"/>
    <polyline points="299.3745,288.6498 336.5938,214.6474 221.0697,38.7787"/>
    <line x1="219.5229" x2="65.7825" y1="38.4415" y2="97.4569"/>
    <polyline points="66.7197,96.181 169.1425,36.3299 170.7142,336.4981"/>
    <line x1="169.1425" x2="49.3434" y1="336.3079" y2="126.2776"/>
    <line x1="51.2978" x2="56.3795" y1="121.9491" y2="112.1035"/>
    <line x1="55.6095" x2="323.5052" y1="113.4868" y2="119.0985"/>
    <polyline points="322.7939,117.6841 276.9526,308.627 180.1783,337.2928"/>
    <line x1="178.5978" x2="302.5339" y1="337.2017" y2="87.5341"/>
    <polyline points="303.5621,88.7379 132.4371,45.7543 330.3339,237.5297"/>
    <polyline points="330.8624,236.0373 178.5978,337.2017 45.3187,136.6005"/>
    <polyline points="44.8059,138.0983 260.9226,53.8379 217.9726,334.5174"/>
    <polyline points="213.3028,335.3829 298.2968,289.8095 329.7899,239.0164"/>
    <polyline points="331.3752,234.5395 260.9226,53.8379 158.2085,38.1204"/>
    <line x1="159.762" x2="322.0678" y1="37.8156" y2="116.2773"/>
    <polyline points="321.327,114.8782 150.4933,332.7504 183.3418,337.4254"/>
    <polyline points="181.7597,337.3674 159.762,37.8156 54.1133,256.3605"/>
    <polyline points="54.8541,257.7596 150.4933,332.7504 123.7208,323.1116 333.7025,145.6633"/>
    <polyline points="336.289,156.4368 115.2585,318.7999 88.1127,72.9163"/>
    <polyline points="86.9306,73.9694 310.3986,97.4569 40.2131,217.7512"/>
    <polyline points="40.5504,219.298 39.5873,214.6474 233.2999,42.0558"/>
    <polyline points="231.7867,41.5903 334.522,223.9161 40.9038,220.8412"/>
    <polyline points="42.0608,225.4474 188.0906,35.1378 339.2717,186.3189 188.0906,337.5 334.1203,225.4474"/>
    <line x1="334.522" x2="144.3944" y1="223.9161" y2="331.0475"/>
    <polyline points="142.8812,330.582 39.5873,214.6474 290.4214,297.6029"/>
    <line x1="291.5811" x2="173.8632" y1="296.5252" y2="35.8087"/>
    <polyline points="172.2878,35.966 141.373,42.5371 203.8933,336.6718"/>
    <polyline points="205.4669,336.4981 169.1425,336.3079 170.7142,36.1397"/>
    <line x1="156.6582" x2="65.7825" y1="38.4415" y2="275.1809"/>
    <polyline points="66.7197,276.4568 169.1425,336.3079 269.0974,313.9653 67.6703,94.9149"/>
    <polyline points="68.634,93.6589 60.4441,105.312 307.5471,278.9789"/>
    <polyline points="306.5702,280.2247 338.0795,205.2669 166.0056,335.8782"/>
    <polyline points="167.5729,336.1012 60.4441,105.312 328.0647,129.1965"/>
    <line x1="319.0172" x2="339.2717" y1="110.7283" y2="186.3189"/>
    <polyline points="339.2634,187.902 324.8833,121.9491 265.048,56.191"/>
    <line x1="266.4064" x2="91.7241" y1="57.004" y2="302.8059"/>
    <polyline points="85.7597,297.6029 39.5873,157.9904 197.5833,337.2017 138.3721,43.547"/>
    <polyline points="136.8798,44.0755 243.744,45.7543 285.6716,70.8474"/>
    <line x1="286.8754" x2="197.5833" y1="71.8756" y2="337.2017"/>
    <polyline points="199.1628,337.094 338.9733,176.8262 51.9794,120.5202"/>
    <polyline points="39.0266,161.1066 77.8843,289.8095 240.7881,328.0182"/>
    <polyline points="242.269,327.4586 331.8723,139.6014 38.7707,162.669"/>
    <polyline points="37.4397,198.9694 328.6552,241.9724 101.8094,62.1767"/>
    <polyline points="100.5142,63.087 84.6,76.1126 125.1568,323.7782"/>
    <line x1="123.7208" x2="296.1053" y1="323.1116" y2="292.0948"/>
    <polyline points="294.9917,293.2201 188.0906,35.1378 148.962,332.3486"/>
    <polyline points="135.393,328.0182 77.8843,82.8283 337.1545,161.1066"/>
    <line x1="337.4104" x2="331.8723" y1="162.669" y2="233.0364"/>
    <polyline points="338.2697,203.6952 207.0386,336.3079 97.9526,307.6897"/>
    <line x1="99.2285" x2="105.7514" y1="308.627" y2="59.5278"/>
    <line x1="107.0837" x2="129.5055" y1="58.6725" y2="46.9506"/>
    <polyline points="128.0493,47.5717 207.0386,336.3079 278.2285,64.9481"/>
    <polyline points="279.4945,65.8986 107.0837,58.6725 38.1016,167.3709 243.744,326.8835 39.2988,213.0908"/>
    <polyline points="42.4786,226.9745 123.7208,323.1116 328.6552,241.9724 338.7414,173.6684"/>
    <polyline points="339.0645,178.4067 99.2285,308.627 119.4558,321.0222"/>
    <line x1="115.2585" x2="236.3112" y1="318.7999" y2="43.0342"/>
    <line x1="234.8081" x2="338.4435" y1="42.5371" y2="202.1216"/>
    <line x1="336.8823" x2="243.744" y1="159.547" y2="326.8835"/>
    <polyline points="236.3112,329.6036 115.2585,53.8379 288.0684,72.9163"/>
    <line x1="249.5814" x2="234.8081" y1="48.2081" y2="330.1007"/>
    <polyline points="251.0243,323.7782 84.6,296.5252 100.5142,309.5508"/>
    <line x1="84.6" x2="125.1568" y1="296.5252" y2="48.8596"/>
    <polyline points="126.5997,48.2081 234.8081,42.5371 276.9526,64.0108 61.2994,268.658"/>
    <polyline points="45.8472,237.5297 132.4371,326.8835 303.5621,283.8999"/>
    <polyline points="309.7441,333.3661 310.3346,331.5945 312.1063,330.4134 314.4685,330.4134 315.6496,331.0039 316.8307,332.7756 316.8307,333.9567 315.0591,336.9094 309.1535,342.815 317.4213,342.815"/>
    <polyline points="320.9646,340.4528 322.1457,342.2244 323.9173,342.815 325.689,342.815 327.4606,342.2244 328.6417,341.0433 329.2323,339.2717 329.2323,338.0906 328.6417,336.3189 327.4606,335.1378 325.689,334.5472 323.9173,334.5472 322.1457,335.1378 321.5551,335.7283 322.1457,330.4134 328.0512,330.4134"/>
    <polygon points="339.8622,334.5472 340.4528,333.3661 340.4528,332.185 339.8622,331.0039 338.0906,330.4134 335.7283,330.4134 333.9567,331.0039 333.3661,332.185 333.3661,333.3661 333.9567,334.5472 339.2717,336.3189 340.4528,337.5 341.0433,338.6811 341.0433,340.4528 340.4528,341.6339 339.8622,342.2244 338.0906,342.815 335.7283,342.815 333.9567,342.2244 332.7756,340.4528 332.7756,338.6811 333.3661,337.5 334.5472,336.3189"/>
    <line x1="305.0197" x2="294.3898" y1="335.7283" y2="335.7283"/>
    <line x1="294.3898" x2="305.0197" y1="339.2717" y2="339.2717"/>
    <line x1="290.2559" x2="283.7598" y1="342.815" y2="334.5472"/>
    <line x1="290.2559" x2="283.7598" y1="334.5472" y2="342.815"/>
    <polyline points="255.311,321.7336 320.5716,259.1509 120.8701,50.9042"/>
    <line x1="119.4558" x2="99.2285" y1="51.6155" y2="64.0108"/>
    <line x1="155.1114" x2="336.5938" y1="38.7787" y2="157.9904"/>
    <polyline points="43.3619,230.015 41.6591,223.9161 298.2968,289.8095 304.5776,89.9524 42.9123,228.4971"/>
    <line x1="39.2717" x2="39.2717" y1="334.5472" y2="342.815"/>
    <polyline points="39.2717,336.9094 41.0433,335.1378 42.2244,334.5472 43.9961,334.5472 45.1772,335.1378 45.7677,336.9094 45.7677,342.815"/>
    <line x1="50.4921" x2="61.122" y1="339.2717" y2="339.2717"/>
    <line x1="61.122" x2="50.4921" y1="335.7283" y2="335.7283"/>
    <polyline points="65.8465,338.6811 66.437,336.9094 67.6181,335.7283 69.9803,335.1378 71.752,335.7283 72.9331,336.9094 73.5236,339.2717 72.9331,341.0433 71.752,342.2244 69.3898,342.815 67.6181,342.2244 66.437,341.0433 65.8465,338.6811 65.8465,335.7283 66.437,332.7756 67.6181,331.0039 69.3898,330.4134 70.5709,330.4134 72.3425,331.0039 72.9331,332.185"/>
    <polygon points="85.3346,335.7283 84.7441,332.7756 83.563,331.0039 81.7913,330.4134 80.6102,330.4134 78.8386,331.0039 77.6575,332.7756 77.0669,335.7283 77.0669,337.5 77.6575,340.4528 78.8386,342.2244 80.6102,342.815 81.7913,342.815 83.563,342.2244 84.7441,340.4528 85.3346,337.5"/>
    <polygon points="88.878,335.7283 88.878,337.5 89.4685,340.4528 90.6496,342.2244 92.4213,342.815 93.6024,342.815 95.374,342.2244 96.5551,340.4528 97.1457,337.5 97.1457,335.7283 96.5551,332.7756 95.374,331.0039 93.6024,330.4134 92.4213,330.4134 90.6496,331.0039 89.4685,332.7756"/>
  </g>
</svg>
