<?xml version="1.0" encoding="utf-8" ?>
<svg xmlns="http://www.w3.org/2000/svg" xmlns:cc="http://creativecommons.org/ns" xmlns:dc="http://purl.org/dc/elements/1.1/" xmlns:ev="http://www.w3.org/2001/xml-events" xmlns:inkscape="http://www.inkscape.org/namespaces/inkscape" xmlns:rdf="http://www.w3.org/1999/02/22-rdf-syntax-ns" xmlns:sodipodi="http://sodipodi.sourceforge.net/DTD/sodipodi-0.dtd" xmlns:xlink="http://www.w3.org/1999/xlink" baseProfile="tiny" height="10.0cm" version="1.2" viewBox="0 0 377.95275590551176 377.95275590551176" width="10.0cm">
  <metadata>
    <rdf:RDF>
      <cc:Work>
        <dc:format>image/svg+xml</dc:format>
        <dc:source>Vsketch with params {'__seed__': 0, 'r': 4.0, 'multiplier': 9, 'n': 600}</dc:source>
        <dc:date>2025-04-26T20:24:08.976495</dc:date>
      </cc:Work>
    </rdf:RDF>
  </metadata>
  <defs/>
  <g fill="none" id="layer1" inkscape:groupmode="layer" inkscape:label="1" stroke="#0000ff" stroke-width="1.1339" style="display:inline">
    <polyline points="112.5,317.2456 339.2717,186.3189 338.9276,176.1249 337.9473,166.3517 336.3344,156.6628 334.0958,147.0991 331.1189,137.3433 327.6368,128.1591 323.5657,119.2203 318.9227,110.5648 313.7274,102.229 308.0018,94.2482 301.7701,86.656 295.0585,79.4845 287.8954,72.764 280.311,66.5228 272.3374,60.7872 263.6811,55.3922 255.0198,50.76 246.0759,46.7001 236.8873,43.2294 227.4928,40.3628 217.9319,38.1122 208.245,36.4872 198.4731,35.4947 188.2795,35.1379 178.4621,35.4447 168.6853,36.3884 158.6197,38.0381 149.0533,40.2647 139.2938,43.2294 130.1052,46.7001 121.1613,50.76 112.5,55.3922 104.1577,60.5771 96.1698,66.2927 88.2857,72.764 81.1226,79.4845 74.411,86.656 68.1793,94.2482 62.4537,102.229 57.2584,110.5648 52.6154,119.2203 48.5443,128.1591 44.9402,137.701 42.0853,147.0991 39.8467,156.6628 38.2338,166.3517 37.2535,176.1249 36.9094,186.3189 37.2285,196.1359 38.1844,205.9115 39.773,215.6044 41.9877,225.1737 44.9402,234.9368 48.3994,244.1298 52.4482,253.0787 57.0695,261.7458 62.2439,270.0945 67.9495,278.0896 74.1623,285.6973 81.1226,293.1533 88.2857,299.8738 96.1698,306.3451 104.1577,312.0607 112.5,317.2456 121.5003,322.0446 130.4543,326.0822 139.6515,329.5299 149.0533,332.373 158.6197,334.5997 168.3106,336.2005 178.085,337.1685 187.9016,337.4999 197.719,337.1931 207.4958,336.2494 217.1907,334.6729 227.1278,332.373 236.5296,329.5299 245.7268,326.0822 254.6808,322.0446 263.6811,317.2456 272.0234,312.0607 280.311,306.115 287.8954,299.8738 295.0585,293.1533 301.7701,285.9818 308.2316,278.0896 313.9372,270.0945 319.1116,261.7458 323.7329,253.0787 327.7817,244.1298 331.362,234.5789 334.1934,225.1737 336.4081,215.6044 337.9967,205.9115 338.9526,196.1359 339.2717,186.3189 112.5,55.3922"/>
    <polyline points="113.8752,54.6078 338.6007,200.5463 339.2634,187.902"/>
    <polyline points="339.2385,189.485 336.5938,214.6474 109.7747,315.6338"/>
    <polyline points="108.4248,314.8066 333.2688,228.4971 116.6498,53.0825"/>
    <polyline points="118.0489,52.3417 328.6552,241.9724 339.139,192.6497"/>
    <polyline points="339.0645,194.2311 322.7939,254.9537 105.7514,313.11"/>
    <polyline points="104.4282,312.2408 315.737,267.3258 120.8701,50.9042"/>
    <polyline points="122.2918,50.2077 307.5471,278.9789 338.8657,197.3911"/>
    <polyline points="338.7414,198.9694 298.2968,289.8095 101.8094,310.4611"/>
    <polyline points="100.5142,309.5508 288.0684,299.7215 125.1568,48.8596"/>
    <polyline points="126.5997,48.2081 276.9526,308.627 338.4435,202.1216"/>
    <polyline points="338.2697,203.6952 265.048,316.4468 97.9526,307.6897"/>
    <polyline points="96.6866,306.7392 252.4603,323.1116 129.5055,46.9506"/>
    <polyline points="130.9682,46.3448 239.3013,328.5623 337.8729,206.8365"/>
    <polyline points="337.6498,208.4039 225.6878,332.7504 94.1847,304.7985"/>
    <polyline points="92.9492,303.8087 211.7405,335.6387 337.4104,209.9688 211.7405,335.6387 133.9121,45.1792"/>
    <polyline points="135.393,44.6196 197.5833,337.2017 337.1545,211.5312"/>
    <polyline points="336.8823,213.0908 183.3418,337.4254 90.5095,301.7904"/>
    <polyline points="89.3057,300.7622 169.1425,336.3079 138.3721,43.547"/>
    <polyline points="139.8699,43.0342 155.1114,333.8591 336.289,216.201"/>
    <polyline points="335.968,217.7512 141.373,330.1007 141.373,42.5371 141.373,330.1007 86.9306,298.6684"/>
    <polyline points="85.7597,297.6029 128.0493,325.0661 142.8812,42.0558"/>
    <polyline points="144.3944,41.5903 115.2585,318.7999 335.2773,220.8412"/>
    <polyline points="334.9077,222.3806 103.1142,311.3579 83.4516,295.4354"/>
    <polyline points="82.3147,294.3337 91.7241,302.8059 147.435,40.7069"/>
    <polyline points="148.962,40.2892 81.1894,293.2201 334.1203,225.4474"/>
    <polyline points="333.7025,226.9745 71.6035,282.6854 80.0758,292.0948"/>
    <polyline points="78.974,290.9579 63.0516,271.2953 152.0288,39.5017"/>
    <polyline points="153.5682,39.1322 55.6095,259.1509 332.8192,230.015"/>
    <polyline points="332.3537,231.5282 49.3434,246.3602 76.8066,288.6498"/>
    <polyline points="75.7411,287.4788 44.3088,233.0364 331.8723,233.0364 44.3088,233.0364 156.6582,38.4415"/>
    <polyline points="158.2085,38.1204 40.5504,219.298 248.1318,325.0661 111.1331,56.191 338.6007,172.0915 288.0684,72.9163 221.0697,38.7787 326.8377,246.3602 57.9626,109.3615 173.8632,336.8291 74.6879,286.2968 40.5504,219.298 331.3752,234.5395"/>
    <polyline points="330.8624,236.0373 38.1016,205.2669 123.7208,323.1116 298.2968,82.8283 320.5716,113.4868 159.762,334.8222 38.1016,167.3709 123.7208,49.5261 298.2968,289.8095 320.5716,259.1509 159.762,37.8156 38.1016,205.2669 73.6472,285.1037"/>
    <polyline points="72.619,283.8999 36.984,191.0676 42.9123,228.4971 313.1295,271.2953 280.7505,66.8624 136.8798,44.0755 183.3418,337.4254 145.9124,331.4972 103.1142,61.2799 307.5471,93.6589 330.3339,237.5297 36.984,191.0676 161.3187,37.5271"/>
    <polyline points="162.8783,37.2549 37.2078,176.8262 329.7899,239.0164"/>
    <polyline points="329.2303,240.4974 38.7707,162.669 164.4406,36.9991 38.7707,162.669 70.6008,281.4602"/>
    <polyline points="69.6109,280.2247 41.6591,148.7217 166.0056,36.7596"/>
    <polyline points="167.5729,36.5365 45.8472,135.1081 328.0647,243.4413"/>
    <polyline points="327.4588,244.9039 51.2978,121.9491 67.6703,277.7229"/>
    <polyline points="66.7197,276.4568 57.9626,109.3615 170.7142,36.1397"/>
    <polyline points="172.2878,35.966 65.7825,97.4569 326.2014,247.8098"/>
    <polyline points="325.5499,249.2527 74.6879,86.341 64.8586,273.8953"/>
    <polyline points="63.9483,272.6 84.6,76.1126 175.44,35.668"/>
    <polyline points="177.0183,35.5438 95.4306,66.8624 324.2017,252.1176"/>
    <polyline points="323.5052,253.5393 107.0837,58.6725 62.1686,269.9812"/>
    <polyline points="61.2994,268.658 119.4558,51.6155 322.7939,254.9537 119.4558,51.6155 180.1783,35.345"/>
    <polyline points="181.7597,35.2704 132.4371,45.7543 322.0678,256.3605"/>
    <polyline points="321.327,257.7596 145.9124,41.1406 59.6028,265.9847"/>
    <polyline points="58.7756,264.6348 159.762,37.8156 184.9245,35.171"/>
    <polyline points="186.5074,35.1461 173.8632,35.8087 319.8016,260.5343"/>
    <polyline points="319.0172,261.9094 188.0906,35.1378 57.1639,261.9094"/>
    <polyline points="56.3795,260.5343 202.3179,35.8087 189.6737,35.1461"/>
    <polyline points="191.2566,35.171 216.4191,37.8156 317.4055,264.6348"/>
    <polyline points="316.5783,265.9847 230.2687,41.1406 54.8541,257.7596"/>
    <polyline points="54.1133,256.3605 243.744,45.7543 194.4214,35.2704"/>
    <polyline points="196.0028,35.345 256.7253,51.6155 314.8817,268.658"/>
    <polyline points="314.0125,269.9812 269.0974,58.6725 52.6759,253.5393"/>
    <polyline points="51.9794,252.1176 280.7505,66.8624 199.1628,35.5438"/>
    <polyline points="200.7411,35.668 291.5811,76.1126 312.2328,272.6"/>
    <polyline points="311.3225,273.8953 301.4932,86.341 50.6312,249.2527"/>
    <polyline points="49.9797,247.8098 310.3986,97.4569 310.3986,275.1809 310.3986,97.4569 203.8933,35.966"/>
    <polyline points="205.4669,36.1397 318.2185,109.3615 309.4614,276.4568"/>
    <polyline points="308.5108,277.7229 324.8833,121.9491 48.7223,244.9039"/>
    <polyline points="48.1164,243.4413 330.3339,135.1081 208.6082,36.5365"/>
    <polyline points="210.1755,36.7596 334.522,148.7217 306.5702,280.2247"/>
    <polyline points="305.5803,281.4602 337.4104,162.669 211.7405,36.9991 337.4104,162.669 46.9508,240.4974"/>
    <polyline points="46.3912,239.0164 338.9733,176.8262 213.3028,37.2549"/>
    <polyline points="214.8624,37.5271 339.1971,191.0676 303.5621,283.8999"/>
    <polyline points="302.5339,285.1037 338.0795,205.2669 45.3187,236.0373"/>
    <polyline points="44.8059,234.5395 335.6307,219.298 128.0493,325.0661 265.048,56.191 37.5804,172.0915 88.1127,72.9163 155.1114,38.7787 49.3434,246.3602 318.2185,109.3615 202.3179,336.8291 301.4932,286.2968 335.6307,219.298 217.9726,38.1204"/>
    <polyline points="219.5229,38.4415 331.8723,233.0364 300.44,287.4788"/>
    <polyline points="299.3745,288.6498 326.8377,246.3602 43.8274,231.5282"/>
    <polyline points="43.3619,230.015 320.5716,259.1509 222.6129,39.1322"/>
    <polyline points="224.1523,39.5017 313.1295,271.2953 297.2071,290.9579"/>
    <polyline points="296.1053,292.0948 304.5776,282.6854 225.6878,39.8874 132.4371,326.8835 60.4441,105.312 37.2078,176.8262 71.6035,282.6854 150.4933,39.8874 243.744,326.8835 315.737,105.312 338.9733,176.8262 304.5776,282.6854 42.4786,226.9745"/>
    <polyline points="42.0608,225.4474 294.9917,293.2201 227.2191,40.2892"/>
    <polyline points="228.7461,40.7069 284.457,302.8059 293.8664,294.3337"/>
    <polyline points="292.7295,295.4354 273.0669,311.3579 41.2734,222.3806"/>
    <polyline points="40.9038,220.8412 260.9226,318.7999 39.5873,157.9904 207.0386,36.3299 324.8833,121.9491 84.6,296.5252 115.2585,318.7999 336.5938,157.9904 169.1425,36.3299 51.2978,121.9491 291.5811,296.5252 260.9226,318.7999 231.7867,41.5903"/>
    <polyline points="233.2999,42.0558 248.1318,325.0661 290.4214,297.6029"/>
    <polyline points="289.2505,298.6684 234.8081,330.1007 234.8081,42.5371 234.8081,330.1007 40.2131,217.7512"/>
    <polyline points="39.8921,216.201 221.0697,333.8591 236.3112,43.0342"/>
    <polyline points="237.809,43.547 207.0386,336.3079 286.8754,300.7622"/>
    <polyline points="285.6716,301.7904 192.8393,337.4254 239.3013,44.0755 95.4306,66.8624 63.0516,271.2953 333.2688,228.4971 339.1971,191.0676 45.8472,237.5297 68.634,93.6589 273.0669,61.2799 230.2687,331.4972 192.8393,337.4254 39.2988,213.0908"/>
    <polyline points="39.0266,211.5312 178.5978,337.2017 107.0837,313.9653 328.6552,241.9724 41.6591,148.7217 284.457,69.8319 178.5978,35.4361 107.0837,58.6725 328.6552,130.6654 41.6591,223.9161 284.457,302.8059 178.5978,337.2017 240.7881,44.6196"/>
    <polyline points="242.269,45.1792 164.4406,335.6387 283.2319,303.8087"/>
    <polyline points="281.9964,304.7985 150.4933,332.7504 38.5313,208.4039"/>
    <polyline points="38.3082,206.8365 136.8798,328.5623 183.3418,35.2124 145.9124,41.1406 103.1142,311.3579 307.5471,278.9789 330.3339,135.1081 36.984,181.5702 42.9123,144.1407 313.1295,101.3425 280.7505,305.7754 136.8798,328.5623 245.2129,46.3448"/>
    <polyline points="246.6756,46.9506 123.7208,323.1116 279.4945,306.7392"/>
    <polyline points="278.2285,307.6897 111.1331,316.4468 248.1318,47.5717 40.5504,153.3398 74.6879,86.341 173.8632,35.8087 57.9626,263.2763 326.8377,126.2776 221.0697,333.8591 288.0684,299.7215 338.6007,200.5463 111.1331,316.4468 37.9114,203.6952"/>
    <polyline points="37.7376,202.1216 99.2285,308.627 276.9526,308.627 99.2285,308.627 249.5814,48.2081"/>
    <polyline points="251.0243,48.8596 88.1127,299.7215 275.6669,309.5508"/>
    <polyline points="274.3717,310.4611 77.8843,289.8095 252.4603,49.5261 338.0795,167.3709 216.4191,334.8222 55.6095,113.4868 77.8843,82.8283 252.4603,323.1116 338.0795,205.2669 216.4191,37.8156 55.6095,259.1509 77.8843,289.8095 37.4397,198.9694"/>
    <polyline points="37.3154,197.3911 68.634,278.9789 45.8472,135.1081 339.1971,181.5702 333.2688,144.1407 63.0516,101.3425 95.4306,305.7754 239.3013,328.5623 192.8393,35.2124 230.2687,41.1406 273.0669,311.3579 68.634,278.9789 253.8893,50.2077"/>
    <polyline points="255.311,50.9042 60.4441,267.3258 271.7529,312.2408"/>
    <polyline points="270.4297,313.11 53.3872,254.9537 256.7253,51.6155 53.3872,254.9537 37.1166,194.2311"/>
    <polyline points="37.0421,192.6497 47.5259,241.9724 334.522,148.7217 91.7241,69.8319 197.5833,35.4361 269.0974,58.6725 47.5259,130.6654 334.522,223.9161 91.7241,302.8059 197.5833,337.2017 269.0974,313.9653 47.5259,241.9724 258.1322,52.3417"/>
    <polyline points="259.5313,53.0825 42.9123,228.4971 267.7563,314.8066"/>
    <polyline points="266.4064,315.6338 39.5873,214.6474 260.9226,53.8379 291.5811,76.1126 51.2978,250.6887 169.1425,336.3079 336.5938,214.6474 115.2585,53.8379 84.6,76.1126 324.8833,250.6887 207.0386,336.3079 39.5873,214.6474 36.9426,189.485"/>
    <polyline points="36.9177,187.902 37.5804,200.5463 88.1127,299.7215 155.1114,333.8591 49.3434,126.2776 318.2185,263.2763 202.3179,35.8087 301.4932,86.341 335.6307,153.3398 128.0493,47.5717 265.048,316.4468 37.5804,200.5463 262.3059,54.6078"/>
    <polyline points="263.6811,55.3922 36.9094,186.3189 263.6811,317.2456"/>
    <polyline points="262.3059,318.03 37.5804,172.0915 36.9177,184.7358"/>
    <polyline points="36.9426,183.1528 39.5873,157.9904 266.4064,57.004"/>
    <polyline points="267.7563,57.8312 42.9123,144.1407 259.5313,319.5553"/>
    <polyline points="258.1322,320.2961 47.5259,130.6654 37.0421,179.9881"/>
    <polyline points="37.1166,178.4067 53.3872,117.6841 270.4297,59.5278"/>
    <polyline points="271.7529,60.3969 60.4441,105.312 255.311,321.7336"/>
    <polyline points="253.8893,322.4301 68.634,93.6589 37.3154,175.2467"/>
    <polyline points="37.4397,173.6684 77.8843,82.8283 274.3717,62.1767"/>
    <polyline points="275.6669,63.087 88.1127,72.9163 251.0243,323.7782"/>
    <polyline points="249.5814,324.4297 99.2285,64.0108 37.7376,170.5162"/>
    <polyline points="37.9114,168.9426 111.1331,56.191 278.2285,64.9481"/>
    <polyline points="279.4945,65.8986 123.7208,49.5261 246.6756,325.6872"/>
    <polyline points="245.2129,326.293 136.8798,44.0755 38.3082,165.8013"/>
    <polyline points="38.5313,164.2339 150.4933,39.8874 281.9964,67.8393"/>
    <polyline points="283.2319,68.8291 164.4406,36.9991 242.269,327.4586"/>
    <polyline points="240.7881,328.0182 178.5978,35.4361 39.0266,161.1066"/>
    <polyline points="39.2988,159.547 192.8393,35.2124 285.6716,70.8474"/>
    <polyline points="286.8754,71.8756 207.0386,36.3299 237.809,329.0908"/>
    <polyline points="236.3112,329.6036 221.0697,38.7787 39.8921,156.4368"/>
    <polyline points="40.2131,154.8866 234.8081,42.5371 289.2505,73.9694"/>
    <polyline points="290.4214,75.0349 248.1318,47.5717 233.2999,330.582"/>
    <polyline points="231.7867,331.0475 260.9226,53.8379 40.9038,151.7966"/>
    <polyline points="41.2734,150.2571 273.0669,61.2799 292.7295,77.2024"/>
    <polyline points="293.8664,78.3041 284.457,69.8319 228.7461,331.9309"/>
    <polyline points="227.2191,332.3486 294.9917,79.4177 42.0608,147.1903"/>
    <polyline points="42.4786,145.6633 304.5776,89.9524 296.1053,80.543"/>
    <polyline points="297.2071,81.6799 313.1295,101.3425 224.1523,333.136"/>
    <polyline points="222.6129,333.5056 320.5716,113.4868 43.3619,142.6228"/>
    <polyline points="43.8274,141.1096 326.8377,126.2776 299.3745,83.988"/>
    <polyline points="300.44,85.159 331.8723,139.6014 219.5229,334.1963"/>
    <polyline points="217.9726,334.5174 335.6307,153.3398 44.8059,138.0983"/>
    <polyline points="45.3187,136.6005 338.0795,167.3709 302.5339,87.5341"/>
    <polyline points="303.5621,88.7379 339.1971,181.5702 214.8624,335.1107"/>
    <polyline points="213.3028,335.3829 338.9733,195.8116 46.3912,133.6214"/>
    <polyline points="46.9508,132.1404 337.4104,209.9688 305.5803,91.1775"/>
    <polyline points="306.5702,92.4131 334.522,223.9161 210.1755,335.8782"/>
    <polyline points="208.6082,336.1012 330.3339,237.5297 48.1164,129.1965"/>
    <polyline points="48.7223,127.7339 324.8833,250.6887 308.5108,94.9149"/>
    <polyline points="309.4614,96.181 318.2185,263.2763 205.4669,336.4981"/>
    <polyline points="203.8933,336.6718 310.3986,275.1809 49.9797,124.828"/>
    <polyline points="50.6312,123.3851 301.4932,286.2968 311.3225,98.7425"/>
    <polyline points="312.2328,100.0378 291.5811,296.5252 200.7411,336.9698"/>
    <polyline points="199.1628,337.094 280.7505,305.7754 51.9794,120.5202"/>
    <polyline points="52.6759,119.0985 269.0974,313.9653 314.0125,102.6566"/>
    <polyline points="314.8817,103.9798 256.7253,321.0222 53.3872,117.6841 256.7253,321.0222 196.0028,337.2928"/>
    <polyline points="194.4214,337.3674 243.744,326.8835 54.1133,116.2773"/>
    <polyline points="54.8541,114.8782 230.2687,331.4972 316.5783,106.6531"/>
    <polyline points="317.4055,108.003 216.4191,334.8222 191.2566,337.4668"/>
    <polyline points="189.6737,337.4917 202.3179,336.8291 56.3795,112.1035"/>
    <polyline points="57.1639,110.7283 188.0906,337.5 319.0172,110.7283"/>
    <polyline points="319.8016,112.1035 173.8632,336.8291 186.5074,337.4917"/>
    <polyline points="184.9245,337.4668 159.762,334.8222 58.7756,108.003"/>
    <polyline points="59.6028,106.6531 145.9124,331.4972 321.327,114.8782"/>
    <polyline points="322.0678,116.2773 132.4371,326.8835 181.7597,337.3674"/>
    <polyline points="180.1783,337.2928 119.4558,321.0222 322.7939,117.6841 119.4558,321.0222 61.2994,103.9798"/>
    <polyline points="62.1686,102.6566 107.0837,313.9653 323.5052,119.0985"/>
    <polyline points="324.2017,120.5202 95.4306,305.7754 177.0183,337.094"/>
    <polyline points="175.44,336.9698 84.6,296.5252 63.9483,100.0378"/>
    <polyline points="64.8586,98.7425 74.6879,286.2968 325.5499,123.3851"/>
    <polyline points="326.2014,124.828 65.7825,275.1809 65.7825,97.4569 65.7825,275.1809 172.2878,336.6718"/>
    <polyline points="170.7142,336.4981 57.9626,263.2763 66.7197,96.181"/>
    <polyline points="67.6703,94.9149 51.2978,250.6887 327.4588,127.7339"/>
    <polyline points="328.0647,129.1965 45.8472,237.5297 167.5729,336.1012"/>
    <polyline points="166.0056,335.8782 41.6591,223.9161 69.6109,92.4131"/>
    <polyline points="70.6008,91.1775 38.7707,209.9688 164.4406,335.6387 38.7707,209.9688 329.2303,132.1404"/>
    <polyline points="329.7899,133.6214 37.2078,195.8116 71.6035,89.9524 150.4933,332.7504 243.744,45.7543 315.737,267.3258 338.9733,195.8116 304.5776,89.9524 225.6878,332.7504 132.4371,45.7543 60.4441,267.3258 37.2078,195.8116 162.8783,335.3829"/>
    <polyline points="161.3187,335.1107 36.984,181.5702 72.619,88.7379"/>
    <polyline points="73.6472,87.5341 38.1016,167.3709 330.8624,136.6005"/>
    <polyline points="331.3752,138.0983 40.5504,153.3398 158.2085,334.5174"/>
    <polyline points="156.6582,334.1963 44.3088,139.6014 331.8723,139.6014 44.3088,139.6014 75.7411,85.159"/>
    <polyline points="76.8066,83.988 49.3434,126.2776 332.3537,141.1096"/>
    <polyline points="332.8192,142.6228 55.6095,113.4868 153.5682,333.5056"/>
    <polyline points="152.0288,333.136 63.0516,101.3425 78.974,81.6799"/>
    <polyline points="80.0758,80.543 71.6035,89.9524 333.7025,145.6633"/>
    <polyline points="334.1203,147.1903 81.1894,79.4177 148.962,332.3486"/>
    <polyline points="147.435,331.9309 91.7241,69.8319 82.3147,78.3041"/>
    <polyline points="83.4516,77.2024 103.1142,61.2799 334.9077,150.2571"/>
    <polyline points="335.2773,151.7966 115.2585,53.8379 144.3944,331.0475"/>
    <polyline points="142.8812,330.582 128.0493,47.5717 85.7597,75.0349"/>
    <polyline points="86.9306,73.9694 141.373,42.5371 335.968,154.8866"/>
    <polyline points="336.289,156.4368 155.1114,38.7787 139.8699,329.6036"/>
    <polyline points="138.3721,329.0908 169.1425,36.3299 89.3057,71.8756"/>
    <polyline points="90.5095,70.8474 183.3418,35.2124 336.8823,159.547"/>
    <polyline points="337.1545,161.1066 197.5833,35.4361 135.393,328.0182"/>
    <polyline points="133.9121,327.4586 211.7405,36.9991 92.9492,68.8291"/>
    <polyline points="94.1847,67.8393 225.6878,39.8874 337.6498,164.2339"/>
    <polyline points="337.8729,165.8013 239.3013,44.0755 130.9682,326.293"/>
    <polyline points="129.5055,325.6872 252.4603,49.5261 96.6866,65.8986"/>
    <polyline points="97.9526,64.9481 265.048,56.191 338.2697,168.9426"/>
    <polyline points="338.4435,170.5162 276.9526,64.0108 99.2285,64.0108 276.9526,64.0108 126.5997,324.4297"/>
    <polyline points="125.1568,323.7782 288.0684,72.9163 100.5142,63.087"/>
    <polyline points="101.8094,62.1767 298.2968,82.8283 338.7414,173.6684"/>
    <polyline points="338.8657,175.2467 307.5471,93.6589 122.2918,322.4301"/>
    <polyline points="120.8701,321.7336 315.737,105.312 104.4282,60.3969"/>
    <polyline points="105.7514,59.5278 322.7939,117.6841 339.0645,178.4067"/>
    <polyline points="339.139,179.9881 328.6552,130.6654 118.0489,320.2961"/>
    <polyline points="116.6498,319.5553 333.2688,144.1407 108.4248,57.8312"/>
    <polyline points="109.7747,57.004 336.5938,157.9904 339.2385,183.1528"/>
    <polyline points="339.2634,184.7358 338.6007,172.0915 113.8752,318.03"/>
    <polygon points="88.878,335.7283 88.878,337.5 89.4685,340.4528 90.6496,342.2244 92.4213,342.815 93.6024,342.815 95.374,342.2244 96.5551,340.4528 97.1457,337.5 97.1457,335.7283 96.5551,332.7756 95.374,331.0039 93.6024,330.4134 92.4213,330.4134 90.6496,331.0039 89.4685,332.7756"/>
    <polygon points="85.3346,335.7283 84.7441,332.7756 83.563,331.0039 81.7913,330.4134 80.6102,330.4134 78.8386,331.0039 77.6575,332.7756 77.0669,335.7283 77.0669,337.5 77.6575,340.4528 78.8386,342.2244 80.6102,342.815 81.7913,342.815 83.563,342.2244 84.7441,340.4528 85.3346,337.5"/>
    <polyline points="72.9331,332.185 72.3425,331.0039 70.5709,330.4134 69.3898,330.4134 67.6181,331.0039 66.437,332.7756 65.8465,335.7283 65.8465,338.6811 66.437,341.0433 67.6181,342.2244 69.3898,342.815 71.752,342.2244 72.9331,341.0433 73.5236,339.2717 72.9331,336.9094 71.752,335.7283 69.9803,335.1378 67.6181,335.7283 66.437,336.9094 65.8465,338.6811"/>
    <line x1="61.122" x2="50.4921" y1="339.2717" y2="339.2717"/>
    <line x1="50.4921" x2="61.122" y1="335.7283" y2="335.7283"/>
    <polyline points="45.7677,342.815 45.7677,336.9094 45.1772,335.1378 43.9961,334.5472 42.2244,334.5472 41.0433,335.1378 39.2717,336.9094"/>
    <line x1="39.2717" x2="39.2717" y1="334.5472" y2="342.815"/>
    <line x1="307.9724" x2="314.4685" y1="342.815" y2="334.5472"/>
    <line x1="318.6024" x2="329.2323" y1="335.7283" y2="335.7283"/>
    <line x1="329.2323" x2="318.6024" y1="339.2717" y2="339.2717"/>
    <line x1="314.4685" x2="307.9724" y1="342.815" y2="334.5472"/>
    <polyline points="333.9567,341.0433 334.5472,342.2244 336.3189,342.815 337.5,342.815 339.2717,342.2244 340.4528,340.4528 341.0433,337.5 341.0433,334.5472 340.4528,332.185 339.2717,331.0039 337.5,330.4134 335.1378,331.0039 333.9567,332.185 333.3661,334.5472 333.9567,336.3189 335.1378,337.5 337.5,338.0906 339.2717,337.5 340.4528,336.3189 341.0433,334.5472"/>
  </g>
</svg>
