<?xml version="1.0" encoding="utf-8" ?>
<svg xmlns="http://www.w3.org/2000/svg" xmlns:cc="http://creativecommons.org/ns" xmlns:dc="http://purl.org/dc/elements/1.1/" xmlns:ev="http://www.w3.org/2001/xml-events" xmlns:inkscape="http://www.inkscape.org/namespaces/inkscape" xmlns:rdf="http://www.w3.org/1999/02/22-rdf-syntax-ns" xmlns:sodipodi="http://sodipodi.sourceforge.net/DTD/sodipodi-0.dtd" xmlns:xlink="http://www.w3.org/1999/xlink" baseProfile="tiny" height="10.0cm" version="1.2" viewBox="0 0 377.95275590551176 377.95275590551176" width="10.0cm">
  <metadata>
    <rdf:RDF>
      <cc:Work>
        <dc:format>image/svg+xml</dc:format>
        <dc:source>Vsketch with params {'__seed__': 0, 'r': 4.0, 'multiplier': 2, 'n': 600}</dc:source>
        <dc:date>2025-04-26T20:23:32.759852</dc:date>
      </cc:Work>
    </rdf:RDF>
  </metadata>
  <defs/>
  <g fill="none" id="layer1" inkscape:groupmode="layer" inkscape:label="1" stroke="#0000ff" stroke-width="1.1339" style="display:inline">
    <polyline points="81.1894,79.4177 188.0906,35.1378 339.2717,186.3189 338.5541,171.6063 337.3418,162.2399 335.547,152.9674 333.1768,143.8251 330.1112,134.4936 326.598,125.7268 322.5443,117.1964 317.772,108.6115 312.6668,100.6656 307.0754,93.0541 301.0196,85.8065 294.5232,78.9512 287.3265,72.2665 280.0113,66.2927 272.3374,60.7872 264.3346,55.7717 256.0343,51.2657 247.4688,47.2867 238.3154,43.7244 229.3136,40.8665 220.1509,38.5763 210.8631,36.8628 201.4864,35.7325 192.0575,35.1898 182.613,35.2371 173.19,35.8739 163.4522,37.159 154.1865,38.9885 145.0532,41.393 135.7332,44.4935 126.9796,48.0396 118.4645,52.1252 110.2211,56.7346 102.2817,61.8498 94.6771,67.4507 87.4371,73.5155 80.3246,80.2896 73.9143,87.2255 67.9495,94.5482 62.4537,102.229 57.4482,110.238 52.9525,118.544 48.9843,127.1144 45.5589,135.9159 42.6898,144.9142 40.3882,154.074 38.663,163.3596 37.4875,173.1112 36.9567,182.5409 37.0157,191.9852 37.6643,201.4075 38.9616,211.1436 40.8026,220.407 43.2186,229.5373 46.1999,238.499 49.735,247.257 53.984,256.1126 58.6037,264.3502 63.944,272.5938 69.5734,280.1773 75.6653,287.3945 82.196,294.2173 89.1399,300.6189 96.47,306.5745 104.1577,312.0607 111.5205,316.6751 118.8001,320.6861 126.2892,324.291 133.965,327.4789 141.8045,330.2401 149.7838,332.5664 157.8789,334.4505 166.0654,335.887 174.3184,336.8714 182.613,337.4007 190.9242,337.4734 199.2268,337.0893 207.4958,336.2494 215.7061,334.9564 223.833,333.2141 232.2133,330.918 240.0933,328.2747 247.8161,325.2022 255.3584,321.7101 262.6973,317.8087 270.1284,313.3052 276.9831,308.6048 283.5692,303.5347 289.8667,298.1104 295.8565,292.3482 301.5207,286.2656 306.8419,279.8808 311.8043,273.2133 316.3927,266.2831 320.5934,259.1112 324.3936,251.7193 327.7817,244.1298 332.8541,229.8993 336.4081,215.6044 338.5541,201.0315 339.2717,186.3189 36.9094,186.3189"/>
    <line x1="36.9177" x2="36.9426" y1="184.7358" y2="183.1528"/>
    <line x1="36.984" x2="37.2078" y1="181.5702" y2="176.8262"/>
    <line x1="37.1166" x2="37.7376" y1="178.4067" y2="170.5162"/>
    <line x1="37.5804" x2="39.5873" y1="172.0915" y2="157.9904"/>
    <line x1="39.2988" x2="46.3912" y1="159.547" y2="133.6214"/>
    <line x1="45.8472" x2="71.6035" y1="135.1081" y2="89.9524"/>
    <line x1="72.619" x2="162.8783" y1="88.7379" y2="37.2549"/>
    <line x1="161.3187" x2="329.7899" y1="37.5271" y2="133.6214"/>
    <line x1="330.3339" x2="71.6035" y1="135.1081" y2="282.6854"/>
    <polyline points="70.6008,281.4602 156.6582,334.1963 326.2014,247.8098 86.9306,73.9694"/>
    <line x1="88.1127" x2="207.0386" y1="72.9163" y2="36.3299"/>
    <line x1="208.6082" x2="333.7025" y1="36.5365" y2="226.9745"/>
    <polyline points="333.2688,228.4971 60.4441,105.312 123.7208,49.5261"/>
    <line x1="122.2918" x2="281.9964" y1="50.2077" y2="67.8393"/>
    <line x1="280.7505" x2="225.6878" y1="66.8624" y2="332.7504"/>
    <polyline points="227.2191,332.3486 319.0172,110.7283 112.5,317.2456"/>
    <polyline points="113.8752,318.03 266.4064,315.6338 258.1322,52.3417 274.3717,310.4611"/>
    <polyline points="273.0669,311.3579 243.744,45.7543 298.2968,289.8095"/>
    <polyline points="297.2071,290.9579 181.7597,35.2704 338.7414,173.6684"/>
    <line x1="338.6007" x2="39.5873" y1="172.0915" y2="214.6474"/>
    <polyline points="39.8921,216.201 48.7223,244.9039 82.3147,294.3337 191.2566,337.4668"/>
    <polyline points="189.6737,337.4917 339.2385,183.1528 37.0421,192.6497"/>
    <polyline points="36.984,191.0676 38.1016,205.2669 41.6591,223.9161 55.6095,259.1509 107.0837,313.9653 252.4603,323.1116 284.457,69.8319 216.4191,334.8222 328.6552,130.6654 77.8843,289.8095 178.5978,337.2017 338.0795,205.2669 41.6591,148.7217 55.6095,113.4868 107.0837,58.6725 252.4603,49.5261 284.457,302.8059 216.4191,37.8156 328.6552,241.9724 77.8843,82.8283 178.5978,35.4361 338.0795,167.3709 41.6591,223.9161"/>
    <polyline points="41.2734,222.3806 54.1133,256.3605 101.8094,310.4611 240.7881,328.0182"/>
    <polyline points="239.3013,328.5623 304.5776,89.9524 159.762,334.8222"/>
    <polyline points="158.2085,334.5174 327.4588,244.9039 82.3147,78.3041 191.2566,35.171"/>
    <line x1="192.8393" x2="338.9733" y1="35.2124" y2="195.8116"/>
    <polyline points="339.0645,194.2311 37.7376,170.5162 40.2131,154.8866"/>
    <line x1="39.8921" x2="48.7223" y1="156.4368" y2="127.7339"/>
    <line x1="49.3434" x2="84.6" y1="126.2776" y2="76.1126"/>
    <line x1="85.7597" x2="200.7411" y1="75.0349" y2="35.668"/>
    <line x1="202.3179" x2="336.5938" y1="35.8087" y2="214.6474"/>
    <polyline points="336.8823,213.0908 46.3912,133.6214 73.6472,87.5341"/>
    <line x1="74.6879" x2="169.1425" y1="86.341" y2="36.3299"/>
    <line x1="167.5729" x2="333.7025" y1="36.5365" y2="145.6633"/>
    <line x1="334.1203" x2="57.1639" y1="147.1903" y2="261.9094"/>
    <polyline points="57.9626,263.2763 115.2585,318.7999 269.0974,313.9653 252.4603,49.5261"/>
    <line x1="251.0243" x2="286.8754" y1="48.8596" y2="300.7622"/>
    <polyline points="285.6716,301.7904 213.3028,37.2549 330.8624,236.0373"/>
    <polyline points="330.3339,237.5297 71.6035,89.9524 159.762,37.8156"/>
    <line x1="158.2085" x2="327.4588" y1="38.1204" y2="127.7339"/>
    <line x1="326.8377" x2="84.6" y1="126.2776" y2="296.5252"/>
    <polyline points="85.7597,297.6029 200.7411,336.9698 337.1545,161.1066 45.3187,236.0373"/>
    <polyline points="45.8472,237.5297 71.6035,282.6854 159.762,334.8222 328.6552,241.9724"/>
    <polyline points="328.0647,243.4413 80.0758,80.543 184.9245,35.171"/>
    <line x1="186.5074" x2="339.2385" y1="35.1461" y2="183.1528"/>
    <line x1="339.2634" x2="36.9426" y1="184.7358" y2="189.485"/>
    <polyline points="36.9177,187.902 37.4397,198.9694 39.0266,211.5312 45.3187,236.0373 69.6109,280.2247 153.5682,333.5056 323.5052,253.5393 96.6866,65.8986 228.7461,40.7069 317.4055,264.6348 118.0489,52.3417 274.3717,62.1767 240.7881,328.0182 302.5339,87.5341 166.0056,335.8782 332.8192,230.015 62.1686,102.6566 129.5055,46.9506 293.8664,78.3041 191.2566,337.4668 339.139,179.9881 37.4397,198.9694"/>
    <polyline points="37.5804,200.5463 39.5873,214.6474 47.5259,241.9724 77.8843,289.8095"/>
    <polyline points="76.8066,288.6498 175.44,336.9698 337.1545,211.5312 45.3187,136.6005"/>
    <line x1="44.8059" x2="67.6703" y1="138.0983" y2="94.9149"/>
    <line x1="68.634" x2="150.4933" y1="93.6589" y2="39.8874"/>
    <line x1="148.962" x2="319.0172" y1="40.2892" y2="110.7283"/>
    <line x1="319.8016" x2="109.7747" y1="112.1035" y2="315.6338"/>
    <polyline points="111.1331,316.4468 260.9226,318.7999 269.0974,58.6725 252.4603,323.1116"/>
    <polyline points="253.8893,322.4301 281.9964,67.8393 222.6129,333.5056"/>
    <polyline points="221.0697,333.8591 324.8833,121.9491 91.7241,302.8059"/>
    <polyline points="90.5095,301.7904 213.3028,335.3829 330.8624,136.6005 69.6109,280.2247"/>
    <polyline points="68.634,278.9789 150.4933,332.7504 320.5716,259.1509 107.0837,58.6725"/>
    <line x1="105.7514" x2="249.5814" y1="59.5278" y2="48.2081"/>
    <line x1="248.1318" x2="291.5811" y1="47.5717" y2="296.5252"/>
    <polyline points="290.4214,297.6029 200.7411,35.668 337.1545,211.5312"/>
    <polyline points="337.4104,209.9688 44.3088,139.6014 65.7825,97.4569"/>
    <line x1="66.7197" x2="144.3944" y1="96.181" y2="41.5903"/>
    <line x1="142.8812" x2="312.2328" y1="42.0558" y2="100.0378"/>
    <line x1="313.1295" x2="132.4371" y1="101.3425" y2="326.8835"/>
    <polyline points="133.9121,327.4586 300.44,287.4788 172.2878,35.966 335.968,154.8866"/>
    <line x1="336.289" x2="48.7223" y1="156.4368" y2="244.9039"/>
    <polyline points="48.1164,243.4413 80.0758,292.0948 184.9245,337.4668 339.139,192.6497"/>
    <polyline points="339.1971,191.0676 37.2078,176.8262 38.1016,167.3709"/>
    <line x1="37.9114" x2="40.9038" y1="168.9426" y2="151.7966"/>
    <line x1="40.5504" x2="51.2978" y1="153.3398" y2="121.9491"/>
    <line x1="51.9794" x2="94.1847" y1="120.5202" y2="67.8393"/>
    <line x1="95.4306" x2="225.6878" y1="66.8624" y2="39.8874"/>
    <line x1="227.2191" x2="319.0172" y1="40.2892" y2="261.9094"/>
    <polyline points="319.8016,260.5343 109.7747,57.004 258.1322,52.3417"/>
    <line x1="256.7253" x2="276.9526" y1="51.6155" y2="308.627"/>
    <polyline points="278.2285,307.6897 231.7867,41.5903 314.0125,269.9812"/>
    <polyline points="313.1295,271.2953 132.4371,45.7543 298.2968,82.8283"/>
    <line x1="297.2071" x2="181.7597" y1="81.6799" y2="337.3674"/>
    <polyline points="183.3418,337.4254 338.9733,195.8116 38.1016,167.3709 41.6591,148.7217"/>
    <line x1="41.2734" x2="54.1133" y1="150.2571" y2="116.2773"/>
    <line x1="54.8541" x2="104.4282" y1="114.8782" y2="60.3969"/>
    <line x1="103.1142" x2="243.744" y1="61.2799" y2="45.7543"/>
    <line x1="245.2129" x2="296.1053" y1="46.3448" y2="292.0948"/>
    <line x1="294.9917" x2="188.0906" y1="293.2201" y2="35.1378"/>
    <line x1="189.6737" x2="339.2385" y1="35.1461" y2="189.485"/>
    <polyline points="339.2634,187.902 36.9426,183.1528 37.0421,179.9881"/>
    <line x1="37.3154" x2="38.5313" y1="175.2467" y2="164.2339"/>
    <line x1="38.3082" x2="42.4786" y1="165.8013" y2="145.6633"/>
    <line x1="42.0608" x2="57.1639" y1="147.1903" y2="110.7283"/>
    <line x1="57.9626" x2="115.2585" y1="109.3615" y2="53.8379"/>
    <line x1="113.8752" x2="266.4064" y1="54.6078" y2="57.004"/>
    <line x1="265.048" x2="260.9226" y1="56.191" y2="318.7999"/>
    <polyline points="259.5313,319.5553 271.7529,60.3969 246.6756,325.6872"/>
    <polyline points="245.2129,326.293 296.1053,80.543 184.9245,337.4668"/>
    <polyline points="186.5074,337.4917 339.2385,189.485 37.0421,179.9881 37.4397,173.6684"/>
    <line x1="38.7707" x2="44.3088" y1="162.669" y2="139.6014"/>
    <line x1="43.8274" x2="63.9483" y1="141.1096" y2="100.0378"/>
    <line x1="64.8586" x2="138.3721" y1="98.7425" y2="43.547"/>
    <line x1="136.8798" x2="304.5776" y1="44.0755" y2="89.9524"/>
    <line x1="305.5803" x2="156.6582" y1="91.1775" y2="334.1963"/>
    <polyline points="155.1114,333.8591 324.8833,250.6887 91.7241,69.8319 216.4191,37.8156"/>
    <line x1="217.9726" x2="327.4588" y1="38.1204" y2="244.9039"/>
    <polyline points="326.8377,246.3602 84.6,76.1126 197.5833,35.4361"/>
    <line x1="199.1628" x2="337.6498" y1="35.5438" y2="208.4039"/>
    <polyline points="337.8729,206.8365 42.4786,145.6633 58.7756,108.003"/>
    <line x1="59.6028" x2="120.8701" y1="106.6531" y2="50.9042"/>
    <line x1="119.4558" x2="276.9526" y1="51.6155" y2="64.0108"/>
    <line x1="275.6669" x2="237.809" y1="63.087" y2="329.0908"/>
    <polyline points="236.3112,329.6036 308.5108,94.9149 147.435,331.9309"/>
    <polyline points="145.9124,331.4972 315.737,267.3258 123.7208,49.5261 284.457,69.8319"/>
    <line x1="283.2319" x2="219.5229" y1="68.8291" y2="334.1963"/>
    <polyline points="217.9726,334.5174 327.4588,127.7339 82.3147,294.3337"/>
    <polyline points="83.4516,295.4354 194.4214,337.3674 338.7414,173.6684 39.0266,211.5312"/>
    <polyline points="38.7707,209.9688 44.3088,233.0364 65.7825,275.1809 141.373,330.1007 310.3986,275.1809 141.373,42.5371 310.3986,97.4569 141.373,330.1007"/>
    <polyline points="139.8699,329.6036 308.5108,277.7229 147.435,40.7069 317.4055,108.003"/>
    <line x1="318.2185" x2="115.2585" y1="109.3615" y2="318.7999"/>
    <polyline points="116.6498,319.5553 271.7529,312.2408 246.6756,46.9506 293.8664,294.3337"/>
    <polyline points="292.7295,295.4354 194.4214,35.2704 338.7414,198.9694"/>
    <polyline points="338.8657,197.3911 38.5313,164.2339 43.3619,142.6228"/>
    <line x1="42.9123" x2="60.4441" y1="144.1407" y2="105.312"/>
    <line x1="61.2994" x2="126.5997" y1="103.9798" y2="48.2081"/>
    <line x1="125.1568" x2="286.8754" y1="48.8596" y2="71.8756"/>
    <line x1="285.6716" x2="213.3028" y1="70.8474" y2="335.3829"/>
    <polyline points="211.7405,335.6387 331.8723,139.6014 65.7825,275.1809"/>
    <polyline points="66.7197,276.4568 144.3944,331.0475 314.0125,269.9812 129.5055,46.9506"/>
    <line x1="128.0493" x2="291.5811" y1="47.5717" y2="76.1126"/>
    <line x1="292.7295" x2="194.4214" y1="77.2024" y2="337.3674"/>
    <polyline points="196.0028,337.2928 338.4435,170.5162 40.2131,217.7512"/>
    <polyline points="40.5504,219.298 51.2978,250.6887 91.7241,302.8059 216.4191,334.8222"/>
    <polyline points="214.8624,335.1107 329.7899,133.6214 73.6472,285.1037"/>
    <polyline points="72.619,283.8999 162.8783,335.3829 330.8624,236.0373 69.6109,92.4131"/>
    <line x1="70.6008" x2="156.6582" y1="91.1775" y2="38.4415"/>
    <line x1="155.1114" x2="324.8833" y1="38.7787" y2="121.9491"/>
    <line x1="324.2017" x2="94.1847" y1="120.5202" y2="304.7985"/>
    <polyline points="92.9492,303.8087 219.5229,334.1963 326.2014,124.828 86.9306,298.6684"/>
    <polyline points="88.1127,299.7215 207.0386,336.3079 334.522,148.7217 55.6095,259.1509"/>
    <polyline points="54.8541,257.7596 104.4282,312.2408 246.6756,325.6872 293.8664,78.3041"/>
    <line x1="294.9917" x2="188.0906" y1="79.4177" y2="337.5"/>
    <polyline points="192.8393,337.4254 338.9733,176.8262 38.1016,205.2669"/>
    <polyline points="37.9114,203.6952 40.9038,220.8412 52.6759,253.5393 96.6866,306.7392"/>
    <polyline points="97.9526,307.6897 231.7867,331.0475 314.0125,102.6566 129.5055,325.6872"/>
    <polyline points="128.0493,325.0661 291.5811,296.5252 197.5833,35.4361 338.0795,205.2669"/>
    <polyline points="338.2697,203.6952 40.9038,151.7966 52.6759,119.0985"/>
    <line x1="53.3872" x2="99.2285" y1="117.6841" y2="64.0108"/>
    <line x1="97.9526" x2="231.7867" y1="64.9481" y2="41.5903"/>
    <line x1="233.2999" x2="312.2328" y1="42.0558" y2="272.6"/>
    <polyline points="311.3225,273.8953 138.3721,43.547 306.5702,92.4131"/>
    <line x1="307.5471" x2="150.4933" y1="93.6589" y2="332.7504"/>
    <polyline points="152.0288,333.136 322.0678,256.3605 101.8094,62.1767 240.7881,44.6196"/>
    <line x1="242.269" x2="300.44" y1="45.1792" y2="287.4788"/>
    <polyline points="299.3745,288.6498 175.44,35.668 337.1545,161.1066"/>
    <line x1="337.4104" x2="44.3088" y1="162.669" y2="233.0364"/>
    <polyline points="43.8274,231.5282 63.9483,272.6 135.393,328.0182 302.5339,285.1037"/>
    <polyline points="301.4932,286.2968 169.1425,36.3299 334.522,148.7217"/>
    <line x1="334.9077" x2="54.1133" y1="150.2571" y2="256.3605"/>
    <polyline points="53.3872,254.9537 99.2285,308.627 234.8081,330.1007 310.3986,97.4569"/>
    <line x1="311.3225" x2="138.3721" y1="98.7425" y2="329.0908"/>
    <polyline points="136.8798,328.5623 304.5776,282.6854 159.762,37.8156 328.6552,130.6654"/>
    <line x1="329.2303" x2="75.7411" y1="132.1404" y2="287.4788"/>
    <polyline points="74.6879,286.2968 169.1425,336.3079 334.522,223.9161 55.6095,113.4868"/>
    <line x1="56.3795" x2="109.7747" y1="112.1035" y2="57.004"/>
    <line x1="108.4248" x2="255.311" y1="57.8312" y2="50.9042"/>
    <line x1="253.8893" x2="281.9964" y1="50.2077" y2="304.7985"/>
    <polyline points="283.2319,303.8087 219.5229,38.4415 326.2014,247.8098"/>
    <polyline points="325.5499,249.2527 89.3057,71.8756 210.1755,36.7596"/>
    <line x1="211.7405" x2="331.8723" y1="36.9991" y2="233.0364"/>
    <polyline points="331.3752,234.5395 67.6703,94.9149 147.435,40.7069"/>
    <line x1="145.9124" x2="315.737" y1="41.1406" y2="105.312"/>
    <line x1="316.5783" x2="120.8701" y1="106.6531" y2="321.7336"/>
    <polyline points="122.2918,322.4301 281.9964,304.7985 222.6129,39.1322 323.5052,253.5393"/>
    <polyline points="324.2017,252.1176 94.1847,67.8393 222.6129,39.1322"/>
    <line x1="224.1523" x2="322.0678" y1="39.5017" y2="256.3605"/>
    <polyline points="322.7939,254.9537 99.2285,64.0108 234.8081,42.5371"/>
    <line x1="236.3112" x2="308.5108" y1="43.0342" y2="277.7229"/>
    <polyline points="307.5471,278.9789 150.4933,39.8874 320.5716,113.4868"/>
    <line x1="321.327" x2="104.4282" y1="114.8782" y2="312.2408"/>
    <polyline points="105.7514,313.11 249.5814,324.4297 289.2505,73.9694 203.8933,336.6718"/>
    <polyline points="205.4669,336.4981 335.2773,151.7966 52.6759,253.5393"/>
    <polyline points="51.9794,252.1176 94.1847,304.7985 222.6129,333.5056 323.5052,119.0985"/>
    <line x1="322.7939" x2="99.2285" y1="117.6841" y2="308.627"/>
    <polyline points="100.5142,309.5508 237.809,329.0908 306.5702,92.4131 153.5682,333.5056"/>
    <polyline points="148.962,332.3486 319.0172,261.9094 112.5,55.3922 263.6811,55.3922"/>
    <line x1="262.3059" x2="266.4064" y1="54.6078" y2="315.6338"/>
    <polyline points="267.7563,314.8066 255.311,50.9042 279.4945,306.7392"/>
    <polyline points="280.7505,305.7754 225.6878,39.8874 320.5716,259.1509"/>
    <polyline points="321.327,257.7596 104.4282,60.3969 246.6756,46.9506"/>
    <line x1="239.3013" x2="304.5776" y1="44.0755" y2="282.6854"/>
    <polyline points="305.5803,281.4602 156.6582,38.4415 326.2014,124.828"/>
    <line x1="325.5499" x2="89.3057" y1="123.3851" y2="300.7622"/>
    <polyline points="95.4306,305.7754 225.6878,332.7504 320.5716,113.4868 107.0837,313.9653"/>
    <polyline points="108.4248,314.8066 255.311,321.7336 279.4945,65.8986 228.7461,331.9309"/>
    <polyline points="230.2687,331.4972 315.737,105.312 123.7208,323.1116"/>
    <polyline points="125.1568,323.7782 286.8754,300.7622 210.1755,36.7596 332.8192,230.015"/>
    <polyline points="332.3537,231.5282 63.9483,100.0378 135.393,44.6196"/>
    <line x1="133.9121" x2="300.44" y1="45.1792" y2="85.159"/>
    <line x1="301.4932" x2="169.1425" y1="86.341" y2="336.3079"/>
    <polyline points="170.7142,336.4981 335.2773,220.8412 52.6759,119.0985 96.6866,65.8986"/>
    <line x1="100.5142" x2="237.809" y1="63.087" y2="43.547"/>
    <line x1="230.2687" x2="315.737" y1="41.1406" y2="267.3258"/>
    <polyline points="314.8817,268.658 126.5997,48.2081 289.2505,73.9694"/>
    <line x1="290.4214" x2="200.7411" y1="75.0349" y2="336.9698"/>
    <polyline points="202.3179,336.8291 336.5938,157.9904 47.5259,241.9724"/>
    <polyline points="46.9508,240.4974 75.7411,287.4788 172.2878,336.6718 335.968,217.7512 49.9797,124.828 86.9306,73.9694 203.8933,35.966 335.968,217.7512"/>
    <polyline points="336.289,216.201 48.7223,127.7339 82.3147,78.3041"/>
    <line x1="83.4516" x2="194.4214" y1="77.2024" y2="35.2704"/>
    <line x1="196.0028" x2="338.4435" y1="35.345" y2="202.1216"/>
    <polyline points="338.6007,200.5463 39.5873,157.9904 47.5259,130.6654"/>
    <line x1="46.9508" x2="75.7411" y1="132.1404" y2="85.159"/>
    <line x1="76.8066" x2="175.44" y1="83.988" y2="35.668"/>
    <line x1="177.0183" x2="337.6498" y1="35.5438" y2="164.2339"/>
    <line x1="337.8729" x2="42.4786" y1="165.8013" y2="226.9745"/>
    <polyline points="42.9123,228.4971 60.4441,267.3258 123.7208,323.1116 284.457,302.8059"/>
    <polyline points="288.0684,299.7215 207.0386,36.3299 334.522,223.9161"/>
    <polyline points="334.1203,225.4474 57.1639,110.7283 112.5,55.3922"/>
    <line x1="111.1331" x2="260.9226" y1="56.191" y2="53.8379"/>
    <line x1="259.5313" x2="271.7529" y1="53.0825" y2="312.2408"/>
    <polyline points="270.4297,313.11 249.5814,48.2081 289.2505,298.6684"/>
    <polyline points="275.6669,309.5508 237.809,43.547 306.5702,280.2247"/>
    <polyline points="309.4614,276.4568 144.3944,41.5903 314.0125,102.6566"/>
    <line x1="314.8817" x2="126.5997" y1="103.9798" y2="324.4297"/>
    <polyline points="130.9682,326.293 296.1053,292.0948 184.9245,35.171 339.139,179.9881"/>
    <line x1="339.1971" x2="37.2078" y1="181.5702" y2="195.8116"/>
    <polyline points="37.3154,197.3911 38.5313,208.4039 43.3619,230.015 62.1686,269.9812 129.5055,325.6872 293.8664,294.3337 191.2566,35.171 339.139,192.6497 37.4397,173.6684 39.0266,161.1066 45.3187,136.6005 69.6109,92.4131 153.5682,39.1322 323.5052,119.0985 96.6866,306.7392 228.7461,331.9309 317.4055,108.003 118.0489,320.2961 274.3717,310.4611 240.7881,44.6196 302.5339,285.1037 166.0056,36.7596 332.8192,142.6228 62.1686,269.9812"/>
    <polyline points="63.0516,271.2953 132.4371,326.8835 298.2968,289.8095 178.5978,35.4361"/>
    <line x1="180.1783" x2="338.4435" y1="35.345" y2="170.5162"/>
    <line x1="338.2697" x2="40.9038" y1="168.9426" y2="220.8412"/>
    <polyline points="42.0608,225.4474 57.1639,261.9094 112.5,317.2456 263.6811,317.2456 263.6811,55.3922 263.6811,317.2456"/>
    <polyline points="262.3059,318.03 266.4064,57.004 258.1322,320.2961"/>
    <polyline points="256.7253,321.0222 276.9526,64.0108 234.8081,330.1007"/>
    <polyline points="233.2999,330.582 312.2328,100.0378 135.393,328.0182"/>
    <polyline points="142.8812,330.582 312.2328,272.6 135.393,44.6196 302.5339,87.5341"/>
    <line x1="303.5621" x2="162.8783" y1="88.7379" y2="335.3829"/>
    <polyline points="164.4406,335.6387 331.8723,233.0364 65.7825,97.4569 141.373,42.5371"/>
    <line x1="139.8699" x2="308.5108" y1="43.0342" y2="94.9149"/>
    <line x1="309.4614" x2="144.3944" y1="96.181" y2="331.0475"/>
    <polyline points="161.3187,335.1107 329.7899,239.0164 73.6472,87.5341 166.0056,36.7596"/>
    <line x1="164.4406" x2="331.8723" y1="36.9991" y2="139.6014"/>
    <line x1="331.3752" x2="67.6703" y1="138.0983" y2="277.7229"/>
    <polyline points="64.8586,273.8953 138.3721,329.0908 306.5702,280.2247 153.5682,39.1322"/>
    <line x1="152.0288" x2="322.0678" y1="39.5017" y2="116.2773"/>
    <line x1="328.0647" x2="80.0758" y1="129.1965" y2="292.0948"/>
    <polyline points="81.1894,293.2201 188.0906,337.5 339.2717,186.3189"/>
    <line x1="339.0645" x2="37.7376" y1="178.4067" y2="202.1216"/>
    <polyline points="38.3082,206.8365 42.4786,226.9745 58.7756,264.6348 118.0489,320.2961"/>
    <polyline points="119.4558,321.0222 276.9526,308.627 234.8081,42.5371 310.3986,275.1809"/>
    <polyline points="303.5621,283.8999 162.8783,37.2549 330.8624,136.6005"/>
    <line x1="332.3537" x2="63.9483" y1="141.1096" y2="272.6"/>
    <polyline points="61.2994,268.658 126.5997,324.4297 289.2505,298.6684 203.8933,35.966"/>
    <line x1="205.4669" x2="335.2773" y1="36.1397" y2="220.8412"/>
    <polyline points="334.9077,222.3806 54.1133,116.2773 101.8094,62.1767"/>
    <line x1="92.9492" x2="219.5229" y1="68.8291" y2="38.4415"/>
    <line x1="221.0697" x2="324.8833" y1="38.7787" y2="250.6887"/>
    <polyline points="329.2303,240.4974 75.7411,85.159 172.2878,35.966"/>
    <line x1="173.8632" x2="336.5938" y1="35.8087" y2="157.9904"/>
    <line x1="336.8823" x2="46.3912" y1="159.547" y2="239.0164"/>
    <polyline points="44.8059,234.5395 67.6703,277.7229 147.435,331.9309 317.4055,264.6348"/>
    <polyline points="316.5783,265.9847 120.8701,50.9042 279.4945,65.8986"/>
    <line x1="278.2285" x2="231.7867" y1="64.9481" y2="331.0475"/>
    <polyline points="224.1523,333.136 322.0678,116.2773 101.8094,310.4611"/>
    <polyline points="103.1142,311.3579 243.744,326.8835 298.2968,82.8283 178.5978,337.2017"/>
    <polyline points="180.1783,337.2928 338.4435,202.1216 40.2131,154.8866 49.9797,124.828"/>
    <line x1="50.6312" x2="89.3057" y1="123.3851" y2="71.8756"/>
    <line x1="90.5095" x2="213.3028" y1="70.8474" y2="37.2549"/>
    <line x1="214.8624" x2="329.7899" y1="37.5271" y2="239.0164"/>
    <polyline points="335.6307,219.298 51.2978,121.9491 91.7241,69.8319"/>
    <line x1="80.0758" x2="48.1164" y1="80.543" y2="129.1965"/>
    <polyline points="62.1686,102.6566 43.3619,142.6228 337.6498,208.4039 177.0183,337.094"/>
    <line x1="175.44" x2="299.3745" y1="336.9698" y2="83.988"/>
    <line x1="296.1053" x2="130.9682" y1="80.543" y2="46.3448"/>
    <line x1="132.4371" x2="63.0516" y1="45.7543" y2="101.3425"/>
    <polyline points="77.8843,82.8283 47.5259,130.6654 336.5938,214.6474 173.8632,336.8291"/>
    <polyline points="172.2878,336.6718 300.44,85.159 242.269,327.4586"/>
    <line x1="243.744" x2="273.0669" y1="326.8835" y2="61.2799"/>
    <polyline points="274.3717,62.1767 258.1322,320.2961 109.7747,315.6338 56.3795,260.5343"/>
    <polyline points="58.7756,264.6348 333.7025,145.6633 208.6082,336.1012"/>
    <line x1="207.0386" x2="288.0684" y1="336.3079" y2="72.9163"/>
    <line x1="271.7529" x2="116.6498" y1="60.3969" y2="53.0825"/>
    <polyline points="118.0489,52.3417 58.7756,108.003 333.7025,226.9745 167.5729,336.1012"/>
    <polyline points="166.0056,335.8782 73.6472,285.1037 46.3912,239.0164 39.2988,213.0908"/>
    <line x1="38.5313" x2="338.8657" y1="208.4039" y2="175.2467"/>
    <line x1="338.9733" x2="183.3418" y1="176.8262" y2="35.2124"/>
    <line x1="181.7597" x2="78.974" y1="35.2704" y2="81.6799"/>
    <polyline points="39.0266,161.1066 338.7414,198.9694 181.7597,337.3674 78.974,290.9579"/>
    <line x1="60.4441" x2="333.2688" y1="267.3258" y2="144.1407"/>
    <polyline points="332.8192,142.6228 210.1755,335.8782 89.3057,300.7622 50.6312,249.2527"/>
    <polyline points="49.9797,247.8098 335.968,154.8866 203.8933,336.6718 86.9306,298.6684 49.9797,247.8098 40.2131,217.7512 37.7376,202.1216 37.1166,194.2311"/>
    <polyline points="43.3619,230.015 337.6498,164.2339 199.1628,337.094"/>
    <polyline points="197.5833,337.2017 291.5811,76.1126 248.1318,325.0661"/>
    <line x1="249.5814" x2="270.4297" y1="324.4297" y2="59.5278"/>
    <polyline points="269.0974,58.6725 115.2585,53.8379 318.2185,263.2763"/>
    <polyline points="269.0974,313.9653 260.9226,53.8379 265.048,316.4468"/>
    <line x1="255.311" x2="267.7563" y1="321.7336" y2="57.8312"/>
    <polyline points="228.7461,40.7069 279.4945,306.7392 120.8701,321.7336 59.6028,265.9847"/>
    <line x1="51.2978" x2="335.6307" y1="250.6887" y2="153.3398"/>
    <line x1="335.2773" x2="170.7142" y1="151.7966" y2="36.1397"/>
    <polyline points="338.0795,167.3709 197.5833,337.2017 84.6,296.5252 49.3434,246.3602"/>
    <line x1="39.2717" x2="39.2717" y1="334.5472" y2="342.815"/>
    <polyline points="39.2717,336.9094 41.0433,335.1378 42.2244,334.5472 43.9961,334.5472 45.1772,335.1378 45.7677,336.9094 45.7677,342.815"/>
    <line x1="50.4921" x2="61.122" y1="339.2717" y2="339.2717"/>
    <line x1="61.122" x2="50.4921" y1="335.7283" y2="335.7283"/>
    <polyline points="65.8465,338.6811 66.437,336.9094 67.6181,335.7283 69.9803,335.1378 71.752,335.7283 72.9331,336.9094 73.5236,339.2717 72.9331,341.0433 71.752,342.2244 69.3898,342.815 67.6181,342.2244 66.437,341.0433 65.8465,338.6811 65.8465,335.7283 66.437,332.7756 67.6181,331.0039 69.3898,330.4134 70.5709,330.4134 72.3425,331.0039 72.9331,332.185"/>
    <polygon points="85.3346,335.7283 84.7441,332.7756 83.563,331.0039 81.7913,330.4134 80.6102,330.4134 78.8386,331.0039 77.6575,332.7756 77.0669,335.7283 77.0669,337.5 77.6575,340.4528 78.8386,342.2244 80.6102,342.815 81.7913,342.815 83.563,342.2244 84.7441,340.4528 85.3346,337.5"/>
    <polygon points="88.878,335.7283 88.878,337.5 89.4685,340.4528 90.6496,342.2244 92.4213,342.815 93.6024,342.815 95.374,342.2244 96.5551,340.4528 97.1457,337.5 97.1457,335.7283 96.5551,332.7756 95.374,331.0039 93.6024,330.4134 92.4213,330.4134 90.6496,331.0039 89.4685,332.7756"/>
    <polyline points="210.1755,335.8782 286.8754,71.8756 251.0243,323.7782"/>
    <line x1="307.3819" x2="313.878" y1="334.5472" y2="342.815"/>
    <line x1="318.0118" x2="328.6417" y1="339.2717" y2="339.2717"/>
    <line x1="328.6417" x2="318.0118" y1="335.7283" y2="335.7283"/>
    <line x1="313.878" x2="307.3819" y1="334.5472" y2="342.815"/>
    <polyline points="333.3661,333.3661 333.9567,331.5945 335.7283,330.4134 338.0906,330.4134 339.8622,331.5945 340.4528,332.7756 340.4528,333.9567 338.6811,336.9094 332.7756,342.815 341.0433,342.815"/>
  </g>
</svg>
