<?xml version="1.0" encoding="utf-8" ?>
<svg xmlns="http://www.w3.org/2000/svg" xmlns:cc="http://creativecommons.org/ns" xmlns:dc="http://purl.org/dc/elements/1.1/" xmlns:ev="http://www.w3.org/2001/xml-events" xmlns:inkscape="http://www.inkscape.org/namespaces/inkscape" xmlns:rdf="http://www.w3.org/1999/02/22-rdf-syntax-ns" xmlns:sodipodi="http://sodipodi.sourceforge.net/DTD/sodipodi-0.dtd" xmlns:xlink="http://www.w3.org/1999/xlink" baseProfile="tiny" height="10.0cm" version="1.2" viewBox="0 0 377.95275590551176 377.95275590551176" width="10.0cm">
  <metadata>
    <rdf:RDF>
      <cc:Work>
        <dc:format>image/svg+xml</dc:format>
        <dc:source>Vsketch with params {'__seed__': 0, 'r': 4.0, 'multiplier': 68, 'n': 600}</dc:source>
        <dc:date>2025-04-26T12:48:49.247649</dc:date>
      </cc:Work>
    </rdf:RDF>
  </metadata>
  <defs/>
  <g fill="none" id="layer1" inkscape:groupmode="layer" inkscape:label="1" stroke="#0000ff" stroke-width="1.1339" style="display:inline">
    <polyline points="81.1894,79.4177 339.2717,186.3189 338.5168,171.2303 336.3344,156.6628 332.7447,142.3768 327.7817,128.508 323.5657,119.2203 318.7329,110.238 313.3055,101.6021 307.3081,93.3517 300.7681,85.5246 293.7151,78.1562 286.1814,71.2802 278.2012,64.9278 269.8108,59.128 261.0484,53.9071 251.9539,49.289 242.5687,45.2946 232.9356,41.9421 223.0983,39.2469 213.1016,37.221 202.9911,35.8739 192.8128,35.2116 182.613,35.2371 172.4381,35.9503 162.3345,37.3479 152.3481,39.4237 142.5244,42.1681 132.9081,45.5687 123.543,49.6099 114.4718,54.2735 105.7356,59.538 97.3743,65.3797 89.4259,71.7719 81.9266,78.6855 74.9106,86.089 68.4098,93.9488 62.4537,102.229 57.6387,109.9118 53.4645,117.5327 49.735,125.3808 46.3307,133.7843 43.5467,142.0155 41.2401,150.3929 39.4187,158.8891 38.0417,167.8508 37.2285,176.5019 36.9137,185.1854 37.1176,194.25 37.8226,202.9105 39.0241,211.5163 40.8026,220.407 43.111,229.1751 45.8126,237.4337 49.1327,245.8708 52.7836,253.7558 57.0695,261.7458 61.6193,269.1486 66.8121,276.5812 72.1982,283.3997 77.9671,289.8976 84.0997,296.0533 90.5759,301.8465 97.6768,307.4844 104.7873,312.4787 112.173,317.0562 119.8095,321.2019 128.0181,325.0525 136.0878,328.2747 144.3293,331.0278 152.7154,333.303 161.5902,335.1593 170.1851,336.4359 178.8392,337.2167 187.9016,337.4999 196.5876,337.261 205.2454,336.5235 213.8466,335.2899 222.7306,333.478 231.1279,331.2448 239.3831,328.5328 247.8161,325.2022 255.6965,321.5415 263.3536,317.4341 271.0782,312.6865 278.2012,307.71 285.0265,302.3325 291.5315,296.5717 297.6949,290.4468 303.7399,283.6891 309.143,276.884 314.3544,269.4644 319.1116,261.7458 323.2286,254.0938 326.8992,246.2179 330.2403,237.7891 332.9625,229.5373 335.2062,221.1428 337.0292,212.2611 338.2736,203.6614 339.0219,195.0045 339.2717,186.3189 36.9094,186.3189 188.0906,337.5"/>
    <polyline points="186.5074,337.4917 73.6472,87.5341 228.7461,331.9309"/>
    <polyline points="230.2687,331.4972 47.5259,241.9724 145.9124,41.1406"/>
    <line x1="147.435" x2="177.0183" y1="40.7069" y2="35.5438"/>
    <line x1="175.44" x2="62.1686" y1="35.668" y2="102.6566"/>
    <polyline points="63.0516,101.3425 334.522,148.7217 313.1295,271.2953"/>
    <line x1="312.2328" x2="323.5052" y1="272.6" y2="253.5393"/>
    <line x1="324.2017" x2="82.3147" y1="252.1176" y2="294.3337"/>
    <polyline points="83.4516,295.4354 210.1755,36.7596 317.4055,264.6348 337.6498,208.4039"/>
    <polyline points="337.4104,209.9688 234.8081,330.1007 310.3986,275.1809 44.3088,233.0364"/>
    <polyline points="43.8274,231.5282 222.6129,333.5056 142.8812,42.0558"/>
    <line x1="144.3944" x2="118.0489" y1="41.5903" y2="320.2961"/>
    <polyline points="116.6498,319.5553 258.1322,52.3417 153.5682,39.1322 54.1133,116.2773"/>
    <line x1="54.8541" x2="258.1322" y1="114.8782" y2="52.3417"/>
    <line x1="256.7253" x2="65.7825" y1="51.6155" y2="97.4569"/>
    <polyline points="66.7197,96.181 58.7756,264.6348 69.6109,92.4131 266.4064,315.6338"/>
    <polyline points="267.7563,314.8066 37.0421,192.6497 332.8192,230.015 118.0489,52.3417 153.5682,333.5056 339.139,179.9881 332.8192,230.015 194.4214,337.3674"/>
    <polyline points="196.0028,337.2928 326.2014,124.828 180.1783,35.345"/>
    <line x1="178.5978" x2="324.8833" y1="35.4361" y2="121.9491"/>
    <line x1="324.2017" x2="82.3147" y1="120.5202" y2="78.3041"/>
    <line x1="83.4516" x2="210.1755" y1="77.2024" y2="335.8782"/>
    <polyline points="211.7405,335.6387 234.8081,42.5371 164.4406,36.9991"/>
    <line x1="166.0056" x2="339.2385" y1="36.7596" y2="189.485"/>
    <polyline points="339.2634,187.902 73.6472,87.5341 36.9177,184.7358"/>
    <line x1="36.9094" x2="188.0906" y1="186.3189" y2="35.1378"/>
    <line x1="189.6737" x2="73.6472" y1="35.1461" y2="87.5341"/>
    <polyline points="74.6879,86.341 123.7208,323.1116 301.4932,286.2968"/>
    <line x1="302.5339" x2="80.0758" y1="285.1037" y2="292.0948"/>
    <polyline points="81.1894,293.2201 339.2717,186.3189 294.9917,293.2201"/>
    <line x1="293.8664" x2="237.809" y1="294.3337" y2="43.547"/>
    <polyline points="239.3013,44.0755 197.5833,337.2017 330.3339,237.5297"/>
    <line x1="330.8624" x2="262.3059" y1="236.0373" y2="54.6078"/>
    <line x1="263.6811" x2="319.0172" y1="55.3922" y2="110.7283"/>
    <line x1="319.8016" x2="330.8624" y1="112.1035" y2="136.6005"/>
    <polyline points="331.3752,138.0983 338.7414,173.6684 236.3112,329.6036"/>
    <line x1="237.809" x2="293.8664" y1="329.0908" y2="78.3041"/>
    <line x1="294.9917" x2="339.2717" y1="79.4177" y2="186.3189"/>
    <line x1="339.2634" x2="73.6472" y1="184.7358" y2="285.1037"/>
    <polyline points="72.619,283.8999 314.0125,102.6566 274.3717,310.4611 104.4282,60.3969"/>
    <polyline points="103.1142,61.2799 334.522,223.9161 273.0669,311.3579"/>
    <line x1="274.3717" x2="271.7529" y1="310.4611" y2="312.2408"/>
    <polyline points="270.4297,313.11 172.2878,336.6718 314.8817,103.9798"/>
    <line x1="314.0125" x2="303.5621" y1="102.6566" y2="88.7379"/>
    <line x1="302.5339" x2="80.0758" y1="87.5341" y2="80.543"/>
    <polyline points="78.974,81.6799 210.1755,36.7596 297.2071,290.9579"/>
    <line x1="298.2968" x2="335.6307" y1="289.8095" y2="153.3398"/>
    <line x1="335.968" x2="249.5814" y1="154.8866" y2="324.4297"/>
    <polyline points="248.1318,325.0661 320.5716,259.1509 326.8377,126.2776"/>
    <line x1="327.4588" x2="240.7881" y1="127.7339" y2="328.0182"/>
    <polyline points="239.3013,328.5623 197.5833,35.4361 330.3339,135.1081"/>
    <polyline points="329.7899,133.6214 96.6866,65.8986 46.3912,239.0164"/>
    <polyline points="46.9508,240.4974 40.2131,154.8866 203.8933,35.966 86.9306,73.9694 49.9797,124.828 335.968,217.7512 203.8933,35.966 156.6582,334.1963"/>
    <polyline points="155.1114,333.8591 298.2968,82.8283 107.0837,313.9653 291.5811,296.5252"/>
    <line x1="290.4214" x2="43.3619" y1="297.6029" y2="230.015"/>
    <polyline points="42.9123,228.4971 47.5259,241.9724 55.6095,259.1509 328.6552,241.9724 55.6095,113.4868 328.6552,130.6654 55.6095,259.1509 243.744,326.8835"/>
    <polyline points="242.269,327.4586 40.2131,154.8866 329.2303,132.1404"/>
    <line x1="328.6552" x2="115.2585" y1="130.6654" y2="318.7999"/>
    <polyline points="113.8752,318.03 330.8624,236.0373 293.8664,294.3337 138.3721,329.0908"/>
    <polyline points="139.8699,329.6036 338.7414,198.9694 62.1686,269.9812 200.7411,35.668"/>
    <line x1="202.3179" x2="38.1016" y1="35.8087" y2="167.3709"/>
    <line x1="37.9114" x2="184.9245" y1="168.9426" y2="35.171"/>
    <polyline points="186.5074,35.1461 73.6472,285.1037 189.6737,337.4917"/>
    <line x1="191.2566" x2="94.1847" y1="337.4668" y2="67.8393"/>
    <line x1="95.4306" x2="91.7241" y1="66.8624" y2="302.8059"/>
    <polyline points="90.5095,301.7904 314.0125,269.9812 274.3717,62.1767 271.7529,60.3969"/>
    <polyline points="270.4297,59.5278 172.2878,35.966 314.8817,268.658"/>
    <polyline points="315.737,267.3258 77.8843,82.8283 269.0974,58.6725 183.3418,337.4254"/>
    <polyline points="181.7597,337.3674 332.8192,142.6228 37.0421,179.9881 108.4248,314.8066"/>
    <line x1="107.0837" x2="84.6" y1="313.9653" y2="76.1126"/>
    <polyline points="85.7597,75.0349 43.3619,230.015 76.8066,288.6498"/>
    <line x1="77.8843" x2="60.4441" y1="289.8095" y2="267.3258"/>
    <polyline points="61.2994,268.658 172.2878,336.6718 86.9306,73.9694 37.7376,170.5162"/>
    <polyline points="37.5804,172.0915 38.1016,167.3709 338.6007,200.5463"/>
    <line x1="338.7414" x2="44.8059" y1="198.9694" y2="138.0983"/>
    <line x1="45.3187" x2="42.4786" y1="136.6005" y2="226.9745"/>
    <polyline points="42.0608,225.4474 112.5,55.3922 263.6811,55.3922 263.6811,317.2456 263.6811,55.3922 57.1639,261.9094"/>
    <polyline points="57.9626,263.2763 159.762,37.8156 41.6591,223.9161 216.4191,334.8222 41.6591,148.7217 216.4191,37.8156 41.6591,223.9161 39.5873,214.6474"/>
    <polyline points="39.8921,216.201 101.8094,310.4611 323.5052,253.5393 63.9483,100.0378"/>
    <polyline points="64.8586,98.7425 246.6756,325.6872 240.7881,328.0182 48.7223,244.9039"/>
    <polyline points="48.1164,243.4413 135.393,328.0182 96.6866,306.7392 46.3912,133.6214"/>
    <line x1="45.8472" x2="197.5833" y1="135.1081" y2="337.2017"/>
    <polyline points="199.1628,337.094 147.435,40.7069 338.8657,175.2467"/>
    <line x1="338.9733" x2="252.4603" y1="176.8262" y2="49.5261"/>
    <line x1="251.0243" x2="279.4945" y1="48.8596" y2="306.7392"/>
    <polyline points="280.7505,305.7754 91.7241,302.8059 307.5471,93.6589"/>
    <line x1="306.5702" x2="152.0288" y1="92.4131" y2="39.5017"/>
    <line x1="153.5682" x2="322.0678" y1="39.1322" y2="256.3605"/>
    <polyline points="322.7939,254.9537 65.7825,97.4569 53.3872,117.6841"/>
    <line x1="52.6759" x2="336.8823" y1="119.0985" y2="159.547"/>
    <line x1="336.5938" x2="41.6591" y1="157.9904" y2="223.9161"/>
    <polyline points="41.2734,222.3806 306.5702,92.4131 191.2566,337.4668 281.9964,304.7985"/>
    <polyline points="283.2319,303.8087 289.2505,298.6684 305.5803,91.1775"/>
    <polyline points="304.5776,89.9524 338.0795,205.2669 71.6035,282.6854"/>
    <polyline points="70.6008,281.4602 289.2505,298.6684 49.9797,124.828 300.44,85.159"/>
    <polyline points="301.4932,86.341 123.7208,49.5261 74.6879,286.2968"/>
    <line x1="75.7411" x2="49.9797" y1="287.4788" y2="124.828"/>
    <polyline points="50.6312,123.3851 279.4945,306.7392 325.5499,249.2527"/>
    <polyline points="324.8833,250.6887 178.5978,337.2017 123.7208,323.1116 88.1127,299.7215"/>
    <line x1="86.9306" x2="338.4435" y1="298.6684" y2="170.5162"/>
    <polyline points="338.2697,168.9426 184.9245,337.4668 205.4669,336.4981"/>
    <line x1="203.8933" x2="219.5229" y1="336.6718" y2="334.1963"/>
    <polyline points="221.0697,333.8591 298.2968,289.8095 155.1114,38.7787"/>
    <polyline points="156.6582,38.4415 203.8933,336.6718 40.2131,217.7512 242.269,45.1792"/>
    <line x1="240.7881" x2="327.4588" y1="44.6196" y2="244.9039"/>
    <polyline points="328.0647,243.4413 135.393,44.6196 245.2129,46.3448"/>
    <polyline points="243.744,45.7543 55.6095,113.4868 132.4371,326.8835"/>
    <polyline points="133.9121,327.4586 40.2131,217.7512 46.9508,132.1404"/>
    <line x1="47.5259" x2="230.2687" y1="130.6654" y2="41.1406"/>
    <line x1="228.7461" x2="286.8754" y1="40.7069" y2="300.7622"/>
    <polyline points="285.6716,301.7904 314.0125,102.6566 90.5095,70.8474"/>
    <polyline points="89.3057,71.8756 228.7461,40.7069 302.5339,87.5341 293.8664,78.3041 45.3187,236.0373 228.7461,40.7069 73.6472,285.1037 36.9177,187.902"/>
    <polyline points="36.9426,189.485 166.0056,335.8782 317.4055,264.6348 69.6109,280.2247 191.2566,337.4668 166.0056,335.8782 184.9245,35.171 338.2697,203.6952"/>
    <line x1="338.4435" x2="86.9306" y1="202.1216" y2="73.9694"/>
    <line x1="88.1127" x2="123.7208" y1="72.9163" y2="49.5261"/>
    <polyline points="122.2918,50.2077 82.3147,78.3041 253.8893,322.4301"/>
    <line x1="252.4603" x2="338.9733" y1="323.1116" y2="195.8116"/>
    <polyline points="339.0645,194.2311 326.2014,247.8098 37.1166,178.4067"/>
    <polyline points="37.2078,176.8262 252.4603,323.1116 197.5833,35.4361 45.8472,237.5297"/>
    <line x1="45.3187" x2="42.4786" y1="236.0373" y2="145.6633"/>
    <polyline points="42.0608,147.1903 112.5,317.2456 148.962,332.3486"/>
    <polyline points="150.4933,332.7504 216.4191,334.8222 334.522,223.9161 63.0516,271.2953"/>
    <line x1="62.1686" x2="175.44" y1="269.9812" y2="336.9698"/>
    <polyline points="177.0183,337.094 147.435,331.9309 37.3154,175.2467"/>
    <line x1="37.4397" x2="255.311" y1="173.6684" y2="321.7336"/>
    <polyline points="256.7253,321.0222 65.7825,275.1809 119.4558,51.6155"/>
    <polyline points="120.8701,50.9042 37.4397,173.6684 323.5052,119.0985 274.3717,310.4611 62.1686,269.9812 37.4397,173.6684 52.6759,253.5393 214.8624,37.5271"/>
    <polyline points="213.3028,37.2549 129.5055,325.6872 39.0266,161.1066 96.6866,306.7392 240.7881,44.6196 129.5055,325.6872 337.1545,211.5312 38.3082,206.8365"/>
    <polyline points="38.5313,208.4039 317.4055,108.003 337.6498,164.2339"/>
    <line x1="337.8729" x2="337.1545" y1="165.8013" y2="211.5312"/>
    <polyline points="336.8823,213.0908 52.6759,253.5393 161.3187,335.1107"/>
    <line x1="159.762" x2="57.9626" y1="334.8222" y2="109.3615"/>
    <line x1="57.1639" x2="263.6811" y1="110.7283" y2="317.2456"/>
    <polyline points="262.3059,318.03 330.8624,136.6005 113.8752,54.6078"/>
    <line x1="115.2585" x2="328.6552" y1="53.8379" y2="241.9724"/>
    <line x1="329.2303" x2="40.2131" y1="240.4974" y2="217.7512"/>
    <polyline points="40.5504,219.298 298.2968,289.8095 107.0837,58.6725 84.6,296.5252"/>
    <polyline points="85.7597,297.6029 43.3619,142.6228 118.0489,52.3417 231.7867,41.5903"/>
    <polyline points="233.2999,42.0558 222.6129,39.1322 332.3537,231.5282"/>
    <line x1="332.8192" x2="181.7597" y1="230.015" y2="35.2704"/>
    <line x1="183.3418" x2="269.0974" y1="35.2124" y2="313.9653"/>
    <polyline points="265.048,316.4468 159.762,37.8156 318.2185,109.3615"/>
    <polyline points="317.4055,108.003 210.1755,335.8782 78.974,290.9579"/>
    <polyline points="89.3057,300.7622 228.7461,331.9309 286.8754,71.8756"/>
    <line x1="285.6716" x2="314.0125" y1="70.8474" y2="269.9812"/>
    <line x1="311.3225" x2="246.6756" y1="273.8953" y2="325.6872"/>
    <polyline points="245.2129,326.293 135.393,328.0182 328.0647,129.1965"/>
    <line x1="326.2014" x2="339.0645" y1="124.828" y2="178.4067"/>
    <line x1="339.139" x2="335.2773" y1="179.9881" y2="220.8412"/>
    <polyline points="334.9077,222.3806 306.5702,280.2247 224.1523,39.5017"/>
    <line x1="222.6129" x2="43.8274" y1="39.1322" y2="141.1096"/>
    <line x1="44.3088" x2="310.3986" y1="139.6014" y2="97.4569"/>
    <polyline points="311.3225,98.7425 246.6756,46.9506 275.6669,309.5508"/>
    <line x1="276.9526" x2="141.373" y1="308.627" y2="42.5371"/>
    <line x1="139.8699" x2="338.7414" y1="43.0342" y2="173.6684"/>
    <line x1="338.6007" x2="38.1016" y1="172.0915" y2="205.2669"/>
    <polyline points="37.9114,203.6952 184.9245,337.4668 166.0056,36.7596 317.4055,108.003 69.6109,92.4131 191.2566,35.171 166.0056,36.7596 36.9426,183.1528"/>
    <line x1="36.984" x2="269.0974" y1="181.5702" y2="58.6725"/>
    <line x1="267.7563" x2="37.0421" y1="57.8312" y2="179.9881"/>
    <polyline points="36.984,191.0676 269.0974,313.9653 77.8843,289.8095 107.0837,313.9653 77.8843,82.8283 107.0837,58.6725 77.8843,289.8095 315.737,105.312"/>
    <line x1="316.5783" x2="37.0421" y1="106.6531" y2="192.6497"/>
    <polyline points="37.1166,194.2311 326.2014,124.828 335.968,154.8866 203.8933,336.6718 86.9306,298.6684 49.9797,247.8098 335.968,154.8866 126.5997,48.2081"/>
    <line x1="125.1568" x2="279.4945" y1="48.8596" y2="65.8986"/>
    <polyline points="278.2285,64.9481 58.7756,264.6348 97.9526,307.6897"/>
    <line x1="96.6866" x2="329.7899" y1="306.7392" y2="239.0164"/>
    <polyline points="331.3752,234.5395 338.7414,198.9694 236.3112,43.0342"/>
    <line x1="234.8081" x2="337.4104" y1="42.5371" y2="162.669"/>
    <line x1="337.1545" x2="38.3082" y1="161.1066" y2="165.8013"/>
    <line x1="38.5313" x2="317.4055" y1="164.2339" y2="264.6348"/>
    <polyline points="316.5783,265.9847 37.0421,179.9881 59.6028,106.6531"/>
    <line x1="58.7756" x2="97.9526" y1="108.003" y2="64.9481"/>
    <polyline points="99.2285,64.0108 141.373,42.5371 65.7825,275.1809 53.3872,254.9537"/>
    <polyline points="54.1133,256.3605 153.5682,333.5056 322.0678,116.2773"/>
    <line x1="322.7939" x2="65.7825" y1="117.6841" y2="275.1809"/>
    <polyline points="66.7197,276.4568 58.7756,108.003 69.6109,280.2247 109.7747,315.6338"/>
    <polyline points="111.1331,316.4468 159.762,334.8222 41.6591,148.7217 336.5938,214.6474"/>
    <polyline points="336.289,216.201 101.8094,62.1767 217.9726,38.1204"/>
    <line x1="216.4191" x2="150.4933" y1="37.8156" y2="39.8874"/>
    <polyline points="148.962,40.2892 112.5,55.3922 227.2191,332.3486"/>
    <polyline points="225.6878,332.7504 216.4191,37.8156 334.522,148.7217 103.1142,311.3579"/>
    <line x1="101.8094" x2="336.289" y1="310.4611" y2="156.4368"/>
    <line x1="335.2773" x2="339.139" y1="151.7966" y2="192.6497"/>
    <polyline points="339.1971,191.0676 269.0974,58.6725 192.8393,35.2124"/>
    <line x1="191.2566" x2="281.9964" y1="35.171" y2="67.8393"/>
    <line x1="280.7505" x2="91.7241" y1="66.8624" y2="69.8319"/>
    <line x1="92.9492" x2="289.2505" y1="68.8291" y2="298.6684"/>
    <polyline points="288.0684,299.7215 123.7208,49.5261 178.5978,35.4361 51.2978,250.6887"/>
    <polyline points="51.9794,252.1176 82.3147,78.3041 302.5339,285.1037 296.1053,80.543"/>
    <polyline points="297.2071,81.6799 210.1755,335.8782 292.7295,295.4354"/>
    <polyline points="296.1053,292.0948 302.5339,87.5341 82.3147,294.3337 51.9794,120.5202"/>
    <line x1="51.2978" x2="178.5978" y1="121.9491" y2="337.2017"/>
    <polyline points="180.1783,337.2928 326.2014,247.8098 335.968,217.7512"/>
    <polyline points="335.6307,219.298 298.2968,82.8283 40.5504,153.3398"/>
    <polyline points="40.9038,151.7966 339.139,179.9881 222.6129,39.1322 142.8812,330.582"/>
    <line x1="144.3944" x2="118.0489" y1="331.0475" y2="52.3417"/>
    <line x1="116.6498" x2="258.1322" y1="53.0825" y2="320.2961"/>
    <polyline points="259.5313,319.5553 258.1322,320.2961 321.327,114.8782"/>
    <line x1="320.5716" x2="248.1318" y1="113.4868" y2="47.5717"/>
    <line x1="246.6756" x2="100.5142" y1="46.9506" y2="63.087"/>
    <line x1="101.8094" x2="39.8921" y1="62.1767" y2="156.4368"/>
    <line x1="40.2131" x2="133.9121" y1="154.8866" y2="45.1792"/>
    <line x1="135.393" x2="48.1164" y1="44.6196" y2="129.1965"/>
    <polyline points="48.7223,127.7339 240.7881,44.6196 246.6756,46.9506 64.8586,273.8953"/>
    <polyline points="63.9483,272.6 323.5052,119.0985 101.8094,62.1767 158.2085,334.5174"/>
    <line x1="162.8783" x2="129.5055" y1="335.3829" y2="325.6872"/>
    <polyline points="128.0493,325.0661 320.5716,113.4868 328.6552,241.9724 260.9226,318.7999"/>
    <polyline points="251.0243,323.7782 279.4945,65.8986 325.5499,123.3851"/>
    <line x1="323.5052" x2="312.2328" y1="119.0985" y2="100.0378"/>
    <line x1="313.1295" x2="334.522" y1="101.3425" y2="223.9161"/>
    <polyline points="334.1203,225.4474 112.5,317.2456 263.6811,317.2456 319.0172,261.9094"/>
    <polyline points="319.8016,260.5343 330.8624,236.0373 56.3795,112.1035"/>
    <polyline points="55.6095,113.4868 47.5259,130.6654 145.9124,331.4972"/>
    <line x1="147.435" x2="338.8657" y1="331.9309" y2="197.3911"/>
    <polyline points="338.0795,205.2669 91.7241,69.8319 95.4306,305.7754"/>
    <polyline points="94.1847,304.7985 191.2566,35.171 306.5702,280.2247 152.0288,333.136"/>
    <polyline points="153.5682,333.5056 258.1322,320.2961 54.8541,257.7596"/>
    <line x1="55.6095" x2="132.4371" y1="259.1509" y2="45.7543"/>
    <line x1="130.9682" x2="135.393" y1="46.3448" y2="328.0182"/>
    <polyline points="136.8798,328.5623 197.5833,337.2017 252.4603,49.5261 178.5978,35.4361 252.4603,323.1116 178.5978,337.2017 252.4603,49.5261 37.2078,195.8116"/>
    <polyline points="37.3154,197.3911 147.435,40.7069 45.3187,136.6005 293.8664,294.3337 302.5339,285.1037 228.7461,331.9309 45.3187,136.6005 333.7025,145.6633"/>
    <line x1="334.1203" x2="112.5" y1="147.1903" y2="55.3922"/>
    <line x1="111.1331" x2="159.762" y1="56.191" y2="37.8156"/>
    <polyline points="158.2085,38.1204 101.8094,310.4611 217.9726,334.5174"/>
    <line x1="216.4191" x2="225.6878" y1="334.8222" y2="39.8874"/>
    <line x1="227.2191" x2="112.5" y1="40.2892" y2="317.2456"/>
    <polyline points="119.4558,321.0222 65.7825,97.4569 141.373,330.1007"/>
    <polyline points="130.9682,326.293 135.393,44.6196 96.6866,65.8986"/>
    <line x1="105.7514" x2="172.2878" y1="59.5278" y2="336.6718"/>
    <polyline points="170.7142,336.4981 184.9245,35.171 205.4669,36.1397"/>
    <line x1="203.8933" x2="219.5229" y1="35.966" y2="38.4415"/>
    <line x1="221.0697" x2="298.2968" y1="38.7787" y2="82.8283"/>
    <polyline points="299.3745,83.988 43.3619,230.015 118.0489,320.2961 231.7867,331.0475"/>
    <line x1="233.2999" x2="222.6129" y1="330.582" y2="333.5056"/>
    <polyline points="224.1523,333.136 306.5702,92.4131 334.9077,150.2571"/>
    <line x1="334.522" x2="273.0669" y1="148.7217" y2="61.2799"/>
    <line x1="274.3717" x2="104.4282" y1="62.1767" y2="312.2408"/>
    <polyline points="105.7514,313.11 172.2878,35.966 86.9306,298.6684 37.7376,202.1216"/>
    <polyline points="37.5804,200.5463 38.1016,205.2669 284.457,302.8059 338.0795,205.2669 284.457,69.8319 338.0795,167.3709 284.457,302.8059 207.0386,336.3079"/>
    <polyline points="208.6082,336.1012 337.1545,211.5312 167.5729,36.5365"/>
    <line x1="169.1425" x2="284.457" y1="36.3299" y2="302.8059"/>
    <polyline points="278.2285,307.6897 58.7756,108.003 309.4614,96.181"/>
    <polyline points="308.5108,94.9149 39.0266,211.5312 129.5055,46.9506 240.7881,328.0182 96.6866,65.8986 39.0266,211.5312 67.6703,277.7229"/>
    <polyline points="68.634,278.9789 91.7241,302.8059 338.0795,167.3709 304.5776,282.6854"/>
    <polyline points="305.5803,281.4602 289.2505,73.9694 283.2319,68.8291"/>
    <polyline points="284.457,69.8319 38.1016,167.3709 173.8632,336.8291"/>
    <polyline points="169.1425,336.3079 284.457,69.8319 207.0386,36.3299"/>
    <polyline points="208.6082,36.5365 337.1545,161.1066 337.8729,206.8365"/>
    <polyline points="333.7025,226.9745 45.3187,236.0373 147.435,331.9309 199.1628,35.5438"/>
    <line x1="197.5833" x2="136.8798" y1="35.4361" y2="44.0755"/>
    <polyline points="138.3721,43.547 293.8664,78.3041 330.8624,136.6005 56.3795,260.5343"/>
    <line x1="58.7756" x2="309.4614" y1="264.6348" y2="276.4568"/>
    <line x1="310.3986" x2="331.8723" y1="275.1809" y2="139.6014"/>
    <polyline points="332.3537,141.1096 222.6129,333.5056 339.139,192.6497 153.5682,39.1322 118.0489,320.2961 332.8192,142.6228 339.139,192.6497 40.9038,220.8412"/>
    <polyline points="39.2988,213.0908 52.6759,119.0985 161.3187,37.5271"/>
    <polyline points="162.8783,37.2549 129.5055,46.9506 337.1545,161.1066 167.5729,336.1012"/>
    <line x1="166.0056" x2="339.2385" y1="335.8782" y2="183.1528"/>
    <polyline points="339.1971,181.5702 269.0974,313.9653 192.8393,337.4254"/>
    <line x1="184.9245" x2="170.7142" y1="337.4668" y2="36.1397"/>
    <line x1="172.2878" x2="61.2994" y1="35.966" y2="103.9798"/>
    <line x1="60.4441" x2="77.8843" y1="105.312" y2="82.8283"/>
    <line x1="76.8066" x2="43.3619" y1="83.988" y2="142.6228"/>
    <polyline points="42.9123,144.1407 47.5259,130.6654 333.2688,228.4971"/>
    <polyline points="331.8723,233.0364 310.3986,97.4569 141.373,330.1007 310.3986,275.1809 141.373,42.5371 310.3986,97.4569 234.8081,42.5371 38.7707,209.9688"/>
    <polyline points="39.0266,211.5312 279.4945,306.7392 125.1568,323.7782"/>
    <polyline points="126.5997,324.4297 335.968,217.7512 249.5814,48.2081"/>
    <polyline points="253.8893,50.2077 82.3147,294.3337 122.2918,322.4301"/>
    <line x1="123.7208" x2="288.0684" y1="323.1116" y2="72.9163"/>
    <line x1="289.2505" x2="70.6008" y1="73.9694" y2="91.1775"/>
    <line x1="69.6109" x2="109.7747" y1="92.4131" y2="57.004"/>
    <polyline points="108.4248,57.8312 37.0421,192.6497 59.6028,265.9847"/>
    <line x1="52.6759" x2="39.2988" y1="253.5393" y2="159.547"/>
    <line x1="39.5873" x2="41.6591" y1="157.9904" y2="148.7217"/>
    <line x1="41.2734" x2="306.5702" y1="150.2571" y2="280.2247"/>
    <polyline points="307.5471,278.9789 91.7241,69.8319 68.634,93.6589"/>
    <line x1="67.6703" x2="39.0266" y1="94.9149" y2="161.1066"/>
    <line x1="38.7707" x2="234.8081" y1="162.669" y2="330.1007"/>
    <polyline points="214.8624,335.1107 52.6759,119.0985 37.4397,198.9694 62.1686,102.6566 274.3717,62.1767 323.5052,253.5393 37.4397,198.9694 255.311,50.9042"/>
    <polyline points="259.5313,53.0825 258.1322,52.3417 321.327,257.7596"/>
    <line x1="320.5716" x2="128.0493" y1="259.1509" y2="47.5717"/>
    <line x1="129.5055" x2="213.3028" y1="46.9506" y2="335.3829"/>
    <polyline points="202.3179,336.8291 38.1016,205.2669 173.8632,35.8087"/>
    <line x1="194.4214" x2="332.8192" y1="35.2704" y2="142.6228"/>
    <line x1="333.2688" x2="47.5259" y1="144.1407" y2="241.9724"/>
    <polyline points="49.3434,246.3602 320.5716,259.1509 328.6552,130.6654 260.9226,53.8379"/>
    <polyline points="265.048,56.191 159.762,334.8222 318.2185,263.2763"/>
    <polyline points="308.5108,277.7229 39.0266,161.1066 279.4945,65.8986 50.6312,249.2527"/>
    <line x1="49.9797" x2="300.44" y1="247.8098" y2="287.4788"/>
    <polyline points="299.3745,288.6498 43.3619,142.6228 290.4214,75.0349"/>
    <line x1="291.5811" x2="107.0837" y1="76.1126" y2="58.6725"/>
    <polyline points="75.7411,85.159 49.9797,247.8098 289.2505,73.9694 92.9492,303.8087"/>
    <polyline points="99.2285,308.627 141.373,330.1007 276.9526,64.0108"/>
    <polyline points="275.6669,63.087 246.6756,325.6872 100.5142,309.5508"/>
    <line x1="120.8701" x2="37.4397" y1="321.7336" y2="198.9694"/>
    <polyline points="44.8059,234.5395 338.7414,173.6684 62.1686,102.6566 200.7411,336.9698"/>
    <polyline points="164.4406,335.6387 234.8081,330.1007 211.7405,36.9991"/>
    <line x1="210.1755" x2="292.7295" y1="36.7596" y2="77.2024"/>
    <line x1="266.4064" x2="69.6109" y1="57.004" y2="280.2247"/>
    <polyline points="72.9331,332.185 72.3425,331.0039 70.5709,330.4134 69.3898,330.4134 67.6181,331.0039 66.437,332.7756 65.8465,335.7283 65.8465,338.6811 66.437,341.0433 67.6181,342.2244 69.3898,342.815 71.752,342.2244 72.9331,341.0433 73.5236,339.2717 72.9331,336.9094 71.752,335.7283 69.9803,335.1378 67.6181,335.7283 66.437,336.9094 65.8465,338.6811"/>
    <line x1="61.122" x2="50.4921" y1="339.2717" y2="339.2717"/>
    <line x1="50.4921" x2="61.122" y1="335.7283" y2="335.7283"/>
    <polyline points="45.7677,342.815 45.7677,336.9094 45.1772,335.1378 43.9961,334.5472 42.2244,334.5472 41.0433,335.1378 39.2717,336.9094"/>
    <line x1="39.2717" x2="39.2717" y1="334.5472" y2="342.815"/>
    <polygon points="85.3346,335.7283 84.7441,332.7756 83.563,331.0039 81.7913,330.4134 80.6102,330.4134 78.8386,331.0039 77.6575,332.7756 77.0669,335.7283 77.0669,337.5 77.6575,340.4528 78.8386,342.2244 80.6102,342.815 81.7913,342.815 83.563,342.2244 84.7441,340.4528 85.3346,337.5"/>
    <polygon points="88.878,335.7283 88.878,337.5 89.4685,340.4528 90.6496,342.2244 92.4213,342.815 93.6024,342.815 95.374,342.2244 96.5551,340.4528 97.1457,337.5 97.1457,335.7283 96.5551,332.7756 95.374,331.0039 93.6024,330.4134 92.4213,330.4134 90.6496,331.0039 89.4685,332.7756"/>
    <line x1="295.5709" x2="302.0669" y1="334.5472" y2="342.815"/>
    <line x1="306.2008" x2="316.8307" y1="339.2717" y2="339.2717"/>
    <line x1="316.8307" x2="306.2008" y1="335.7283" y2="335.7283"/>
    <line x1="302.0669" x2="295.5709" y1="334.5472" y2="342.815"/>
    <polyline points="321.5551,338.6811 322.1457,336.9094 323.3268,335.7283 325.689,335.1378 327.4606,335.7283 328.6417,336.9094 329.2323,339.2717 328.6417,341.0433 327.4606,342.2244 325.0984,342.815 323.3268,342.2244 322.1457,341.0433 321.5551,338.6811 321.5551,335.7283 322.1457,332.7756 323.3268,331.0039 325.0984,330.4134 326.2795,330.4134 328.0512,331.0039 328.6417,332.185"/>
    <polygon points="339.8622,334.5472 340.4528,333.3661 340.4528,332.185 339.8622,331.0039 338.0906,330.4134 335.7283,330.4134 333.9567,331.0039 333.3661,332.185 333.3661,333.3661 333.9567,334.5472 339.2717,336.3189 340.4528,337.5 341.0433,338.6811 341.0433,340.4528 340.4528,341.6339 339.8622,342.2244 338.0906,342.815 335.7283,342.815 333.9567,342.2244 332.7756,340.4528 332.7756,338.6811 333.3661,337.5 334.5472,336.3189"/>
    <polyline points="303.5621,283.8999 314.0125,269.9812 72.619,88.7379"/>
    <line x1="71.6035" x2="338.0795" y1="89.9524" y2="167.3709"/>
    <polyline points="326.8377,246.3602 320.5716,113.4868 49.3434,126.2776"/>
    <line x1="196.0028" x2="326.2014" y1="35.345" y2="247.8098"/>
  </g>
</svg>
