<?xml version="1.0" encoding="utf-8" ?>
<svg xmlns="http://www.w3.org/2000/svg" xmlns:cc="http://creativecommons.org/ns" xmlns:dc="http://purl.org/dc/elements/1.1/" xmlns:ev="http://www.w3.org/2001/xml-events" xmlns:inkscape="http://www.inkscape.org/namespaces/inkscape" xmlns:rdf="http://www.w3.org/1999/02/22-rdf-syntax-ns" xmlns:sodipodi="http://sodipodi.sourceforge.net/DTD/sodipodi-0.dtd" xmlns:xlink="http://www.w3.org/1999/xlink" baseProfile="tiny" height="10.0cm" version="1.2" viewBox="0 0 377.95275590551176 377.95275590551176" width="10.0cm">
  <metadata>
    <rdf:RDF>
      <cc:Work>
        <dc:format>image/svg+xml</dc:format>
        <dc:source>Vsketch with params {'__seed__': 0, 'r': 4.0, 'multiplier': 131, 'n': 600}</dc:source>
        <dc:date>2025-04-26T12:50:56.474763</dc:date>
      </cc:Work>
    </rdf:RDF>
  </metadata>
  <defs/>
  <g fill="none" id="layer1" inkscape:groupmode="layer" inkscape:label="1" stroke="#0000ff" stroke-width="1.1339" style="display:inline">
    <polygon points="130.4543,326.0822 144.3293,331.0278 158.9904,334.6729 173.566,336.8007 188.2795,337.4999 203.3671,336.7262 217.9319,334.5256 232.2133,330.918 246.0759,325.9377 259.3881,319.632 272.0234,312.0607 284.1539,303.056 295.0585,293.1533 305.187,281.9439 313.9372,270.0945 321.4927,257.4498 327.7817,244.1298 332.8541,229.8993 336.4081,215.6044 338.5541,201.0315 339.2717,186.3189 338.5168,171.2303 336.3344,156.6628 332.7447,142.3768 327.7817,128.508 321.4927,115.188 313.7274,102.229 304.9476,90.4015 295.0585,79.4845 284.1539,69.5818 272.3374,60.7872 259.3881,53.0058 246.0759,46.7001 232.2133,41.7198 217.5614,38.0381 202.9911,35.8739 188.2795,35.1379 173.19,35.8739 158.6197,38.0381 144.3293,41.61 130.4543,46.5556 116.793,53.0058 104.1577,60.5771 92.3193,69.342 81.3899,79.2175 71.4736,90.1097 62.6643,101.9153 54.8666,114.8548 48.5443,128.1591 43.5467,142.0155 39.8467,156.6628 37.6643,171.2303 36.9094,186.3189 37.627,201.0315 39.773,215.6044 43.327,229.8993 48.3994,244.1298 54.6884,257.4498 62.2439,270.0945 71.2335,282.2363 81.1226,293.1533 92.3193,303.2957 104.1577,312.0607 116.793,319.632"/>
    <polygon points="130.9682,326.293 259.5313,53.0825 37.3154,175.2467 336.8823,213.0908 152.0288,39.5017 208.6082,336.1012 316.5783,106.6531 51.9794,252.1176 303.5621,283.8999 83.4516,77.2024"/>
    <polygon points="126.5997,324.4297 37.7376,202.1216"/>
    <polygon points="112.5,317.2456 112.5,55.3922"/>
    <polygon points="108.4248,314.8066 122.2918,322.4301 285.6716,301.7904 297.2071,290.9579 328.0647,129.1965 321.327,114.8782 177.0183,35.5438 161.3187,37.5271 41.2734,150.2571 38.3082,165.8013"/>
    <polygon points="99.2285,308.627 276.9526,64.0108"/>
    <polygon points="96.6866,306.7392 153.5682,333.5056 45.3187,136.6005 37.4397,198.9694 191.2566,35.171 129.5055,46.9506 332.8192,142.6228 302.5339,87.5341 274.3717,310.4611 317.4055,264.6348"/>
    <polygon points="94.1847,304.7985 162.8783,37.2549 194.4214,35.2704 296.1053,292.0948 271.7529,312.2408 38.5313,164.2339 46.3912,133.6214 322.0678,116.2773 333.7025,145.6633 120.8701,321.7336"/>
    <polygon points="86.9306,298.6684 335.968,217.7512"/>
    <polygon points="82.3147,294.3337 314.0125,102.6566 210.1755,36.7596 135.393,328.0182 258.1322,320.2961 147.435,40.7069 52.6759,119.0985 306.5702,280.2247 337.1545,161.1066 37.0421,179.9881"/>
    <polygon points="81.1894,293.2201 294.9917,293.2201"/>
    <polygon points="75.7411,287.4788 219.5229,334.1963"/>
    <polygon points="70.6008,281.4602 133.9121,327.4586"/>
    <polygon points="66.7197,276.4568 251.0243,323.7782 233.2999,42.0558 56.3795,112.1035 236.3112,329.6036 338.2697,168.9426 64.8586,98.7425 76.8066,288.6498 339.2634,184.7358 217.9726,38.1204"/>
    <line x1="65.7825" x2="65.7825" y1="275.1809" y2="275.1809"/>
    <polygon points="59.6028,265.9847 324.2017,120.5202 72.619,88.7379 292.7295,295.4354 245.2129,46.3448 116.6498,319.5553 338.8657,197.3911 39.2988,159.547 224.1523,333.136 167.5729,36.5365"/>
    <polygon points="57.9626,263.2763 88.1127,299.7215 248.1318,47.5717 202.3179,35.8087 221.0697,333.8591 265.048,316.4468 74.6879,86.341 49.3434,126.2776 338.6007,200.5463 335.6307,153.3398"/>
    <polygon points="55.6095,259.1509 338.0795,205.2669 77.8843,82.8283 216.4191,334.8222 252.4603,49.5261"/>
    <polygon points="53.3872,254.9537 119.4558,51.6155"/>
    <polygon points="49.9797,247.8098 203.8933,35.966"/>
    <polygon points="48.1164,243.4413 54.8541,257.7596 199.1628,337.094 214.8624,335.1107 334.9077,222.3806 337.8729,206.8365 267.7563,57.8312 253.8893,50.2077 90.5095,70.8474 78.974,81.6799"/>
    <polygon points="42.0608,225.4474 334.1203,225.4474"/>
    <polygon points="38.7707,209.9688 211.7405,335.6387"/>
    <polygon points="37.1166,194.2311 61.2994,268.658"/>
    <polygon points="37.0421,192.6497 82.3147,78.3041 314.0125,269.9812 210.1755,335.8782 135.393,44.6196 258.1322,52.3417 147.435,331.9309 52.6759,253.5393 306.5702,92.4131 337.1545,211.5312"/>
    <polygon points="36.984,191.0676 273.0669,61.2799 136.8798,44.0755 333.2688,228.4971 307.5471,93.6589 192.8393,337.4254 313.1295,271.2953 45.8472,237.5297 145.9124,331.4972 95.4306,66.8624"/>
    <line x1="36.9094" x2="36.9094" y1="186.3189" y2="186.3189"/>
    <polygon points="36.9177,184.7358 158.2085,38.1204 309.4614,276.4568 125.1568,323.7782 142.8812,42.0558 319.8016,112.1035 139.8699,329.6036 37.9114,168.9426 311.3225,98.7425 299.3745,288.6498"/>
    <polygon points="37.1166,178.4067 61.2994,103.9798"/>
    <polygon points="37.2078,176.8262 243.744,45.7543 304.5776,282.6854 60.4441,267.3258 150.4933,39.8874 338.9733,195.8116 132.4371,326.8835 71.6035,89.9524 315.737,105.312 225.6878,332.7504"/>
    <polygon points="37.5804,172.0915 40.5504,219.298 318.2185,109.3615 288.0684,72.9163 128.0493,325.0661 173.8632,336.8291 155.1114,38.7787 111.1331,56.191 301.4932,286.2968 326.8377,246.3602"/>
    <polygon points="38.1016,167.3709 298.2968,289.8095 159.762,37.8156 123.7208,323.1116 320.5716,113.4868"/>
    <polygon points="38.7707,162.669 211.7405,36.9991"/>
    <polygon points="40.2131,154.8866 289.2505,73.9694"/>
    <polygon points="42.0608,147.1903 334.1203,147.1903"/>
    <polygon points="42.9123,144.1407 68.634,278.9789 183.3418,35.2124 63.0516,101.3425 330.3339,135.1081 230.2687,41.1406 280.7505,305.7754 339.1971,181.5702 103.1142,311.3579 239.3013,328.5623"/>
    <polygon points="43.8274,141.1096 262.3059,54.6078 331.3752,138.0983 205.4669,336.4981 100.5142,309.5508 85.7597,75.0349 186.5074,35.1461 336.289,216.201 278.2285,307.6897 50.6312,249.2527"/>
    <polygon points="49.9797,124.828 203.8933,336.6718"/>
    <polygon points="53.3872,117.6841 119.4558,321.0222"/>
    <polygon points="57.1639,110.7283 57.1639,261.9094"/>
    <line x1="65.7825" x2="65.7825" y1="97.4569" y2="97.4569"/>
    <polygon points="70.6008,91.1775 133.9121,45.1792"/>
    <polygon points="75.7411,85.159 219.5229,38.4415"/>
    <polygon points="81.1894,79.4177 294.9917,79.4177"/>
    <polygon points="99.2285,64.0108 276.9526,308.627"/>
    <polygon points="125.1568,48.8596 142.8812,330.582 319.8016,260.5343 139.8699,43.0342 37.9114,203.6952 311.3225,273.8953 299.3745,83.988 36.9177,187.902 158.2085,334.5174 309.4614,96.181"/>
    <polygon points="126.5997,48.2081 37.7376,170.5162"/>
    <polygon points="132.4371,45.7543 71.6035,282.6854 315.737,267.3258 225.6878,39.8874 37.2078,195.8116 243.744,326.8835 304.5776,89.9524 60.4441,105.312 150.4933,332.7504 338.9733,176.8262"/>
    <line x1="141.373" x2="141.373" y1="42.5371" y2="42.5371"/>
    <polygon points="145.9124,41.1406 95.4306,305.7754 36.984,181.5702 273.0669,311.3579 136.8798,328.5623 333.2688,144.1407 307.5471,278.9789 192.8393,35.2124 313.1295,101.3425 45.8472,135.1081"/>
    <polygon points="164.4406,36.9991 337.4104,162.669"/>
    <polygon points="170.7142,36.1397 275.6669,63.087 290.4214,297.6029 189.6737,337.4917 39.8921,156.4368 97.9526,64.9481 325.5499,123.3851 332.3537,231.5282 113.8752,318.03 44.8059,234.5395"/>
    <polygon points="172.2878,35.966 326.2014,247.8098"/>
    <polygon points="188.0906,35.1378 188.0906,337.5"/>
    <polygon points="196.0028,35.345 105.7514,313.11"/>
    <polygon points="214.8624,37.5271 334.9077,150.2571 337.8729,165.8013 267.7563,314.8066 253.8893,322.4301 90.5095,301.7904 78.974,290.9579 48.1164,129.1965 54.8541,114.8782 199.1628,35.5438"/>
    <polygon points="222.6129,39.1322 330.8624,236.0373 338.7414,173.6684 184.9245,337.4668 246.6756,325.6872 43.3619,230.015 73.6472,285.1037 101.8094,62.1767 58.7756,108.003 279.4945,65.8986"/>
    <polygon points="224.1523,39.5017 167.5729,336.1012 59.6028,106.6531 324.2017,252.1176 72.619,283.8999 292.7295,77.2024 245.2129,326.293 116.6498,53.0825 338.8657,175.2467 39.2988,213.0908"/>
    <polygon points="227.2191,40.2892 148.962,40.2892"/>
    <line x1="234.8081" x2="234.8081" y1="42.5371" y2="42.5371"/>
    <polygon points="237.809,43.547 200.7411,336.9698 339.2385,189.485 48.7223,244.9039 231.7867,331.0475 89.3057,71.8756 63.9483,272.6 266.4064,57.004 67.6703,94.9149 335.2773,220.8412"/>
    <polygon points="239.3013,44.0755 42.9123,228.4971 68.634,93.6589 183.3418,337.4254 63.0516,271.2953 330.3339,237.5297 230.2687,331.4972 280.7505,66.8624 339.1971,191.0676 103.1142,61.2799"/>
    <polygon points="242.269,45.1792 305.5803,91.1775"/>
    <polygon points="249.5814,48.2081 338.4435,170.5162"/>
    <polygon points="256.7253,51.6155 322.7939,254.9537"/>
    <polygon points="270.4297,59.5278 180.1783,337.2928"/>
    <polygon points="271.7529,60.3969 38.5313,208.4039 46.3912,239.0164 322.0678,256.3605 333.7025,226.9745 120.8701,50.9042 94.1847,67.8393 162.8783,335.3829 194.4214,337.3674 296.1053,80.543"/>
    <polygon points="283.2319,68.8291 46.9508,240.4974"/>
    <polygon points="298.2968,82.8283 159.762,334.8222 123.7208,49.5261 320.5716,259.1509 38.1016,205.2669"/>
    <polygon points="300.44,85.159 156.6582,38.4415"/>
    <line x1="310.3986" x2="310.3986" y1="97.4569" y2="97.4569"/>
    <polygon points="319.0172,110.7283 319.0172,261.9094"/>
    <polygon points="326.2014,124.828 172.2878,336.6718"/>
    <polygon points="327.4588,127.7339 144.3944,41.5903 286.8754,300.7622 312.2328,100.0378 109.7747,315.6338 308.5108,277.7229 40.9038,151.7966 138.3721,329.0908 175.44,35.668 36.9426,183.1528"/>
    <polygon points="329.2303,132.1404 92.9492,303.8087"/>
    <polygon points="330.8624,136.6005 338.7414,198.9694 184.9245,35.171 246.6756,46.9506 43.3619,142.6228 73.6472,87.5341 101.8094,310.4611 58.7756,264.6348 279.4945,306.7392 222.6129,333.5056"/>
    <polygon points="331.8723,139.6014 44.3088,233.0364"/>
    <polygon points="335.968,154.8866 86.9306,73.9694"/>
    <polygon points="336.5938,157.9904 324.8833,250.6887 260.9226,318.7999 169.1425,336.3079 84.6,296.5252 39.5873,214.6474 51.2978,121.9491 115.2585,53.8379 207.0386,36.3299 291.5811,76.1126"/>
    <polygon points="337.6498,164.2339 329.7899,133.6214 54.1133,116.2773 42.4786,145.6633 255.311,321.7336 281.9964,304.7985 213.3028,37.2549 181.7597,35.2704 80.0758,292.0948 104.4282,312.2408"/>
    <polygon points="338.0795,167.3709 77.8843,289.8095 216.4191,37.8156 252.4603,323.1116 55.6095,113.4868"/>
    <polygon points="339.0645,178.4067 314.8817,103.9798"/>
    <polygon points="339.2634,187.902 217.9726,334.5174 66.7197,96.181 251.0243,48.8596 233.2999,330.582 56.3795,260.5343 236.3112,43.0342 338.2697,203.6952 64.8586,273.8953 76.8066,83.988"/>
    <polygon points="339.139,192.6497 293.8664,78.3041 62.1686,269.9812 166.0056,335.8782 240.7881,44.6196 118.0489,52.3417 228.7461,331.9309 323.5052,253.5393 69.6109,92.4131 39.0266,211.5312"/>
    <polygon points="339.0645,194.2311 314.8817,268.658"/>
    <polygon points="337.6498,208.4039 329.7899,239.0164 54.1133,256.3605 42.4786,226.9745 255.311,50.9042 281.9964,67.8393 213.3028,335.3829 181.7597,337.3674 80.0758,80.543 104.4282,60.3969"/>
    <polygon points="336.5938,214.6474 324.8833,121.9491 260.9226,53.8379 169.1425,36.3299 84.6,76.1126 39.5873,157.9904 51.2978,250.6887 115.2585,318.7999 207.0386,336.3079 291.5811,296.5252"/>
    <polygon points="331.8723,233.0364 44.3088,139.6014"/>
    <polygon points="329.2303,240.4974 92.9492,68.8291"/>
    <polygon points="328.6552,241.9724 284.457,69.8319 107.0837,58.6725 41.6591,223.9161 178.5978,337.2017"/>
    <line x1="310.3986" x2="310.3986" y1="275.1809" y2="275.1809"/>
    <polygon points="305.5803,281.4602 242.269,327.4586"/>
    <polygon points="289.2505,298.6684 40.2131,217.7512"/>
    <polygon points="288.0684,299.7215 128.0493,47.5717 173.8632,35.8087 155.1114,333.8591 111.1331,316.4468 301.4932,86.341 326.8377,126.2776 37.5804,200.5463 40.5504,153.3398 318.2185,263.2763"/>
    <polygon points="284.457,302.8059 107.0837,313.9653 41.6591,148.7217 178.5978,35.4361 328.6552,130.6654"/>
    <polygon points="283.2319,303.8087 46.9508,132.1404"/>
    <polygon points="275.6669,309.5508 290.4214,75.0349 189.6737,35.1461 39.8921,216.201 97.9526,307.6897 325.5499,249.2527 332.3537,141.1096 113.8752,54.6078 44.8059,138.0983 170.7142,336.4981"/>
    <polygon points="270.4297,313.11 180.1783,35.345"/>
    <polygon points="269.0974,313.9653 334.522,148.7217 197.5833,35.4361 47.5259,130.6654 91.7241,302.8059"/>
    <polygon points="266.4064,315.6338 67.6703,277.7229 335.2773,151.7966 237.809,329.0908 200.7411,35.668 339.2385,183.1528 48.7223,127.7339 231.7867,41.5903 89.3057,300.7622 63.9483,100.0378"/>
    <polygon points="263.6811,317.2456 263.6811,55.3922"/>
    <polygon points="259.5313,319.5553 37.3154,197.3911 336.8823,159.547 152.0288,333.136 208.6082,36.5365 316.5783,265.9847 51.9794,120.5202 303.5621,88.7379 83.4516,295.4354 130.9682,46.3448"/>
    <polygon points="256.7253,321.0222 322.7939,117.6841"/>
    <polygon points="249.5814,324.4297 338.4435,202.1216"/>
    <polygon points="248.1318,325.0661 202.3179,336.8291 221.0697,38.7787 265.048,56.191 74.6879,286.2968 49.3434,246.3602 338.6007,172.0915 335.6307,219.298 57.9626,109.3615 88.1127,72.9163"/>
    <polygon points="240.7881,328.0182 118.0489,320.2961 228.7461,40.7069 323.5052,119.0985 69.6109,280.2247 39.0266,161.1066 339.139,179.9881 293.8664,294.3337 62.1686,102.6566 166.0056,36.7596"/>
    <line x1="234.8081" x2="234.8081" y1="330.1007" y2="330.1007"/>
    <polygon points="227.2191,332.3486 148.962,332.3486"/>
    <polygon points="197.5833,337.2017 47.5259,241.9724 91.7241,69.8319 269.0974,58.6725 334.522,223.9161"/>
    <polygon points="196.0028,337.2928 105.7514,59.5278"/>
    <polygon points="191.2566,337.4668 129.5055,325.6872 332.8192,230.015 302.5339,285.1037 274.3717,62.1767 317.4055,108.003 96.6866,65.8986 153.5682,39.1322 45.3187,236.0373 37.4397,173.6684"/>
    <polygon points="186.5074,337.4917 336.289,156.4368 278.2285,64.9481 50.6312,123.3851 43.8274,231.5282 262.3059,318.03 331.3752,234.5395 205.4669,36.1397 100.5142,63.087 85.7597,297.6029"/>
    <polygon points="177.0183,337.094 161.3187,335.1107 41.2734,222.3806 38.3082,206.8365 108.4248,57.8312 122.2918,50.2077 285.6716,70.8474 297.2071,81.6799 328.0647,243.4413 321.327,257.7596"/>
    <polygon points="164.4406,335.6387 337.4104,209.9688"/>
    <polygon points="156.6582,334.1963 300.44,287.4788"/>
    <polygon points="144.3944,331.0475 286.8754,71.8756 312.2328,272.6 109.7747,57.004 308.5108,94.9149 40.9038,220.8412 138.3721,43.547 175.44,336.9698 36.9426,189.485 327.4588,244.9039"/>
    <line x1="141.373" x2="141.373" y1="330.1007" y2="330.1007"/>
    <polygon points="88.878,337.5 89.4685,340.4528 90.6496,342.2244 92.4213,342.815 93.6024,342.815 95.374,342.2244 96.5551,340.4528 97.1457,337.5 97.1457,335.7283 96.5551,332.7756 95.374,331.0039 93.6024,330.4134 92.4213,330.4134 90.6496,331.0039 89.4685,332.7756 88.878,335.7283"/>
    <polygon points="83.563,331.0039 81.7913,330.4134 80.6102,330.4134 78.8386,331.0039 77.6575,332.7756 77.0669,335.7283 77.0669,337.5 77.6575,340.4528 78.8386,342.2244 80.6102,342.815 81.7913,342.815 83.563,342.2244 84.7441,340.4528 85.3346,337.5 85.3346,335.7283 84.7441,332.7756"/>
    <polyline points="72.9331,332.185 72.3425,331.0039 70.5709,330.4134 69.3898,330.4134 67.6181,331.0039 66.437,332.7756 65.8465,335.7283 65.8465,338.6811 66.437,341.0433 67.6181,342.2244 69.3898,342.815 71.752,342.2244 72.9331,341.0433 73.5236,339.2717 72.9331,336.9094 71.752,335.7283 69.9803,335.1378 67.6181,335.7283 66.437,336.9094 65.8465,338.6811"/>
    <line x1="61.122" x2="50.4921" y1="339.2717" y2="339.2717"/>
    <line x1="50.4921" x2="61.122" y1="335.7283" y2="335.7283"/>
    <polyline points="45.7677,342.815 45.7677,336.9094 45.1772,335.1378 43.9961,334.5472 42.2244,334.5472 41.0433,335.1378 39.2717,336.9094"/>
    <line x1="39.2717" x2="39.2717" y1="334.5472" y2="342.815"/>
    <line x1="287.3031" x2="293.7992" y1="342.815" y2="334.5472"/>
    <line x1="297.9331" x2="308.563" y1="335.7283" y2="335.7283"/>
    <line x1="308.563" x2="297.9331" y1="339.2717" y2="339.2717"/>
    <line x1="293.7992" x2="287.3031" y1="342.815" y2="334.5472"/>
    <polyline points="314.4685,332.7756 315.6496,332.185 317.4213,330.4134 317.4213,342.815"/>
    <polyline points="324.5079,340.4528 325.689,342.2244 327.4606,342.815 329.2323,342.815 331.0039,342.2244 332.185,341.0433 332.7756,339.2717 332.7756,338.0906 332.185,336.3189 331.5945,335.7283 330.4134,335.1378 328.6417,335.1378 332.185,330.4134 325.689,330.4134"/>
    <polyline points="338.0906,332.7756 339.2717,332.185 341.0433,330.4134 341.0433,342.815"/>
  </g>
</svg>
