<?xml version="1.0" encoding="utf-8" ?>
<svg xmlns="http://www.w3.org/2000/svg" xmlns:cc="http://creativecommons.org/ns" xmlns:dc="http://purl.org/dc/elements/1.1/" xmlns:ev="http://www.w3.org/2001/xml-events" xmlns:inkscape="http://www.inkscape.org/namespaces/inkscape" xmlns:rdf="http://www.w3.org/1999/02/22-rdf-syntax-ns" xmlns:sodipodi="http://sodipodi.sourceforge.net/DTD/sodipodi-0.dtd" xmlns:xlink="http://www.w3.org/1999/xlink" baseProfile="tiny" height="10.0cm" version="1.2" viewBox="0 0 377.95275590551176 377.95275590551176" width="10.0cm">
  <metadata>
    <rdf:RDF>
      <cc:Work>
        <dc:format>image/svg+xml</dc:format>
        <dc:source>Vsketch with params {'__seed__': 0, 'r': 4.0, 'multiplier': 1, 'n': 600}</dc:source>
        <dc:date>2025-04-26T20:23:21.551514</dc:date>
      </cc:Work>
    </rdf:RDF>
  </metadata>
  <defs/>
  <g fill="none" id="layer1" inkscape:groupmode="layer" inkscape:label="1" stroke="#0000ff" stroke-width="1.1339" style="display:inline">
    <polygon points="130.4543,326.0822 144.3293,331.0278 158.9904,334.6729 173.566,336.8007 188.2795,337.4999 203.3671,336.7262 217.9319,334.5256 232.2133,330.918 246.0759,325.9377 259.3881,319.632 272.0234,312.0607 284.1539,303.056 295.0585,293.1533 305.187,281.9439 313.9372,270.0945 321.4927,257.4498 327.7817,244.1298 332.8541,229.8993 336.4081,215.6044 338.5541,201.0315 339.2717,186.3189 338.5168,171.2303 336.3344,156.6628 332.7447,142.3768 327.7817,128.508 321.4927,115.188 313.7274,102.229 304.9476,90.4015 295.0585,79.4845 284.1539,69.5818 272.3374,60.7872 259.3881,53.0058 246.0759,46.7001 232.2133,41.7198 217.5614,38.0381 202.9911,35.8739 188.2795,35.1379 173.19,35.8739 158.6197,38.0381 144.3293,41.61 130.4543,46.5556 116.793,53.0058 104.1577,60.5771 92.3193,69.342 81.3899,79.2175 71.4736,90.1097 62.6643,101.9153 54.8666,114.8548 48.5443,128.1591 43.5467,142.0155 39.8467,156.6628 37.6643,171.2303 36.9094,186.3189 37.627,201.0315 39.773,215.6044 43.327,229.8993 48.3994,244.1298 54.6884,257.4498 62.2439,270.0945 71.2335,282.2363 81.1226,293.1533 92.3193,303.2957 104.1577,312.0607 116.793,319.632"/>
    <line x1="130.9682" x2="130.9682" y1="326.293" y2="326.293"/>
    <line x1="129.5055" x2="129.5055" y1="325.6872" y2="325.6872"/>
    <line x1="128.0493" x2="128.0493" y1="325.0661" y2="325.0661"/>
    <line x1="126.5997" x2="126.5997" y1="324.4297" y2="324.4297"/>
    <line x1="125.1568" x2="125.1568" y1="323.7782" y2="323.7782"/>
    <line x1="123.7208" x2="123.7208" y1="323.1116" y2="323.1116"/>
    <line x1="122.2918" x2="122.2918" y1="322.4301" y2="322.4301"/>
    <line x1="120.8701" x2="120.8701" y1="321.7336" y2="321.7336"/>
    <line x1="119.4558" x2="119.4558" y1="321.0222" y2="321.0222"/>
    <line x1="118.0489" x2="118.0489" y1="320.2961" y2="320.2961"/>
    <line x1="116.6498" x2="116.6498" y1="319.5553" y2="319.5553"/>
    <line x1="115.2585" x2="115.2585" y1="318.7999" y2="318.7999"/>
    <line x1="113.8752" x2="113.8752" y1="318.03" y2="318.03"/>
    <line x1="112.5" x2="112.5" y1="317.2456" y2="317.2456"/>
    <line x1="111.1331" x2="111.1331" y1="316.4468" y2="316.4468"/>
    <line x1="109.7747" x2="109.7747" y1="315.6338" y2="315.6338"/>
    <line x1="108.4248" x2="108.4248" y1="314.8066" y2="314.8066"/>
    <line x1="107.0837" x2="107.0837" y1="313.9653" y2="313.9653"/>
    <line x1="105.7514" x2="105.7514" y1="313.11" y2="313.11"/>
    <line x1="104.4282" x2="104.4282" y1="312.2408" y2="312.2408"/>
    <line x1="103.1142" x2="103.1142" y1="311.3579" y2="311.3579"/>
    <line x1="101.8094" x2="101.8094" y1="310.4611" y2="310.4611"/>
    <line x1="100.5142" x2="100.5142" y1="309.5508" y2="309.5508"/>
    <line x1="99.2285" x2="99.2285" y1="308.627" y2="308.627"/>
    <line x1="97.9526" x2="97.9526" y1="307.6897" y2="307.6897"/>
    <line x1="96.6866" x2="96.6866" y1="306.7392" y2="306.7392"/>
    <line x1="95.4306" x2="95.4306" y1="305.7754" y2="305.7754"/>
    <line x1="94.1847" x2="94.1847" y1="304.7985" y2="304.7985"/>
    <line x1="92.9492" x2="92.9492" y1="303.8087" y2="303.8087"/>
    <line x1="91.7241" x2="91.7241" y1="302.8059" y2="302.8059"/>
    <line x1="90.5095" x2="90.5095" y1="301.7904" y2="301.7904"/>
    <line x1="89.3057" x2="89.3057" y1="300.7622" y2="300.7622"/>
    <line x1="88.1127" x2="88.1127" y1="299.7215" y2="299.7215"/>
    <line x1="86.9306" x2="86.9306" y1="298.6684" y2="298.6684"/>
    <line x1="85.7597" x2="85.7597" y1="297.6029" y2="297.6029"/>
    <line x1="84.6" x2="84.6" y1="296.5252" y2="296.5252"/>
    <line x1="83.4516" x2="83.4516" y1="295.4354" y2="295.4354"/>
    <line x1="82.3147" x2="82.3147" y1="294.3337" y2="294.3337"/>
    <line x1="81.1894" x2="81.1894" y1="293.2201" y2="293.2201"/>
    <line x1="80.0758" x2="80.0758" y1="292.0948" y2="292.0948"/>
    <line x1="78.974" x2="78.974" y1="290.9579" y2="290.9579"/>
    <line x1="77.8843" x2="77.8843" y1="289.8095" y2="289.8095"/>
    <line x1="76.8066" x2="76.8066" y1="288.6498" y2="288.6498"/>
    <line x1="75.7411" x2="75.7411" y1="287.4788" y2="287.4788"/>
    <line x1="74.6879" x2="74.6879" y1="286.2968" y2="286.2968"/>
    <line x1="73.6472" x2="73.6472" y1="285.1037" y2="285.1037"/>
    <line x1="72.619" x2="72.619" y1="283.8999" y2="283.8999"/>
    <line x1="71.6035" x2="71.6035" y1="282.6854" y2="282.6854"/>
    <line x1="70.6008" x2="70.6008" y1="281.4602" y2="281.4602"/>
    <line x1="69.6109" x2="69.6109" y1="280.2247" y2="280.2247"/>
    <line x1="68.634" x2="68.634" y1="278.9789" y2="278.9789"/>
    <line x1="67.6703" x2="67.6703" y1="277.7229" y2="277.7229"/>
    <line x1="66.7197" x2="66.7197" y1="276.4568" y2="276.4568"/>
    <line x1="65.7825" x2="65.7825" y1="275.1809" y2="275.1809"/>
    <line x1="64.8586" x2="64.8586" y1="273.8953" y2="273.8953"/>
    <line x1="63.9483" x2="63.9483" y1="272.6" y2="272.6"/>
    <line x1="63.0516" x2="63.0516" y1="271.2953" y2="271.2953"/>
    <line x1="62.1686" x2="62.1686" y1="269.9812" y2="269.9812"/>
    <line x1="61.2994" x2="61.2994" y1="268.658" y2="268.658"/>
    <line x1="60.4441" x2="60.4441" y1="267.3258" y2="267.3258"/>
    <line x1="59.6028" x2="59.6028" y1="265.9847" y2="265.9847"/>
    <line x1="58.7756" x2="58.7756" y1="264.6348" y2="264.6348"/>
    <line x1="57.9626" x2="57.9626" y1="263.2763" y2="263.2763"/>
    <line x1="57.1639" x2="57.1639" y1="261.9094" y2="261.9094"/>
    <line x1="56.3795" x2="56.3795" y1="260.5343" y2="260.5343"/>
    <line x1="55.6095" x2="55.6095" y1="259.1509" y2="259.1509"/>
    <line x1="54.8541" x2="54.8541" y1="257.7596" y2="257.7596"/>
    <line x1="54.1133" x2="54.1133" y1="256.3605" y2="256.3605"/>
    <line x1="53.3872" x2="53.3872" y1="254.9537" y2="254.9537"/>
    <line x1="52.6759" x2="52.6759" y1="253.5393" y2="253.5393"/>
    <line x1="51.9794" x2="51.9794" y1="252.1176" y2="252.1176"/>
    <line x1="51.2978" x2="51.2978" y1="250.6887" y2="250.6887"/>
    <line x1="50.6312" x2="50.6312" y1="249.2527" y2="249.2527"/>
    <line x1="49.9797" x2="49.9797" y1="247.8098" y2="247.8098"/>
    <line x1="49.3434" x2="49.3434" y1="246.3602" y2="246.3602"/>
    <line x1="48.7223" x2="48.7223" y1="244.9039" y2="244.9039"/>
    <line x1="48.1164" x2="48.1164" y1="243.4413" y2="243.4413"/>
    <line x1="47.5259" x2="47.5259" y1="241.9724" y2="241.9724"/>
    <line x1="46.9508" x2="46.9508" y1="240.4974" y2="240.4974"/>
    <line x1="46.3912" x2="46.3912" y1="239.0164" y2="239.0164"/>
    <line x1="45.8472" x2="45.8472" y1="237.5297" y2="237.5297"/>
    <line x1="45.3187" x2="45.3187" y1="236.0373" y2="236.0373"/>
    <line x1="44.8059" x2="44.8059" y1="234.5395" y2="234.5395"/>
    <line x1="44.3088" x2="44.3088" y1="233.0364" y2="233.0364"/>
    <line x1="43.8274" x2="43.8274" y1="231.5282" y2="231.5282"/>
    <line x1="43.3619" x2="43.3619" y1="230.015" y2="230.015"/>
    <line x1="42.9123" x2="42.9123" y1="228.4971" y2="228.4971"/>
    <line x1="42.4786" x2="42.4786" y1="226.9745" y2="226.9745"/>
    <line x1="42.0608" x2="42.0608" y1="225.4474" y2="225.4474"/>
    <line x1="41.6591" x2="41.6591" y1="223.9161" y2="223.9161"/>
    <line x1="41.2734" x2="41.2734" y1="222.3806" y2="222.3806"/>
    <line x1="40.9038" x2="40.9038" y1="220.8412" y2="220.8412"/>
    <line x1="40.5504" x2="40.5504" y1="219.298" y2="219.298"/>
    <line x1="40.2131" x2="40.2131" y1="217.7512" y2="217.7512"/>
    <line x1="39.8921" x2="39.8921" y1="216.201" y2="216.201"/>
    <line x1="39.5873" x2="39.5873" y1="214.6474" y2="214.6474"/>
    <line x1="39.2988" x2="39.2988" y1="213.0908" y2="213.0908"/>
    <line x1="39.0266" x2="39.0266" y1="211.5312" y2="211.5312"/>
    <line x1="38.7707" x2="38.7707" y1="209.9688" y2="209.9688"/>
    <line x1="38.5313" x2="38.5313" y1="208.4039" y2="208.4039"/>
    <line x1="38.3082" x2="38.3082" y1="206.8365" y2="206.8365"/>
    <line x1="38.1016" x2="38.1016" y1="205.2669" y2="205.2669"/>
    <line x1="37.9114" x2="37.9114" y1="203.6952" y2="203.6952"/>
    <line x1="37.7376" x2="37.7376" y1="202.1216" y2="202.1216"/>
    <line x1="37.5804" x2="37.5804" y1="200.5463" y2="200.5463"/>
    <line x1="37.4397" x2="37.4397" y1="198.9694" y2="198.9694"/>
    <line x1="37.3154" x2="37.3154" y1="197.3911" y2="197.3911"/>
    <line x1="37.2078" x2="37.2078" y1="195.8116" y2="195.8116"/>
    <line x1="37.1166" x2="37.1166" y1="194.2311" y2="194.2311"/>
    <line x1="37.0421" x2="37.0421" y1="192.6497" y2="192.6497"/>
    <line x1="36.984" x2="36.984" y1="191.0676" y2="191.0676"/>
    <line x1="36.9426" x2="36.9426" y1="189.485" y2="189.485"/>
    <line x1="36.9177" x2="36.9177" y1="187.902" y2="187.902"/>
    <line x1="36.9094" x2="36.9094" y1="186.3189" y2="186.3189"/>
    <line x1="36.9177" x2="36.9177" y1="184.7358" y2="184.7358"/>
    <line x1="36.9426" x2="36.9426" y1="183.1528" y2="183.1528"/>
    <line x1="36.984" x2="36.984" y1="181.5702" y2="181.5702"/>
    <line x1="37.0421" x2="37.0421" y1="179.9881" y2="179.9881"/>
    <line x1="37.1166" x2="37.1166" y1="178.4067" y2="178.4067"/>
    <line x1="37.2078" x2="37.2078" y1="176.8262" y2="176.8262"/>
    <line x1="37.3154" x2="37.3154" y1="175.2467" y2="175.2467"/>
    <line x1="37.4397" x2="37.4397" y1="173.6684" y2="173.6684"/>
    <line x1="37.5804" x2="37.5804" y1="172.0915" y2="172.0915"/>
    <line x1="37.7376" x2="37.7376" y1="170.5162" y2="170.5162"/>
    <line x1="37.9114" x2="37.9114" y1="168.9426" y2="168.9426"/>
    <line x1="38.1016" x2="38.1016" y1="167.3709" y2="167.3709"/>
    <line x1="38.3082" x2="38.3082" y1="165.8013" y2="165.8013"/>
    <line x1="38.5313" x2="38.5313" y1="164.2339" y2="164.2339"/>
    <line x1="38.7707" x2="38.7707" y1="162.669" y2="162.669"/>
    <line x1="39.0266" x2="39.0266" y1="161.1066" y2="161.1066"/>
    <line x1="39.2988" x2="39.2988" y1="159.547" y2="159.547"/>
    <line x1="39.5873" x2="39.5873" y1="157.9904" y2="157.9904"/>
    <line x1="39.8921" x2="39.8921" y1="156.4368" y2="156.4368"/>
    <line x1="40.2131" x2="40.2131" y1="154.8866" y2="154.8866"/>
    <line x1="40.5504" x2="40.5504" y1="153.3398" y2="153.3398"/>
    <line x1="40.9038" x2="40.9038" y1="151.7966" y2="151.7966"/>
    <line x1="41.2734" x2="41.2734" y1="150.2571" y2="150.2571"/>
    <line x1="41.6591" x2="41.6591" y1="148.7217" y2="148.7217"/>
    <line x1="42.0608" x2="42.0608" y1="147.1903" y2="147.1903"/>
    <line x1="42.4786" x2="42.4786" y1="145.6633" y2="145.6633"/>
    <line x1="42.9123" x2="42.9123" y1="144.1407" y2="144.1407"/>
    <line x1="43.3619" x2="43.3619" y1="142.6228" y2="142.6228"/>
    <line x1="43.8274" x2="43.8274" y1="141.1096" y2="141.1096"/>
    <line x1="44.3088" x2="44.3088" y1="139.6014" y2="139.6014"/>
    <line x1="44.8059" x2="44.8059" y1="138.0983" y2="138.0983"/>
    <line x1="45.3187" x2="45.3187" y1="136.6005" y2="136.6005"/>
    <line x1="45.8472" x2="45.8472" y1="135.1081" y2="135.1081"/>
    <line x1="46.3912" x2="46.3912" y1="133.6214" y2="133.6214"/>
    <line x1="46.9508" x2="46.9508" y1="132.1404" y2="132.1404"/>
    <line x1="47.5259" x2="47.5259" y1="130.6654" y2="130.6654"/>
    <line x1="48.1164" x2="48.1164" y1="129.1965" y2="129.1965"/>
    <line x1="48.7223" x2="48.7223" y1="127.7339" y2="127.7339"/>
    <line x1="49.3434" x2="49.3434" y1="126.2776" y2="126.2776"/>
    <line x1="49.9797" x2="49.9797" y1="124.828" y2="124.828"/>
    <line x1="50.6312" x2="50.6312" y1="123.3851" y2="123.3851"/>
    <line x1="51.2978" x2="51.2978" y1="121.9491" y2="121.9491"/>
    <line x1="51.9794" x2="51.9794" y1="120.5202" y2="120.5202"/>
    <line x1="52.6759" x2="52.6759" y1="119.0985" y2="119.0985"/>
    <line x1="53.3872" x2="53.3872" y1="117.6841" y2="117.6841"/>
    <line x1="54.1133" x2="54.1133" y1="116.2773" y2="116.2773"/>
    <line x1="54.8541" x2="54.8541" y1="114.8782" y2="114.8782"/>
    <line x1="55.6095" x2="55.6095" y1="113.4868" y2="113.4868"/>
    <line x1="56.3795" x2="56.3795" y1="112.1035" y2="112.1035"/>
    <line x1="57.1639" x2="57.1639" y1="110.7283" y2="110.7283"/>
    <line x1="57.9626" x2="57.9626" y1="109.3615" y2="109.3615"/>
    <line x1="58.7756" x2="58.7756" y1="108.003" y2="108.003"/>
    <line x1="59.6028" x2="59.6028" y1="106.6531" y2="106.6531"/>
    <line x1="60.4441" x2="60.4441" y1="105.312" y2="105.312"/>
    <line x1="61.2994" x2="61.2994" y1="103.9798" y2="103.9798"/>
    <line x1="62.1686" x2="62.1686" y1="102.6566" y2="102.6566"/>
    <line x1="63.0516" x2="63.0516" y1="101.3425" y2="101.3425"/>
    <line x1="63.9483" x2="63.9483" y1="100.0378" y2="100.0378"/>
    <line x1="64.8586" x2="64.8586" y1="98.7425" y2="98.7425"/>
    <line x1="65.7825" x2="65.7825" y1="97.4569" y2="97.4569"/>
    <line x1="66.7197" x2="66.7197" y1="96.181" y2="96.181"/>
    <line x1="67.6703" x2="67.6703" y1="94.9149" y2="94.9149"/>
    <line x1="68.634" x2="68.634" y1="93.6589" y2="93.6589"/>
    <line x1="69.6109" x2="69.6109" y1="92.4131" y2="92.4131"/>
    <line x1="70.6008" x2="70.6008" y1="91.1775" y2="91.1775"/>
    <line x1="71.6035" x2="71.6035" y1="89.9524" y2="89.9524"/>
    <line x1="72.619" x2="72.619" y1="88.7379" y2="88.7379"/>
    <line x1="73.6472" x2="73.6472" y1="87.5341" y2="87.5341"/>
    <line x1="74.6879" x2="74.6879" y1="86.341" y2="86.341"/>
    <line x1="75.7411" x2="75.7411" y1="85.159" y2="85.159"/>
    <line x1="76.8066" x2="76.8066" y1="83.988" y2="83.988"/>
    <line x1="77.8843" x2="77.8843" y1="82.8283" y2="82.8283"/>
    <line x1="78.974" x2="78.974" y1="81.6799" y2="81.6799"/>
    <line x1="80.0758" x2="80.0758" y1="80.543" y2="80.543"/>
    <line x1="81.1894" x2="81.1894" y1="79.4177" y2="79.4177"/>
    <line x1="82.3147" x2="82.3147" y1="78.3041" y2="78.3041"/>
    <line x1="83.4516" x2="83.4516" y1="77.2024" y2="77.2024"/>
    <line x1="84.6" x2="84.6" y1="76.1126" y2="76.1126"/>
    <line x1="85.7597" x2="85.7597" y1="75.0349" y2="75.0349"/>
    <line x1="86.9306" x2="86.9306" y1="73.9694" y2="73.9694"/>
    <line x1="88.1127" x2="88.1127" y1="72.9163" y2="72.9163"/>
    <line x1="89.3057" x2="89.3057" y1="71.8756" y2="71.8756"/>
    <line x1="90.5095" x2="90.5095" y1="70.8474" y2="70.8474"/>
    <line x1="91.7241" x2="91.7241" y1="69.8319" y2="69.8319"/>
    <line x1="92.9492" x2="92.9492" y1="68.8291" y2="68.8291"/>
    <line x1="94.1847" x2="94.1847" y1="67.8393" y2="67.8393"/>
    <line x1="95.4306" x2="95.4306" y1="66.8624" y2="66.8624"/>
    <line x1="96.6866" x2="96.6866" y1="65.8986" y2="65.8986"/>
    <line x1="97.9526" x2="97.9526" y1="64.9481" y2="64.9481"/>
    <line x1="99.2285" x2="99.2285" y1="64.0108" y2="64.0108"/>
    <line x1="100.5142" x2="100.5142" y1="63.087" y2="63.087"/>
    <line x1="101.8094" x2="101.8094" y1="62.1767" y2="62.1767"/>
    <line x1="103.1142" x2="103.1142" y1="61.2799" y2="61.2799"/>
    <line x1="104.4282" x2="104.4282" y1="60.3969" y2="60.3969"/>
    <line x1="105.7514" x2="105.7514" y1="59.5278" y2="59.5278"/>
    <line x1="107.0837" x2="107.0837" y1="58.6725" y2="58.6725"/>
    <line x1="108.4248" x2="108.4248" y1="57.8312" y2="57.8312"/>
    <line x1="109.7747" x2="109.7747" y1="57.004" y2="57.004"/>
    <line x1="111.1331" x2="111.1331" y1="56.191" y2="56.191"/>
    <line x1="112.5" x2="112.5" y1="55.3922" y2="55.3922"/>
    <line x1="113.8752" x2="113.8752" y1="54.6078" y2="54.6078"/>
    <line x1="115.2585" x2="115.2585" y1="53.8379" y2="53.8379"/>
    <line x1="116.6498" x2="116.6498" y1="53.0825" y2="53.0825"/>
    <line x1="118.0489" x2="118.0489" y1="52.3417" y2="52.3417"/>
    <line x1="119.4558" x2="119.4558" y1="51.6155" y2="51.6155"/>
    <line x1="120.8701" x2="120.8701" y1="50.9042" y2="50.9042"/>
    <line x1="122.2918" x2="122.2918" y1="50.2077" y2="50.2077"/>
    <line x1="123.7208" x2="123.7208" y1="49.5261" y2="49.5261"/>
    <line x1="125.1568" x2="125.1568" y1="48.8596" y2="48.8596"/>
    <line x1="126.5997" x2="126.5997" y1="48.2081" y2="48.2081"/>
    <line x1="128.0493" x2="128.0493" y1="47.5717" y2="47.5717"/>
    <line x1="129.5055" x2="129.5055" y1="46.9506" y2="46.9506"/>
    <line x1="130.9682" x2="130.9682" y1="46.3448" y2="46.3448"/>
    <line x1="132.4371" x2="132.4371" y1="45.7543" y2="45.7543"/>
    <line x1="133.9121" x2="133.9121" y1="45.1792" y2="45.1792"/>
    <line x1="135.393" x2="135.393" y1="44.6196" y2="44.6196"/>
    <line x1="136.8798" x2="136.8798" y1="44.0755" y2="44.0755"/>
    <line x1="138.3721" x2="138.3721" y1="43.547" y2="43.547"/>
    <line x1="139.8699" x2="139.8699" y1="43.0342" y2="43.0342"/>
    <line x1="141.373" x2="141.373" y1="42.5371" y2="42.5371"/>
    <line x1="142.8812" x2="142.8812" y1="42.0558" y2="42.0558"/>
    <line x1="144.3944" x2="144.3944" y1="41.5903" y2="41.5903"/>
    <line x1="145.9124" x2="145.9124" y1="41.1406" y2="41.1406"/>
    <line x1="147.435" x2="147.435" y1="40.7069" y2="40.7069"/>
    <line x1="148.962" x2="148.962" y1="40.2892" y2="40.2892"/>
    <line x1="150.4933" x2="150.4933" y1="39.8874" y2="39.8874"/>
    <line x1="152.0288" x2="152.0288" y1="39.5017" y2="39.5017"/>
    <line x1="153.5682" x2="153.5682" y1="39.1322" y2="39.1322"/>
    <line x1="155.1114" x2="155.1114" y1="38.7787" y2="38.7787"/>
    <line x1="156.6582" x2="156.6582" y1="38.4415" y2="38.4415"/>
    <line x1="158.2085" x2="158.2085" y1="38.1204" y2="38.1204"/>
    <line x1="159.762" x2="159.762" y1="37.8156" y2="37.8156"/>
    <line x1="161.3187" x2="161.3187" y1="37.5271" y2="37.5271"/>
    <line x1="162.8783" x2="162.8783" y1="37.2549" y2="37.2549"/>
    <line x1="164.4406" x2="164.4406" y1="36.9991" y2="36.9991"/>
    <line x1="166.0056" x2="166.0056" y1="36.7596" y2="36.7596"/>
    <line x1="167.5729" x2="167.5729" y1="36.5365" y2="36.5365"/>
    <line x1="169.1425" x2="169.1425" y1="36.3299" y2="36.3299"/>
    <line x1="170.7142" x2="170.7142" y1="36.1397" y2="36.1397"/>
    <line x1="172.2878" x2="172.2878" y1="35.966" y2="35.966"/>
    <line x1="173.8632" x2="173.8632" y1="35.8087" y2="35.8087"/>
    <line x1="175.44" x2="175.44" y1="35.668" y2="35.668"/>
    <line x1="177.0183" x2="177.0183" y1="35.5438" y2="35.5438"/>
    <line x1="178.5978" x2="178.5978" y1="35.4361" y2="35.4361"/>
    <line x1="180.1783" x2="180.1783" y1="35.345" y2="35.345"/>
    <line x1="181.7597" x2="181.7597" y1="35.2704" y2="35.2704"/>
    <line x1="183.3418" x2="183.3418" y1="35.2124" y2="35.2124"/>
    <line x1="184.9245" x2="184.9245" y1="35.171" y2="35.171"/>
    <line x1="186.5074" x2="186.5074" y1="35.1461" y2="35.1461"/>
    <line x1="188.0906" x2="188.0906" y1="35.1378" y2="35.1378"/>
    <line x1="189.6737" x2="189.6737" y1="35.1461" y2="35.1461"/>
    <line x1="191.2566" x2="191.2566" y1="35.171" y2="35.171"/>
    <line x1="192.8393" x2="192.8393" y1="35.2124" y2="35.2124"/>
    <line x1="194.4214" x2="194.4214" y1="35.2704" y2="35.2704"/>
    <line x1="196.0028" x2="196.0028" y1="35.345" y2="35.345"/>
    <line x1="197.5833" x2="197.5833" y1="35.4361" y2="35.4361"/>
    <line x1="199.1628" x2="199.1628" y1="35.5438" y2="35.5438"/>
    <line x1="200.7411" x2="200.7411" y1="35.668" y2="35.668"/>
    <line x1="202.3179" x2="202.3179" y1="35.8087" y2="35.8087"/>
    <line x1="203.8933" x2="203.8933" y1="35.966" y2="35.966"/>
    <line x1="205.4669" x2="205.4669" y1="36.1397" y2="36.1397"/>
    <line x1="207.0386" x2="207.0386" y1="36.3299" y2="36.3299"/>
    <line x1="208.6082" x2="208.6082" y1="36.5365" y2="36.5365"/>
    <line x1="210.1755" x2="210.1755" y1="36.7596" y2="36.7596"/>
    <line x1="211.7405" x2="211.7405" y1="36.9991" y2="36.9991"/>
    <line x1="213.3028" x2="213.3028" y1="37.2549" y2="37.2549"/>
    <line x1="214.8624" x2="214.8624" y1="37.5271" y2="37.5271"/>
    <line x1="216.4191" x2="216.4191" y1="37.8156" y2="37.8156"/>
    <line x1="217.9726" x2="217.9726" y1="38.1204" y2="38.1204"/>
    <line x1="219.5229" x2="219.5229" y1="38.4415" y2="38.4415"/>
    <line x1="221.0697" x2="221.0697" y1="38.7787" y2="38.7787"/>
    <line x1="222.6129" x2="222.6129" y1="39.1322" y2="39.1322"/>
    <line x1="224.1523" x2="224.1523" y1="39.5017" y2="39.5017"/>
    <line x1="225.6878" x2="225.6878" y1="39.8874" y2="39.8874"/>
    <line x1="227.2191" x2="227.2191" y1="40.2892" y2="40.2892"/>
    <line x1="228.7461" x2="228.7461" y1="40.7069" y2="40.7069"/>
    <line x1="230.2687" x2="230.2687" y1="41.1406" y2="41.1406"/>
    <line x1="231.7867" x2="231.7867" y1="41.5903" y2="41.5903"/>
    <line x1="233.2999" x2="233.2999" y1="42.0558" y2="42.0558"/>
    <line x1="234.8081" x2="234.8081" y1="42.5371" y2="42.5371"/>
    <line x1="236.3112" x2="236.3112" y1="43.0342" y2="43.0342"/>
    <line x1="237.809" x2="237.809" y1="43.547" y2="43.547"/>
    <line x1="239.3013" x2="239.3013" y1="44.0755" y2="44.0755"/>
    <line x1="240.7881" x2="240.7881" y1="44.6196" y2="44.6196"/>
    <line x1="242.269" x2="242.269" y1="45.1792" y2="45.1792"/>
    <line x1="243.744" x2="243.744" y1="45.7543" y2="45.7543"/>
    <line x1="245.2129" x2="245.2129" y1="46.3448" y2="46.3448"/>
    <line x1="246.6756" x2="246.6756" y1="46.9506" y2="46.9506"/>
    <line x1="248.1318" x2="248.1318" y1="47.5717" y2="47.5717"/>
    <line x1="249.5814" x2="249.5814" y1="48.2081" y2="48.2081"/>
    <line x1="251.0243" x2="251.0243" y1="48.8596" y2="48.8596"/>
    <line x1="252.4603" x2="252.4603" y1="49.5261" y2="49.5261"/>
    <line x1="253.8893" x2="253.8893" y1="50.2077" y2="50.2077"/>
    <line x1="255.311" x2="255.311" y1="50.9042" y2="50.9042"/>
    <line x1="256.7253" x2="256.7253" y1="51.6155" y2="51.6155"/>
    <line x1="258.1322" x2="258.1322" y1="52.3417" y2="52.3417"/>
    <line x1="259.5313" x2="259.5313" y1="53.0825" y2="53.0825"/>
    <line x1="260.9226" x2="260.9226" y1="53.8379" y2="53.8379"/>
    <line x1="262.3059" x2="262.3059" y1="54.6078" y2="54.6078"/>
    <line x1="263.6811" x2="263.6811" y1="55.3922" y2="55.3922"/>
    <line x1="265.048" x2="265.048" y1="56.191" y2="56.191"/>
    <line x1="266.4064" x2="266.4064" y1="57.004" y2="57.004"/>
    <line x1="267.7563" x2="267.7563" y1="57.8312" y2="57.8312"/>
    <line x1="269.0974" x2="269.0974" y1="58.6725" y2="58.6725"/>
    <line x1="270.4297" x2="270.4297" y1="59.5278" y2="59.5278"/>
    <line x1="271.7529" x2="271.7529" y1="60.3969" y2="60.3969"/>
    <line x1="273.0669" x2="273.0669" y1="61.2799" y2="61.2799"/>
    <line x1="274.3717" x2="274.3717" y1="62.1767" y2="62.1767"/>
    <line x1="275.6669" x2="275.6669" y1="63.087" y2="63.087"/>
    <line x1="276.9526" x2="276.9526" y1="64.0108" y2="64.0108"/>
    <line x1="278.2285" x2="278.2285" y1="64.9481" y2="64.9481"/>
    <line x1="279.4945" x2="279.4945" y1="65.8986" y2="65.8986"/>
    <line x1="280.7505" x2="280.7505" y1="66.8624" y2="66.8624"/>
    <line x1="281.9964" x2="281.9964" y1="67.8393" y2="67.8393"/>
    <line x1="283.2319" x2="283.2319" y1="68.8291" y2="68.8291"/>
    <line x1="284.457" x2="284.457" y1="69.8319" y2="69.8319"/>
    <line x1="285.6716" x2="285.6716" y1="70.8474" y2="70.8474"/>
    <line x1="286.8754" x2="286.8754" y1="71.8756" y2="71.8756"/>
    <line x1="288.0684" x2="288.0684" y1="72.9163" y2="72.9163"/>
    <line x1="289.2505" x2="289.2505" y1="73.9694" y2="73.9694"/>
    <line x1="290.4214" x2="290.4214" y1="75.0349" y2="75.0349"/>
    <line x1="291.5811" x2="291.5811" y1="76.1126" y2="76.1126"/>
    <line x1="292.7295" x2="292.7295" y1="77.2024" y2="77.2024"/>
    <line x1="293.8664" x2="293.8664" y1="78.3041" y2="78.3041"/>
    <line x1="294.9917" x2="294.9917" y1="79.4177" y2="79.4177"/>
    <line x1="296.1053" x2="296.1053" y1="80.543" y2="80.543"/>
    <line x1="297.2071" x2="297.2071" y1="81.6799" y2="81.6799"/>
    <line x1="298.2968" x2="298.2968" y1="82.8283" y2="82.8283"/>
    <line x1="299.3745" x2="299.3745" y1="83.988" y2="83.988"/>
    <line x1="300.44" x2="300.44" y1="85.159" y2="85.159"/>
    <line x1="301.4932" x2="301.4932" y1="86.341" y2="86.341"/>
    <line x1="302.5339" x2="302.5339" y1="87.5341" y2="87.5341"/>
    <line x1="303.5621" x2="303.5621" y1="88.7379" y2="88.7379"/>
    <line x1="304.5776" x2="304.5776" y1="89.9524" y2="89.9524"/>
    <line x1="305.5803" x2="305.5803" y1="91.1775" y2="91.1775"/>
    <line x1="306.5702" x2="306.5702" y1="92.4131" y2="92.4131"/>
    <line x1="307.5471" x2="307.5471" y1="93.6589" y2="93.6589"/>
    <line x1="308.5108" x2="308.5108" y1="94.9149" y2="94.9149"/>
    <line x1="309.4614" x2="309.4614" y1="96.181" y2="96.181"/>
    <line x1="310.3986" x2="310.3986" y1="97.4569" y2="97.4569"/>
    <line x1="311.3225" x2="311.3225" y1="98.7425" y2="98.7425"/>
    <line x1="312.2328" x2="312.2328" y1="100.0378" y2="100.0378"/>
    <line x1="313.1295" x2="313.1295" y1="101.3425" y2="101.3425"/>
    <line x1="314.0125" x2="314.0125" y1="102.6566" y2="102.6566"/>
    <line x1="314.8817" x2="314.8817" y1="103.9798" y2="103.9798"/>
    <line x1="315.737" x2="315.737" y1="105.312" y2="105.312"/>
    <line x1="316.5783" x2="316.5783" y1="106.6531" y2="106.6531"/>
    <line x1="317.4055" x2="317.4055" y1="108.003" y2="108.003"/>
    <line x1="318.2185" x2="318.2185" y1="109.3615" y2="109.3615"/>
    <line x1="319.0172" x2="319.0172" y1="110.7283" y2="110.7283"/>
    <line x1="319.8016" x2="319.8016" y1="112.1035" y2="112.1035"/>
    <line x1="320.5716" x2="320.5716" y1="113.4868" y2="113.4868"/>
    <line x1="321.327" x2="321.327" y1="114.8782" y2="114.8782"/>
    <line x1="322.0678" x2="322.0678" y1="116.2773" y2="116.2773"/>
    <line x1="322.7939" x2="322.7939" y1="117.6841" y2="117.6841"/>
    <line x1="323.5052" x2="323.5052" y1="119.0985" y2="119.0985"/>
    <line x1="324.2017" x2="324.2017" y1="120.5202" y2="120.5202"/>
    <line x1="324.8833" x2="324.8833" y1="121.9491" y2="121.9491"/>
    <line x1="325.5499" x2="325.5499" y1="123.3851" y2="123.3851"/>
    <line x1="326.2014" x2="326.2014" y1="124.828" y2="124.828"/>
    <line x1="326.8377" x2="326.8377" y1="126.2776" y2="126.2776"/>
    <line x1="327.4588" x2="327.4588" y1="127.7339" y2="127.7339"/>
    <line x1="328.0647" x2="328.0647" y1="129.1965" y2="129.1965"/>
    <line x1="328.6552" x2="328.6552" y1="130.6654" y2="130.6654"/>
    <line x1="329.2303" x2="329.2303" y1="132.1404" y2="132.1404"/>
    <line x1="329.7899" x2="329.7899" y1="133.6214" y2="133.6214"/>
    <line x1="330.3339" x2="330.3339" y1="135.1081" y2="135.1081"/>
    <line x1="330.8624" x2="330.8624" y1="136.6005" y2="136.6005"/>
    <line x1="331.3752" x2="331.3752" y1="138.0983" y2="138.0983"/>
    <line x1="331.8723" x2="331.8723" y1="139.6014" y2="139.6014"/>
    <line x1="332.3537" x2="332.3537" y1="141.1096" y2="141.1096"/>
    <line x1="332.8192" x2="332.8192" y1="142.6228" y2="142.6228"/>
    <line x1="333.2688" x2="333.2688" y1="144.1407" y2="144.1407"/>
    <line x1="333.7025" x2="333.7025" y1="145.6633" y2="145.6633"/>
    <line x1="334.1203" x2="334.1203" y1="147.1903" y2="147.1903"/>
    <line x1="334.522" x2="334.522" y1="148.7217" y2="148.7217"/>
    <line x1="334.9077" x2="334.9077" y1="150.2571" y2="150.2571"/>
    <line x1="335.2773" x2="335.2773" y1="151.7966" y2="151.7966"/>
    <line x1="335.6307" x2="335.6307" y1="153.3398" y2="153.3398"/>
    <line x1="335.968" x2="335.968" y1="154.8866" y2="154.8866"/>
    <line x1="336.289" x2="336.289" y1="156.4368" y2="156.4368"/>
    <line x1="336.5938" x2="336.5938" y1="157.9904" y2="157.9904"/>
    <line x1="336.8823" x2="336.8823" y1="159.547" y2="159.547"/>
    <line x1="337.1545" x2="337.1545" y1="161.1066" y2="161.1066"/>
    <line x1="337.4104" x2="337.4104" y1="162.669" y2="162.669"/>
    <line x1="337.6498" x2="337.6498" y1="164.2339" y2="164.2339"/>
    <line x1="337.8729" x2="337.8729" y1="165.8013" y2="165.8013"/>
    <line x1="338.0795" x2="338.0795" y1="167.3709" y2="167.3709"/>
    <line x1="338.2697" x2="338.2697" y1="168.9426" y2="168.9426"/>
    <line x1="338.4435" x2="338.4435" y1="170.5162" y2="170.5162"/>
    <line x1="338.6007" x2="338.6007" y1="172.0915" y2="172.0915"/>
    <line x1="338.7414" x2="338.7414" y1="173.6684" y2="173.6684"/>
    <line x1="338.8657" x2="338.8657" y1="175.2467" y2="175.2467"/>
    <line x1="338.9733" x2="338.9733" y1="176.8262" y2="176.8262"/>
    <line x1="339.0645" x2="339.0645" y1="178.4067" y2="178.4067"/>
    <line x1="339.139" x2="339.139" y1="179.9881" y2="179.9881"/>
    <line x1="339.1971" x2="339.1971" y1="181.5702" y2="181.5702"/>
    <line x1="339.2385" x2="339.2385" y1="183.1528" y2="183.1528"/>
    <line x1="339.2634" x2="339.2634" y1="184.7358" y2="184.7358"/>
    <line x1="339.2634" x2="339.2634" y1="187.902" y2="187.902"/>
    <line x1="339.2385" x2="339.2385" y1="189.485" y2="189.485"/>
    <line x1="339.1971" x2="339.1971" y1="191.0676" y2="191.0676"/>
    <line x1="339.139" x2="339.139" y1="192.6497" y2="192.6497"/>
    <line x1="339.0645" x2="339.0645" y1="194.2311" y2="194.2311"/>
    <line x1="338.9733" x2="338.9733" y1="195.8116" y2="195.8116"/>
    <line x1="338.8657" x2="338.8657" y1="197.3911" y2="197.3911"/>
    <line x1="338.7414" x2="338.7414" y1="198.9694" y2="198.9694"/>
    <line x1="338.6007" x2="338.6007" y1="200.5463" y2="200.5463"/>
    <line x1="338.4435" x2="338.4435" y1="202.1216" y2="202.1216"/>
    <line x1="338.2697" x2="338.2697" y1="203.6952" y2="203.6952"/>
    <line x1="338.0795" x2="338.0795" y1="205.2669" y2="205.2669"/>
    <line x1="337.8729" x2="337.8729" y1="206.8365" y2="206.8365"/>
    <line x1="337.6498" x2="337.6498" y1="208.4039" y2="208.4039"/>
    <line x1="337.4104" x2="337.4104" y1="209.9688" y2="209.9688"/>
    <line x1="337.1545" x2="337.1545" y1="211.5312" y2="211.5312"/>
    <line x1="336.8823" x2="336.8823" y1="213.0908" y2="213.0908"/>
    <line x1="336.5938" x2="336.5938" y1="214.6474" y2="214.6474"/>
    <line x1="336.289" x2="336.289" y1="216.201" y2="216.201"/>
    <line x1="335.968" x2="335.968" y1="217.7512" y2="217.7512"/>
    <line x1="335.6307" x2="335.6307" y1="219.298" y2="219.298"/>
    <line x1="335.2773" x2="335.2773" y1="220.8412" y2="220.8412"/>
    <line x1="334.9077" x2="334.9077" y1="222.3806" y2="222.3806"/>
    <line x1="334.522" x2="334.522" y1="223.9161" y2="223.9161"/>
    <line x1="334.1203" x2="334.1203" y1="225.4474" y2="225.4474"/>
    <line x1="333.7025" x2="333.7025" y1="226.9745" y2="226.9745"/>
    <line x1="333.2688" x2="333.2688" y1="228.4971" y2="228.4971"/>
    <line x1="332.8192" x2="332.8192" y1="230.015" y2="230.015"/>
    <line x1="332.3537" x2="332.3537" y1="231.5282" y2="231.5282"/>
    <line x1="331.8723" x2="331.8723" y1="233.0364" y2="233.0364"/>
    <line x1="331.3752" x2="331.3752" y1="234.5395" y2="234.5395"/>
    <line x1="330.8624" x2="330.8624" y1="236.0373" y2="236.0373"/>
    <line x1="330.3339" x2="330.3339" y1="237.5297" y2="237.5297"/>
    <line x1="329.7899" x2="329.7899" y1="239.0164" y2="239.0164"/>
    <line x1="329.2303" x2="329.2303" y1="240.4974" y2="240.4974"/>
    <line x1="328.6552" x2="328.6552" y1="241.9724" y2="241.9724"/>
    <line x1="328.0647" x2="328.0647" y1="243.4413" y2="243.4413"/>
    <line x1="327.4588" x2="327.4588" y1="244.9039" y2="244.9039"/>
    <line x1="326.8377" x2="326.8377" y1="246.3602" y2="246.3602"/>
    <line x1="326.2014" x2="326.2014" y1="247.8098" y2="247.8098"/>
    <line x1="325.5499" x2="325.5499" y1="249.2527" y2="249.2527"/>
    <line x1="324.8833" x2="324.8833" y1="250.6887" y2="250.6887"/>
    <line x1="324.2017" x2="324.2017" y1="252.1176" y2="252.1176"/>
    <line x1="323.5052" x2="323.5052" y1="253.5393" y2="253.5393"/>
    <line x1="322.7939" x2="322.7939" y1="254.9537" y2="254.9537"/>
    <line x1="322.0678" x2="322.0678" y1="256.3605" y2="256.3605"/>
    <line x1="321.327" x2="321.327" y1="257.7596" y2="257.7596"/>
    <line x1="320.5716" x2="320.5716" y1="259.1509" y2="259.1509"/>
    <line x1="319.8016" x2="319.8016" y1="260.5343" y2="260.5343"/>
    <line x1="319.0172" x2="319.0172" y1="261.9094" y2="261.9094"/>
    <line x1="318.2185" x2="318.2185" y1="263.2763" y2="263.2763"/>
    <line x1="317.4055" x2="317.4055" y1="264.6348" y2="264.6348"/>
    <line x1="316.5783" x2="316.5783" y1="265.9847" y2="265.9847"/>
    <line x1="315.737" x2="315.737" y1="267.3258" y2="267.3258"/>
    <line x1="314.8817" x2="314.8817" y1="268.658" y2="268.658"/>
    <line x1="314.0125" x2="314.0125" y1="269.9812" y2="269.9812"/>
    <line x1="313.1295" x2="313.1295" y1="271.2953" y2="271.2953"/>
    <line x1="312.2328" x2="312.2328" y1="272.6" y2="272.6"/>
    <line x1="311.3225" x2="311.3225" y1="273.8953" y2="273.8953"/>
    <line x1="310.3986" x2="310.3986" y1="275.1809" y2="275.1809"/>
    <line x1="309.4614" x2="309.4614" y1="276.4568" y2="276.4568"/>
    <line x1="308.5108" x2="308.5108" y1="277.7229" y2="277.7229"/>
    <line x1="307.5471" x2="307.5471" y1="278.9789" y2="278.9789"/>
    <line x1="306.5702" x2="306.5702" y1="280.2247" y2="280.2247"/>
    <line x1="305.5803" x2="305.5803" y1="281.4602" y2="281.4602"/>
    <line x1="304.5776" x2="304.5776" y1="282.6854" y2="282.6854"/>
    <line x1="303.5621" x2="303.5621" y1="283.8999" y2="283.8999"/>
    <line x1="302.5339" x2="302.5339" y1="285.1037" y2="285.1037"/>
    <line x1="301.4932" x2="301.4932" y1="286.2968" y2="286.2968"/>
    <line x1="300.44" x2="300.44" y1="287.4788" y2="287.4788"/>
    <line x1="299.3745" x2="299.3745" y1="288.6498" y2="288.6498"/>
    <line x1="298.2968" x2="298.2968" y1="289.8095" y2="289.8095"/>
    <line x1="297.2071" x2="297.2071" y1="290.9579" y2="290.9579"/>
    <line x1="296.1053" x2="296.1053" y1="292.0948" y2="292.0948"/>
    <line x1="294.9917" x2="294.9917" y1="293.2201" y2="293.2201"/>
    <line x1="293.8664" x2="293.8664" y1="294.3337" y2="294.3337"/>
    <line x1="292.7295" x2="292.7295" y1="295.4354" y2="295.4354"/>
    <line x1="291.5811" x2="291.5811" y1="296.5252" y2="296.5252"/>
    <line x1="290.4214" x2="290.4214" y1="297.6029" y2="297.6029"/>
    <line x1="289.2505" x2="289.2505" y1="298.6684" y2="298.6684"/>
    <line x1="288.0684" x2="288.0684" y1="299.7215" y2="299.7215"/>
    <line x1="286.8754" x2="286.8754" y1="300.7622" y2="300.7622"/>
    <line x1="285.6716" x2="285.6716" y1="301.7904" y2="301.7904"/>
    <line x1="284.457" x2="284.457" y1="302.8059" y2="302.8059"/>
    <line x1="283.2319" x2="283.2319" y1="303.8087" y2="303.8087"/>
    <line x1="281.9964" x2="281.9964" y1="304.7985" y2="304.7985"/>
    <line x1="280.7505" x2="280.7505" y1="305.7754" y2="305.7754"/>
    <line x1="279.4945" x2="279.4945" y1="306.7392" y2="306.7392"/>
    <line x1="278.2285" x2="278.2285" y1="307.6897" y2="307.6897"/>
    <line x1="276.9526" x2="276.9526" y1="308.627" y2="308.627"/>
    <line x1="275.6669" x2="275.6669" y1="309.5508" y2="309.5508"/>
    <line x1="274.3717" x2="274.3717" y1="310.4611" y2="310.4611"/>
    <line x1="273.0669" x2="273.0669" y1="311.3579" y2="311.3579"/>
    <line x1="271.7529" x2="271.7529" y1="312.2408" y2="312.2408"/>
    <line x1="270.4297" x2="270.4297" y1="313.11" y2="313.11"/>
    <line x1="269.0974" x2="269.0974" y1="313.9653" y2="313.9653"/>
    <line x1="267.7563" x2="267.7563" y1="314.8066" y2="314.8066"/>
    <line x1="266.4064" x2="266.4064" y1="315.6338" y2="315.6338"/>
    <line x1="265.048" x2="265.048" y1="316.4468" y2="316.4468"/>
    <line x1="263.6811" x2="263.6811" y1="317.2456" y2="317.2456"/>
    <line x1="262.3059" x2="262.3059" y1="318.03" y2="318.03"/>
    <line x1="260.9226" x2="260.9226" y1="318.7999" y2="318.7999"/>
    <line x1="259.5313" x2="259.5313" y1="319.5553" y2="319.5553"/>
    <line x1="258.1322" x2="258.1322" y1="320.2961" y2="320.2961"/>
    <line x1="256.7253" x2="256.7253" y1="321.0222" y2="321.0222"/>
    <line x1="255.311" x2="255.311" y1="321.7336" y2="321.7336"/>
    <line x1="253.8893" x2="253.8893" y1="322.4301" y2="322.4301"/>
    <line x1="252.4603" x2="252.4603" y1="323.1116" y2="323.1116"/>
    <line x1="251.0243" x2="251.0243" y1="323.7782" y2="323.7782"/>
    <line x1="249.5814" x2="249.5814" y1="324.4297" y2="324.4297"/>
    <line x1="248.1318" x2="248.1318" y1="325.0661" y2="325.0661"/>
    <line x1="246.6756" x2="246.6756" y1="325.6872" y2="325.6872"/>
    <line x1="245.2129" x2="245.2129" y1="326.293" y2="326.293"/>
    <line x1="243.744" x2="243.744" y1="326.8835" y2="326.8835"/>
    <line x1="242.269" x2="242.269" y1="327.4586" y2="327.4586"/>
    <line x1="240.7881" x2="240.7881" y1="328.0182" y2="328.0182"/>
    <line x1="239.3013" x2="239.3013" y1="328.5623" y2="328.5623"/>
    <line x1="237.809" x2="237.809" y1="329.0908" y2="329.0908"/>
    <line x1="236.3112" x2="236.3112" y1="329.6036" y2="329.6036"/>
    <line x1="234.8081" x2="234.8081" y1="330.1007" y2="330.1007"/>
    <line x1="233.2999" x2="233.2999" y1="330.582" y2="330.582"/>
    <line x1="231.7867" x2="231.7867" y1="331.0475" y2="331.0475"/>
    <line x1="230.2687" x2="230.2687" y1="331.4972" y2="331.4972"/>
    <line x1="228.7461" x2="228.7461" y1="331.9309" y2="331.9309"/>
    <line x1="227.2191" x2="227.2191" y1="332.3486" y2="332.3486"/>
    <line x1="225.6878" x2="225.6878" y1="332.7504" y2="332.7504"/>
    <line x1="224.1523" x2="224.1523" y1="333.136" y2="333.136"/>
    <line x1="222.6129" x2="222.6129" y1="333.5056" y2="333.5056"/>
    <line x1="221.0697" x2="221.0697" y1="333.8591" y2="333.8591"/>
    <line x1="219.5229" x2="219.5229" y1="334.1963" y2="334.1963"/>
    <line x1="217.9726" x2="217.9726" y1="334.5174" y2="334.5174"/>
    <line x1="216.4191" x2="216.4191" y1="334.8222" y2="334.8222"/>
    <line x1="214.8624" x2="214.8624" y1="335.1107" y2="335.1107"/>
    <line x1="213.3028" x2="213.3028" y1="335.3829" y2="335.3829"/>
    <line x1="211.7405" x2="211.7405" y1="335.6387" y2="335.6387"/>
    <line x1="210.1755" x2="210.1755" y1="335.8782" y2="335.8782"/>
    <line x1="208.6082" x2="208.6082" y1="336.1012" y2="336.1012"/>
    <line x1="207.0386" x2="207.0386" y1="336.3079" y2="336.3079"/>
    <line x1="205.4669" x2="205.4669" y1="336.4981" y2="336.4981"/>
    <line x1="203.8933" x2="203.8933" y1="336.6718" y2="336.6718"/>
    <line x1="202.3179" x2="202.3179" y1="336.8291" y2="336.8291"/>
    <line x1="200.7411" x2="200.7411" y1="336.9698" y2="336.9698"/>
    <line x1="199.1628" x2="199.1628" y1="337.094" y2="337.094"/>
    <line x1="197.5833" x2="197.5833" y1="337.2017" y2="337.2017"/>
    <line x1="196.0028" x2="196.0028" y1="337.2928" y2="337.2928"/>
    <line x1="194.4214" x2="194.4214" y1="337.3674" y2="337.3674"/>
    <line x1="192.8393" x2="192.8393" y1="337.4254" y2="337.4254"/>
    <line x1="191.2566" x2="191.2566" y1="337.4668" y2="337.4668"/>
    <line x1="189.6737" x2="189.6737" y1="337.4917" y2="337.4917"/>
    <line x1="188.0906" x2="188.0906" y1="337.5" y2="337.5"/>
    <line x1="186.5074" x2="186.5074" y1="337.4917" y2="337.4917"/>
    <line x1="184.9245" x2="184.9245" y1="337.4668" y2="337.4668"/>
    <line x1="183.3418" x2="183.3418" y1="337.4254" y2="337.4254"/>
    <line x1="181.7597" x2="181.7597" y1="337.3674" y2="337.3674"/>
    <line x1="180.1783" x2="180.1783" y1="337.2928" y2="337.2928"/>
    <line x1="178.5978" x2="178.5978" y1="337.2017" y2="337.2017"/>
    <line x1="177.0183" x2="177.0183" y1="337.094" y2="337.094"/>
    <line x1="175.44" x2="175.44" y1="336.9698" y2="336.9698"/>
    <line x1="173.8632" x2="173.8632" y1="336.8291" y2="336.8291"/>
    <line x1="172.2878" x2="172.2878" y1="336.6718" y2="336.6718"/>
    <line x1="170.7142" x2="170.7142" y1="336.4981" y2="336.4981"/>
    <line x1="169.1425" x2="169.1425" y1="336.3079" y2="336.3079"/>
    <line x1="167.5729" x2="167.5729" y1="336.1012" y2="336.1012"/>
    <line x1="166.0056" x2="166.0056" y1="335.8782" y2="335.8782"/>
    <line x1="164.4406" x2="164.4406" y1="335.6387" y2="335.6387"/>
    <line x1="162.8783" x2="162.8783" y1="335.3829" y2="335.3829"/>
    <line x1="161.3187" x2="161.3187" y1="335.1107" y2="335.1107"/>
    <line x1="159.762" x2="159.762" y1="334.8222" y2="334.8222"/>
    <line x1="158.2085" x2="158.2085" y1="334.5174" y2="334.5174"/>
    <line x1="156.6582" x2="156.6582" y1="334.1963" y2="334.1963"/>
    <line x1="155.1114" x2="155.1114" y1="333.8591" y2="333.8591"/>
    <line x1="153.5682" x2="153.5682" y1="333.5056" y2="333.5056"/>
    <line x1="152.0288" x2="152.0288" y1="333.136" y2="333.136"/>
    <line x1="150.4933" x2="150.4933" y1="332.7504" y2="332.7504"/>
    <line x1="148.962" x2="148.962" y1="332.3486" y2="332.3486"/>
    <line x1="147.435" x2="147.435" y1="331.9309" y2="331.9309"/>
    <line x1="145.9124" x2="145.9124" y1="331.4972" y2="331.4972"/>
    <line x1="144.3944" x2="144.3944" y1="331.0475" y2="331.0475"/>
    <line x1="142.8812" x2="142.8812" y1="330.582" y2="330.582"/>
    <line x1="141.373" x2="141.373" y1="330.1007" y2="330.1007"/>
    <line x1="139.8699" x2="139.8699" y1="329.6036" y2="329.6036"/>
    <line x1="138.3721" x2="138.3721" y1="329.0908" y2="329.0908"/>
    <line x1="136.8798" x2="136.8798" y1="328.5623" y2="328.5623"/>
    <line x1="135.393" x2="135.393" y1="328.0182" y2="328.0182"/>
    <line x1="133.9121" x2="133.9121" y1="327.4586" y2="327.4586"/>
    <line x1="132.4371" x2="132.4371" y1="326.8835" y2="326.8835"/>
    <polygon points="89.4685,332.7756 88.878,335.7283 88.878,337.5 89.4685,340.4528 90.6496,342.2244 92.4213,342.815 93.6024,342.815 95.374,342.2244 96.5551,340.4528 97.1457,337.5 97.1457,335.7283 96.5551,332.7756 95.374,331.0039 93.6024,330.4134 92.4213,330.4134 90.6496,331.0039"/>
    <polygon points="77.0669,335.7283 77.0669,337.5 77.6575,340.4528 78.8386,342.2244 80.6102,342.815 81.7913,342.815 83.563,342.2244 84.7441,340.4528 85.3346,337.5 85.3346,335.7283 84.7441,332.7756 83.563,331.0039 81.7913,330.4134 80.6102,330.4134 78.8386,331.0039 77.6575,332.7756"/>
    <polyline points="72.9331,332.185 72.3425,331.0039 70.5709,330.4134 69.3898,330.4134 67.6181,331.0039 66.437,332.7756 65.8465,335.7283 65.8465,338.6811 66.437,341.0433 67.6181,342.2244 69.3898,342.815 71.752,342.2244 72.9331,341.0433 73.5236,339.2717 72.9331,336.9094 71.752,335.7283 69.9803,335.1378 67.6181,335.7283 66.437,336.9094 65.8465,338.6811"/>
    <line x1="61.122" x2="50.4921" y1="339.2717" y2="339.2717"/>
    <line x1="50.4921" x2="61.122" y1="335.7283" y2="335.7283"/>
    <polyline points="45.7677,342.815 45.7677,336.9094 45.1772,335.1378 43.9961,334.5472 42.2244,334.5472 41.0433,335.1378 39.2717,336.9094"/>
    <line x1="39.2717" x2="39.2717" y1="334.5472" y2="342.815"/>
    <line x1="310.9252" x2="317.4213" y1="342.815" y2="334.5472"/>
    <line x1="321.5551" x2="332.185" y1="335.7283" y2="335.7283"/>
    <line x1="332.185" x2="321.5551" y1="339.2717" y2="339.2717"/>
    <line x1="317.4213" x2="310.9252" y1="342.815" y2="334.5472"/>
    <polyline points="338.0906,332.7756 339.2717,332.185 341.0433,330.4134 341.0433,342.815"/>
  </g>
</svg>
