<?xml version="1.0" encoding="utf-8" ?>
<svg xmlns="http://www.w3.org/2000/svg" xmlns:cc="http://creativecommons.org/ns" xmlns:dc="http://purl.org/dc/elements/1.1/" xmlns:ev="http://www.w3.org/2001/xml-events" xmlns:inkscape="http://www.inkscape.org/namespaces/inkscape" xmlns:rdf="http://www.w3.org/1999/02/22-rdf-syntax-ns" xmlns:sodipodi="http://sodipodi.sourceforge.net/DTD/sodipodi-0.dtd" xmlns:xlink="http://www.w3.org/1999/xlink" baseProfile="tiny" height="10.0cm" version="1.2" viewBox="0 0 377.95275590551176 377.95275590551176" width="10.0cm">
  <metadata>
    <rdf:RDF>
      <cc:Work>
        <dc:format>image/svg+xml</dc:format>
        <dc:source>Vsketch with params {'__seed__': 0, 'r': 4.0, 'multiplier': 61, 'n': 600}</dc:source>
        <dc:date>2025-04-26T12:48:17.026238</dc:date>
      </cc:Work>
    </rdf:RDF>
  </metadata>
  <defs/>
  <g fill="none" id="layer1" inkscape:groupmode="layer" inkscape:label="1" stroke="#0000ff" stroke-width="1.1339" style="display:inline">
    <polygon points="130.4543,326.0822 144.3293,331.0278 158.9904,334.6729 173.566,336.8007 188.2795,337.4999 203.3671,336.7262 217.9319,334.5256 232.2133,330.918 246.0759,325.9377 259.3881,319.632 272.0234,312.0607 284.1539,303.056 295.0585,293.1533 305.187,281.9439 313.9372,270.0945 321.4927,257.4498 327.7817,244.1298 332.8541,229.8993 336.4081,215.6044 338.5541,201.0315 339.2717,186.3189 338.5168,171.2303 336.3344,156.6628 332.7447,142.3768 327.7817,128.508 321.4927,115.188 313.7274,102.229 304.9476,90.4015 295.0585,79.4845 284.1539,69.5818 272.3374,60.7872 259.3881,53.0058 246.0759,46.7001 232.2133,41.7198 217.5614,38.0381 202.9911,35.8739 188.2795,35.1379 173.19,35.8739 158.6197,38.0381 144.3293,41.61 130.4543,46.5556 116.793,53.0058 104.1577,60.5771 92.3193,69.342 81.3899,79.2175 71.4736,90.1097 62.6643,101.9153 54.8666,114.8548 48.5443,128.1591 43.5467,142.0155 39.8467,156.6628 37.6643,171.2303 36.9094,186.3189 37.627,201.0315 39.773,215.6044 43.327,229.8993 48.3994,244.1298 54.6884,257.4498 62.2439,270.0945 71.2335,282.2363 81.1226,293.1533 92.3193,303.2957 104.1577,312.0607 116.793,319.632"/>
    <polygon points="129.5055,325.6872 302.5339,285.1037 317.4055,108.003 153.5682,39.1322 37.4397,173.6684"/>
    <line x1="126.5997" x2="126.5997" y1="324.4297" y2="324.4297"/>
    <polygon points="115.2585,318.7999 291.5811,296.5252 324.8833,121.9491 169.1425,36.3299 39.5873,157.9904"/>
    <line x1="112.5" x2="112.5" y1="317.2456" y2="317.2456"/>
    <polygon points="107.0837,313.9653 178.5978,35.4361 284.457,302.8059 41.6591,148.7217 328.6552,130.6654"/>
    <polygon points="105.7514,313.11 270.4297,59.5278"/>
    <polygon points="104.4282,312.2408 329.7899,133.6214 42.4786,145.6633 281.9964,304.7985 181.7597,35.2704"/>
    <line x1="99.2285" x2="99.2285" y1="308.627" y2="308.627"/>
    <polygon points="92.9492,303.8087 283.2319,68.8291"/>
    <line x1="86.9306" x2="86.9306" y1="298.6684" y2="298.6684"/>
    <polygon points="81.1894,293.2201 294.9917,79.4177"/>
    <line x1="75.7411" x2="75.7411" y1="287.4788" y2="287.4788"/>
    <polygon points="74.6879,286.2968 37.5804,200.5463 57.9626,109.3615 128.0493,47.5717 221.0697,38.7787 301.4932,86.341 338.6007,172.0915 318.2185,263.2763 248.1318,325.0661 155.1114,333.8591"/>
    <polygon points="67.6703,277.7229 237.809,329.0908 339.2385,183.1528 231.7867,41.5903 63.9483,100.0378"/>
    <line x1="65.7825" x2="65.7825" y1="275.1809" y2="275.1809"/>
    <polygon points="63.9483,272.6 67.6703,94.9149 237.809,43.547 339.2385,189.485 231.7867,331.0475"/>
    <polygon points="63.0516,271.2953 145.9124,41.1406 339.1971,191.0676 136.8798,328.5623 68.634,93.6589 313.1295,101.3425 230.2687,331.4972 36.984,181.5702 239.3013,44.0755 307.5471,278.9789"/>
    <polygon points="61.2994,268.658 314.8817,103.9798"/>
    <line x1="57.1639" x2="57.1639" y1="261.9094" y2="261.9094"/>
    <polygon points="54.1133,256.3605 255.311,50.9042 213.3028,335.3829 80.0758,80.543 337.6498,208.4039"/>
    <polygon points="52.6759,253.5393 337.1545,211.5312 82.3147,78.3041 210.1755,335.8782 258.1322,52.3417"/>
    <polygon points="50.6312,249.2527 113.8752,318.03 205.4669,336.4981 290.4214,297.6029 336.289,216.201 325.5499,123.3851 262.3059,54.6078 170.7142,36.1397 85.7597,75.0349 39.8921,156.4368"/>
    <line x1="49.9797" x2="49.9797" y1="247.8098" y2="247.8098"/>
    <polygon points="48.7223,244.9039 89.3057,71.8756 266.4064,57.004 335.2773,220.8412 200.7411,336.9698"/>
    <polygon points="46.9508,240.4974 329.2303,132.1404"/>
    <polygon points="45.3187,236.0373 191.2566,337.4668 332.8192,230.015 274.3717,62.1767 96.6866,65.8986"/>
    <line x1="44.3088" x2="44.3088" y1="233.0364" y2="233.0364"/>
    <polygon points="43.8274,231.5282 44.8059,138.0983 100.5142,63.087 189.6737,35.1461 278.2285,64.9481 332.3537,141.1096 331.3752,234.5395 275.6669,309.5508 186.5074,337.4917 97.9526,307.6897"/>
    <polygon points="42.0608,225.4474 334.1203,147.1903"/>
    <line x1="40.2131" x2="40.2131" y1="217.7512" y2="217.7512"/>
    <polygon points="39.8921,216.201 50.6312,123.3851 113.8752,54.6078 205.4669,36.1397 290.4214,75.0349 336.289,156.4368 325.5499,249.2527 262.3059,318.03 170.7142,336.4981 85.7597,297.6029"/>
    <line x1="37.7376" x2="37.7376" y1="202.1216" y2="202.1216"/>
    <polygon points="37.1166,194.2311 339.0645,178.4067"/>
    <polygon points="37.0421,192.6497 314.0125,269.9812 135.393,44.6196 147.435,331.9309 306.5702,92.4131"/>
    <polygon points="36.984,191.0676 239.3013,328.5623 307.5471,93.6589 63.0516,101.3425 145.9124,331.4972 339.1971,181.5702 136.8798,44.0755 68.634,278.9789 313.1295,271.2953 230.2687,41.1406"/>
    <line x1="36.9094" x2="36.9094" y1="186.3189" y2="186.3189"/>
    <polygon points="36.9177,184.7358 66.7197,96.181 142.8812,42.0558 236.3112,43.0342 311.3225,98.7425 339.2634,187.902 309.4614,276.4568 233.2999,330.582 139.8699,329.6036 64.8586,273.8953"/>
    <polygon points="36.9426,183.1528 144.3944,41.5903 312.2328,100.0378 308.5108,277.7229 138.3721,329.0908"/>
    <line x1="37.7376" x2="37.7376" y1="170.5162" y2="170.5162"/>
    <polygon points="38.7707,162.669 337.4104,209.9688"/>
    <polygon points="39.2988,159.547 208.6082,336.1012 324.2017,120.5202 83.4516,77.2024 116.6498,319.5553 336.8823,213.0908 167.5729,36.5365 51.9794,252.1176 292.7295,295.4354 259.5313,53.0825"/>
    <line x1="40.2131" x2="40.2131" y1="154.8866" y2="154.8866"/>
    <polygon points="40.9038,151.7966 175.44,35.668 327.4588,127.7339 286.8754,300.7622 109.7747,315.6338"/>
    <polygon points="42.0608,147.1903 334.1203,225.4474"/>
    <line x1="44.3088" x2="44.3088" y1="139.6014" y2="139.6014"/>
    <polygon points="45.3187,136.6005 191.2566,35.171 332.8192,142.6228 274.3717,310.4611 96.6866,306.7392"/>
    <polygon points="46.9508,132.1404 329.2303,240.4974"/>
    <line x1="49.9797" x2="49.9797" y1="124.828" y2="124.828"/>
    <line x1="57.1639" x2="57.1639" y1="110.7283" y2="110.7283"/>
    <polygon points="59.6028,106.6531 303.5621,88.7379 245.2129,326.293 37.3154,197.3911 224.1523,39.5017 316.5783,265.9847 72.619,283.8999 130.9682,46.3448 338.8657,175.2467 152.0288,333.136"/>
    <polygon points="61.2994,103.9798 314.8817,268.658"/>
    <line x1="65.7825" x2="65.7825" y1="97.4569" y2="97.4569"/>
    <polygon points="70.6008,91.1775 305.5803,281.4602"/>
    <polygon points="71.6035,89.9524 225.6878,332.7504 243.744,45.7543 60.4441,267.3258 338.9733,195.8116"/>
    <polygon points="73.6472,87.5341 58.7756,264.6348 222.6129,333.5056 338.7414,198.9694 246.6756,46.9506"/>
    <line x1="75.7411" x2="75.7411" y1="85.159" y2="85.159"/>
    <polygon points="77.8843,82.8283 252.4603,49.5261 338.0795,205.2669 216.4191,334.8222 55.6095,259.1509"/>
    <line x1="86.9306" x2="86.9306" y1="73.9694" y2="73.9694"/>
    <polygon points="91.7241,69.8319 334.522,223.9161 47.5259,241.9724 269.0974,58.6725 197.5833,337.2017"/>
    <line x1="99.2285" x2="99.2285" y1="64.0108" y2="64.0108"/>
    <polygon points="105.7514,59.5278 270.4297,313.11"/>
    <line x1="112.5" x2="112.5" y1="55.3922" y2="55.3922"/>
    <polygon points="118.0489,52.3417 323.5052,253.5393 39.0266,211.5312 293.8664,78.3041 166.0056,335.8782"/>
    <polygon points="119.4558,51.6155 256.7253,321.0222"/>
    <polygon points="122.2918,50.2077 78.974,290.9579 321.327,257.7596 214.8624,37.5271 38.3082,206.8365 253.8893,322.4301 297.2071,81.6799 54.8541,114.8782 161.3187,335.1107 337.8729,165.8013"/>
    <line x1="126.5997" x2="126.5997" y1="48.2081" y2="48.2081"/>
    <line x1="141.373" x2="141.373" y1="42.5371" y2="42.5371"/>
    <polygon points="148.962,40.2892 227.2191,332.3486"/>
    <line x1="156.6582" x2="156.6582" y1="38.4415" y2="38.4415"/>
    <polygon points="162.8783,37.2549 296.1053,292.0948 38.5313,164.2339 322.0678,116.2773 120.8701,321.7336"/>
    <polygon points="166.0056,36.7596 118.0489,320.2961 323.5052,119.0985 39.0266,161.1066 293.8664,294.3337"/>
    <line x1="172.2878" x2="172.2878" y1="35.966" y2="35.966"/>
    <polygon points="180.1783,35.345 196.0028,337.2928"/>
    <polygon points="186.5074,35.1461 97.9526,64.9481 43.8274,141.1096 44.8059,234.5395 100.5142,309.5508 189.6737,337.4917 278.2285,307.6897 332.3537,231.5282 331.3752,138.0983 275.6669,63.087"/>
    <line x1="188.0906" x2="188.0906" y1="35.1378" y2="35.1378"/>
    <polygon points="196.0028,35.345 180.1783,337.2928"/>
    <polygon points="202.3179,35.8087 111.1331,56.191 49.3434,126.2776 40.5504,219.298 88.1127,299.7215 173.8632,336.8291 265.048,316.4468 326.8377,246.3602 335.6307,153.3398 288.0684,72.9163"/>
    <line x1="203.8933" x2="203.8933" y1="35.966" y2="35.966"/>
    <polygon points="213.3028,37.2549 80.0758,292.0948 337.6498,164.2339 54.1133,116.2773 255.311,321.7336"/>
    <polygon points="217.9726,38.1204 125.1568,48.8596 56.3795,112.1035 37.9114,203.6952 76.8066,288.6498 158.2085,334.5174 251.0243,323.7782 319.8016,260.5343 338.2697,168.9426 299.3745,83.988"/>
    <line x1="219.5229" x2="219.5229" y1="38.4415" y2="38.4415"/>
    <polygon points="222.6129,39.1322 338.7414,173.6684 246.6756,325.6872 73.6472,285.1037 58.7756,108.003"/>
    <polygon points="225.6878,39.8874 243.744,326.8835 60.4441,105.312 338.9733,176.8262 71.6035,282.6854"/>
    <line x1="234.8081" x2="234.8081" y1="42.5371" y2="42.5371"/>
    <polygon points="242.269,45.1792 133.9121,327.4586"/>
    <polygon points="248.1318,47.5717 155.1114,38.7787 74.6879,86.341 37.5804,172.0915 57.9626,263.2763 128.0493,325.0661 221.0697,333.8591 301.4932,286.2968 338.6007,200.5463 318.2185,109.3615"/>
    <line x1="249.5814" x2="249.5814" y1="48.2081" y2="48.2081"/>
    <polygon points="256.7253,51.6155 119.4558,321.0222"/>
    <line x1="263.6811" x2="263.6811" y1="55.3922" y2="55.3922"/>
    <polygon points="271.7529,60.3969 46.3912,239.0164 333.7025,226.9745 94.1847,67.8393 194.4214,337.3674"/>
    <line x1="276.9526" x2="276.9526" y1="64.0108" y2="64.0108"/>
    <line x1="289.2505" x2="289.2505" y1="73.9694" y2="73.9694"/>
    <polygon points="291.5811,76.1126 324.8833,250.6887 169.1425,336.3079 39.5873,214.6474 115.2585,53.8379"/>
    <line x1="300.44" x2="300.44" y1="85.159" y2="85.159"/>
    <polygon points="304.5776,89.9524 150.4933,332.7504 132.4371,45.7543 315.737,267.3258 37.2078,195.8116"/>
    <polygon points="305.5803,91.1775 70.6008,281.4602"/>
    <line x1="310.3986" x2="310.3986" y1="97.4569" y2="97.4569"/>
    <polygon points="315.737,105.312 37.2078,176.8262 304.5776,282.6854 150.4933,39.8874 132.4371,326.8835"/>
    <line x1="319.0172" x2="319.0172" y1="110.7283" y2="110.7283"/>
    <polygon points="322.7939,117.6841 53.3872,254.9537"/>
    <line x1="326.2014" x2="326.2014" y1="124.828" y2="124.828"/>
    <polygon points="326.8377,126.2776 335.6307,219.298 288.0684,299.7215 202.3179,336.8291 111.1331,316.4468 49.3434,246.3602 40.5504,153.3398 88.1127,72.9163 173.8632,35.8087 265.048,56.191"/>
    <polygon points="330.8624,136.6005 184.9245,35.171 43.3619,142.6228 101.8094,310.4611 279.4945,306.7392"/>
    <line x1="331.8723" x2="331.8723" y1="139.6014" y2="139.6014"/>
    <polygon points="333.7025,145.6633 94.1847,304.7985 194.4214,35.2704 271.7529,312.2408 46.3912,133.6214"/>
    <polygon points="334.522,148.7217 47.5259,130.6654 269.0974,313.9653 197.5833,35.4361 91.7241,302.8059"/>
    <polygon points="334.9077,150.2571 108.4248,57.8312 90.5095,301.7904 328.0647,243.4413 199.1628,35.5438 41.2734,222.3806 267.7563,314.8066 285.6716,70.8474 48.1164,129.1965 177.0183,337.094"/>
    <polygon points="335.2773,151.7966 200.7411,35.668 48.7223,127.7339 89.3057,300.7622 266.4064,315.6338"/>
    <line x1="335.968" x2="335.968" y1="154.8866" y2="154.8866"/>
    <polygon points="336.5938,157.9904 260.9226,318.7999 84.6,296.5252 51.2978,121.9491 207.0386,36.3299"/>
    <polygon points="337.1545,161.1066 82.3147,294.3337 210.1755,36.7596 258.1322,320.2961 52.6759,119.0985"/>
    <polygon points="337.4104,162.669 38.7707,209.9688"/>
    <line x1="338.4435" x2="338.4435" y1="170.5162" y2="170.5162"/>
    <polygon points="339.139,192.6497 62.1686,269.9812 240.7881,44.6196 228.7461,331.9309 69.6109,92.4131"/>
    <polygon points="339.0645,194.2311 37.1166,178.4067"/>
    <line x1="338.4435" x2="338.4435" y1="202.1216" y2="202.1216"/>
    <polygon points="338.2697,203.6952 299.3745,288.6498 217.9726,334.5174 125.1568,323.7782 56.3795,260.5343 37.9114,168.9426 76.8066,83.988 158.2085,38.1204 251.0243,48.8596 319.8016,112.1035"/>
    <polygon points="336.5938,214.6474 260.9226,53.8379 84.6,76.1126 51.2978,250.6887 207.0386,336.3079"/>
    <line x1="335.968" x2="335.968" y1="217.7512" y2="217.7512"/>
    <line x1="331.8723" x2="331.8723" y1="233.0364" y2="233.0364"/>
    <polygon points="330.3339,237.5297 95.4306,305.7754 103.1142,61.2799 333.2688,144.1407 183.3418,337.4254 45.8472,135.1081 280.7505,66.8624 273.0669,311.3579 42.9123,228.4971 192.8393,35.2124"/>
    <polygon points="329.7899,239.0164 42.4786,226.9745 281.9964,67.8393 181.7597,337.3674 104.4282,60.3969"/>
    <polygon points="328.6552,241.9724 107.0837,58.6725 178.5978,337.2017 284.457,69.8319 41.6591,223.9161"/>
    <line x1="326.2014" x2="326.2014" y1="247.8098" y2="247.8098"/>
    <polygon points="322.7939,254.9537 53.3872,117.6841"/>
    <polygon points="322.0678,256.3605 120.8701,50.9042 162.8783,335.3829 296.1053,80.543 38.5313,208.4039"/>
    <line x1="319.0172" x2="319.0172" y1="261.9094" y2="261.9094"/>
    <polygon points="317.4055,264.6348 153.5682,333.5056 37.4397,198.9694 129.5055,46.9506 302.5339,87.5341"/>
    <polygon points="312.2328,272.6 308.5108,94.9149 138.3721,43.547 36.9426,189.485 144.3944,331.0475"/>
    <line x1="310.3986" x2="310.3986" y1="275.1809" y2="275.1809"/>
    <polygon points="306.5702,280.2247 37.0421,179.9881 314.0125,102.6566 135.393,328.0182 147.435,40.7069"/>
    <line x1="300.44" x2="300.44" y1="287.4788" y2="287.4788"/>
    <polygon points="298.2968,289.8095 123.7208,323.1116 38.1016,167.3709 159.762,37.8156 320.5716,113.4868"/>
    <polygon points="297.2071,290.9579 54.8541,257.7596 161.3187,37.5271 337.8729,206.8365 122.2918,322.4301 78.974,81.6799 321.327,114.8782 214.8624,335.1107 38.3082,165.8013 253.8893,50.2077"/>
    <polygon points="294.9917,293.2201 81.1894,79.4177"/>
    <line x1="289.2505" x2="289.2505" y1="298.6684" y2="298.6684"/>
    <polygon points="283.2319,303.8087 92.9492,68.8291"/>
    <polygon points="280.7505,305.7754 273.0669,61.2799 42.9123,144.1407 192.8393,337.4254 330.3339,135.1081 95.4306,66.8624 103.1142,311.3579 333.2688,228.4971 183.3418,35.2124 45.8472,237.5297"/>
    <line x1="276.9526" x2="276.9526" y1="308.627" y2="308.627"/>
    <line x1="263.6811" x2="263.6811" y1="317.2456" y2="317.2456"/>
    <polygon points="259.5313,319.5553 39.2988,213.0908 208.6082,36.5365 324.2017,252.1176 83.4516,295.4354 116.6498,53.0825 336.8823,159.547 167.5729,336.1012 51.9794,120.5202 292.7295,77.2024"/>
    <polygon points="252.4603,323.1116 338.0795,167.3709 216.4191,37.8156 55.6095,113.4868 77.8843,289.8095"/>
    <line x1="249.5814" x2="249.5814" y1="324.4297" y2="324.4297"/>
    <polygon points="242.269,327.4586 133.9121,45.1792"/>
    <polygon points="240.7881,328.0182 228.7461,40.7069 69.6109,280.2247 339.139,179.9881 62.1686,102.6566"/>
    <polygon points="236.3112,329.6036 311.3225,273.8953 339.2634,184.7358 309.4614,96.181 233.2999,42.0558 139.8699,43.0342 64.8586,98.7425 36.9177,187.902 66.7197,276.4568 142.8812,330.582"/>
    <line x1="234.8081" x2="234.8081" y1="330.1007" y2="330.1007"/>
    <polygon points="224.1523,333.136 316.5783,106.6531 72.619,88.7379 130.9682,326.293 338.8657,197.3911 152.0288,39.5017 59.6028,265.9847 303.5621,283.8999 245.2129,46.3448 37.3154,175.2467"/>
    <line x1="219.5229" x2="219.5229" y1="334.1963" y2="334.1963"/>
    <polygon points="211.7405,335.6387 164.4406,36.9991"/>
    <line x1="203.8933" x2="203.8933" y1="336.6718" y2="336.6718"/>
    <polygon points="199.1628,337.094 41.2734,150.2571 267.7563,57.8312 285.6716,301.7904 48.1164,243.4413 177.0183,35.5438 334.9077,222.3806 108.4248,314.8066 90.5095,70.8474 328.0647,129.1965"/>
    <line x1="188.0906" x2="188.0906" y1="337.5" y2="337.5"/>
    <polygon points="184.9245,337.4668 43.3619,230.015 101.8094,62.1767 279.4945,65.8986 330.8624,236.0373"/>
    <polygon points="175.44,336.9698 327.4588,244.9039 286.8754,71.8756 109.7747,57.004 40.9038,220.8412"/>
    <line x1="172.2878" x2="172.2878" y1="336.6718" y2="336.6718"/>
    <polygon points="164.4406,335.6387 211.7405,36.9991"/>
    <polygon points="159.762,334.8222 320.5716,259.1509 298.2968,82.8283 123.7208,49.5261 38.1016,205.2669"/>
    <line x1="156.6582" x2="156.6582" y1="334.1963" y2="334.1963"/>
    <polygon points="148.962,332.3486 227.2191,40.2892"/>
    <line x1="141.373" x2="141.373" y1="330.1007" y2="330.1007"/>
    <polygon points="97.1457,337.5 97.1457,335.7283 96.5551,332.7756 95.374,331.0039 93.6024,330.4134 92.4213,330.4134 90.6496,331.0039 89.4685,332.7756 88.878,335.7283 88.878,337.5 89.4685,340.4528 90.6496,342.2244 92.4213,342.815 93.6024,342.815 95.374,342.2244 96.5551,340.4528"/>
    <polygon points="80.6102,330.4134 78.8386,331.0039 77.6575,332.7756 77.0669,335.7283 77.0669,337.5 77.6575,340.4528 78.8386,342.2244 80.6102,342.815 81.7913,342.815 83.563,342.2244 84.7441,340.4528 85.3346,337.5 85.3346,335.7283 84.7441,332.7756 83.563,331.0039 81.7913,330.4134"/>
    <polyline points="72.9331,332.185 72.3425,331.0039 70.5709,330.4134 69.3898,330.4134 67.6181,331.0039 66.437,332.7756 65.8465,335.7283 65.8465,338.6811 66.437,341.0433 67.6181,342.2244 69.3898,342.815 71.752,342.2244 72.9331,341.0433 73.5236,339.2717 72.9331,336.9094 71.752,335.7283 69.9803,335.1378 67.6181,335.7283 66.437,336.9094 65.8465,338.6811"/>
    <line x1="61.122" x2="50.4921" y1="339.2717" y2="339.2717"/>
    <line x1="50.4921" x2="61.122" y1="335.7283" y2="335.7283"/>
    <polyline points="45.7677,342.815 45.7677,336.9094 45.1772,335.1378 43.9961,334.5472 42.2244,334.5472 41.0433,335.1378 39.2717,336.9094"/>
    <line x1="39.2717" x2="39.2717" y1="334.5472" y2="342.815"/>
    <line x1="299.1142" x2="305.6102" y1="342.815" y2="334.5472"/>
    <line x1="309.7441" x2="320.374" y1="335.7283" y2="335.7283"/>
    <line x1="320.374" x2="309.7441" y1="339.2717" y2="339.2717"/>
    <line x1="305.6102" x2="299.1142" y1="342.815" y2="334.5472"/>
    <polyline points="325.0984,338.6811 325.689,336.9094 326.8701,335.7283 329.2323,335.1378 331.0039,335.7283 332.185,336.9094 332.7756,339.2717 332.185,341.0433 331.0039,342.2244 328.6417,342.815 326.8701,342.2244 325.689,341.0433 325.0984,338.6811 325.0984,335.7283 325.689,332.7756 326.8701,331.0039 328.6417,330.4134 329.8228,330.4134 331.5945,331.0039 332.185,332.185"/>
    <polyline points="338.0906,332.7756 339.2717,332.185 341.0433,330.4134 341.0433,342.815"/>
  </g>
</svg>
