<?xml version="1.0" encoding="utf-8" ?>
<svg xmlns="http://www.w3.org/2000/svg" xmlns:cc="http://creativecommons.org/ns" xmlns:dc="http://purl.org/dc/elements/1.1/" xmlns:ev="http://www.w3.org/2001/xml-events" xmlns:inkscape="http://www.inkscape.org/namespaces/inkscape" xmlns:rdf="http://www.w3.org/1999/02/22-rdf-syntax-ns" xmlns:sodipodi="http://sodipodi.sourceforge.net/DTD/sodipodi-0.dtd" xmlns:xlink="http://www.w3.org/1999/xlink" baseProfile="tiny" height="10.0cm" version="1.2" viewBox="0 0 377.95275590551176 377.95275590551176" width="10.0cm">
  <metadata>
    <rdf:RDF>
      <cc:Work>
        <dc:format>image/svg+xml</dc:format>
        <dc:source>Vsketch with params {'__seed__': 0, 'r': 4.0, 'multiplier': 110, 'n': 600}</dc:source>
        <dc:date>2025-04-26T12:50:13.447865</dc:date>
      </cc:Work>
    </rdf:RDF>
  </metadata>
  <defs/>
  <g fill="none" id="layer1" inkscape:groupmode="layer" inkscape:label="1" stroke="#0000ff" stroke-width="1.1339" style="display:inline">
    <polyline points="265.048,316.4468 99.2285,64.0108 339.2717,186.3189 338.9276,176.1249 337.8456,165.6029 336.1079,155.5522 333.5943,145.2777 330.3685,135.2041 326.598,125.7268 322.1971,116.5252 316.9887,107.3189 311.8043,99.4245 306.3728,92.1646 300.5158,85.2433 293.9851,78.4205 287.3265,72.2665 280.0113,66.2927 272.3374,60.7872 264.3346,55.7717 256.3716,51.4359 247.8161,47.4355 239.3831,44.105 230.403,41.1797 221.6263,38.9042 212.356,37.0979 202.9911,35.8739 193.5681,35.2371 184.1236,35.1898 175.0711,35.6994 165.6916,36.8063 156.3996,38.4967 147.5951,40.6623 138.5791,43.4751 130.1052,46.7001 121.5003,50.5932 113.1554,55.016 105.419,59.7443 97.9799,64.9278 90.5759,70.7913 83.8258,76.8447 77.1936,83.5688 71.2335,90.4015 65.4723,97.8854 60.3915,105.395 55.5877,113.5266 51.301,121.9423 47.5482,130.6092 44.3438,139.4936 41.7953,148.1949 39.773,157.0334 38.2338,166.3517 37.3064,175.371 36.917,184.8075 37.1176,194.25 37.8646,203.286 39.1519,212.2611 41.0624,221.5104 43.4364,230.2609 46.4625,239.2076 50.0413,247.9478 53.984,256.1126 58.4091,264.0263 63.5143,271.9722 69.1057,279.5837 74.9106,286.5488 81.3899,293.4203 88.2857,299.8738 95.571,305.8842 103.2173,311.4279 110.8698,316.2908 119.1361,320.8589 127.6715,324.902 136.0878,328.2747 145.0532,331.2448 153.8184,333.5641 162.3345,335.2899 170.5603,336.4802 179.2163,337.2393 187.5238,337.4989 196.2103,337.2818 204.4944,336.6074 213.1016,335.4168 221.2577,333.8169 229.677,331.6678 237.602,329.1627 245.7268,326.0822 253.3206,322.7035 260.7172,318.9126 268.215,314.5211 275.1395,309.924 282.097,304.7187 288.744,299.1223 294.7912,293.4203 300.5158,287.3945 306.1371,280.7686 311.3684,273.8306 315.9914,266.9234 320.2279,259.7726 324.2297,252.0598 327.6368,244.4787 330.7477,236.3655 333.3873,228.0869 335.4632,220.0388 337.157,211.5163 338.3165,203.286 339.0432,194.6273 339.2717,186.3189 36.9094,186.3189 310.3986,275.1809 107.0837,58.6725"/>
    <polyline points="105.7514,59.5278 319.0172,110.7283 334.1203,147.1903"/>
    <polyline points="334.522,148.7217 310.3986,275.1809 328.6552,241.9724"/>
    <polyline points="328.0647,243.4413 156.6582,334.1963 177.0183,337.094"/>
    <polyline points="175.44,336.9698 40.2131,217.7512 327.4588,244.9039"/>
    <polyline points="326.8377,246.3602 99.2285,64.0108 88.1127,299.7215"/>
    <line x1="86.9306" x2="45.3187" y1="298.6684" y2="136.6005"/>
    <polyline points="44.8059,138.0983 249.5814,324.4297 43.8274,231.5282"/>
    <line x1="44.3088" x2="183.3418" y1="233.0364" y2="35.2124"/>
    <polyline points="181.7597,35.2704 172.2878,336.6718 194.4214,337.3674"/>
    <polyline points="196.0028,337.2928 319.0172,261.9094 283.2319,303.8087"/>
    <polyline points="284.457,302.8059 310.3986,97.4569 178.5978,35.4361"/>
    <polyline points="180.1783,35.345 319.0172,261.9094 270.4297,59.5278"/>
    <polyline points="271.7529,60.3969 172.2878,336.6718 281.9964,304.7985"/>
    <polyline points="280.7505,305.7754 44.3088,233.0364 273.0669,61.2799"/>
    <polyline points="274.3717,62.1767 86.9306,73.9694 332.8192,230.015"/>
    <polyline points="332.3537,231.5282 249.5814,48.2081 100.5142,309.5508"/>
    <line x1="99.2285" x2="173.8632" y1="308.627" y2="35.8087"/>
    <line x1="172.2878" x2="46.3912" y1="35.966" y2="133.6214"/>
    <line x1="45.8472" x2="44.3088" y1="135.1081" y2="139.6014"/>
    <polyline points="43.8274,141.1096 249.5814,48.2081 331.3752,138.0983"/>
    <polyline points="330.8624,136.6005 86.9306,73.9694 101.8094,310.4611"/>
    <polyline points="103.1142,311.3579 44.3088,233.0364 333.2688,228.4971"/>
    <polyline points="333.7025,226.9745 172.2878,336.6718 42.4786,145.6633"/>
    <line x1="42.0608" x2="319.0172" y1="147.1903" y2="261.9094"/>
    <polyline points="319.8016,260.5343 37.7376,202.1216 125.1568,48.8596"/>
    <line x1="126.5997" x2="36.9177" y1="48.2081" y2="184.7358"/>
    <polyline points="36.9094,186.3189 234.8081,42.5371 51.2978,250.6887"/>
    <polyline points="51.9794,252.1176 75.7411,85.159 167.5729,36.5365"/>
    <line x1="169.1425" x2="234.8081" y1="36.3299" y2="42.5371"/>
    <polyline points="236.3112,43.0342 126.5997,48.2081 339.2634,187.902"/>
    <polyline points="339.2385,189.485 289.2505,73.9694 263.6811,55.3922 203.8933,35.966 37.0421,192.6497"/>
    <polyline points="36.984,191.0676 331.8723,139.6014 339.2717,186.3189 276.9526,308.627 57.9626,263.2763"/>
    <line x1="57.1639" x2="37.1166" y1="261.9094" y2="178.4067"/>
    <polyline points="37.2078,176.8262 65.7825,97.4569 304.5776,282.6854"/>
    <polyline points="305.5803,281.4602 57.1639,261.9094 227.2191,332.3486"/>
    <polyline points="225.6878,332.7504 65.7825,97.4569 150.4933,39.8874"/>
    <polyline points="148.962,40.2892 57.1639,261.9094 314.8817,103.9798"/>
    <polyline points="314.0125,102.6566 203.8933,336.6718 263.6811,317.2456 172.2878,35.966 42.4786,226.9745"/>
    <polyline points="42.9123,228.4971 44.3088,139.6014 339.2717,186.3189 44.3088,233.0364 95.4306,66.8624"/>
    <line x1="94.1847" x2="172.2878" y1="67.8393" y2="336.6718"/>
    <polyline points="170.7142,336.4981 338.4435,202.1216 325.5499,249.2527"/>
    <polyline points="324.8833,250.6887 234.8081,330.1007 169.1425,336.3079"/>
    <polyline points="167.5729,336.1012 75.7411,287.4788 116.6498,53.0825"/>
    <polyline points="118.0489,52.3417 49.9797,124.828 323.5052,253.5393"/>
    <polyline points="324.2017,252.1176 75.7411,287.4788 336.8823,159.547"/>
    <polyline points="336.5938,157.9904 234.8081,330.1007 84.6,296.5252"/>
    <polyline points="85.7597,297.6029 338.4435,202.1216 262.3059,318.03"/>
    <polyline points="263.6811,317.2456 86.9306,73.9694 45.3187,236.0373"/>
    <polyline points="45.8472,237.5297 44.3088,233.0364 192.8393,337.4254"/>
    <polyline points="191.2566,337.4668 86.9306,73.9694 96.6866,65.8986"/>
    <line x1="97.9526" x2="249.5814" y1="64.9481" y2="48.2081"/>
    <line x1="251.0243" x2="37.7376" y1="48.8596" y2="170.5162"/>
    <polyline points="37.5804,172.0915 276.9526,308.627 221.0697,333.8591"/>
    <polyline points="222.6129,333.5056 335.968,154.8866 73.6472,87.5341"/>
    <line x1="74.6879" x2="276.9526" y1="86.341" y2="308.627"/>
    <polyline points="278.2285,307.6897 249.5814,48.2081 186.5074,35.1461"/>
    <line x1="184.9245" x2="86.9306" y1="35.171" y2="73.9694"/>
    <polyline points="88.1127,72.9163 99.2285,308.627 111.1331,316.4468"/>
    <polyline points="112.5,317.2456 156.6582,38.4415 48.1164,243.4413"/>
    <polyline points="48.7223,244.9039 40.2131,154.8866 175.44,35.668"/>
    <polyline points="177.0183,35.5438 156.6582,38.4415 267.7563,57.8312"/>
    <polyline points="269.0974,58.6725 310.3986,97.4569 197.5833,337.2017"/>
    <polyline points="199.1628,337.094 156.6582,38.4415 285.6716,301.7904"/>
    <polyline points="286.8754,300.7622 40.2131,154.8866 89.3057,71.8756"/>
    <line x1="90.5095" x2="156.6582" y1="70.8474" y2="38.4415"/>
    <polyline points="155.1114,38.7787 276.9526,308.627 128.0493,325.0661"/>
    <polyline points="129.5055,325.6872 335.968,154.8866 153.5682,39.1322"/>
    <polyline points="152.0288,39.5017 219.5229,38.4415 316.5783,106.6531"/>
    <line x1="317.4055" x2="335.968" y1="108.003" y2="154.8866"/>
    <polyline points="336.289,156.4368 338.4435,202.1216 290.4214,75.0349"/>
    <line x1="289.2505" x2="312.2328" y1="73.9694" y2="100.0378"/>
    <polyline points="313.1295,101.3425 331.8723,233.0364 136.8798,328.5623"/>
    <polyline points="138.3721,329.0908 289.2505,73.9694 36.9426,183.1528"/>
    <polyline points="36.984,181.5702 331.8723,233.0364 307.5471,278.9789"/>
    <polyline points="308.5108,277.7229 289.2505,73.9694 237.809,43.547"/>
    <polyline points="239.3013,44.0755 331.8723,233.0364 339.2717,186.3189 276.9526,64.0108 37.5804,200.5463"/>
    <line x1="37.7376" x2="217.9726" y1="202.1216" y2="38.1204"/>
    <line x1="216.4191" x2="141.373" y1="37.8156" y2="330.1007"/>
    <polyline points="139.8699,329.6036 126.5997,48.2081 142.8812,42.0558"/>
    <polyline points="144.3944,41.5903 289.2505,73.9694 231.7867,331.0475"/>
    <polyline points="233.2999,330.582 126.5997,48.2081 66.7197,96.181"/>
    <line x1="65.7825" x2="71.6035" y1="97.4569" y2="89.9524"/>
    <polyline points="72.619,88.7379 219.5229,38.4415 224.1523,333.136"/>
    <line x1="219.5229" x2="59.6028" y1="334.1963" y2="106.6531"/>
    <polyline points="58.7756,108.003 335.968,217.7512 246.6756,325.6872"/>
    <polyline points="245.2129,326.293 219.5229,334.1963 338.8657,175.2467"/>
    <polyline points="338.9733,176.8262 65.7825,275.1809 71.6035,282.6854"/>
    <polyline points="70.6008,281.4602 57.1639,110.7283 242.269,327.4586"/>
    <polyline points="243.744,326.8835 65.7825,275.1809 315.737,267.3258"/>
    <polyline points="314.8817,268.658 57.1639,110.7283 148.962,332.3486"/>
    <polyline points="150.4933,332.7504 65.7825,275.1809 225.6878,39.8874"/>
    <polyline points="227.2191,40.2892 57.1639,110.7283 305.5803,91.1775"/>
    <polyline points="304.5776,89.9524 65.7825,275.1809 60.4441,105.312"/>
    <line x1="61.2994" x2="57.1639" y1="103.9798" y2="110.7283"/>
    <polyline points="57.9626,109.3615 276.9526,64.0108 318.2185,263.2763"/>
    <polyline points="317.4055,264.6348 335.968,217.7512 302.5339,87.5341"/>
    <polyline points="301.4932,86.341 276.9526,64.0108 338.6007,172.0915"/>
    <line x1="338.7414" x2="335.968" y1="173.6684" y2="217.7512"/>
    <polyline points="336.289,216.201 338.4435,170.5162 112.5,55.3922 37.7376,202.1216 158.2085,334.5174"/>
    <polyline points="159.762,334.8222 141.373,330.1007 77.8843,289.8095"/>
    <polyline points="76.8066,288.6498 37.7376,202.1216 299.3745,83.988"/>
    <polyline points="298.2968,82.8283 141.373,330.1007 338.0795,167.3709"/>
    <polyline points="338.2697,168.9426 37.7376,202.1216 56.3795,112.1035"/>
    <polyline points="55.6095,113.4868 141.373,330.1007 252.4603,323.1116"/>
    <polyline points="253.8893,322.4301 300.44,287.4788 54.8541,114.8782"/>
    <polyline points="54.1133,116.2773 326.2014,124.828 255.311,321.7336"/>
    <polyline points="256.7253,321.0222 188.0906,35.1378 322.7939,254.9537"/>
    <polyline points="322.0678,256.3605 326.2014,124.828 296.1053,80.543"/>
    <polyline points="297.2071,81.6799 300.44,287.4788 321.327,257.7596"/>
    <polyline points="320.5716,259.1509 141.373,330.1007 123.7208,49.5261"/>
    <polyline points="122.2918,50.2077 300.44,287.4788 337.8729,165.8013"/>
    <polyline points="337.6498,164.2339 326.2014,124.828 80.0758,292.0948"/>
    <polyline points="81.1894,293.2201 188.0906,35.1378 211.7405,36.9991"/>
    <line x1="210.1755" x2="49.9797" y1="36.7596" y2="124.828"/>
    <polyline points="50.6312,123.3851 338.4435,202.1216 205.4669,36.1397"/>
    <line x1="203.8933" x2="135.393" y1="35.966" y2="44.6196"/>
    <polyline points="133.9121,45.1792 57.1639,110.7283 339.0645,178.4067"/>
    <polyline points="339.139,179.9881 203.8933,35.966 228.7461,40.7069"/>
    <line x1="230.2687" x2="331.8723" y1="41.1406" y2="139.6014"/>
    <polyline points="332.3537,141.1096 249.5814,324.4297 97.9526,307.6897"/>
    <polyline points="96.6866,306.7392 86.9306,298.6684 184.9245,337.4668"/>
    <polyline points="186.5074,337.4917 249.5814,324.4297 331.3752,234.5395"/>
    <line x1="331.8723" x2="339.1971" y1="233.0364" y2="191.0676"/>
    <polyline points="339.139,192.6497 203.8933,336.6718 228.7461,331.9309"/>
    <polyline points="230.2687,331.4972 331.8723,233.0364 68.634,93.6589"/>
    <polyline points="67.6703,94.9149 289.2505,73.9694 63.9483,272.6"/>
    <polyline points="64.8586,273.8953 126.5997,48.2081 112.5,55.3922"/>
    <polyline points="111.1331,56.191 99.2285,64.0108 40.5504,219.298"/>
    <polyline points="40.9038,220.8412 40.2131,217.7512 263.6811,55.3922 49.9797,124.828 39.0266,211.5312"/>
    <polyline points="38.7707,209.9688 188.0906,35.1378 339.2717,186.3189 99.2285,308.627 202.3179,336.8291"/>
    <polyline points="200.7411,336.9698 40.2131,154.8866 109.7747,315.6338"/>
    <polyline points="108.4248,314.8066 156.6582,38.4415 41.2734,150.2571"/>
    <line x1="41.6591" x2="310.3986" y1="148.7217" y2="97.4569"/>
    <polyline points="311.3225,98.7425 126.5997,48.2081 309.4614,276.4568"/>
    <line x1="310.3986" x2="47.5259" y1="275.1809" y2="130.6654"/>
    <line x1="46.9508" x2="319.0172" y1="132.1404" y2="110.7283"/>
    <polyline points="319.8016,112.1035 37.7376,170.5162 125.1568,323.7782"/>
    <line x1="126.5997" x2="233.2999" y1="324.4297" y2="42.0558"/>
    <polyline points="231.7867,41.5903 289.2505,298.6684 308.5108,94.9149"/>
    <polyline points="309.4614,96.181 126.5997,324.4297 66.7197,276.4568"/>
    <line x1="65.7825" x2="132.4371" y1="275.1809" y2="45.7543"/>
    <polyline points="130.9682,46.3448 219.5229,334.1963 72.619,283.8999"/>
    <polyline points="73.6472,285.1037 335.968,217.7512 222.6129,39.1322"/>
    <polyline points="224.1523,39.5017 219.5229,334.1963 316.5783,265.9847"/>
    <polyline points="314.0125,269.9812 203.8933,35.966 306.5702,92.4131"/>
    <polyline points="307.5471,93.6589 331.8723,139.6014 339.1971,181.5702"/>
    <polyline points="339.2385,183.1528 289.2505,298.6684 144.3944,331.0475"/>
    <polyline points="142.8812,330.582 126.5997,324.4297 311.3225,273.8953"/>
    <polyline points="312.2328,272.6 289.2505,298.6684 237.809,329.0908"/>
    <polyline points="239.3013,328.5623 331.8723,139.6014 63.0516,101.3425"/>
    <polyline points="62.1686,102.6566 203.8933,35.966 240.7881,328.0182"/>
    <polyline points="236.3112,329.6036 126.5997,324.4297 139.8699,43.0342"/>
    <line x1="141.373" x2="159.762" y1="42.5371" y2="37.8156"/>
    <polyline points="158.2085,38.1204 37.7376,170.5162 299.3745,288.6498"/>
    <line x1="300.44" x2="214.8624" y1="287.4788" y2="37.5271"/>
    <polyline points="213.3028,37.2549 326.2014,124.828 162.8783,335.3829"/>
    <polyline points="164.4406,335.6387 188.0906,35.1378 53.3872,117.6841"/>
    <polyline points="52.6759,119.0985 49.9797,124.828 293.8664,78.3041"/>
    <line x1="294.9917" x2="188.0906" y1="79.4177" y2="35.1378"/>
    <polyline points="189.6737,35.1461 249.5814,324.4297 112.5,55.3922 156.6582,334.1963 41.2734,222.3806"/>
    <polyline points="41.6591,223.9161 310.3986,275.1809 269.0974,313.9653"/>
    <polyline points="267.7563,314.8066 156.6582,334.1963 90.5095,301.7904"/>
    <polyline points="89.3057,300.7622 40.2131,217.7512 335.2773,151.7966"/>
    <polyline points="334.9077,150.2571 156.6582,334.1963 108.4248,57.8312"/>
    <line x1="109.7747" x2="40.2131" y1="57.004" y2="217.7512"/>
    <polyline points="39.8921,216.201 338.4435,202.1216 112.5,317.2456 57.1639,261.9094 61.2994,268.658"/>
    <polyline points="60.4441,267.3258 65.7825,97.4569 338.9733,195.8116"/>
    <polyline points="339.0645,194.2311 57.1639,261.9094 242.269,45.1792"/>
    <line x1="240.7881" x2="203.8933" y1="44.6196" y2="336.6718"/>
    <polyline points="205.4669,336.4981 338.4435,170.5162 325.5499,123.3851"/>
    <line x1="326.2014" x2="120.8701" y1="124.828" y2="50.9042"/>
    <polyline points="119.4558,51.6155 188.0906,35.1378 337.4104,162.669"/>
    <polyline points="337.1545,161.1066 49.9797,124.828 258.1322,320.2961"/>
    <polyline points="259.5313,319.5553 75.7411,287.4788 208.6082,36.5365"/>
    <line x1="207.0386" x2="234.8081" y1="36.3299" y2="330.1007"/>
    <polyline points="248.1318,325.0661 276.9526,64.0108 74.6879,286.2968"/>
    <line x1="75.7411" x2="292.7295" y1="287.4788" y2="77.2024"/>
    <polyline points="291.5811,76.1126 234.8081,330.1007 115.2585,53.8379"/>
    <line x1="113.8752" x2="338.4435" y1="54.6078" y2="202.1216"/>
    <polyline points="338.2697,203.6952 37.7376,170.5162 112.5,317.2456 219.5229,334.1963 37.3154,197.3911"/>
    <polyline points="37.2078,195.8116 65.7825,275.1809 36.9094,186.3189 65.7825,97.4569 315.737,105.312"/>
    <polyline points="318.2185,109.3615 276.9526,308.627 248.1318,47.5717"/>
    <polyline points="246.6756,46.9506 335.968,154.8866 58.7756,264.6348"/>
    <polyline points="59.6028,265.9847 219.5229,38.4415 245.2129,46.3448"/>
    <polyline points="243.744,45.7543 65.7825,97.4569 132.4371,326.8835"/>
    <polyline points="133.9121,327.4586 57.1639,261.9094 70.6008,91.1775"/>
    <polyline points="69.6109,92.4131 203.8933,336.6718 306.5702,280.2247"/>
    <polyline points="303.5621,283.8999 219.5229,38.4415 112.5,55.3922 319.0172,261.9094 46.9508,240.4974"/>
    <polyline points="46.3912,239.0164 172.2878,336.6718 263.6811,55.3922 335.968,154.8866 37.4397,173.6684"/>
    <line x1="37.3154" x2="219.5229" y1="175.2467" y2="38.4415"/>
    <polyline points="221.0697,38.7787 276.9526,64.0108 155.1114,333.8591"/>
    <line x1="156.6582" x2="199.1628" y1="334.1963" y2="35.5438"/>
    <polyline points="197.5833,35.4361 310.3986,275.1809 284.457,69.8319"/>
    <polyline points="283.2319,68.8291 319.0172,110.7283 180.1783,337.2928"/>
    <polyline points="178.5978,337.2017 310.3986,275.1809 91.7241,302.8059"/>
    <polyline points="92.9492,303.8087 319.0172,110.7283 270.4297,313.11"/>
    <polyline points="271.7529,312.2408 172.2878,35.966 333.7025,145.6633"/>
    <polyline points="333.2688,144.1407 44.3088,139.6014 330.3339,237.5297"/>
    <polyline points="330.8624,236.0373 86.9306,298.6684 191.2566,35.171"/>
    <polyline points="192.8393,35.2124 44.3088,139.6014 273.0669,311.3579"/>
    <polyline points="274.3717,310.4611 86.9306,298.6684 43.3619,230.015"/>
    <polyline points="42.0608,225.4474 319.0172,110.7283 112.5,317.2456 75.7411,85.159 83.4516,77.2024"/>
    <line x1="82.3147" x2="49.9797" y1="78.3041" y2="247.8098"/>
    <polyline points="50.6312,249.2527 338.4435,170.5162 262.3059,54.6078"/>
    <polyline points="263.6811,55.3922 326.2014,247.8098 54.1133,256.3605"/>
    <polyline points="53.3872,254.9537 188.0906,337.5 339.2717,186.3189"/>
    <polyline points="339.2634,184.7358 126.5997,324.4297 64.8586,98.7425"/>
    <line x1="63.9483" x2="289.2505" y1="100.0378" y2="298.6684"/>
    <polyline points="290.4214,297.6029 338.4435,170.5162 170.7142,36.1397"/>
    <polyline points="166.0056,36.7596 49.9797,247.8098 293.8664,294.3337"/>
    <polyline points="292.7295,295.4354 75.7411,85.159 324.2017,120.5202"/>
    <polyline points="324.8833,121.9491 234.8081,42.5371 260.9226,53.8379"/>
    <line x1="259.5313" x2="75.7411" y1="53.0825" y2="85.159"/>
    <polyline points="76.8066,83.988 37.7376,170.5162 56.3795,260.5343"/>
    <polyline points="55.6095,259.1509 141.373,42.5371 36.9094,186.3189 234.8081,330.1007 39.5873,214.6474"/>
    <polyline points="39.2988,213.0908 75.7411,287.4788 112.5,55.3922 300.44,85.159 297.2071,290.9579"/>
    <polyline points="298.2968,289.8095 141.373,42.5371 38.1016,167.3709"/>
    <polyline points="37.9114,168.9426 37.7376,170.5162 217.9726,334.5174"/>
    <polyline points="216.4191,334.8222 141.373,42.5371 338.0795,205.2669"/>
    <polyline points="337.8729,206.8365 300.44,85.159 214.8624,335.1107"/>
    <polyline points="213.3028,335.3829 326.2014,247.8098 162.8783,37.2549"/>
    <polyline points="161.3187,37.5271 300.44,85.159 78.974,81.6799"/>
    <polyline points="77.8843,82.8283 141.373,42.5371 320.5716,113.4868"/>
    <polyline points="321.327,114.8782 300.44,85.159 122.2918,322.4301"/>
    <polyline points="123.7208,323.1116 141.373,42.5371 252.4603,49.5261"/>
    <polyline points="253.8893,50.2077 300.44,85.159 54.8541,257.7596"/>
    <polyline points="52.6759,253.5393 49.9797,247.8098 210.1755,335.8782"/>
    <polyline points="211.7405,335.6387 188.0906,337.5 164.4406,36.9991"/>
    <polyline points="147.435,40.7069 203.8933,336.6718 135.393,328.0182"/>
    <polyline points="130.9682,326.293 219.5229,38.4415 338.8657,197.3911"/>
    <polyline points="338.7414,198.9694 335.968,154.8866 302.5339,285.1037"/>
    <polyline points="301.4932,286.2968 276.9526,308.627 338.6007,200.5463"/>
    <polyline points="337.6498,208.4039 326.2014,247.8098 120.8701,321.7336"/>
    <polyline points="119.4558,321.0222 188.0906,337.5 322.7939,117.6841"/>
    <polyline points="323.5052,119.0985 49.9797,247.8098 39.0266,161.1066"/>
    <polyline points="38.7707,162.669 188.0906,337.5 294.9917,293.2201"/>
    <polyline points="296.1053,292.0948 326.2014,247.8098 80.0758,80.543"/>
    <polyline points="81.1894,79.4177 188.0906,337.5 337.4104,209.9688"/>
    <polyline points="337.1545,211.5312 49.9797,247.8098 263.6811,317.2456 289.2505,298.6684 36.9426,189.485"/>
    <polyline points="36.9177,187.902 126.5997,324.4297 112.5,317.2456 263.6811,317.2456 263.6811,55.3922 263.6811,317.2456 326.2014,124.828 38.5313,208.4039"/>
    <polyline points="38.3082,206.8365 300.44,287.4788 112.5,317.2456 249.5814,48.2081 189.6737,337.4917"/>
    <line x1="188.0906" x2="256.7253" y1="337.5" y2="51.6155"/>
    <polyline points="258.1322,52.3417 49.9797,247.8098 118.0489,320.2961"/>
    <polyline points="116.6498,319.5553 75.7411,85.159 336.8823,213.0908"/>
    <polyline points="336.5938,214.6474 234.8081,42.5371 115.2585,318.7999"/>
    <polyline points="113.8752,318.03 338.4435,170.5162 39.8921,156.4368"/>
    <line x1="40.2131" x2="40.9038" y1="154.8866" y2="151.7966"/>
    <polyline points="40.5504,153.3398 99.2285,308.627 265.048,56.191"/>
    <polyline points="266.4064,57.004 40.2131,154.8866 335.2773,220.8412"/>
    <polyline points="334.9077,222.3806 156.6582,38.4415 328.0647,129.1965"/>
    <polyline points="327.4588,127.7339 40.2131,154.8866 263.6811,317.2456 335.968,217.7512 37.4397,198.9694"/>
    <polyline points="37.9114,203.6952 37.7376,202.1216 251.0243,323.7782"/>
    <line x1="249.5814" x2="100.5142" y1="324.4297" y2="63.087"/>
    <polyline points="101.8094,62.1767 86.9306,298.6684 263.6811,55.3922 112.5,55.3922 57.1639,110.7283 37.1166,194.2311"/>
    <polyline points="38.1016,205.2669 141.373,330.1007 36.9094,186.3189 310.3986,97.4569 91.7241,69.8319"/>
    <polyline points="92.9492,68.8291 319.0172,261.9094 334.1203,225.4474"/>
    <polyline points="334.522,223.9161 310.3986,97.4569 328.6552,130.6654"/>
    <polyline points="329.2303,132.1404 319.0172,261.9094 105.7514,313.11"/>
    <polyline points="104.4282,312.2408 172.2878,336.6718 329.7899,133.6214"/>
    <polyline points="330.3339,135.1081 44.3088,233.0364 42.9123,144.1407"/>
    <polyline points="43.3619,142.6228 86.9306,73.9694 279.4945,306.7392"/>
    <polyline points="275.6669,309.5508 249.5814,324.4297 278.2285,64.9481"/>
    <polyline points="279.4945,65.8986 86.9306,298.6684 332.8192,142.6228"/>
    <polyline points="335.6307,153.3398 99.2285,64.0108 202.3179,35.8087"/>
    <polyline points="200.7411,35.668 40.2131,217.7512 48.7223,127.7339"/>
    <polyline points="49.3434,126.2776 99.2285,64.0108 173.8632,336.8291"/>
    <polyline points="181.7597,337.3674 172.2878,35.966 94.1847,304.7985"/>
    <polyline points="95.4306,305.7754 44.3088,139.6014 280.7505,66.8624"/>
    <polyline points="281.9964,67.8393 172.2878,35.966 194.4214,35.2704"/>
    <polyline points="196.0028,35.345 319.0172,110.7283 329.2303,240.4974"/>
    <polyline points="329.7899,239.0164 172.2878,35.966 104.4282,60.3969"/>
    <polyline points="103.1142,61.2799 44.3088,139.6014 183.3418,337.4254"/>
    <polyline points="166.0056,335.8782 49.9797,124.828 82.3147,294.3337"/>
    <polyline points="83.4516,295.4354 75.7411,287.4788 51.9794,120.5202"/>
    <polyline points="51.2978,121.9491 234.8081,330.1007 260.9226,318.7999"/>
    <polyline points="266.4064,315.6338 40.2131,217.7512 286.8754,71.8756"/>
    <polyline points="285.6716,70.8474 156.6582,334.1963 48.1164,129.1965"/>
    <polyline points="39.5873,157.9904 234.8081,42.5371 207.0386,336.3079"/>
    <polyline points="208.6082,336.1012 75.7411,85.159 39.2988,159.547"/>
    <line x1="38.5313" x2="326.2014" y1="164.2339" y2="247.8098"/>
    <polyline points="313.1295,271.2953 331.8723,139.6014 145.9124,331.4972"/>
    <polyline points="147.435,331.9309 203.8933,35.966 69.6109,280.2247"/>
    <polyline points="68.634,278.9789 331.8723,139.6014 136.8798,44.0755"/>
    <polyline points="138.3721,43.547 289.2505,298.6684 67.6703,277.7229"/>
    <polyline points="63.0516,271.2953 331.8723,233.0364 145.9124,41.1406"/>
    <polyline points="129.5055,46.9506 335.968,217.7512 153.5682,333.5056"/>
    <polyline points="152.0288,333.136 219.5229,334.1963 303.5621,88.7379"/>
    <line x1="300.44" x2="38.3082" y1="85.159" y2="165.8013"/>
    <polyline points="37.0421,179.9881 203.8933,336.6718 62.1686,269.9812"/>
    <polyline points="49.3434,246.3602 99.2285,308.627 288.0684,299.7215"/>
    <polyline points="291.5811,296.5252 234.8081,42.5371 84.6,76.1126"/>
    <line x1="85.7597" x2="338.4435" y1="75.0349" y2="170.5162"/>
    <polyline points="326.8377,126.2776 99.2285,308.627 335.6307,219.298"/>
    <polyline points="322.0678,116.2773 326.2014,247.8098 255.311,50.9042"/>
    <polyline points="275.6669,63.087 249.5814,48.2081 44.8059,234.5395"/>
    <polyline points="47.5259,241.9724 310.3986,97.4569 107.0837,313.9653"/>
    <polygon points="88.878,335.7283 88.878,337.5 89.4685,340.4528 90.6496,342.2244 92.4213,342.815 93.6024,342.815 95.374,342.2244 96.5551,340.4528 97.1457,337.5 97.1457,335.7283 96.5551,332.7756 95.374,331.0039 93.6024,330.4134 92.4213,330.4134 90.6496,331.0039 89.4685,332.7756"/>
    <polygon points="85.3346,335.7283 84.7441,332.7756 83.563,331.0039 81.7913,330.4134 80.6102,330.4134 78.8386,331.0039 77.6575,332.7756 77.0669,335.7283 77.0669,337.5 77.6575,340.4528 78.8386,342.2244 80.6102,342.815 81.7913,342.815 83.563,342.2244 84.7441,340.4528 85.3346,337.5"/>
    <polyline points="72.9331,332.185 72.3425,331.0039 70.5709,330.4134 69.3898,330.4134 67.6181,331.0039 66.437,332.7756 65.8465,335.7283 65.8465,338.6811 66.437,341.0433 67.6181,342.2244 69.3898,342.815 71.752,342.2244 72.9331,341.0433 73.5236,339.2717 72.9331,336.9094 71.752,335.7283 69.9803,335.1378 67.6181,335.7283 66.437,336.9094 65.8465,338.6811"/>
    <line x1="61.122" x2="50.4921" y1="339.2717" y2="339.2717"/>
    <line x1="50.4921" x2="61.122" y1="335.7283" y2="335.7283"/>
    <polyline points="45.7677,342.815 45.7677,336.9094 45.1772,335.1378 43.9961,334.5472 42.2244,334.5472 41.0433,335.1378 39.2717,336.9094"/>
    <line x1="39.2717" x2="39.2717" y1="334.5472" y2="342.815"/>
    <polyline points="78.974,290.9579 300.44,287.4788 161.3187,335.1107"/>
    <line x1="283.7598" x2="290.2559" y1="334.5472" y2="342.815"/>
    <line x1="294.3898" x2="305.0197" y1="339.2717" y2="339.2717"/>
    <line x1="305.0197" x2="294.3898" y1="335.7283" y2="335.7283"/>
    <line x1="290.2559" x2="283.7598" y1="334.5472" y2="342.815"/>
    <polyline points="310.9252,332.7756 312.1063,332.185 313.878,330.4134 313.878,342.815"/>
    <polyline points="325.689,342.815 325.689,330.4134 323.9173,332.185 322.7362,332.7756"/>
    <polygon points="333.3661,332.7756 332.7756,335.7283 332.7756,337.5 333.3661,340.4528 334.5472,342.2244 336.3189,342.815 337.5,342.815 339.2717,342.2244 340.4528,340.4528 341.0433,337.5 341.0433,335.7283 340.4528,332.7756 339.2717,331.0039 337.5,330.4134 336.3189,330.4134 334.5472,331.0039"/>
    <line x1="288.0684" x2="99.2285" y1="72.9163" y2="64.0108"/>
    <line x1="128.0493" x2="276.9526" y1="47.5717" y2="64.0108"/>
  </g>
</svg>
