<?xml version="1.0" encoding="utf-8" ?>
<svg xmlns="http://www.w3.org/2000/svg" xmlns:cc="http://creativecommons.org/ns" xmlns:dc="http://purl.org/dc/elements/1.1/" xmlns:ev="http://www.w3.org/2001/xml-events" xmlns:inkscape="http://www.inkscape.org/namespaces/inkscape" xmlns:rdf="http://www.w3.org/1999/02/22-rdf-syntax-ns" xmlns:sodipodi="http://sodipodi.sourceforge.net/DTD/sodipodi-0.dtd" xmlns:xlink="http://www.w3.org/1999/xlink" baseProfile="tiny" height="10.0cm" version="1.2" viewBox="0 0 377.95275590551176 377.95275590551176" width="10.0cm">
  <metadata>
    <rdf:RDF>
      <cc:Work>
        <dc:format>image/svg+xml</dc:format>
        <dc:source>Vsketch with params {'__seed__': 0, 'r': 4.0, 'multiplier': 8, 'n': 600}</dc:source>
        <dc:date>2025-04-26T20:24:04.250317</dc:date>
      </cc:Work>
    </rdf:RDF>
  </metadata>
  <defs/>
  <g fill="none" id="layer1" inkscape:groupmode="layer" inkscape:label="1" stroke="#0000ff" stroke-width="1.1339" style="display:inline">
    <polyline points="339.2717,186.3189 338.6936,173.1112 337.0292,160.3767 334.1934,147.4641 330.3685,135.2041 325.5168,123.313 319.6734,111.8765 312.6668,100.6656 304.9476,90.4015 296.3852,80.8295 286.7552,71.7719 276.6772,63.8112 265.6359,56.5404 254.3413,50.4272 242.5687,45.2946 230.403,41.1797 217.5614,38.0381 204.87,36.0718 192.0575,35.1898 179.2163,35.3985 166.0654,36.7508 153.4505,39.1598 140.7267,42.7487 128.7123,47.2867 116.793,53.0058 105.419,59.7443 94.9745,67.2176 85.2019,75.5504 75.9182,84.9626 67.7206,94.8487 60.3915,105.395 53.984,116.5252 48.3994,128.508 43.8829,140.9329 40.5512,153.3361 38.2338,166.3517 37.0799,179.1426 37.0303,192.3628 38.0883,205.1619 40.2288,217.8251 43.4364,230.2609 47.8284,242.7304 53.1223,254.4313 59.3903,265.6408 66.8121,276.5812 74.9106,286.5488 84.0997,296.0533 93.7885,304.4834 104.1577,312.0607 112.8275,317.4341 121.8398,322.2106 131.1536,326.3686 140.7267,329.889 150.5153,332.756 160.475,334.9564 170.5603,336.4802 180.7255,337.3205 190.9242,337.4734 201.11,336.9383 211.2365,335.7177 221.2577,333.8169 231.1279,331.2448 240.8022,328.013 250.2366,324.1362 259.3881,319.632 268.215,314.5211 276.6772,308.8266 284.7362,302.5744 292.3553,295.793 299.4998,288.5134 306.1371,280.7686 312.2371,272.5938 317.772,264.0263 322.7166,255.1051 327.0484,245.8708 330.7477,236.3655 333.7976,226.6323 336.1843,216.7156 337.8969,206.6606 338.9276,196.5129 339.2717,186.3189 36.9094,186.3189 294.9917,293.2201"/>
    <line x1="293.8664" x2="259.5313" y1="294.3337" y2="53.0825"/>
    <line x1="260.9226" x2="284.457" y1="53.8379" y2="302.8059"/>
    <polyline points="283.2319,303.8087 86.9306,73.9694 92.9492,68.8291"/>
    <polyline points="91.7241,69.8319 77.8843,82.8283 338.6007,200.5463"/>
    <polyline points="338.7414,198.9694 69.6109,92.4131 72.619,283.8999"/>
    <polyline points="73.6472,285.1037 62.1686,102.6566 199.1628,35.5438"/>
    <polyline points="197.5833,35.4361 55.6095,113.4868 338.9733,195.8116"/>
    <polyline points="339.0645,194.2311 49.9797,124.828 75.7411,287.4788"/>
    <polyline points="74.6879,286.2968 55.6095,113.4868 37.2078,176.8262"/>
    <polyline points="37.1166,178.4067 49.9797,124.828 289.2505,298.6684"/>
    <polyline points="290.4214,297.6029 45.3187,136.6005 76.8066,288.6498"/>
    <line x1="77.8843" x2="338.6007" y1="289.8095" y2="172.0915"/>
    <polyline points="338.7414,173.6684 69.6109,280.2247 303.5621,283.8999"/>
    <line x1="302.5339" x2="258.1322" y1="285.1037" y2="52.3417"/>
    <line x1="256.7253" x2="310.3986" y1="51.6155" y2="275.1809"/>
    <polyline points="309.4614,276.4568 129.5055,325.6872 38.5313,208.4039"/>
    <polyline points="38.7707,209.9688 141.373,330.1007 310.3986,97.4569 141.373,42.5371 310.3986,275.1809 141.373,330.1007 211.7405,335.6387"/>
    <polyline points="210.1755,335.8782 129.5055,325.6872 97.9526,307.6897"/>
    <line x1="96.6866" x2="306.5702" y1="306.7392" y2="280.2247"/>
    <polyline points="307.5471,278.9789 107.0837,313.9653 169.1425,36.3299"/>
    <polyline points="167.5729,36.5365 118.0489,320.2961 208.6082,336.1012"/>
    <polyline points="207.0386,336.3079 107.0837,313.9653 95.4306,305.7754"/>
    <polyline points="94.1847,304.7985 96.6866,306.7392 281.9964,67.8393"/>
    <line x1="280.7505" x2="107.0837" y1="66.8624" y2="313.9653"/>
    <polyline points="108.4248,314.8066 228.7461,331.9309 316.5783,265.9847"/>
    <line x1="317.4055" x2="331.3752" y1="264.6348" y2="138.0983"/>
    <polyline points="330.8624,136.6005 323.5052,253.5393 122.2918,322.4301"/>
    <polyline points="123.7208,323.1116 328.6552,241.9724 324.8833,250.6887"/>
    <polyline points="325.5499,249.2527 332.8192,230.015 50.6312,123.3851"/>
    <line x1="49.9797" x2="196.0028" y1="124.828" y2="35.345"/>
    <line x1="194.4214" x2="45.3187" y1="35.2704" y2="136.6005"/>
    <polyline points="44.8059,138.0983 317.4055,108.003 331.3752,234.5395"/>
    <polyline points="331.8723,233.0364 310.3986,97.4569 53.3872,254.9537"/>
    <polyline points="54.1133,256.3605 302.5339,87.5341 332.3537,231.5282"/>
    <line x1="332.8192" x2="251.0243" y1="230.015" y2="48.8596"/>
    <line x1="252.4603" x2="225.6878" y1="49.5261" y2="39.8874"/>
    <line x1="227.2191" x2="263.6811" y1="40.2892" y2="55.3922"/>
    <polyline points="262.3059,54.6078 274.3717,310.4611 319.8016,260.5343"/>
    <polyline points="319.0172,261.9094 263.6811,317.2456 227.2191,332.3486"/>
    <polyline points="225.6878,332.7504 252.4603,323.1116 150.4933,39.8874"/>
    <line x1="148.962" x2="263.6811" y1="40.2892" y2="317.2456"/>
    <polyline points="262.3059,318.03 274.3717,62.1767 42.4786,145.6633"/>
    <polyline points="42.0608,147.1903 263.6811,55.3922 148.962,332.3486"/>
    <polyline points="150.4933,332.7504 252.4603,49.5261 318.2185,109.3615"/>
    <line x1="317.4055" x2="120.8701" y1="108.003" y2="50.9042"/>
    <polyline points="119.4558,51.6155 310.3986,97.4569 322.7939,117.6841"/>
    <line x1="323.5052" x2="324.2017" y1="119.0985" y2="120.5202"/>
    <polyline points="324.8833,121.9491 328.6552,130.6654 45.8472,135.1081"/>
    <polyline points="46.3912,133.6214 332.8192,142.6228 325.5499,123.3851"/>
    <line x1="326.2014" x2="335.968" y1="124.828" y2="154.8866"/>
    <polyline points="336.289,156.4368 191.2566,337.4668 39.8921,216.201"/>
    <polyline points="39.5873,214.6474 178.5978,337.2017 103.1142,311.3579"/>
    <polyline points="101.8094,310.4611 166.0056,335.8782 214.8624,335.1107"/>
    <line x1="216.4191" x2="269.0974" y1="334.8222" y2="58.6725"/>
    <line x1="267.7563" x2="228.7461" y1="57.8312" y2="331.9309"/>
    <polyline points="230.2687,331.4972 284.457,302.8059 320.5716,259.1509"/>
    <polyline points="321.327,257.7596 293.8664,294.3337 54.8541,114.8782"/>
    <polyline points="54.1133,116.2773 302.5339,285.1037 43.8274,231.5282"/>
    <polyline points="44.3088,233.0364 310.3986,275.1809 234.8081,330.1007"/>
    <polyline points="233.2999,330.582 302.5339,285.1037 322.0678,256.3605"/>
    <polyline points="322.7939,254.9537 310.3986,275.1809 331.8723,139.6014"/>
    <polyline points="332.3537,141.1096 302.5339,285.1037 142.8812,42.0558"/>
    <polyline points="144.3944,41.5903 293.8664,294.3337 116.6498,319.5553"/>
    <line x1="118.0489" x2="337.8729" y1="320.2961" y2="165.8013"/>
    <polyline points="337.6498,164.2339 129.5055,325.6872 278.2285,64.9481"/>
    <polyline points="279.4945,65.8986 118.0489,320.2961 308.5108,277.7229"/>
    <polyline points="305.5803,281.4602 86.9306,298.6684 283.2319,68.8291"/>
    <line x1="284.457" x2="42.9123" y1="69.8319" y2="144.1407"/>
    <polyline points="43.3619,142.6228 293.8664,78.3041 259.5313,319.5553"/>
    <polyline points="260.9226,318.7999 284.457,69.8319 115.2585,53.8379"/>
    <polyline points="113.8752,54.6078 274.3717,62.1767 56.3795,260.5343"/>
    <line x1="55.6095" x2="338.9733" y1="259.1509" y2="176.8262"/>
    <polyline points="338.8657,175.2467 62.1686,269.9812 286.8754,71.8756"/>
    <polyline points="285.6716,70.8474 69.6109,280.2247 72.619,88.7379"/>
    <polyline points="71.6035,89.9524 77.8843,289.8095 37.5804,200.5463"/>
    <polyline points="37.7376,202.1216 86.9306,298.6684 70.6008,91.1775"/>
    <line x1="69.6109" x2="90.5095" y1="92.4131" y2="70.8474"/>
    <line x1="89.3057" x2="62.1686" y1="71.8756" y2="102.6566"/>
    <line x1="63.0516" x2="178.5978" y1="101.3425" y2="337.2017"/>
    <polyline points="180.1783,337.2928 49.9797,124.828 300.44,85.159"/>
    <line x1="301.4932" x2="55.6095" y1="86.341" y2="113.4868"/>
    <polyline points="56.3795,112.1035 274.3717,310.4611 42.4786,226.9745"/>
    <polyline points="42.9123,228.4971 284.457,302.8059 333.2688,144.1407"/>
    <line x1="332.8192" x2="125.1568" y1="142.6228" y2="48.8596"/>
    <polyline points="126.5997,48.2081 335.968,154.8866 133.9121,327.4586"/>
    <polyline points="132.4371,326.8835 338.0795,167.3709 49.3434,246.3602"/>
    <polyline points="48.7223,244.9039 339.139,179.9881 130.9682,326.293"/>
    <line x1="129.5055" x2="66.7197" y1="325.6872" y2="96.181"/>
    <polyline points="65.7825,97.4569 141.373,330.1007 276.9526,64.0108"/>
    <polyline points="275.6669,63.087 153.5682,333.5056 64.8586,98.7425"/>
    <line x1="63.9483" x2="166.0056" y1="100.0378" y2="335.8782"/>
    <polyline points="167.5729,336.1012 118.0489,52.3417 337.8729,206.8365"/>
    <line x1="338.0795" x2="326.8377" y1="205.2669" y2="246.3602"/>
    <polyline points="326.2014,247.8098 335.968,217.7512 329.2303,132.1404"/>
    <line x1="328.6552" x2="239.3013" y1="130.6654" y2="44.0755"/>
    <polyline points="237.809,43.547 323.5052,119.0985 330.8624,236.0373"/>
    <polyline points="330.3339,237.5297 328.6552,130.6654 51.2978,250.6887"/>
    <polyline points="51.9794,252.1176 323.5052,119.0985 122.2918,50.2077"/>
    <polyline points="123.7208,49.5261 328.6552,130.6654 136.8798,328.5623"/>
    <polyline points="138.3721,329.0908 323.5052,119.0985 253.8893,322.4301"/>
    <line x1="252.4603" x2="57.9626" y1="323.1116" y2="109.3615"/>
    <polyline points="57.1639,110.7283 263.6811,317.2456 263.6811,55.3922 263.6811,317.2456 42.0608,225.4474"/>
    <line x1="41.6591" x2="183.3418" y1="223.9161" y2="35.2124"/>
    <polyline points="181.7597,35.2704 45.3187,236.0373 194.4214,337.3674"/>
    <polyline points="196.0028,337.2928 49.9797,247.8098 339.0645,178.4067"/>
    <line x1="339.139" x2="245.2129" y1="179.9881" y2="46.3448"/>
    <polyline points="243.744,45.7543 338.0795,167.3709 326.8377,126.2776"/>
    <polyline points="327.4588,127.7339 339.139,179.9881 246.6756,325.6872"/>
    <polyline points="245.2129,326.293 339.139,192.6497 327.4588,244.9039"/>
    <polyline points="328.0647,243.4413 339.139,179.9881 48.1164,129.1965"/>
    <polyline points="47.5259,130.6654 338.0795,167.3709 248.1318,325.0661"/>
    <polyline points="249.5814,324.4297 335.968,154.8866 46.9508,132.1404"/>
    <polyline points="48.7223,127.7339 339.139,192.6497 48.1164,243.4413"/>
    <polyline points="47.5259,241.9724 338.0795,205.2669 132.4371,45.7543"/>
    <polyline points="130.9682,46.3448 339.139,192.6497 328.0647,129.1965"/>
    <polyline points="329.7899,133.6214 332.8192,230.015 46.3912,239.0164"/>
    <polyline points="46.9508,240.4974 335.968,217.7512 203.8933,35.966 86.9306,73.9694 49.9797,124.828 335.968,217.7512 126.5997,324.4297"/>
    <polyline points="128.0493,325.0661 338.0795,205.2669 49.3434,126.2776"/>
    <line x1="51.2978" x2="328.6552" y1="121.9491" y2="241.9724"/>
    <polyline points="329.2303,240.4974 335.968,154.8866 242.269,45.1792"/>
    <line x1="240.7881" x2="41.2734" y1="44.6196" y2="150.2571"/>
    <line x1="41.6591" x2="36.984" y1="148.7217" y2="181.5702"/>
    <polyline points="37.0421,179.9881 45.3187,136.6005 181.7597,337.3674"/>
    <polyline points="183.3418,337.4254 41.6591,148.7217 291.5811,296.5252"/>
    <polyline points="292.7295,295.4354 39.0266,161.1066 78.974,290.9579"/>
    <polyline points="80.0758,292.0948 37.4397,173.6684 339.2634,187.902"/>
    <polyline points="339.2385,189.485 39.0266,161.1066 297.2071,81.6799"/>
    <polyline points="298.2968,82.8283 41.6591,148.7217 339.1971,191.0676"/>
    <line x1="339.139" x2="246.6756" y1="192.6497" y2="46.9506"/>
    <polyline points="248.1318,47.5717 338.0795,205.2669 243.744,326.8835"/>
    <polyline points="242.269,327.4586 335.968,217.7512 249.5814,48.2081"/>
    <line x1="253.8893" x2="323.5052" y1="50.2077" y2="253.5393"/>
    <polyline points="324.2017,252.1176 323.5052,253.5393 51.9794,120.5202"/>
    <polyline points="52.6759,119.0985 317.4055,264.6348 236.3112,329.6036"/>
    <polyline points="237.809,329.0908 323.5052,253.5393 138.3721,43.547"/>
    <polyline points="136.8798,44.0755 328.6552,241.9724 239.3013,328.5623"/>
    <line x1="240.7881" x2="58.7756" y1="328.0182" y2="108.003"/>
    <polyline points="59.6028,106.6531 228.7461,331.9309 335.2773,151.7966"/>
    <polyline points="334.9077,150.2571 240.7881,328.0182 224.1523,333.136"/>
    <polyline points="222.6129,333.5056 228.7461,331.9309 40.9038,220.8412"/>
    <polyline points="40.5504,219.298 216.4191,334.8222 155.1114,38.7787"/>
    <polyline points="156.6582,38.4415 203.8933,336.6718 314.8817,268.658"/>
    <polyline points="315.737,267.3258 216.4191,334.8222 221.0697,333.8591"/>
    <polyline points="219.5229,334.1963 203.8933,336.6718 105.7514,313.11"/>
    <polyline points="104.4282,312.2408 191.2566,337.4668 271.7529,60.3969"/>
    <polyline points="270.4297,59.5278 203.8933,336.6718 40.2131,217.7512"/>
    <polyline points="39.2988,213.0908 166.0056,335.8782 312.2328,272.6"/>
    <polyline points="313.1295,271.2953 178.5978,337.2017 159.762,37.8156"/>
    <line x1="158.2085" x2="191.2566" y1="38.1204" y2="337.4668"/>
    <polyline points="189.6737,337.4917 37.4397,198.9694 296.1053,292.0948"/>
    <polyline points="297.2071,290.9579 39.0266,211.5312 184.9245,35.171"/>
    <line x1="186.5074" x2="37.4397" y1="35.1461" y2="198.9694"/>
    <polyline points="37.3154,197.3911 62.1686,269.9812 191.2566,35.171 39.0266,161.1066 153.5682,39.1322 228.7461,331.9309 274.3717,310.4611 166.0056,36.7596 129.5055,325.6872 339.139,192.6497 45.3187,136.6005 323.5052,119.0985 317.4055,108.003 240.7881,44.6196 332.8192,142.6228 293.8664,294.3337 37.4397,173.6684 69.6109,92.4131 96.6866,306.7392 118.0489,320.2961 302.5339,285.1037 62.1686,269.9812 177.0183,35.5438"/>
    <line x1="175.44" x2="69.6109" y1="35.668" y2="280.2247"/>
    <polyline points="68.634,278.9789 107.0837,58.6725 95.4306,66.8624"/>
    <polyline points="94.1847,67.8393 96.6866,65.8986 338.2697,203.6952"/>
    <polyline points="338.4435,202.1216 86.9306,73.9694 70.6008,281.4602"/>
    <polyline points="71.6035,282.6854 77.8843,82.8283 202.3179,35.8087"/>
    <polyline points="200.7411,35.668 69.6109,92.4131 303.5621,88.7379"/>
    <line x1="302.5339" x2="322.0678" y1="87.5341" y2="116.2773"/>
    <polyline points="321.327,114.8782 293.8664,78.3041 54.8541,257.7596"/>
    <polyline points="52.6759,253.5393 317.4055,108.003 139.8699,329.6036"/>
    <line x1="141.373" x2="164.4406" y1="330.1007" y2="36.9991"/>
    <line x1="166.0056" x2="312.2328" y1="36.7596" y2="100.0378"/>
    <polyline points="313.1295,101.3425 178.5978,35.4361 273.0669,311.3579"/>
    <line x1="274.3717" x2="147.435" y1="310.4611" y2="40.7069"/>
    <polyline points="145.9124,41.1406 284.457,302.8059 115.2585,318.7999"/>
    <polyline points="113.8752,318.03 274.3717,310.4611 333.7025,145.6633"/>
    <polyline points="334.1203,147.1903 263.6811,317.2456 112.5,317.2456"/>
    <polyline points="111.1331,316.4468 252.4603,323.1116 265.048,56.191"/>
    <polyline points="266.4064,57.004 240.7881,328.0182 41.2734,222.3806"/>
    <polyline points="43.3619,230.015 293.8664,294.3337 231.7867,331.0475"/>
    <polyline points="217.9726,334.5174 191.2566,337.4668 314.0125,269.9812"/>
    <polyline points="311.3225,273.8953 153.5682,333.5056 100.5142,309.5508"/>
    <polyline points="99.2285,308.627 141.373,330.1007 337.4104,162.669"/>
    <polyline points="337.1545,161.1066 153.5682,333.5056 213.3028,335.3829"/>
    <polyline points="205.4669,336.4981 96.6866,306.7392 170.7142,36.1397"/>
    <line x1="172.2878" x2="86.9306" y1="35.966" y2="298.6684"/>
    <polyline points="88.1127,299.7215 55.6095,259.1509 74.6879,86.341"/>
    <line x1="73.6472" x2="62.1686" y1="87.5341" y2="269.9812"/>
    <polyline points="63.0516,271.2953 178.5978,35.4361 336.5938,214.6474"/>
    <polyline points="336.8823,213.0908 166.0056,36.7596 101.8094,62.1767"/>
    <line x1="100.5142" x2="153.5682" y1="63.087" y2="39.1322"/>
    <polyline points="152.0288,39.5017 240.7881,328.0182 109.7747,315.6338"/>
    <polyline points="119.4558,321.0222 310.3986,275.1809 53.3872,117.6841"/>
    <polyline points="60.4441,105.312 216.4191,334.8222 335.6307,153.3398"/>
    <polyline points="336.5938,157.9904 178.5978,337.2017 273.0669,61.2799"/>
    <line x1="274.3717" x2="333.7025" y1="62.1767" y2="226.9745"/>
    <polyline points="333.2688,228.4971 284.457,69.8319 320.5716,113.4868"/>
    <polyline points="319.8016,112.1035 274.3717,62.1767 147.435,331.9309"/>
    <polyline points="145.9124,331.4972 284.457,69.8319 230.2687,41.1406"/>
    <line x1="228.7461" x2="40.9038" y1="40.7069" y2="151.7966"/>
    <polyline points="40.5504,153.3398 216.4191,37.8156 155.1114,333.8591"/>
    <polyline points="156.6582,334.1963 203.8933,35.966 219.5229,38.4415"/>
    <line x1="221.0697" x2="216.4191" y1="38.7787" y2="37.8156"/>
    <polyline points="217.9726,38.1204 191.2566,35.171 271.7529,312.2408"/>
    <polyline points="270.4297,313.11 203.8933,35.966 314.8817,103.9798"/>
    <line x1="314.0125" x2="191.2566" y1="102.6566" y2="35.171"/>
    <polyline points="192.8393,35.2124 41.6591,148.7217 84.6,76.1126"/>
    <polyline points="85.7597,75.0349 45.3187,136.6005 299.3745,83.988"/>
    <polyline points="296.1053,80.543 37.4397,173.6684 186.5074,337.4917"/>
    <polyline points="184.9245,337.4668 39.0266,161.1066 36.9426,183.1528"/>
    <polyline points="36.9177,184.7358 37.4397,173.6684 189.6737,35.1461"/>
    <polyline points="188.0906,35.1378 36.9094,186.3189 81.1894,293.2201"/>
    <polyline points="82.3147,294.3337 37.4397,198.9694 293.8664,78.3041 332.8192,230.015 240.7881,328.0182 317.4055,264.6348 323.5052,253.5393 45.3187,236.0373 339.139,179.9881 129.5055,46.9506 166.0056,335.8782 274.3717,62.1767 228.7461,40.7069 153.5682,333.5056 39.0266,211.5312 191.2566,337.4668 62.1686,102.6566 302.5339,87.5341 118.0489,52.3417 96.6866,65.8986 69.6109,280.2247 37.4397,198.9694 36.9177,187.902"/>
    <polyline points="36.9426,189.485 39.0266,211.5312 339.2385,183.1528"/>
    <polyline points="339.2634,184.7358 37.4397,198.9694 80.0758,80.543"/>
    <polyline points="81.1894,79.4177 36.9094,186.3189 188.0906,337.5"/>
    <polyline points="192.8393,337.4254 41.6591,223.9161 77.8843,82.8283 284.457,302.8059 55.6095,113.4868 178.5978,337.2017 216.4191,334.8222 107.0837,313.9653 338.0795,167.3709 328.6552,241.9724 252.4603,49.5261 41.6591,148.7217 77.8843,289.8095 284.457,69.8319 55.6095,259.1509 178.5978,35.4361 216.4191,37.8156 107.0837,58.6725 338.0795,205.2669 328.6552,130.6654 252.4603,323.1116 41.6591,223.9161 36.984,191.0676"/>
    <polyline points="37.0421,192.6497 45.3187,236.0373 85.7597,297.6029"/>
    <polyline points="84.6,296.5252 41.6591,223.9161 339.1971,181.5702"/>
    <polyline points="338.4435,170.5162 86.9306,298.6684 92.9492,303.8087"/>
    <polyline points="91.7241,302.8059 77.8843,289.8095 202.3179,336.8291"/>
    <polyline points="200.7411,336.9698 69.6109,280.2247 90.5095,301.7904"/>
    <polyline points="89.3057,300.7622 62.1686,269.9812 199.1628,337.094"/>
    <polyline points="197.5833,337.2017 55.6095,259.1509 301.4932,286.2968"/>
    <polyline points="300.44,287.4788 49.9797,247.8098 289.2505,73.9694"/>
    <polyline points="290.4214,75.0349 45.3187,236.0373 299.3745,288.6498"/>
    <polyline points="298.2968,289.8095 41.6591,223.9161 291.5811,76.1126"/>
    <line x1="292.7295" x2="39.0266" y1="77.2024" y2="211.5312"/>
    <polyline points="38.3082,206.8365 118.0489,320.2961 67.6703,94.9149"/>
    <polyline points="68.634,93.6589 107.0837,313.9653 38.1016,205.2669"/>
    <polyline points="37.9114,203.6952 96.6866,306.7392 338.2697,168.9426"/>
    <line x1="338.0795" x2="128.0493" y1="167.3709" y2="47.5717"/>
    <line x1="129.5055" x2="38.5313" y1="46.9506" y2="164.2339"/>
    <line x1="38.3082" x2="118.0489" y1="165.8013" y2="52.3417"/>
    <line x1="116.6498" x2="293.8664" y1="53.0825" y2="78.3041"/>
    <line x1="294.9917" x2="36.9094" y1="79.4177" y2="186.3189"/>
    <polyline points="37.1166,194.2311 49.9797,247.8098 335.968,154.8866 203.8933,336.6718 86.9306,298.6684 49.9797,247.8098 180.1783,35.345"/>
    <line x1="178.5978" x2="103.1142" y1="35.4361" y2="61.2799"/>
    <polyline points="104.4282,60.3969 191.2566,35.171 158.2085,334.5174"/>
    <polyline points="159.762,334.8222 178.5978,35.4361 39.5873,157.9904"/>
    <polyline points="39.2988,159.547 166.0056,36.7596 161.3187,335.1107"/>
    <polyline points="162.8783,335.3829 153.5682,39.1322 275.6669,309.5508"/>
    <polyline points="276.9526,308.627 141.373,42.5371 99.2285,64.0108"/>
    <polyline points="97.9526,64.9481 129.5055,46.9506 337.6498,208.4039"/>
    <line x1="337.4104" x2="141.373" y1="209.9688" y2="42.5371"/>
    <polyline points="139.8699,43.0342 317.4055,264.6348 120.8701,321.7336"/>
    <polyline points="125.1568,323.7782 332.8192,230.015 135.393,44.6196"/>
    <line x1="133.9121" x2="335.968" y1="45.1792" y2="217.7512"/>
    <polyline points="336.289,216.201 191.2566,35.171 39.8921,156.4368"/>
    <polyline points="40.2131,154.8866 203.8933,35.966 61.2994,268.658"/>
    <polyline points="60.4441,267.3258 216.4191,37.8156 335.6307,219.298"/>
    <polyline points="335.2773,220.8412 228.7461,40.7069 222.6129,39.1322"/>
    <polyline points="224.1523,39.5017 240.7881,44.6196 266.4064,315.6338"/>
    <polyline points="267.7563,314.8066 228.7461,40.7069 59.6028,265.9847"/>
    <polyline points="58.7756,264.6348 240.7881,44.6196 334.9077,222.3806"/>
    <polyline points="334.522,223.9161 252.4603,49.5261 57.9626,263.2763"/>
    <polyline points="57.1639,261.9094 263.6811,55.3922 319.0172,110.7283"/>
    <polyline points="316.5783,106.6531 228.7461,40.7069 108.4248,57.8312"/>
    <polyline points="109.7747,57.004 240.7881,44.6196 152.0288,333.136"/>
    <line x1="153.5682" x2="162.8783" y1="333.5056" y2="37.2549"/>
    <polyline points="161.3187,37.5271 166.0056,335.8782 336.8823,159.547"/>
    <polyline points="334.522,148.7217 252.4603,323.1116 318.2185,263.2763"/>
    <polyline points="304.5776,282.6854 77.8843,289.8095 173.8632,35.8087"/>
    <line x1="203.8933" x2="105.7514" y1="35.966" y2="59.5278"/>
    <line x1="107.0837" x2="307.5471" y1="58.6725" y2="93.6589"/>
    <polyline points="306.5702,92.4131 96.6866,65.8986 205.4669,36.1397"/>
    <polyline points="207.0386,36.3299 107.0837,58.6725 280.7505,305.7754"/>
    <polyline points="279.4945,306.7392 118.0489,52.3417 208.6082,36.5365"/>
    <polyline points="210.1755,36.7596 129.5055,46.9506 309.4614,96.181"/>
    <polyline points="308.5108,94.9149 118.0489,52.3417 67.6703,277.7229"/>
    <polyline points="66.7197,276.4568 129.5055,46.9506 278.2285,307.6897"/>
    <polyline points="281.9964,304.7985 96.6866,65.8986 170.7142,336.4981"/>
    <polyline points="169.1425,336.3079 107.0837,58.6725 38.1016,167.3709"/>
    <line x1="37.9114" x2="96.6866" y1="168.9426" y2="65.8986"/>
    <polyline points="88.1127,72.9163 55.6095,113.4868 288.0684,299.7215"/>
    <polyline points="286.8754,300.7622 62.1686,102.6566 37.3154,175.2467"/>
    <line x1="37.4397" x2="82.3147" y1="173.6684" y2="78.3041"/>
    <line x1="83.4516" x2="39.0266" y1="77.2024" y2="161.1066"/>
    <polyline points="38.7707,162.669 141.373,42.5371 164.4406,335.6387"/>
    <polyline points="172.2878,336.6718 86.9306,73.9694 37.7376,170.5162"/>
    <polyline points="37.5804,172.0915 77.8843,82.8283 173.8632,336.8291"/>
    <polyline points="175.44,336.9698 69.6109,92.4131 285.6716,301.7904"/>
    <polyline points="269.0974,313.9653 216.4191,37.8156 315.737,105.312"/>
    <polyline points="311.3225,98.7425 153.5682,39.1322 64.8586,273.8953"/>
    <polyline points="63.9483,272.6 166.0056,36.7596 214.8624,37.5271"/>
    <polyline points="213.3028,37.2549 153.5682,39.1322 337.1545,211.5312"/>
    <polyline points="338.8657,197.3911 62.1686,102.6566 177.0183,337.094"/>
    <line x1="203.8933" x2="61.2994" y1="336.6718" y2="103.9798"/>
    <line x1="75.7411" x2="49.9797" y1="85.159" y2="247.8098"/>
    <polyline points="50.6312,249.2527 332.8192,142.6228 329.7899,239.0164"/>
    <polyline points="334.1203,225.4474 263.6811,55.3922 112.5,55.3922"/>
    <polyline points="111.1331,56.191 252.4603,49.5261 265.048,316.4468"/>
    <polyline points="258.1322,320.2961 302.5339,87.5341 43.8274,141.1096"/>
    <line x1="44.3088" x2="310.3986" y1="139.6014" y2="97.4569"/>
    <line x1="305.5803" x2="86.9306" y1="91.1775" y2="73.9694"/>
    <polyline points="78.974,81.6799 39.0266,211.5312 83.4516,295.4354"/>
    <polyline points="65.7825,275.1809 141.373,42.5371 211.7405,36.9991"/>
    <polyline points="231.7867,41.5903 293.8664,78.3041 144.3944,331.0475"/>
    <polyline points="142.8812,330.582 302.5339,87.5341 233.2999,42.0558"/>
    <polyline points="234.8081,42.5371 310.3986,97.4569 256.7253,321.0222"/>
    <polyline points="255.311,321.7336 317.4055,108.003 236.3112,43.0342"/>
    <polyline points="255.311,50.9042 317.4055,264.6348 44.8059,234.5395"/>
    <line x1="45.3187" x2="76.8066" y1="236.0373" y2="83.988"/>
    <line x1="77.8843" x2="304.5776" y1="82.8283" y2="89.9524"/>
    <polyline points="288.0684,72.9163 55.6095,259.1509 37.2078,195.8116"/>
    <polyline points="45.8472,237.5297 328.6552,241.9724 330.3339,135.1081"/>
    <polygon points="339.8622,334.5472 340.4528,333.3661 340.4528,332.185 339.8622,331.0039 338.0906,330.4134 335.7283,330.4134 333.9567,331.0039 333.3661,332.185 333.3661,333.3661 333.9567,334.5472 339.2717,336.3189 340.4528,337.5 341.0433,338.6811 341.0433,340.4528 340.4528,341.6339 339.8622,342.2244 338.0906,342.815 335.7283,342.815 333.9567,342.2244 332.7756,340.4528 332.7756,338.6811 333.3661,337.5 334.5472,336.3189"/>
    <line x1="328.6417" x2="318.0118" y1="335.7283" y2="335.7283"/>
    <line x1="318.0118" x2="328.6417" y1="339.2717" y2="339.2717"/>
    <line x1="313.878" x2="307.3819" y1="342.815" y2="334.5472"/>
    <line x1="313.878" x2="307.3819" y1="334.5472" y2="342.815"/>
    <polyline points="251.0243,323.7782 332.8192,142.6228 135.393,328.0182"/>
    <polygon points="88.878,335.7283 88.878,337.5 89.4685,340.4528 90.6496,342.2244 92.4213,342.815 93.6024,342.815 95.374,342.2244 96.5551,340.4528 97.1457,337.5 97.1457,335.7283 96.5551,332.7756 95.374,331.0039 93.6024,330.4134 92.4213,330.4134 90.6496,331.0039 89.4685,332.7756"/>
    <polygon points="85.3346,335.7283 84.7441,332.7756 83.563,331.0039 81.7913,330.4134 80.6102,330.4134 78.8386,331.0039 77.6575,332.7756 77.0669,335.7283 77.0669,337.5 77.6575,340.4528 78.8386,342.2244 80.6102,342.815 81.7913,342.815 83.563,342.2244 84.7441,340.4528 85.3346,337.5"/>
    <polyline points="72.9331,332.185 72.3425,331.0039 70.5709,330.4134 69.3898,330.4134 67.6181,331.0039 66.437,332.7756 65.8465,335.7283 65.8465,338.6811 66.437,341.0433 67.6181,342.2244 69.3898,342.815 71.752,342.2244 72.9331,341.0433 73.5236,339.2717 72.9331,336.9094 71.752,335.7283 69.9803,335.1378 67.6181,335.7283 66.437,336.9094 65.8465,338.6811"/>
    <line x1="61.122" x2="50.4921" y1="339.2717" y2="339.2717"/>
    <line x1="50.4921" x2="61.122" y1="335.7283" y2="335.7283"/>
    <polyline points="45.7677,342.815 45.7677,336.9094 45.1772,335.1378 43.9961,334.5472 42.2244,334.5472 41.0433,335.1378 39.2717,336.9094"/>
    <line x1="39.2717" x2="39.2717" y1="334.5472" y2="342.815"/>
  </g>
</svg>
